<svg width="664" height="34" viewBox="0 0 664 34" fill="none" xmlns="http://www.w3.org/2000/svg">
<path d="M12.0544 3.12692V16.6881H15.068V3.12692H12.0544ZM27.1224 18.1949C27.1224 13.1773 24.3951 8.79252 20.3569 6.45698L18.8501 9.06372C21.9993 10.8869 24.1239 14.2923 24.1239 18.1949H27.1375H27.1224ZM13.5612 31.7561C21.05 31.7561 27.1224 25.6837 27.1224 18.1949H24.1088C24.1088 24.0263 19.3925 28.7425 13.5612 28.7425V31.7561ZM0 18.1949C0 25.6837 6.07241 31.7561 13.5612 31.7561V28.7425C7.72989 28.7425 3.0136 24.0263 3.0136 18.1949H0ZM6.85595 6.41173C2.77251 8.74728 0 13.1471 0 18.1949H3.0136C3.0136 14.2772 5.15326 10.8417 8.34768 9.01847L6.85595 6.39665V6.41173ZM12.0544 16.6881V18.1949H15.068V16.6881H12.0544ZM15.068 3.12692V1.62012H12.0544V3.12692H15.068ZM20.3569 6.45698L19.046 5.70358L17.5392 8.31032L18.835 9.06372L20.3418 6.45698H20.3569ZM8.34768 9.03355L9.6586 8.29524L8.16686 5.67342L6.85595 6.42682L8.34768 9.04864V9.03355Z" fill="white"/>
<path d="M101.457 8.64987V26.7315H104.471V8.64987H101.457ZM108.524 13.0949L117.565 16.1085L118.514 13.2456L109.473 10.232L108.524 13.0949ZM108.524 19.1221L117.565 22.1357L118.514 19.2728L109.473 16.2592L108.524 19.1221ZM108.524 25.1493L117.565 28.163L118.514 25.3L109.473 22.2864L108.524 25.1493ZM102.964 7.14307C97.8557 7.14307 93.8476 8.31837 91.0901 10.232C88.3176 12.1456 86.7656 14.8428 86.7656 17.6907C86.7656 20.5385 88.3176 23.2206 91.0901 25.1493C93.8476 27.063 97.8557 28.2383 102.964 28.2383V25.2247C98.2776 25.2247 94.9325 24.1398 92.8079 22.6631C90.6833 21.1865 89.7792 19.3632 89.7792 17.6907C89.7792 16.0181 90.6833 14.1798 92.8079 12.7182C94.9476 11.2416 98.2927 10.1567 102.964 10.1567V7.14307ZM117.565 16.1085L118.996 16.5907L119.945 13.7278L118.514 13.2456L117.565 16.1085ZM109.473 10.232L108.042 9.74983L107.092 12.6128L108.524 13.0949L109.473 10.232ZM117.565 22.1357L118.996 22.6179L119.945 19.755L118.514 19.2728L117.565 22.1357ZM109.473 16.2592L108.042 15.777L107.092 18.64L108.524 19.1221L109.473 16.2592ZM117.565 28.163L118.996 28.6451L119.945 25.7822L118.514 25.3L117.565 28.163ZM109.473 22.2864L108.042 21.8042L107.092 24.6672L108.524 25.1493L109.473 22.2864ZM102.964 26.7315V28.2383H104.471V26.7315H102.964ZM102.964 8.64987H104.471V7.14307H102.964V8.64987Z" fill="white"/>
<path d="M179.581 27.6791H193.142V24.6655H179.581V27.6791ZM193.142 26.1723V27.6791H206.704V24.6655H193.142V26.1723ZM182.595 12.6111C182.595 15.3534 182.565 16.4384 182.324 17.1767C182.128 17.7945 181.766 18.2164 180.47 19.5273L182.595 21.6519C183.8 20.4464 184.735 19.5273 185.187 18.0958C185.608 16.8 185.608 15.1425 185.608 12.6111H182.595ZM193.142 0.556641C189.812 0.556641 187.1 1.73196 185.247 3.96203C183.424 6.14689 182.595 9.17554 182.595 12.6111H185.608C185.608 9.61252 186.347 7.36735 187.567 5.89068C188.758 4.45922 190.566 3.57024 193.142 3.57024V0.556641ZM203.69 12.6111C203.69 9.16048 202.846 6.14689 201.038 3.96203C199.185 1.73196 196.472 0.556641 193.142 0.556641V3.57024C195.719 3.57024 197.527 4.44416 198.718 5.89068C199.953 7.36735 200.676 9.62759 200.676 12.6111H203.69ZM203.69 12.6412V12.6111H200.676V12.6412H203.69ZM204.383 17.3273C203.856 16.0164 203.69 14.8411 203.69 12.6412H200.676C200.676 15.0069 200.842 16.6192 201.581 18.4574L204.368 17.3273H204.383ZM205.83 19.5273C205.197 18.8945 204.73 18.1712 204.383 17.3273L201.596 18.4574C202.078 19.6478 202.771 20.7176 203.705 21.6519L205.83 19.5273ZM206.704 26.1723L208.21 26.112C208.21 26.112 208.21 26.0668 208.21 26.0517C208.21 26.0216 208.21 25.9613 208.21 25.9011C208.21 25.7805 208.195 25.5997 208.165 25.3887C208.12 24.9668 208.045 24.3792 207.894 23.7313C207.623 22.4806 207.05 20.7478 205.83 19.5122L203.705 21.6368C204.308 22.2395 204.715 23.2792 204.956 24.3792C205.076 24.8915 205.137 25.3586 205.167 25.7052C205.182 25.8709 205.197 26.0065 205.197 26.0969C205.197 26.1421 205.197 26.1723 205.197 26.1873V26.2024C205.197 26.2024 205.197 26.2024 206.704 26.1572V26.1723ZM180.47 19.5273C179.25 20.7478 178.677 22.4957 178.406 23.7463C178.255 24.3943 178.18 24.9819 178.135 25.4038C178.105 25.6147 178.105 25.7956 178.09 25.9161C178.09 25.9764 178.09 26.0216 178.09 26.0668C178.09 26.0818 178.09 26.097 178.09 26.112C178.09 26.112 178.09 26.1271 179.596 26.1873C180.601 26.2175 181.103 26.2325 181.103 26.2325C181.103 26.2325 181.103 26.1572 181.103 26.112C181.103 26.0216 181.118 25.886 181.133 25.7202C181.163 25.3737 181.239 24.9066 181.344 24.3943C181.585 23.2943 181.992 22.2546 182.595 21.6519L180.47 19.5273ZM192.088 30.2557C191.801 29.9694 191.651 29.5927 191.651 29.1859H188.637C188.637 30.3762 189.119 31.5365 189.963 32.3803L192.088 30.2557ZM193.142 30.6927C192.751 30.6927 192.359 30.527 192.073 30.2557L189.948 32.3803C190.792 33.2241 191.952 33.7063 193.142 33.7063V30.6927ZM194.212 30.2557C193.926 30.542 193.549 30.6927 193.142 30.6927V33.7063C194.348 33.7063 195.493 33.2241 196.337 32.3803L194.212 30.2557ZM194.649 29.1859C194.649 29.5776 194.499 29.9694 194.212 30.2557L196.337 32.3803C197.181 31.5365 197.663 30.3762 197.663 29.1859H194.649ZM206.704 26.1723V27.6791H208.271L208.21 26.112L206.704 26.1723ZM179.581 26.1723L178.074 26.112L178.014 27.6791H179.566V26.1723H179.581Z" fill="white"/>
<path d="M288.715 22.602V10.5476H285.702V22.602H288.715ZM282.688 22.602V7.53401H279.674V22.602H282.688ZM276.661 22.602V13.5612H273.647V22.602H276.661ZM269.127 28.6292V1.5068H266.113V28.6292H269.127ZM294.743 27.1224H267.62V30.136H294.743V27.1224ZM293.236 1.5068V28.6292H296.249V1.5068H293.236ZM267.62 3.0136H294.743V0H267.62V3.0136ZM267.62 28.6292H266.113V30.136H267.62V28.6292ZM294.743 28.6292V30.136H296.249V28.6292H294.743ZM294.743 1.5068H296.249V0H294.743V1.5068ZM267.62 1.5068V0H266.113V1.5068H267.62Z" fill="white"/>
<path d="M381.275 24.4029H360.18V16.8689H381.275V24.4029ZM362.967 9.33489H378.472L380.099 14.021H361.34L362.967 9.33489ZM380.371 6.32129H361.084C359.577 9.72666 358.387 13.3581 357.166 16.8689C357.166 21.3893 357.166 25.9097 357.166 30.4301H361.686V27.4165H379.768V30.4301H384.288C384.288 25.9097 384.288 21.3893 384.288 16.8689C383.068 13.3581 381.878 9.72666 380.371 6.32129Z" fill="white"/>
<path d="M468.955 10.2593V28.1752L474.982 26.1712V8.2553L468.955 10.2593ZM456.901 8.2553L450.873 10.2593V28.1752L456.901 26.1712V8.2553ZM459.914 26.1712L465.941 28.1752V10.2593L459.914 8.2553V26.1712ZM458.407 4.65403C458.407 4.65403 464.646 6.65809 467.448 7.59231L477.996 4.05127V8.2553C477.996 14.9455 477.996 21.6357 477.996 28.3108C474.515 29.5464 470.974 30.6464 467.448 31.7765C467.448 31.7765 461.044 29.7272 458.407 28.8382C454.912 29.9984 447.86 32.5299 447.86 32.5299V28.1752C447.86 21.485 447.86 14.7948 447.86 8.11965C451.356 6.89914 454.882 5.78413 458.407 4.65403Z" fill="white"/>
<path fill-rule="evenodd" clip-rule="evenodd" d="M552.167 19.4684V16.6506L554.428 15.2945L556.688 16.6506V19.4684L554.428 20.8245L552.167 19.4684ZM552.921 12.6877L550.57 14.1041L549.199 13.3056L547.707 7.7304L545.869 6.66054L544.799 8.49889L545.507 11.1659L543.443 9.97552L541.379 10.533L541.936 12.5973L544.001 13.7877L541.333 14.4959L540.264 16.3493L542.102 17.4191L547.677 15.9274L549.139 16.7712V19.3779L547.677 20.2218L542.102 18.73L540.264 19.7999L541.333 21.6382L544.001 22.3464L541.936 23.5367L541.379 25.601L543.443 26.1586L545.507 24.9682L544.799 27.6352L545.869 29.4886L547.707 28.4188L549.199 22.8436L550.57 22.045L552.921 23.4614V24.9983L548.837 29.0818V31.2063H550.962L552.906 29.2626V31.6584L554.413 33.1652L555.919 31.6584V29.2626L557.863 31.2063H559.988V29.0818L555.904 24.9983V23.4614L558.255 22.045L559.626 22.8436L561.118 28.4188L562.956 29.4886L564.026 27.6352L563.318 24.9682L565.382 26.1586L567.446 25.601L566.889 23.5367L564.825 22.3464L567.491 21.6382L568.561 19.7999L566.723 18.73L561.148 20.2218L559.686 19.3779V16.7712L561.148 15.9274L566.723 17.4191L568.561 16.3493L567.491 14.4959L564.825 13.7877L566.889 12.5973L567.446 10.533L565.382 9.97552L563.318 11.1659L564.026 8.49889L562.956 6.66054L561.118 7.7304L559.626 13.3056L558.255 14.1041L555.904 12.7028V11.1659L559.988 7.08249V4.95785H557.863L555.919 6.90168V4.50583L554.413 2.99902L552.906 4.50583V6.90168L550.962 4.95785H548.837V7.08249L552.921 11.1659V12.7028V12.6877Z" fill="white"/>
<path d="M632.058 16.7226L645.499 31.2482L647.714 29.199L634.273 14.6734L632.058 16.7226ZM633.384 3.64361C629.497 6.83803 628.879 12.6392 631.968 16.6171L634.349 14.7638C632.239 12.0666 632.676 8.1038 635.298 5.96414L633.384 3.64361ZM646.132 5.09017C643.013 1.08208 637.302 0.419051 633.399 3.64361L635.313 5.96414C637.905 3.83955 641.672 4.2614 643.751 6.94351L646.132 5.09017ZM647.849 7.50102L646.177 5.13533L643.721 6.88327L645.393 9.24896L647.849 7.50102ZM646.991 5.15041L645.363 7.5161L647.849 9.21879L649.477 6.8531L646.991 5.15041ZM659.783 3.64361C655.881 0.419051 650.155 1.08208 647.051 5.09017L649.432 6.94351C651.511 4.2614 655.293 3.83955 657.87 5.96414L659.783 3.64361ZM661.2 16.6171C664.289 12.6392 663.671 6.83803 659.798 3.64361L657.885 5.96414C660.492 8.11887 660.929 12.0666 658.834 14.7638L661.215 16.6171H661.2ZM647.729 31.2482L661.124 16.7076L658.909 14.6734L645.514 29.199L647.729 31.2482ZM633.173 15.698L631.983 16.6171L632.028 16.6624L632.073 16.7076L633.173 15.6829V15.698ZM644.941 6.0093L646.177 5.13533V5.10525L646.132 5.07509L644.941 5.99421V6.0093ZM646.614 8.37499L645.378 9.24896L646.629 11.0119L647.849 9.23387L646.614 8.37499ZM648.241 6.0093L647.051 5.09017L647.021 5.12033L646.991 5.15041L648.226 6.0093H648.241ZM660.009 15.698L661.109 16.7226L661.155 16.6775L661.2 16.6322L660.009 15.7131V15.698ZM646.614 30.2236L645.514 31.2482L646.614 32.4386L647.714 31.2331L646.614 30.2085V30.2236Z" fill="white"/>
</svg>
