<svg width="310" height="19" viewBox="0 0 310 19" fill="none" xmlns="http://www.w3.org/2000/svg">
<path d="M8.47576 5.18808V14.3701H9.88839V5.18808H8.47576ZM1.41263 14.3701V1.65651H0V14.3701H1.41263ZM4.55572 10.9586L0.317841 13.7839L1.10185 14.9564L5.33973 12.1311L4.55572 10.9586ZM9.57761 13.7839L5.33973 10.9586L4.55572 12.1311L8.7936 14.9564L9.57761 13.7839ZM0.706313 2.36282H9.18207V0.950195H0.706313V2.36282ZM0.706313 14.3701H0V15.6909L1.09479 14.9564L0.706313 14.3701ZM4.94419 11.5449L5.33267 10.9586L4.94419 10.6973L4.54866 10.9586L4.94419 11.5449ZM9.18207 14.3701L8.78654 14.9564L9.88839 15.6909V14.3701H9.18207ZM9.18207 2.36282H9.88839V0.950195H9.18207V2.36282ZM0.706313 1.65651V0.950195H0V1.65651H0.706313Z" fill="white"/>
<path d="M53.982 5.46268H46.2125V6.8753H53.982V5.46268ZM53.2474 11.311L54.66 6.36678L53.3039 5.97827L51.8913 10.9225L53.2474 11.311ZM43.7404 11.8195H52.5694V10.4069H43.7404V11.8195ZM41.2684 4.05005H39.8557V5.46268H41.2684V4.05005ZM44.7646 13.0061L41.9393 4.53034L40.5973 4.97532L43.4226 13.4511L44.7646 13.0061ZM52.5694 12.5258H44.0936V13.9384H52.5694V12.5258ZM44.7999 16.0574H46.2125C46.2125 15.2804 45.5769 14.6447 44.7999 14.6447V16.0574ZM44.7999 16.0574V14.6447C44.0159 14.6447 43.3873 15.2804 43.3873 16.0574H44.7999ZM44.7999 16.0574H43.3873C43.3873 16.8414 44.0159 17.47 44.7999 17.47V16.0574ZM44.7999 16.0574V17.47C45.5769 17.47 46.2125 16.8414 46.2125 16.0574H44.7999ZM51.8631 16.0574H53.2757C53.2757 15.2804 52.64 14.6447 51.8631 14.6447V16.0574ZM51.8631 16.0574V14.6447C51.079 14.6447 50.4504 15.2804 50.4504 16.0574H51.8631ZM51.8631 16.0574H50.4504C50.4504 16.8414 51.079 17.47 51.8631 17.47V16.0574ZM51.8631 16.0574V17.47C52.64 17.47 53.2757 16.8414 53.2757 16.0574H51.8631ZM46.2125 5.46268H45.5062V6.8753H46.2125V5.46268ZM53.982 6.16899L54.66 6.36678L54.9143 5.46268H53.9749V6.16899H53.982ZM52.5694 11.1132V11.8195H53.0991L53.2474 11.311L52.5694 11.1132ZM43.7404 10.4069C43.352 10.4069 43.0341 10.7247 43.0341 11.1132C43.0341 11.5017 43.352 11.8195 43.7404 11.8195V10.4069ZM39.8557 4.05005H39.1494V5.46268H39.8557V4.05005ZM41.2684 4.75636L41.9393 4.53034L41.7769 4.05005H41.2684V4.75636ZM44.0936 13.2321L43.4226 13.4581L43.5851 13.9384H44.0936V13.2321ZM52.5694 13.9384H53.2757V12.5258H52.5694V13.9384Z" fill="white"/>
<path d="M82.0564 9.48333H96.1827V8.0707H82.0564V9.48333ZM84.8817 8.77701C84.8817 11.7647 85.821 13.693 86.8099 14.8796C87.2972 15.4658 87.7917 15.8684 88.1731 16.1156C88.3638 16.2428 88.5262 16.3346 88.6393 16.3911C88.6958 16.4193 88.7452 16.4476 88.7805 16.4617C88.8017 16.4688 88.8158 16.4758 88.8229 16.4829C88.8229 16.4829 88.83 16.4829 88.837 16.4829C88.837 16.4829 88.9241 16.2639 89.0984 15.826C89.2726 15.3881 89.3597 15.1691 89.3597 15.1691C89.3597 15.1691 89.3597 15.1691 89.3456 15.1691C89.3314 15.1621 89.3032 15.148 89.2679 15.1268C89.1902 15.0914 89.0772 15.0208 88.9359 14.929C88.6534 14.7383 88.2649 14.4275 87.8694 13.9614C87.0924 13.029 86.266 11.4257 86.266 8.76287H84.8534L84.8817 8.77701ZM89.1195 1.71388C88.9453 1.27597 88.8582 1.05702 88.8582 1.05702C88.8582 1.05702 88.8511 1.05702 88.8441 1.05702C88.8299 1.05702 88.8158 1.07112 88.8017 1.07818C88.7664 1.09231 88.7169 1.12059 88.6604 1.14884C88.5404 1.21241 88.3779 1.29718 88.1943 1.42431C87.8129 1.67858 87.3185 2.07412 86.8311 2.66036C85.8423 3.85403 84.9029 5.77517 84.9029 8.76287H86.3155C86.3155 6.10007 87.1419 4.48969 87.9188 3.56442C88.3143 3.09119 88.7028 2.78748 88.9853 2.59677C89.1266 2.50495 89.2396 2.44136 89.3173 2.39898C89.3526 2.3778 89.3809 2.36367 89.395 2.35661C89.4021 2.35661 89.4091 2.35661 89.4091 2.35661C89.4091 2.35661 89.322 2.13766 89.1478 1.69974L89.1195 1.71388ZM91.9448 8.77701C91.9448 11.4398 91.1184 13.0502 90.3415 13.9755C89.9459 14.4487 89.5575 14.7524 89.2749 14.9431C89.1337 15.0349 89.0207 15.0985 88.943 15.1409C88.9076 15.1621 88.8794 15.1762 88.8653 15.1833C88.8582 15.1833 88.8511 15.1833 88.8511 15.1833C88.8511 15.1833 88.8511 15.1833 89.1125 15.8401C89.2867 16.2781 89.3738 16.497 89.3738 16.497C89.3738 16.497 89.3809 16.497 89.3879 16.497C89.4021 16.497 89.4162 16.4829 89.4303 16.4758C89.4656 16.4617 89.5151 16.4334 89.5716 16.4052C89.6916 16.3416 89.8541 16.2569 90.0377 16.1297C90.4192 15.8754 90.9136 15.4799 91.4009 14.8937C92.3898 13.7 93.3292 11.7789 93.3292 8.79115H91.9165L91.9448 8.77701ZM89.1195 1.71388C88.9453 2.1518 88.8582 2.37075 88.8582 2.37075C88.8582 2.37075 88.8582 2.37075 88.8723 2.37075C88.8865 2.37781 88.9147 2.39194 88.95 2.41312C89.0277 2.44844 89.1407 2.51909 89.282 2.61091C89.5645 2.80162 89.953 3.11239 90.3485 3.57856C91.1255 4.51089 91.9519 6.11421 91.9519 8.77701H93.3645C93.3645 5.78931 92.4251 3.86106 91.4362 2.67446C90.9489 2.08822 90.4545 1.68562 90.0731 1.43841C89.8824 1.31127 89.7199 1.21944 89.6069 1.16294C89.5504 1.13468 89.5009 1.10645 89.4656 1.09232C89.4444 1.08526 89.4303 1.07822 89.4233 1.07116C89.4233 1.07116 89.4162 1.07116 89.4091 1.07116C89.4091 1.07116 89.4091 1.07115 89.1478 1.72802L89.1195 1.71388ZM88.4132 1.71388V15.8472H89.8259V1.71388H88.4132ZM89.1195 2.42019C92.6299 2.42019 95.4764 5.26664 95.4764 8.77701H96.889C96.889 4.48969 93.4069 1.00757 89.1195 1.00757V2.42019ZM82.7627 8.77701C82.7627 5.26664 85.6092 2.42019 89.1195 2.42019V1.00757C84.8252 1.00757 81.3501 4.48969 81.3501 8.77701H82.7627ZM89.1195 15.1338C85.6092 15.1338 82.7627 12.2874 82.7627 8.77701H81.3501C81.3501 13.0714 84.8252 16.5465 89.1195 16.5465V15.1338ZM95.4764 8.77701C95.4764 12.2874 92.6299 15.1338 89.1195 15.1338V16.5465C93.4069 16.5465 96.889 13.0714 96.889 8.77701H95.4764ZM89.1195 15.8472L88.8582 16.5041L89.1195 16.61L89.3809 16.5041L89.1195 15.8472Z" fill="white"/>
<path d="M136.744 9.88838V2.11894H135.332V9.88838H136.744ZM132.507 9.88838C133.121 9.88838 133.933 10.0438 134.633 10.2203C134.972 10.3051 135.268 10.3899 135.487 10.4534C135.593 10.4817 135.678 10.5099 135.734 10.5311C135.763 10.5382 135.784 10.5453 135.798 10.5523C135.805 10.5523 135.812 10.5523 135.812 10.5523C135.812 10.5523 135.812 10.5523 136.038 9.88131L136.264 9.21031C136.264 9.21031 136.25 9.21031 136.243 9.21031C136.229 9.21031 136.201 9.19621 136.165 9.18914C136.102 9.16795 136.01 9.1397 135.897 9.10439C135.671 9.03376 135.346 8.94195 134.986 8.85013C134.265 8.67355 133.319 8.47576 132.521 8.47576V9.88838H132.507ZM128.269 10.5947C129.074 10.5947 129.872 10.3898 130.557 10.2203C131.278 10.0367 131.899 9.88838 132.507 9.88838V8.47576C131.694 8.47576 130.903 8.68061 130.218 8.85013C129.498 9.03377 128.876 9.18207 128.269 9.18207V10.5947ZM124.737 9.18207L124.511 9.85308C124.511 9.85308 124.525 9.85308 124.532 9.85308C124.546 9.85308 124.575 9.86718 124.61 9.87424C124.674 9.89543 124.765 9.92368 124.878 9.959C125.104 10.0296 125.429 10.1215 125.789 10.2133C126.51 10.3899 127.456 10.5876 128.255 10.5876V9.175C127.64 9.175 126.828 9.01963 126.128 8.84305C125.789 8.7583 125.493 8.67353 125.274 8.60996C125.168 8.58171 125.083 8.55346 125.027 8.53228C124.998 8.52521 124.977 8.51813 124.963 8.51107C124.956 8.51107 124.949 8.51107 124.949 8.51107C124.949 8.51107 124.949 8.51107 124.723 9.18207H124.737ZM124.031 1.41263V9.18207H125.443V1.41263H124.031ZM128.269 1.41263C127.654 1.41263 126.842 1.25726 126.143 1.08068C125.804 0.995922 125.507 0.911153 125.288 0.847584C125.182 0.819332 125.097 0.79109 125.041 0.7699C125.013 0.762837 124.991 0.755753 124.977 0.74869C124.97 0.74869 124.963 0.74869 124.963 0.74869C124.963 0.74869 124.963 0.748699 124.737 1.4197L124.511 2.0907C124.511 2.0907 124.525 2.0907 124.532 2.0907C124.546 2.0907 124.575 2.10481 124.61 2.11187C124.674 2.13306 124.765 2.16131 124.878 2.19662C125.104 2.26726 125.429 2.35907 125.789 2.45089C126.51 2.62746 127.456 2.82525 128.255 2.82525V1.41263H128.269ZM132.507 0.706313C131.694 0.706313 130.903 0.911165 130.218 1.08068C129.498 1.26432 128.876 1.41263 128.269 1.41263V2.82525C129.074 2.82525 129.872 2.6204 130.557 2.45089C131.278 2.26724 131.899 2.11894 132.507 2.11894V0.706313ZM136.038 2.11894L136.264 1.44793C136.264 1.44793 136.25 1.44793 136.243 1.44793C136.229 1.44793 136.201 1.43383 136.165 1.42677C136.102 1.40558 136.01 1.37733 135.897 1.34201C135.671 1.27138 135.346 1.17953 134.986 1.08771C134.265 0.911129 133.319 0.713383 132.521 0.713383V2.12601C133.135 2.12601 133.947 2.28138 134.647 2.45796C134.986 2.54271 135.282 2.62748 135.501 2.69105C135.607 2.7193 135.692 2.74755 135.748 2.76874C135.777 2.7758 135.798 2.78288 135.812 2.78995C135.819 2.78995 135.826 2.78995 135.826 2.78995C135.826 2.78995 135.826 2.78994 136.052 2.11894H136.038ZM125.443 15.5389V0H124.031V15.5389H125.443ZM136.038 9.88838L135.812 10.5594L136.744 10.8702V9.88838H136.038ZM124.737 9.18207H124.031C124.031 9.48579 124.221 9.75419 124.511 9.85308L124.737 9.18207ZM124.737 1.41263L124.963 0.74162C124.751 0.670989 124.511 0.706315 124.327 0.840514C124.144 0.974714 124.038 1.18661 124.038 1.41263H124.744H124.737ZM136.038 2.11894H136.744V1.61041L136.264 1.44793L136.038 2.11894Z" fill="white"/>
<path d="M168.83 10.0265C168.83 11.976 170.413 13.5581 172.362 13.5581V12.1455C171.19 12.1455 170.243 11.199 170.243 10.0265H168.83ZM172.362 6.49497C170.413 6.49497 168.83 8.07712 168.83 10.0265H170.243C170.243 8.85406 171.19 7.9076 172.362 7.9076V6.49497ZM175.894 10.0265C175.894 8.07712 174.311 6.49497 172.362 6.49497V7.9076C173.534 7.9076 174.481 8.85406 174.481 10.0265H175.894ZM172.362 13.5581C174.311 13.5581 175.894 11.976 175.894 10.0265H174.481C174.481 11.199 173.534 12.1455 172.362 12.1455V13.5581ZM167.234 4.43254L168.626 5.25186L169.339 4.037L167.948 3.21768L167.234 4.43254ZM166.662 5.74628L168.089 4.32659L167.093 3.32363L165.666 4.74332L166.662 5.74628ZM167.594 6.28308L166.775 4.88458L165.56 5.59796L166.38 6.99646L167.594 6.28308ZM166.817 8.88231L167.637 6.9117L166.33 6.36784L165.511 8.33845L166.817 8.88231ZM164.748 9.65926L166.316 9.3061L166.005 7.92879L164.437 8.28195L164.748 9.65926ZM165.299 11.086V8.96707H163.886V11.086H165.299ZM166.323 10.747L164.755 10.3938L164.444 11.7711L166.012 12.1243L166.323 10.747ZM167.637 13.1414L166.817 11.1708L165.511 11.7146L166.33 13.6852L167.637 13.1414ZM166.775 15.1473L167.594 13.77L166.38 13.0496L165.56 14.4269L166.775 15.1473ZM168.082 15.7336L166.662 14.2927L165.652 15.2815L167.072 16.7153L168.082 15.7265V15.7336ZM168.626 14.8012L167.227 15.6205L167.94 16.8425L169.339 16.0231L168.626 14.8012ZM171.225 15.5711L169.254 14.7518L168.71 16.0585L170.681 16.8778L171.225 15.5711ZM171.995 17.6406L171.642 16.0726L170.264 16.3834L170.617 17.9514L171.995 17.6406ZM173.421 17.0897H171.303V18.5023H173.421V17.0897ZM173.09 16.0726L172.736 17.6406L174.114 17.9514L174.467 16.3834L173.09 16.0726ZM175.477 14.7588L173.506 15.5782L174.05 16.8848L176.021 16.0655L175.477 14.7588ZM177.497 15.6135L176.105 14.7942L175.392 16.0161L176.784 16.8354L177.497 15.6135ZM178.062 14.2927L176.642 15.7336L177.645 16.7295L179.065 15.2956L178.062 14.2997V14.2927ZM177.137 13.77L177.956 15.1473L179.171 14.4269L178.352 13.0496L177.137 13.77ZM177.914 11.1708L177.094 13.1414L178.401 13.6852L179.22 11.7146L177.914 11.1708ZM179.976 10.3938L178.408 10.747L178.719 12.1243L180.287 11.7711L179.976 10.3938ZM179.425 8.96707V11.086H180.838V8.96707H179.425ZM178.408 9.3061L179.976 9.65926L180.287 8.28195L178.719 7.92879L178.408 9.3061ZM177.094 6.9117L177.914 8.88231L179.22 8.33845L178.401 6.36784L177.094 6.9117ZM177.956 4.89164L177.137 6.29014L178.359 7.00352L179.178 5.60502L177.963 4.89164H177.956ZM176.642 4.32659L178.062 5.74628L179.058 4.75038L177.638 3.33069L176.642 4.32659ZM176.105 5.25186L177.504 4.43254L176.791 3.21062L175.392 4.02994L176.105 5.25186ZM173.506 4.48198L175.477 5.3013L176.021 3.99462L174.05 3.1753L173.506 4.48198ZM172.736 2.41248L173.09 3.9805L174.467 3.66972L174.114 2.10171L172.736 2.41248ZM171.303 2.96341H173.421V1.55078H171.303V2.96341ZM171.642 3.9805L171.995 2.41248L170.617 2.10171L170.264 3.66972L171.642 3.9805ZM169.247 5.29424L171.218 4.47492L170.674 3.16824L168.703 3.98756L169.247 5.29424ZM167.587 3.82511L167.948 3.21768L167.474 2.94222L167.086 3.32363L167.587 3.82511ZM166.168 5.2448L165.673 4.74332L165.285 5.13179L165.56 5.60502L166.168 5.2448ZM166.98 6.6433L167.63 6.9117L167.764 6.58679L167.587 6.28308L166.98 6.63624V6.6433ZM166.168 8.61391L166.323 9.3061L166.683 9.22841L166.825 8.88938L166.175 8.62098L166.168 8.61391ZM164.593 8.96707L164.437 8.27488L163.886 8.40202V8.96707H164.593ZM164.593 11.086H163.886V11.6511L164.437 11.7782L164.593 11.086ZM166.168 11.4392L166.817 11.1708L166.676 10.8317L166.316 10.754L166.161 11.4462L166.168 11.4392ZM166.98 13.4098L167.587 13.77L167.771 13.4663L167.637 13.1414L166.987 13.4098H166.98ZM166.168 14.7871L165.56 14.4269L165.285 14.893L165.666 15.2815L166.168 14.7871ZM167.58 16.228L167.079 16.7224L167.467 17.1109L167.94 16.8354L167.587 16.228H167.58ZM168.979 15.4086L169.247 14.7588L168.922 14.6246L168.618 14.8012L168.972 15.4086H168.979ZM170.949 16.228L171.642 16.0726L171.564 15.7194L171.225 15.5782L170.956 16.228H170.949ZM171.303 17.796L170.617 17.9514L170.745 18.5023H171.31V17.796H171.303ZM173.421 17.796V18.5023H173.987L174.114 17.9514L173.421 17.796ZM173.775 16.228L173.506 15.5782L173.167 15.7194L173.09 16.0726L173.775 16.228ZM175.745 15.4086L176.105 14.8012L175.802 14.6246L175.477 14.7588L175.745 15.4086ZM177.144 16.228L176.784 16.8354L177.257 17.1109L177.645 16.7224L177.144 16.228ZM178.563 14.7871L179.065 15.2815L179.446 14.893L179.171 14.4269L178.563 14.7871ZM177.744 13.4098L177.094 13.1414L176.96 13.4663L177.144 13.77L177.751 13.4098H177.744ZM178.563 11.4392L178.408 10.747L178.048 10.8247L177.907 11.1637L178.556 11.4321L178.563 11.4392ZM180.131 11.086L180.287 11.7782L180.838 11.6511V11.086H180.131ZM180.131 8.96707H180.838V8.40202L180.287 8.27488L180.131 8.96707ZM178.563 8.61391L177.914 8.88231L178.055 9.22134L178.415 9.29904L178.571 8.60685L178.563 8.61391ZM177.744 6.6433L177.137 6.29014L176.96 6.59386L177.094 6.91876L177.744 6.65036V6.6433ZM178.563 5.2448L179.171 5.60502L179.446 5.13179L179.058 4.74332L178.556 5.2448H178.563ZM177.144 3.82511L177.645 3.32363L177.257 2.93516L176.784 3.21062L177.144 3.81805V3.82511ZM175.745 4.64443L175.477 5.29424L175.802 5.42844L176.105 5.25186L175.745 4.64443ZM173.775 3.82511L173.09 3.9805L173.167 4.34072L173.506 4.48198L173.775 3.83217V3.82511ZM173.421 2.25709L174.114 2.10171L173.987 1.55078H173.421V2.25709ZM171.303 2.25709V1.55078H170.737L170.61 2.10171L171.295 2.25709H171.303ZM170.949 3.82511L171.218 4.47492L171.557 4.33366L171.634 3.97344L170.942 3.81805L170.949 3.82511ZM168.979 4.64443L168.618 5.25186L168.922 5.42844L169.247 5.29424L168.979 4.64443Z" fill="white"/>
<path fill-rule="evenodd" clip-rule="evenodd" d="M216.09 8.8664C216.09 9.25487 215.772 9.57271 215.383 9.57271C214.995 9.57271 214.677 9.25487 214.677 8.8664C214.677 8.47793 214.995 8.16009 215.383 8.16009C215.772 8.16009 216.09 8.47793 216.09 8.8664ZM216.436 2.36125C215.525 1.45011 214.204 1.23822 213.116 1.57018C212.014 1.90921 211.068 2.84861 211.068 4.27536C211.068 5.19357 211.393 6.30955 211.993 7.31251C211.696 7.31251 211.4 7.31251 211.11 7.3337C210.326 7.39727 209.486 7.6021 208.913 8.17421C208.002 9.08536 207.79 10.4062 208.122 11.4868C208.461 12.5887 209.401 13.5351 210.828 13.5351C211.654 13.5351 212.558 13.0831 213.321 12.5745C213.547 12.4192 213.78 12.2567 213.999 12.0872C213.971 12.405 213.957 12.7229 213.95 13.0266C213.95 13.5139 213.985 14.0084 214.091 14.4533C214.197 14.8983 214.387 15.3433 214.734 15.6894C215.645 16.6005 216.966 16.8124 218.053 16.4805C219.155 16.1414 220.102 15.202 220.102 13.7753C220.102 12.963 219.755 12.066 219.296 11.2679C219.162 11.0348 219.014 10.7946 218.851 10.5686C219.127 10.6039 219.409 10.6251 219.678 10.6322C220.554 10.6604 221.571 10.5545 222.249 9.87643C223.16 8.96528 223.372 7.64448 223.04 6.56382C222.701 5.46197 221.761 4.51551 220.335 4.51551C219.536 4.51551 218.696 4.84748 217.947 5.28539C217.714 5.41959 217.488 5.57498 217.262 5.73037C217.276 5.41959 217.283 5.11588 217.262 4.81922C217.227 3.95752 217.043 2.98281 216.429 2.36125H216.436ZM217.502 8.92997C218.265 9.06417 219.035 9.19837 219.72 9.21956C220.539 9.24781 221.013 9.10655 221.246 8.88053C221.747 8.37904 221.889 7.62329 221.691 6.98054C221.5 6.35899 221.027 5.92814 220.335 5.92814C219.897 5.92814 219.318 6.11884 218.668 6.50731C218.131 6.81809 217.601 7.23482 217.142 7.67979C217.375 8.01882 217.509 8.42848 217.509 8.8664C217.509 8.88759 217.509 8.90878 217.509 8.92997H217.502ZM215.553 10.9783C215.447 11.6563 215.362 12.3838 215.362 13.0407C215.362 13.4645 215.39 13.8318 215.461 14.1284C215.532 14.4321 215.631 14.6017 215.729 14.6935C216.231 15.195 216.987 15.3362 217.629 15.1385C218.251 14.9478 218.682 14.4745 218.682 13.7823C218.682 13.3303 218.47 12.6876 218.067 11.9742C217.742 11.4021 217.319 10.837 216.881 10.3708C216.535 10.7099 216.076 10.9359 215.56 10.9783H215.553ZM213.264 8.83815C212.544 8.74633 211.838 8.69688 211.223 8.74633C210.538 8.80283 210.121 8.96528 209.909 9.17718C209.408 9.67866 209.267 10.4344 209.464 11.0772C209.655 11.6987 210.128 12.1296 210.821 12.1296C211.202 12.1296 211.809 11.8894 212.53 11.4091C212.989 11.0983 213.455 10.7311 213.865 10.3497C213.49 9.96825 213.257 9.44558 213.257 8.8664V8.83815H213.264ZM212.48 4.27536C212.48 3.58318 212.911 3.10995 213.533 2.91924C214.176 2.72147 214.938 2.86274 215.433 3.36422C215.652 3.58318 215.821 4.0776 215.857 4.88279C215.885 5.4761 215.828 6.13297 215.751 6.78278C215.631 6.76159 215.51 6.74746 215.383 6.74746C214.762 6.74746 214.211 7.01586 213.822 7.43258C212.954 6.472 212.48 5.16532 212.48 4.27536Z" fill="white"/>
<path d="M257.861 7.74622H257.395V9.15885H257.861V7.74622H257.395V9.15885H257.861V7.74622ZM265.899 13.3967C266.304 13.1519 266.506 13.0294 266.506 13.0294C266.506 13.0294 266.506 13.0295 266.499 13.0153C266.499 13.0083 266.485 12.9871 266.471 12.973C266.45 12.9376 266.415 12.8811 266.372 12.8105C266.287 12.6692 266.16 12.4714 265.998 12.2384C265.687 11.7651 265.249 11.1295 264.748 10.4938C264.253 9.85811 263.688 9.20121 263.116 8.69973C262.826 8.44545 262.53 8.21944 262.219 8.04993C261.915 7.88041 261.555 7.75329 261.181 7.75329V9.16592C261.237 9.16592 261.35 9.1871 261.548 9.29305C261.732 9.39193 261.951 9.55436 262.191 9.75919C262.671 10.183 263.173 10.7622 263.646 11.3625C264.112 11.9629 264.529 12.5633 264.832 13.0153C264.981 13.2414 265.101 13.432 265.186 13.5592C265.228 13.6227 265.256 13.6793 265.277 13.7075C265.292 13.7216 265.299 13.7358 265.299 13.7499C265.299 13.7499 265.299 13.7499 265.299 13.757L265.906 13.3897L265.899 13.3967ZM265.193 3.50834V13.3967H266.605V3.50834H265.193ZM261.167 9.15885C261.548 9.15885 261.901 9.02466 262.205 8.86221C262.516 8.69269 262.819 8.46664 263.102 8.21237C263.674 7.70382 264.239 7.04697 264.734 6.41835C265.228 5.78267 265.666 5.147 265.984 4.67377C266.139 4.43363 266.266 4.23586 266.358 4.10166C266.4 4.03103 266.436 3.9745 266.457 3.93918C266.471 3.91799 266.478 3.90387 266.485 3.8968C266.485 3.8968 266.485 3.88977 266.492 3.88271C266.492 3.88271 266.29 3.76027 265.885 3.51541L265.277 3.14811C265.277 3.14811 265.277 3.14812 265.277 3.15518C265.277 3.16225 265.263 3.17637 265.256 3.19756C265.235 3.23288 265.2 3.28233 265.164 3.3459C265.08 3.4801 264.96 3.66371 264.811 3.88973C264.507 4.34177 264.091 4.94922 263.625 5.54253C263.151 6.14289 262.65 6.72208 262.17 7.14587C261.929 7.35776 261.718 7.51313 261.527 7.61202C261.336 7.71797 261.216 7.73915 261.16 7.73915V9.15178L261.167 9.15885ZM257.861 8.45253V9.15885H261.174V7.74622H257.861V8.45253ZM255.975 11.2778C254.4 11.2778 254.033 10.5362 254.033 10.2183C254.033 9.90047 254.4 9.15885 255.975 9.15885V7.74622C254.019 7.74622 252.62 8.77037 252.62 10.2183C252.62 11.6663 254.019 12.6904 255.975 12.6904V11.2778ZM255.975 9.15885H257.388V7.74622H255.975V9.15885ZM250.325 9.15885H255.975V7.74622H250.325V9.15885ZM257.388 11.2778H255.975V12.6904H257.388V11.2778ZM257.388 9.15885C258.716 9.15885 259.069 9.84397 259.069 10.2183C259.069 10.5927 258.716 11.2778 257.388 11.2778V12.6904C259.238 12.6904 260.481 11.6098 260.481 10.2183C260.481 8.82688 259.245 7.74622 257.388 7.74622V9.15885ZM265.899 13.3967L265.291 13.764L266.605 15.9324V13.3967H265.899ZM265.899 3.50834H266.605V0.972656L265.291 3.14104L265.899 3.50834Z" fill="white"/>
<path d="M294.607 16.0854H308.733V14.6728H294.607V16.0854ZM301.056 2.31937L293.992 15.033L295.229 15.7181L302.292 3.00447L301.056 2.31937ZM309.355 15.033L302.292 2.31937L301.056 3.00447L308.119 15.7181L309.355 15.033ZM302.376 13.9665V12.5538H300.964V13.9665H302.376ZM302.376 11.1412V7.60965H300.964V11.1412H302.376ZM308.733 15.3791V16.0854H309.934L309.348 15.033L308.733 15.3791ZM294.607 15.3791L293.992 15.033L293.406 16.0854H294.607V15.3791ZM301.67 2.66545L302.285 2.31937L301.67 1.21045L301.056 2.31937L301.67 2.66545Z" fill="white"/>
</svg>
