<svg width="662" height="40" viewBox="0 0 662 40" fill="none" xmlns="http://www.w3.org/2000/svg">
<path d="M18.0816 11.0677V30.6561H21.0952V11.0677H18.0816ZM3.0136 30.6561V3.53366H0V30.6561H3.0136ZM9.71887 23.3782L0.67806 29.4054L2.35061 31.9068L11.3914 25.8796L9.71887 23.3782ZM20.4322 29.4054L11.3914 23.3782L9.71887 25.8796L18.7597 31.9068L20.4322 29.4054ZM1.5068 5.04046H19.5884V2.02686H1.5068V5.04046ZM1.5068 30.6561H0V33.4738L2.33554 31.9068L1.5068 30.6561ZM10.5476 24.6289L11.3764 23.3782L10.5476 22.8207L9.7038 23.3782L10.5476 24.6289ZM19.5884 30.6561L18.7446 31.9068L21.0952 33.4738V30.6561H19.5884ZM19.5884 5.04046H21.0952V2.02686H19.5884V5.04046ZM1.5068 3.53366V2.02686H0V3.53366H1.5068Z" fill="white"/>
<path d="M115.161 11.6533H98.5866V14.6669H115.161V11.6533ZM113.594 24.1296L116.608 13.582L113.715 12.7532L110.701 23.3008L113.594 24.1296ZM93.3128 25.2145H112.148V22.2009H93.3128V25.2145ZM88.039 8.63965H85.0254V11.6533H88.039V8.63965ZM95.4976 27.7459L89.4704 9.66426L86.6075 10.6136L92.6347 28.6952L95.4976 27.7459ZM112.148 26.7213H94.0662V29.7349H112.148V26.7213ZM95.573 34.2553H98.5866C98.5866 32.5978 97.2304 31.2417 95.573 31.2417V34.2553ZM95.573 34.2553V31.2417C93.9004 31.2417 92.5594 32.5978 92.5594 34.2553H95.573ZM95.573 34.2553H92.5594C92.5594 35.9278 93.9004 37.2689 95.573 37.2689V34.2553ZM95.573 34.2553V37.2689C97.2304 37.2689 98.5866 35.9278 98.5866 34.2553H95.573ZM110.641 34.2553H113.655C113.655 32.5978 112.298 31.2417 110.641 31.2417V34.2553ZM110.641 34.2553V31.2417C108.968 31.2417 107.627 32.5978 107.627 34.2553H110.641ZM110.641 34.2553H107.627C107.627 35.9278 108.968 37.2689 110.641 37.2689V34.2553ZM110.641 34.2553V37.2689C112.298 37.2689 113.655 35.9278 113.655 34.2553H110.641ZM98.5866 11.6533H97.0798V14.6669H98.5866V11.6533ZM115.161 13.1601L116.608 13.582L117.15 11.6533H115.146V13.1601H115.161ZM112.148 23.7077V25.2145H113.278L113.594 24.1296L112.148 23.7077ZM93.3128 22.2009C92.484 22.2009 91.806 22.8789 91.806 23.7077C91.806 24.5364 92.484 25.2145 93.3128 25.2145V22.2009ZM85.0254 8.63965H83.5186V11.6533H85.0254V8.63965ZM88.039 10.1464L89.4704 9.66426L89.1239 8.63965H88.039V10.1464ZM94.0662 28.2281L92.6347 28.7103L92.9813 29.7349H94.0662V28.2281ZM112.148 29.7349H113.655V26.7213H112.148V29.7349Z" fill="white"/>
<path d="M175.053 20.2305H205.189V17.2169H175.053V20.2305ZM181.08 18.7237C181.08 25.0975 183.084 29.2111 185.194 31.7425C186.234 32.9932 187.288 33.8521 188.102 34.3794C188.509 34.6507 188.856 34.8466 189.097 34.9671C189.217 35.0274 189.323 35.0876 189.398 35.1177C189.443 35.1328 189.473 35.1478 189.488 35.1629C189.488 35.1629 189.503 35.1629 189.518 35.1629C189.518 35.1629 189.704 34.6958 190.076 33.7616C190.448 32.8274 190.634 32.3603 190.634 32.3603C190.634 32.3603 190.634 32.3603 190.603 32.3603C190.573 32.3452 190.513 32.3151 190.438 32.2699C190.272 32.1945 190.031 32.0439 189.729 31.848C189.127 31.4412 188.298 30.7782 187.454 29.7837C185.797 27.7947 184.034 24.3742 184.034 18.6936H181.02L181.08 18.7237ZM190.121 3.65573C189.75 2.72151 189.564 2.25441 189.564 2.25441C189.564 2.25441 189.549 2.25441 189.534 2.25441C189.503 2.25441 189.473 2.2845 189.443 2.29957C189.368 2.32971 189.262 2.39003 189.142 2.4503C188.886 2.58592 188.539 2.76675 188.147 3.03798C187.334 3.58043 186.279 4.42424 185.239 5.67488C183.13 8.22138 181.126 12.3198 181.126 18.6936H184.139C184.139 13.0129 185.902 9.57745 187.56 7.60354C188.403 6.59398 189.232 5.94607 189.835 5.53923C190.136 5.34334 190.377 5.20769 190.543 5.11728C190.618 5.07208 190.679 5.04194 190.709 5.02688C190.724 5.02688 190.739 5.02688 190.739 5.02688C190.739 5.02688 190.553 4.55978 190.181 3.62556L190.121 3.65573ZM196.148 18.7237C196.148 24.4044 194.385 27.8399 192.728 29.8138C191.884 30.8233 191.055 31.4713 190.453 31.8781C190.151 32.074 189.91 32.2096 189.745 32.3C189.669 32.3452 189.609 32.3754 189.579 32.3904C189.564 32.3904 189.549 32.3904 189.549 32.3904C189.549 32.3904 189.549 32.3904 190.106 33.7918C190.478 34.726 190.664 35.1931 190.664 35.1931C190.664 35.1931 190.679 35.1931 190.694 35.1931C190.724 35.1931 190.754 35.163 190.784 35.1479C190.86 35.1178 190.965 35.0575 191.086 34.9972C191.342 34.8616 191.688 34.6807 192.08 34.4095C192.894 33.8671 193.948 33.0232 194.988 31.7726C197.098 29.2261 199.102 25.1277 199.102 18.7539H196.088L196.148 18.7237ZM190.121 3.65573C189.75 4.58994 189.564 5.05704 189.564 5.05704C189.564 5.05704 189.564 5.05704 189.594 5.05704C189.624 5.07211 189.684 5.10224 189.76 5.14745C189.925 5.22279 190.166 5.37351 190.468 5.56939C191.07 5.97623 191.899 6.63922 192.743 7.63371C194.401 9.62268 196.163 13.0431 196.163 18.7237H199.177C199.177 12.35 197.173 8.23638 195.064 5.70496C194.024 4.45431 192.969 3.59543 192.155 3.06805C191.749 2.79683 191.402 2.60092 191.161 2.48038C191.04 2.42011 190.935 2.35987 190.86 2.32973C190.814 2.31467 190.784 2.29965 190.769 2.28458C190.769 2.28458 190.754 2.28458 190.739 2.28458C190.739 2.28458 190.739 2.28457 190.181 3.68589L190.121 3.65573ZM188.614 3.65573V33.8068H191.628V3.65573H188.614ZM190.121 5.16253C197.61 5.16253 203.682 11.2349 203.682 18.7237H206.696C206.696 9.57746 199.267 2.14893 190.121 2.14893V5.16253ZM176.56 18.7237C176.56 11.2349 182.632 5.16253 190.121 5.16253V2.14893C180.96 2.14893 173.546 9.57746 173.546 18.7237H176.56ZM190.121 32.285C182.632 32.285 176.56 26.2125 176.56 18.7237H173.546C173.546 27.8851 180.96 35.2986 190.121 35.2986V32.285ZM203.682 18.7237C203.682 26.2125 197.61 32.285 190.121 32.285V35.2986C199.267 35.2986 206.696 27.8851 206.696 18.7237H203.682ZM190.121 33.8068L189.564 35.2082L190.121 35.4342L190.679 35.2082L190.121 33.8068Z" fill="white"/>
<path d="M291.721 21.0952V4.5204H288.707V21.0952H291.721ZM282.68 21.0952C283.991 21.0952 285.724 21.4267 287.216 21.8034C287.939 21.9842 288.572 22.165 289.039 22.3006C289.265 22.3609 289.446 22.4212 289.566 22.4664C289.627 22.4814 289.672 22.4965 289.702 22.5116C289.717 22.5116 289.732 22.5116 289.732 22.5116C289.732 22.5116 289.732 22.5116 290.214 21.0801L290.696 19.6487C290.696 19.6487 290.666 19.6487 290.651 19.6487C290.621 19.6487 290.561 19.6186 290.485 19.6035C290.35 19.5583 290.154 19.498 289.913 19.4227C289.431 19.272 288.738 19.0762 287.969 18.8803C286.432 18.5036 284.413 18.0816 282.71 18.0816V21.0952H282.68ZM273.639 22.602C275.357 22.602 277.06 22.165 278.521 21.8034C280.058 21.4116 281.384 21.0952 282.68 21.0952V18.0816C280.947 18.0816 279.26 18.5186 277.798 18.8803C276.261 19.272 274.935 19.5884 273.639 19.5884V22.602ZM266.105 19.5884L265.623 21.0199C265.623 21.0199 265.653 21.0199 265.668 21.0199C265.699 21.0199 265.759 21.05 265.834 21.0651C265.97 21.1103 266.166 21.1705 266.407 21.2459C266.889 21.3965 267.582 21.5925 268.351 21.7884C269.887 22.1651 271.907 22.5869 273.609 22.5869V19.5733C272.298 19.5733 270.566 19.2419 269.074 18.8652C268.351 18.6844 267.718 18.5035 267.251 18.3679C267.025 18.3076 266.844 18.2474 266.723 18.2022C266.663 18.1871 266.618 18.172 266.588 18.1569C266.573 18.1569 266.557 18.1569 266.557 18.1569C266.557 18.1569 266.557 18.157 266.075 19.5884H266.105ZM264.599 3.0136V19.5884H267.612V3.0136H264.599ZM273.639 3.0136C272.329 3.0136 270.596 2.68215 269.104 2.30545C268.381 2.12463 267.748 1.94379 267.281 1.80818C267.055 1.74791 266.874 1.68766 266.753 1.64245C266.693 1.62739 266.648 1.61227 266.618 1.59721C266.603 1.59721 266.588 1.59721 266.588 1.59721C266.588 1.59721 266.588 1.59722 266.105 3.02869L265.623 4.46017C265.623 4.46017 265.653 4.46017 265.668 4.46017C265.699 4.46017 265.759 4.49025 265.834 4.50532C265.97 4.55053 266.166 4.61079 266.407 4.68613C266.889 4.83681 267.582 5.03267 268.351 5.22856C269.887 5.60526 271.907 6.02721 273.609 6.02721V3.0136H273.639ZM282.68 1.5068C280.947 1.5068 279.26 1.94382 277.798 2.30545C276.261 2.69722 274.935 3.0136 273.639 3.0136V6.02721C275.357 6.02721 277.06 5.59019 278.521 5.22856C280.058 4.83679 281.384 4.5204 282.68 4.5204V1.5068ZM290.214 4.5204L290.696 3.08892C290.696 3.08892 290.666 3.08892 290.651 3.08892C290.621 3.08892 290.561 3.05884 290.485 3.04377C290.35 2.99856 290.154 2.9383 289.913 2.86296C289.431 2.71228 288.738 2.51633 287.969 2.32044C286.432 1.94374 284.413 1.52188 282.71 1.52188V4.53549C284.021 4.53549 285.754 4.86694 287.246 5.24364C287.969 5.42446 288.602 5.6053 289.069 5.74091C289.295 5.80118 289.476 5.86143 289.596 5.90664C289.657 5.9217 289.702 5.93682 289.732 5.95188C289.747 5.95188 289.762 5.95188 289.762 5.95188C289.762 5.95188 289.762 5.95187 290.244 4.5204H290.214ZM267.612 33.1496V0H264.599V33.1496H267.612ZM290.214 21.0952L289.732 22.5267L291.721 23.1897V21.0952H290.214ZM266.105 19.5884H264.599C264.599 20.2363 265.005 20.8089 265.623 21.0199L266.105 19.5884ZM266.105 3.0136L266.588 1.58212C266.136 1.43144 265.623 1.50681 265.231 1.7931C264.84 2.07939 264.614 2.53143 264.614 3.0136H266.121H266.105ZM290.214 4.5204H291.721V3.43555L290.696 3.08892L290.214 4.5204Z" fill="white"/>
<path d="M360.172 21.3892C360.172 25.548 363.547 28.9232 367.706 28.9232V25.9096C365.204 25.9096 363.185 23.8905 363.185 21.3892H360.172ZM367.706 13.8552C363.547 13.8552 360.172 17.2305 360.172 21.3892H363.185C363.185 18.8879 365.204 16.8688 367.706 16.8688V13.8552ZM375.24 21.3892C375.24 17.2305 371.864 13.8552 367.706 13.8552V16.8688C370.207 16.8688 372.226 18.8879 372.226 21.3892H375.24ZM367.706 28.9232C371.864 28.9232 375.24 25.548 375.24 21.3892H372.226C372.226 23.8905 370.207 25.9096 367.706 25.9096V28.9232ZM356.766 9.45537L359.735 11.2033L361.256 8.61156L358.288 6.86367L356.766 9.45537ZM355.546 12.258L358.589 9.22935L356.465 7.08969L353.421 10.1184L355.546 12.258ZM357.535 13.4032L355.787 10.4197L353.195 11.9416L354.943 14.9251L357.535 13.4032ZM355.877 18.9482L357.625 14.7442L354.837 13.584L353.09 17.788L355.877 18.9482ZM351.462 20.6057L354.807 19.8523L354.144 16.914L350.799 17.6674L351.462 20.6057ZM352.638 23.6494V19.129H349.624V23.6494H352.638ZM354.822 22.9262L351.477 22.1728L350.814 25.111L354.16 25.8644L354.822 22.9262ZM357.625 28.0342L355.877 23.8303L353.09 24.9905L354.837 29.1945L357.625 28.0342ZM355.787 32.3135L357.535 29.3753L354.943 27.8383L353.195 30.7766L355.787 32.3135ZM358.574 33.5642L355.546 30.4903L353.391 32.5998L356.42 35.6586L358.574 33.5491V33.5642ZM359.735 31.5752L356.751 33.3231L358.273 35.9299L361.256 34.182L359.735 31.5752ZM365.28 33.2176L361.076 31.4697L359.915 34.2573L364.119 36.0052L365.28 33.2176ZM366.922 37.6326L366.169 34.2875L363.23 34.9504L363.984 38.2955L366.922 37.6326ZM369.966 36.4572H365.445V39.4709H369.966V36.4572ZM369.258 34.2875L368.504 37.6326L371.442 38.2955L372.196 34.9504L369.258 34.2875ZM374.351 31.4848L370.147 33.2327L371.307 36.0203L375.511 34.2724L374.351 31.4848ZM378.66 33.308L375.692 31.5601L374.17 34.1669L377.138 35.9148L378.66 33.308ZM379.865 30.4903L376.837 33.5642L378.976 35.6888L382.005 32.63L379.865 30.5054V30.4903ZM377.892 29.3753L379.64 32.3135L382.231 30.7766L380.483 27.8383L377.892 29.3753ZM379.549 23.8303L377.801 28.0342L380.589 29.1945L382.337 24.9905L379.549 23.8303ZM383.949 22.1728L380.604 22.9262L381.267 25.8644L384.612 25.111L383.949 22.1728ZM382.774 19.129V23.6494H385.787V19.129H382.774ZM380.604 19.8523L383.949 20.6057L384.612 17.6674L381.267 16.914L380.604 19.8523ZM377.801 14.7442L379.549 18.9482L382.337 17.788L380.589 13.584L377.801 14.7442ZM379.64 10.4348L377.892 13.4183L380.498 14.9401L382.246 11.9567L379.655 10.4348H379.64ZM376.837 9.22935L379.865 12.258L381.99 10.1334L378.961 7.10476L376.837 9.22935ZM375.692 11.2033L378.675 9.45537L377.153 6.8486L374.17 8.59649L375.692 11.2033ZM370.147 9.56084L374.351 11.3087L375.511 8.52115L371.307 6.77326L370.147 9.56084ZM368.504 5.14592L369.258 8.49101L372.196 7.82802L371.442 4.48292L368.504 5.14592ZM365.445 6.32122H369.966V3.30762H365.445V6.32122ZM366.169 8.49101L366.922 5.14592L363.984 4.48292L363.23 7.82802L366.169 8.49101ZM361.061 11.2937L365.265 9.54577L364.104 6.75819L359.9 8.50608L361.061 11.2937ZM357.52 8.15952L358.288 6.86367L357.279 6.27602L356.45 7.08969L357.52 8.15952ZM354.491 11.1882L353.436 10.1184L352.607 10.9471L353.195 11.9567L354.491 11.1882ZM356.224 14.1717L357.61 14.7442L357.896 14.0511L357.52 13.4032L356.224 14.1566V14.1717ZM354.491 18.3756L354.822 19.8523L355.591 19.6865L355.892 18.9633L354.506 18.3907L354.491 18.3756ZM351.131 19.129L350.799 17.6524L349.624 17.9236V19.129H351.131ZM351.131 23.6494H349.624V24.8549L350.799 25.1261L351.131 23.6494ZM354.491 24.4028L355.877 23.8303L355.576 23.107L354.807 22.9412L354.476 24.4179L354.491 24.4028ZM356.224 28.6068L357.52 29.3753L357.911 28.7274L357.625 28.0342L356.239 28.6068H356.224ZM354.491 31.5451L353.195 30.7766L352.607 31.7711L353.421 32.5998L354.491 31.5451ZM357.505 34.619L356.435 35.6737L357.263 36.5025L358.273 35.9148L357.52 34.619H357.505ZM360.488 32.8711L361.061 31.4848L360.368 31.1985L359.72 31.5752L360.473 32.8711H360.488ZM364.692 34.619L366.169 34.2875L366.003 33.5341L365.28 33.2327L364.707 34.619H364.692ZM365.445 37.9641L363.984 38.2955L364.255 39.4709H365.461V37.9641H365.445ZM369.966 37.9641V39.4709H371.171L371.442 38.2955L369.966 37.9641ZM370.719 34.619L370.147 33.2327L369.423 33.5341L369.258 34.2875L370.719 34.619ZM374.923 32.8711L375.692 31.5752L375.044 31.1985L374.351 31.4848L374.923 32.8711ZM377.907 34.619L377.138 35.9148L378.148 36.5025L378.976 35.6737L377.907 34.619ZM380.935 31.5451L382.005 32.5998L382.819 31.7711L382.231 30.7766L380.935 31.5451ZM379.187 28.6068L377.801 28.0342L377.515 28.7274L377.907 29.3753L379.203 28.6068H379.187ZM380.935 24.4028L380.604 22.9262L379.835 23.0919L379.534 23.8152L380.92 24.3878L380.935 24.4028ZM384.28 23.6494L384.612 25.1261L385.787 24.8549V23.6494H384.28ZM384.28 19.129H385.787V17.9236L384.612 17.6524L384.28 19.129ZM380.935 18.3756L379.549 18.9482L379.85 19.6715L380.619 19.8372L380.95 18.3606L380.935 18.3756ZM379.187 14.1717L377.892 13.4183L377.515 14.0662L377.801 14.7593L379.187 14.1867V14.1717ZM380.935 11.1882L382.231 11.9567L382.819 10.9471L381.99 10.1184L380.92 11.1882H380.935ZM377.907 8.15952L378.976 7.08969L378.148 6.26095L377.138 6.8486L377.907 8.14445V8.15952ZM374.923 9.90741L374.351 11.2937L375.044 11.58L375.692 11.2033L374.923 9.90741ZM370.719 8.15952L369.258 8.49101L369.423 9.25948L370.147 9.56084L370.719 8.17459V8.15952ZM369.966 4.81442L371.442 4.48292L371.171 3.30762H369.966V4.81442ZM365.445 4.81442V3.30762H364.24L363.969 4.48292L365.43 4.81442H365.445ZM364.692 8.15952L365.265 9.54577L365.988 9.24442L366.154 8.47595L364.677 8.14445L364.692 8.15952ZM360.488 9.90741L359.72 11.2033L360.368 11.58L361.061 11.2937L360.488 9.90741Z" fill="white"/>
<path fill-rule="evenodd" clip-rule="evenodd" d="M460.991 18.9148C460.991 19.7435 460.313 20.4216 459.485 20.4216C458.656 20.4216 457.978 19.7435 457.978 18.9148C457.978 18.086 458.656 17.408 459.485 17.408C460.313 17.408 460.991 18.086 460.991 18.9148ZM461.73 5.03715C459.786 3.09337 456.968 2.64133 454.648 3.34953C452.297 4.0728 450.278 6.07684 450.278 9.12058C450.278 11.0794 450.971 13.4602 452.252 15.5998C451.619 15.5998 450.986 15.5998 450.368 15.645C448.696 15.7806 446.903 16.2176 445.682 17.4381C443.738 19.3819 443.286 22.1996 443.995 24.505C444.718 26.8556 446.722 28.8748 449.766 28.8748C451.529 28.8748 453.457 27.9104 455.085 26.8255C455.567 26.494 456.064 26.1474 456.531 25.7858C456.471 26.4639 456.441 27.1419 456.426 27.7899C456.426 28.8295 456.501 29.8843 456.727 30.8336C456.953 31.7829 457.36 32.7322 458.098 33.4705C460.042 35.4143 462.86 35.8663 465.18 35.1581C467.531 34.4348 469.55 32.4308 469.55 29.3871C469.55 27.6542 468.812 25.7406 467.832 24.0379C467.546 23.5407 467.23 23.0284 466.883 22.5462C467.471 22.6215 468.073 22.6667 468.646 22.6818C470.514 22.7421 472.684 22.516 474.131 21.0695C476.074 19.1257 476.526 16.308 475.818 14.0026C475.095 11.652 473.091 9.63289 470.047 9.63289C468.345 9.63289 466.551 10.3411 464.954 11.2753C464.457 11.5616 463.975 11.8931 463.493 12.2246C463.523 11.5616 463.538 10.9137 463.493 10.2808C463.417 8.44252 463.025 6.36313 461.715 5.03715H461.73ZM464.005 19.0504C465.632 19.3367 467.275 19.623 468.736 19.6682C470.484 19.7285 471.494 19.4271 471.991 18.9449C473.061 17.8751 473.362 16.2628 472.94 14.8916C472.533 13.5656 471.524 12.6465 470.047 12.6465C469.113 12.6465 467.877 13.0533 466.491 13.8821C465.346 14.5451 464.216 15.4341 463.236 16.3834C463.734 17.1066 464.02 17.9806 464.02 18.9148C464.02 18.96 464.02 19.0052 464.02 19.0504H464.005ZM459.846 23.4201C459.62 24.8667 459.439 26.4187 459.439 27.82C459.439 28.7241 459.5 29.5076 459.65 30.1405C459.801 30.7884 460.012 31.15 460.223 31.3459C461.293 32.4157 462.905 32.7171 464.276 32.2952C465.602 31.8884 466.521 30.8788 466.521 29.4021C466.521 28.4378 466.069 27.0666 465.21 25.5447C464.517 24.3242 463.613 23.1188 462.679 22.1243C461.941 22.8475 460.961 23.3297 459.861 23.4201H459.846ZM454.964 18.8545C453.427 18.6586 451.92 18.5532 450.609 18.6586C449.148 18.7792 448.259 19.1257 447.807 19.5778C446.737 20.6476 446.436 22.2599 446.858 23.6311C447.264 24.9571 448.274 25.8762 449.751 25.8762C450.564 25.8762 451.86 25.3639 453.397 24.3393C454.376 23.6763 455.371 22.8927 456.245 22.0791C455.446 21.2654 454.949 20.1504 454.949 18.9148V18.8545H454.964ZM453.292 9.12058C453.292 7.64392 454.211 6.63436 455.537 6.22752C456.908 5.80562 458.535 6.10698 459.59 7.17681C460.057 7.64391 460.419 8.69868 460.494 10.4164C460.554 11.6821 460.434 13.0835 460.268 14.4697C460.012 14.4245 459.756 14.3944 459.485 14.3944C458.159 14.3944 456.983 14.967 456.155 15.856C454.301 13.8067 453.292 11.0192 453.292 9.12058Z" fill="white"/>
<path d="M550.103 16.525H549.108V19.5386H550.103V16.525H549.108V19.5386H550.103V16.525ZM567.25 28.5794C568.114 28.057 568.546 27.7958 568.546 27.7958C568.546 27.7958 568.546 27.7959 568.531 27.7657C568.531 27.7507 568.501 27.7055 568.471 27.6753C568.426 27.6 568.35 27.4794 568.26 27.3287C568.079 27.0274 567.808 26.6055 567.461 26.1082C566.798 25.0987 565.864 23.7426 564.794 22.3865C563.74 21.0303 562.534 19.629 561.314 18.5591C560.696 18.0167 560.063 17.5345 559.4 17.1729C558.752 16.8113 557.984 16.5401 557.185 16.5401V19.5537C557.305 19.5537 557.547 19.5989 557.968 19.8249C558.36 20.0358 558.827 20.3824 559.34 20.8193C560.364 21.7234 561.434 22.959 562.444 24.2398C563.438 25.5206 564.327 26.8014 564.975 27.7657C565.292 28.2479 565.548 28.6547 565.729 28.9259C565.819 29.0615 565.879 29.1821 565.924 29.2424C565.955 29.2725 565.97 29.3027 565.97 29.3328C565.97 29.3328 565.97 29.3328 565.97 29.3479L567.265 28.5643L567.25 28.5794ZM565.744 7.48417V28.5794H568.757V7.48417H565.744ZM557.155 19.5386C557.968 19.5386 558.722 19.2523 559.37 18.9057C560.033 18.5441 560.681 18.0619 561.283 17.5194C562.504 16.4345 563.709 15.0332 564.764 13.6922C565.819 12.3361 566.753 10.98 567.431 9.97042C567.763 9.45811 568.034 9.03621 568.23 8.74992C568.32 8.59924 568.395 8.47863 568.441 8.40329C568.471 8.35809 568.486 8.32796 568.501 8.31289C568.501 8.31289 568.501 8.29788 568.516 8.28281C568.516 8.28281 568.084 8.02161 567.22 7.49925L565.924 6.71568C565.924 6.71568 565.924 6.7157 565.924 6.73076C565.924 6.74583 565.894 6.77596 565.879 6.82117C565.834 6.89651 565.759 7.00202 565.683 7.13763C565.502 7.42392 565.246 7.81563 564.93 8.2978C564.282 9.26216 563.393 10.558 562.398 11.8238C561.389 13.1045 560.319 14.3401 559.294 15.2442C558.782 15.6963 558.33 16.0277 557.923 16.2387C557.516 16.4647 557.26 16.5099 557.14 16.5099V19.5235L557.155 19.5386ZM550.103 18.0318V19.5386H557.17V16.525H550.103V18.0318ZM546.08 24.059C542.72 24.059 541.936 22.4768 541.936 21.7988C541.936 21.1207 542.72 19.5386 546.08 19.5386V16.525C541.906 16.525 538.922 18.7098 538.922 21.7988C538.922 24.8877 541.906 27.0726 546.08 27.0726V24.059ZM546.08 19.5386H549.093V16.525H546.08V19.5386ZM534.025 19.5386H546.08V16.525H534.025V19.5386ZM549.093 24.059H546.08V27.0726H549.093V24.059ZM549.093 19.5386C551.926 19.5386 552.68 21.0002 552.68 21.7988C552.68 22.5974 551.926 24.059 549.093 24.059V27.0726C553.041 27.0726 555.693 24.7672 555.693 21.7988C555.693 18.8304 553.056 16.525 549.093 16.525V19.5386ZM567.25 28.5794L565.954 29.363L568.757 33.9888V28.5794H567.25ZM567.25 7.48417H568.757V2.07471L565.954 6.7006L567.25 7.48417Z" fill="white"/>
<path d="M628.495 34.3148H658.631V31.3012H628.495V34.3148ZM642.252 4.94723L627.184 32.0697L629.821 33.5312L644.889 6.40879L642.252 4.94723ZM659.957 32.0697L644.889 4.94723L642.252 6.40879L657.32 33.5312L659.957 32.0697ZM645.07 29.7944V26.7808H642.056V29.7944H645.07ZM645.07 23.7672V16.2332H642.056V23.7672H645.07ZM658.631 32.808V34.3148H661.193L659.942 32.0697L658.631 32.808ZM628.495 32.808L627.184 32.0697L625.934 34.3148H628.495V32.808ZM643.563 5.68555L644.874 4.94723L643.563 2.58154L642.252 4.94723L643.563 5.68555Z" fill="white"/>
</svg>
