<svg width="1689" height="66" viewBox="0 0 1689 66" fill="none" xmlns="http://www.w3.org/2000/svg">
<path d="M30.136 18.4464V51.0938H35.1587V18.4464H30.136ZM5.02267 51.0938V5.88975H0V51.0938H5.02267ZM16.1981 38.964L1.1301 49.0093L3.91768 53.1782L18.9857 43.1329L16.1981 38.964ZM34.0537 49.0093L18.9857 38.964L16.1981 43.1329L31.2661 53.1782L34.0537 49.0093ZM2.51134 8.40109H32.6474V3.37842H2.51134V8.40109ZM2.51134 51.0938H0V55.79L3.89257 53.1782L2.51134 51.0938ZM17.5794 41.0485L18.9606 38.964L17.5794 38.0348L16.173 38.964L17.5794 41.0485ZM32.6474 51.0938L31.241 53.1782L35.1587 55.79V51.0938H32.6474ZM32.6474 8.40109H35.1587V3.37842H32.6474V8.40109ZM2.51134 5.88975V3.37842H0V5.88975H2.51134Z" fill="white"/>
<path d="M275.745 19.4221H248.12V24.4448H275.745V19.4221ZM273.133 40.216L278.156 22.6367L273.334 21.2553L268.311 38.8347L273.133 40.216ZM239.331 42.0241H270.722V37.0014H239.331V42.0241ZM230.541 14.3994H225.518V19.4221H230.541V14.3994ZM242.972 46.2431L232.927 16.1071L228.155 17.6893L238.201 47.8253L242.972 46.2431ZM270.722 44.5354H240.586V49.5581H270.722V44.5354ZM243.098 57.0921H248.12C248.12 54.3297 245.86 52.0695 243.098 52.0695V57.0921ZM243.098 57.0921V52.0695C240.31 52.0695 238.075 54.3297 238.075 57.0921H243.098ZM243.098 57.0921H238.075C238.075 59.8797 240.31 62.1148 243.098 62.1148V57.0921ZM243.098 57.0921V62.1148C245.86 62.1148 248.12 59.8797 248.12 57.0921H243.098ZM268.211 57.0921H273.234C273.234 54.3297 270.973 52.0695 268.211 52.0695V57.0921ZM268.211 57.0921V52.0695C265.423 52.0695 263.188 54.3297 263.188 57.0921H268.211ZM268.211 57.0921H263.188C263.188 59.8797 265.423 62.1148 268.211 62.1148V57.0921ZM268.211 57.0921V62.1148C270.973 62.1148 273.234 59.8797 273.234 57.0921H268.211ZM248.12 19.4221H245.609V24.4448H248.12V19.4221ZM275.745 21.9334L278.156 22.6367L279.06 19.4221H275.72V21.9334H275.745ZM270.722 39.5128V42.0241H272.606L273.133 40.216L270.722 39.5128ZM239.331 37.0014C237.949 37.0014 236.819 38.1315 236.819 39.5128C236.819 40.894 237.949 42.0241 239.331 42.0241V37.0014ZM225.518 14.3994H223.007V19.4221H225.518V14.3994ZM230.541 16.9107L232.927 16.1071L232.349 14.3994H230.541V16.9107ZM240.586 47.0468L238.201 47.8504L238.778 49.5581H240.586V47.0468ZM270.722 49.5581H273.234V44.5354H270.722V49.5581Z" fill="white"/>
<path d="M459.374 33.7181H509.601V28.6954H459.374V33.7181ZM469.42 31.2067C469.42 41.8297 472.76 48.6857 476.276 52.9047C478.009 54.9891 479.767 56.4206 481.123 57.2995C481.801 57.7516 482.378 58.0781 482.78 58.279C482.981 58.3795 483.157 58.4798 483.282 58.5301C483.358 58.5552 483.408 58.5802 483.433 58.6053C483.433 58.6053 483.458 58.6053 483.483 58.6053C483.483 58.6053 483.793 57.8268 484.413 56.2698C485.032 54.7128 485.342 53.9343 485.342 53.9343C485.342 53.9343 485.342 53.9343 485.291 53.9343C485.241 53.9092 485.141 53.859 485.015 53.7836C484.739 53.658 484.337 53.407 483.835 53.0805C482.83 52.4025 481.449 51.2975 480.043 49.64C477.28 46.325 474.342 40.6242 474.342 31.1565H469.319L469.42 31.2067ZM484.488 6.09337C483.868 4.53634 483.559 3.75784 483.559 3.75784C483.559 3.75784 483.534 3.75784 483.508 3.75784C483.458 3.75784 483.408 3.80799 483.358 3.8331C483.232 3.88333 483.056 3.98388 482.855 4.08433C482.429 4.31035 481.851 4.61175 481.198 5.06379C479.842 5.96787 478.084 7.37422 476.351 9.45862C472.835 13.7028 469.495 20.5335 469.495 31.1565H474.518C474.518 21.6887 477.456 15.9629 480.219 12.6731C481.625 10.9905 483.006 9.9106 484.011 9.23254C484.513 8.90606 484.915 8.67997 485.191 8.52929C485.317 8.45395 485.417 8.40373 485.467 8.37862C485.492 8.37862 485.518 8.37862 485.518 8.37862C485.518 8.37862 485.208 7.60012 484.588 6.04309L484.488 6.09337ZM494.533 31.2067C494.533 40.6745 491.595 46.4003 488.832 49.6901C487.426 51.3727 486.045 52.4526 485.04 53.1306C484.538 53.4571 484.136 53.6832 483.86 53.8339C483.734 53.9092 483.634 53.9594 483.584 53.9846C483.559 53.9846 483.534 53.9846 483.534 53.9846C483.534 53.9846 483.534 53.9845 484.463 56.3201C485.082 57.8771 485.392 58.6556 485.392 58.6556C485.392 58.6556 485.417 58.6556 485.442 58.6556C485.492 58.6556 485.543 58.6055 485.593 58.5803C485.718 58.5301 485.894 58.4296 486.095 58.3291C486.522 58.1031 487.1 57.8017 487.753 57.3497C489.109 56.4456 490.867 55.0392 492.599 52.9548C496.115 48.7107 499.455 41.88 499.455 31.257H494.433L494.533 31.2067ZM484.488 6.09337C483.868 7.6504 483.559 8.42889 483.559 8.42889C483.559 8.42889 483.559 8.42889 483.609 8.42889C483.659 8.454 483.76 8.50422 483.885 8.57957C484.161 8.70513 484.563 8.95634 485.065 9.28281C486.07 9.96087 487.451 11.0658 488.858 12.7233C491.62 16.0383 494.558 21.739 494.558 31.2067H499.581C499.581 20.5838 496.241 13.7278 492.725 9.50875C490.992 7.42434 489.234 5.99288 487.878 5.11391C487.2 4.66187 486.622 4.33536 486.221 4.13445C486.02 4.034 485.844 3.93361 485.718 3.88338C485.643 3.85827 485.593 3.83323 485.568 3.80812C485.568 3.80812 485.543 3.80812 485.518 3.80812C485.518 3.80812 485.518 3.8081 484.588 6.14364L484.488 6.09337ZM481.977 6.09337V56.3452H486.999V6.09337H481.977ZM484.488 8.6047C496.969 8.6047 507.09 18.7254 507.09 31.2067H512.113C512.113 15.9629 499.732 3.58203 484.488 3.58203V8.6047ZM461.886 31.2067C461.886 18.7254 472.007 8.6047 484.488 8.6047V3.58203C469.219 3.58203 456.863 15.9629 456.863 31.2067H461.886ZM484.488 53.8087C472.007 53.8087 461.886 43.6881 461.886 31.2067H456.863C456.863 46.4756 469.219 58.8314 484.488 58.8314V53.8087ZM507.09 31.2067C507.09 43.6881 496.969 53.8087 484.488 53.8087V58.8314C499.732 58.8314 512.113 46.4756 512.113 31.2067H507.09ZM484.488 56.3452L483.559 58.6807L484.488 59.0575L485.417 58.6807L484.488 56.3452Z" fill="white"/>
<path d="M737.631 35.1587V7.53401H732.608V35.1587H737.631ZM722.563 35.1587C724.748 35.1587 727.636 35.7111 730.122 36.339C731.327 36.6403 732.382 36.9417 733.161 37.1677C733.537 37.2682 733.839 37.3686 734.04 37.4439C734.14 37.4691 734.215 37.4942 734.266 37.5194C734.291 37.5194 734.316 37.5194 734.316 37.5194C734.316 37.5194 734.316 37.5193 735.12 35.1336L735.923 32.7478C735.923 32.7478 735.873 32.7478 735.848 32.7478C735.798 32.7478 735.697 32.6976 735.572 32.6725C735.346 32.5972 735.019 32.4967 734.617 32.3712C733.814 32.12 732.659 31.7936 731.378 31.4671C728.816 30.8393 725.451 30.136 722.613 30.136V35.1587H722.563ZM707.495 37.67C710.358 37.67 713.196 36.9417 715.632 36.339C718.193 35.686 720.403 35.1587 722.563 35.1587V30.136C719.675 30.136 716.862 30.8644 714.426 31.4671C711.865 32.1201 709.655 32.6474 707.495 32.6474V37.67ZM694.938 32.6474L694.135 35.0332C694.135 35.0332 694.185 35.0332 694.21 35.0332C694.26 35.0332 694.361 35.0833 694.486 35.1084C694.712 35.1838 695.039 35.2842 695.441 35.4098C696.244 35.6609 697.399 35.9875 698.68 36.314C701.242 36.9418 704.607 37.6449 707.445 37.6449V32.6222C705.26 32.6222 702.372 32.0698 699.885 31.442C698.68 31.1406 697.625 30.8392 696.847 30.6132C696.47 30.5127 696.169 30.4123 695.968 30.337C695.867 30.3119 695.792 30.2867 695.742 30.2616C695.717 30.2616 695.692 30.2616 695.692 30.2616C695.692 30.2616 695.692 30.2616 694.888 32.6474H694.938ZM692.427 5.02267V32.6474H697.45V5.02267H692.427ZM707.495 5.02267C705.31 5.02267 702.422 4.47025 699.936 3.84242C698.73 3.54106 697.675 3.23965 696.897 3.01363C696.52 2.91318 696.219 2.81276 696.018 2.73742C695.918 2.71231 695.842 2.68712 695.792 2.66201C695.767 2.66201 695.742 2.66201 695.742 2.66201C695.742 2.66201 695.742 2.66204 694.938 5.04781L694.135 7.43361C694.135 7.43361 694.185 7.43361 694.21 7.43361C694.26 7.43361 694.361 7.48376 694.486 7.50887C694.712 7.58421 695.039 7.68465 695.441 7.81022C696.244 8.06135 697.399 8.38779 698.68 8.71426C701.242 9.3421 704.607 10.0453 707.445 10.0453V5.02267H707.495ZM722.563 2.51134C719.675 2.51134 716.862 3.2397 714.426 3.84242C711.865 4.49536 709.655 5.02267 707.495 5.02267V10.0453C710.358 10.0453 713.196 9.31698 715.632 8.71426C718.193 8.06131 720.403 7.53401 722.563 7.53401V2.51134ZM735.12 7.53401L735.923 5.14821C735.923 5.14821 735.873 5.14821 735.848 5.14821C735.798 5.14821 735.697 5.09806 735.572 5.07295C735.346 4.99761 735.019 4.89717 734.617 4.7716C733.814 4.52047 732.659 4.19388 731.378 3.8674C728.816 3.23957 725.451 2.53647 722.613 2.53647V7.55914C724.798 7.55914 727.686 8.11156 730.172 8.7394C731.378 9.04076 732.432 9.34216 733.211 9.56818C733.588 9.66864 733.889 9.76905 734.09 9.84439C734.19 9.86951 734.266 9.89469 734.316 9.91981C734.341 9.91981 734.366 9.91981 734.366 9.91981C734.366 9.91981 734.366 9.91978 735.17 7.53401H735.12ZM697.45 55.2494V0H692.427V55.2494H697.45ZM735.12 35.1587L734.316 37.5445L737.631 38.6495V35.1587H735.12ZM694.938 32.6474H692.427C692.427 33.7272 693.105 34.6816 694.135 35.0332L694.938 32.6474ZM694.938 5.02267L695.742 2.63687C694.988 2.38574 694.135 2.51134 693.482 2.9885C692.829 3.46565 692.452 4.21904 692.452 5.02267H694.963H694.938ZM735.12 7.53401H737.631V5.72592L735.923 5.14821L735.12 7.53401Z" fill="white"/>
<path d="M935.525 35.6492C935.525 42.5805 941.15 48.2059 948.081 48.2059V43.1832C943.912 43.1832 940.547 39.818 940.547 35.6492H935.525ZM948.081 23.0925C941.15 23.0925 935.525 28.7179 935.525 35.6492H940.547C940.547 31.4804 943.912 28.1152 948.081 28.1152V23.0925ZM960.638 35.6492C960.638 28.7179 955.013 23.0925 948.081 23.0925V28.1152C952.25 28.1152 955.615 31.4804 955.615 35.6492H960.638ZM948.081 48.2059C955.013 48.2059 960.638 42.5805 960.638 35.6492H955.615C955.615 39.818 952.25 43.1832 948.081 43.1832V48.2059ZM929.849 15.7594L934.796 18.6726L937.333 14.3531L932.385 11.4399L929.849 15.7594ZM927.815 20.4305L932.888 15.3827L929.347 11.8166L924.274 16.8644L927.815 20.4305ZM931.13 22.3391L928.216 17.3667L923.897 19.9031L926.81 24.8756L931.13 22.3391ZM928.367 31.5809L931.28 24.5742L926.634 22.6405L923.721 29.6471L928.367 31.5809ZM921.009 34.3433L926.584 33.0877L925.479 28.1905L919.904 29.4462L921.009 34.3433ZM922.968 39.4162V31.8822H917.945V39.4162H922.968ZM926.609 38.2108L921.034 36.9551L919.929 41.8522L925.504 43.1079L926.609 38.2108ZM931.28 46.7242L928.367 39.7176L923.721 41.6513L926.634 48.6579L931.28 46.7242ZM928.216 53.8564L931.13 48.9593L926.81 46.3977L923.897 51.2948L928.216 53.8564ZM932.862 55.9408L927.815 50.8177L924.224 54.3336L929.271 59.4316L932.862 55.9157V55.9408ZM934.796 52.6258L929.824 55.539L932.36 59.8836L937.333 56.9705L934.796 52.6258ZM944.038 55.3632L937.031 52.4501L935.098 57.096L942.104 60.0092L944.038 55.3632ZM946.775 62.7214L945.52 57.1462L940.623 58.2512L941.878 63.8264L946.775 62.7214ZM951.848 60.7626H944.314V65.7852H951.848V60.7626ZM950.668 57.1462L949.412 62.7214L954.309 63.8264L955.565 58.2512L950.668 57.1462ZM959.156 52.4752L952.15 55.3883L954.083 60.0343L961.09 57.1211L959.156 52.4752ZM966.339 55.5139L961.391 52.6007L958.855 56.9453L963.802 59.8585L966.339 55.5139ZM968.348 50.8177L963.3 55.9408L966.866 59.4818L971.914 54.3838L968.348 50.8428V50.8177ZM965.058 48.9593L967.971 53.8564L972.291 51.2948L969.377 46.3977L965.058 48.9593ZM967.82 39.7176L964.907 46.7242L969.553 48.6579L972.466 41.6513L967.82 39.7176ZM975.153 36.9551L969.578 38.2108L970.683 43.1079L976.258 41.8522L975.153 36.9551ZM973.195 31.8822V39.4162H978.217V31.8822H973.195ZM969.578 33.0877L975.153 34.3433L976.258 29.4462L970.683 28.1905L969.578 33.0877ZM964.907 24.5742L967.82 31.5809L972.466 29.6471L969.553 22.6405L964.907 24.5742ZM967.971 17.3918L965.058 22.3642L969.402 24.9007L972.316 19.9283L967.996 17.3918H967.971ZM963.3 15.3827L968.348 20.4305L971.889 16.8895L966.841 11.8417L963.3 15.3827ZM961.391 18.6726L966.364 15.7594L963.827 11.4148L958.855 14.328L961.391 18.6726ZM952.15 15.9352L959.156 18.8484L961.09 14.2024L954.083 11.2893L952.15 15.9352ZM949.412 8.57701L950.668 14.1522L955.565 13.0472L954.309 7.47203L949.412 8.57701ZM944.314 10.5359H951.848V5.51318H944.314V10.5359ZM945.52 14.1522L946.775 8.57701L941.878 7.47203L940.623 13.0472L945.52 14.1522ZM937.006 18.8233L944.013 15.9101L942.079 11.2641L935.072 14.1773L937.006 18.8233ZM931.105 13.5997L932.385 11.4399L930.703 10.4605L929.322 11.8166L931.105 13.5997ZM926.057 18.6475L924.299 16.8644L922.918 18.2457L923.897 19.9283L926.057 18.6475ZM928.945 23.6199L931.255 24.5742L931.732 23.419L931.105 22.3391L928.945 23.5948V23.6199ZM926.057 30.6265L926.609 33.0877L927.89 32.8114L928.392 31.606L926.082 30.6517L926.057 30.6265ZM920.457 31.8822L919.904 29.4211L917.945 29.8731V31.8822H920.457ZM920.457 39.4162H917.945V41.4253L919.904 41.8773L920.457 39.4162ZM926.057 40.6719L928.367 39.7176L927.865 38.5121L926.584 38.2359L926.032 40.697L926.057 40.6719ZM928.945 47.6785L931.105 48.9593L931.758 47.8794L931.28 46.7242L928.97 47.6785H928.945ZM926.057 52.5756L923.897 51.2948L922.918 52.9523L924.274 54.3336L926.057 52.5756ZM931.079 57.6987L929.296 59.4567L930.678 60.8379L932.36 59.8585L931.105 57.6987H931.079ZM936.052 54.7856L937.006 52.4752L935.851 51.998L934.771 52.6258L936.027 54.7856H936.052ZM943.059 57.6987L945.52 57.1462L945.243 55.8906L944.038 55.3883L943.084 57.6987H943.059ZM944.314 63.2739L941.878 63.8264L942.33 65.7852H944.339V63.2739H944.314ZM951.848 63.2739V65.7852H953.857L954.309 63.8264L951.848 63.2739ZM953.104 57.6987L952.15 55.3883L950.944 55.8906L950.668 57.1462L953.104 57.6987ZM960.111 54.7856L961.391 52.6258L960.311 51.998L959.156 52.4752L960.111 54.7856ZM965.083 57.6987L963.802 59.8585L965.485 60.8379L966.866 59.4567L965.083 57.6987ZM970.131 52.5756L971.914 54.3336L973.27 52.9523L972.291 51.2948L970.131 52.5756ZM967.218 47.6785L964.907 46.7242L964.43 47.8794L965.083 48.9593L967.243 47.6785H967.218ZM970.131 40.6719L969.578 38.2108L968.298 38.487L967.795 39.6925L970.106 40.6468L970.131 40.6719ZM975.706 39.4162L976.258 41.8773L978.217 41.4253V39.4162H975.706ZM975.706 31.8822H978.217V29.8731L976.258 29.4211L975.706 31.8822ZM970.131 30.6265L967.82 31.5809L968.322 32.7863L969.603 33.0625L970.156 30.6014L970.131 30.6265ZM967.218 23.6199L965.058 22.3642L964.43 23.4441L964.907 24.5993L967.218 23.645V23.6199ZM970.131 18.6475L972.291 19.9283L973.27 18.2457L971.889 16.8644L970.106 18.6475H970.131ZM965.083 13.5997L966.866 11.8166L965.485 10.4354L963.802 11.4148L965.083 13.5746V13.5997ZM960.111 16.5128L959.156 18.8233L960.311 19.3004L961.391 18.6726L960.111 16.5128ZM953.104 13.5997L950.668 14.1522L950.944 15.433L952.15 15.9352L953.104 13.6248V13.5997ZM951.848 8.02452L954.309 7.47203L953.857 5.51318H951.848V8.02452ZM944.314 8.02452V5.51318H942.305L941.853 7.47203L944.289 8.02452H944.314ZM943.059 13.5997L944.013 15.9101L945.218 15.4078L945.494 14.1271L943.033 13.5746L943.059 13.5997ZM936.052 16.5128L934.771 18.6726L935.851 19.3004L937.006 18.8233L936.052 16.5128Z" fill="white"/>
<path fill-rule="evenodd" clip-rule="evenodd" d="M1187.37 31.5243C1187.37 32.9056 1186.24 34.0357 1184.86 34.0357C1183.47 34.0357 1182.34 32.9056 1182.34 31.5243C1182.34 30.1431 1183.47 29.013 1184.86 29.013C1186.24 29.013 1187.37 30.1431 1187.37 31.5243ZM1188.6 8.39492C1185.36 5.1553 1180.66 4.4019 1176.79 5.58223C1172.88 6.78767 1169.51 10.1277 1169.51 15.2006C1169.51 18.4654 1170.67 22.4333 1172.8 25.9994C1171.75 25.9994 1170.69 25.9994 1169.66 26.0747C1166.87 26.3007 1163.89 27.029 1161.85 29.0632C1158.61 32.3028 1157.86 36.999 1159.04 40.8414C1160.24 44.7591 1163.58 48.1243 1168.66 48.1243C1171.6 48.1243 1174.81 46.517 1177.52 44.7088C1178.33 44.1563 1179.15 43.5787 1179.93 42.976C1179.83 44.1061 1179.78 45.2362 1179.76 46.3161C1179.76 48.0489 1179.88 49.8069 1180.26 51.389C1180.64 52.9711 1181.31 54.5533 1182.54 55.7838C1185.78 59.0235 1190.48 59.7769 1194.35 58.5965C1198.27 57.3911 1201.63 54.051 1201.63 48.9781C1201.63 46.0901 1200.4 42.9007 1198.77 40.0629C1198.29 39.2341 1197.76 38.3803 1197.19 37.5766C1198.17 37.7022 1199.17 37.7775 1200.12 37.8027C1203.24 37.9031 1206.85 37.5264 1209.27 35.1155C1212.5 31.8759 1213.26 27.1797 1212.08 23.3374C1210.87 19.4197 1207.53 16.0545 1202.46 16.0545C1199.62 16.0545 1196.63 17.2348 1193.97 18.7919C1193.14 19.269 1192.34 19.8215 1191.54 20.374C1191.59 19.269 1191.61 18.1891 1191.54 17.1344C1191.41 14.0705 1190.76 10.6049 1188.57 8.39492H1188.6ZM1192.39 31.7503C1195.1 32.2275 1197.84 32.7047 1200.27 32.78C1203.19 32.8804 1204.87 32.3782 1205.7 31.5746C1207.48 29.7915 1207.98 27.1044 1207.28 24.8191C1206.6 22.6091 1204.92 21.0772 1202.46 21.0772C1200.9 21.0772 1198.84 21.7552 1196.53 23.1365C1194.62 24.2415 1192.74 25.7231 1191.11 27.3053C1191.94 28.5107 1192.41 29.9673 1192.41 31.5243C1192.41 31.5997 1192.41 31.675 1192.41 31.7503H1192.39ZM1185.46 39.0332C1185.08 41.4441 1184.78 44.0308 1184.78 46.3663C1184.78 47.8731 1184.88 49.179 1185.13 50.2338C1185.38 51.3137 1185.73 51.9164 1186.09 52.2428C1187.87 54.0259 1190.56 54.5282 1192.84 53.825C1195.05 53.1469 1196.58 51.4643 1196.58 49.0032C1196.58 47.396 1195.83 45.1106 1194.4 42.5742C1193.24 40.54 1191.74 38.531 1190.18 36.8735C1188.95 38.0789 1187.32 38.8825 1185.48 39.0332H1185.46ZM1177.32 31.4239C1174.76 31.0974 1172.25 30.9216 1170.06 31.0974C1167.63 31.2983 1166.15 31.8759 1165.39 32.6293C1163.61 34.4124 1163.11 37.0995 1163.81 39.3848C1164.49 41.5948 1166.17 43.1267 1168.63 43.1267C1169.99 43.1267 1172.15 42.2728 1174.71 40.5651C1176.34 39.4601 1178 38.1543 1179.46 36.7981C1178.12 35.442 1177.3 33.5836 1177.3 31.5243V31.4239H1177.32ZM1174.53 15.2006C1174.53 12.7395 1176.07 11.0569 1178.28 10.3789C1180.56 9.6757 1183.27 10.178 1185.03 11.961C1185.81 12.7395 1186.41 14.4975 1186.54 17.3604C1186.64 19.4699 1186.44 21.8055 1186.16 24.1159C1185.73 24.0405 1185.31 23.9903 1184.86 23.9903C1182.65 23.9903 1180.69 24.9446 1179.31 26.4263C1176.22 23.0109 1174.53 18.3649 1174.53 15.2006Z" fill="white"/>
<path d="M1419.7 27.5418H1418.04V32.5645H1419.7V27.5418H1418.04V32.5645H1419.7V27.5418ZM1448.27 47.6325C1449.71 46.7619 1450.43 46.3265 1450.43 46.3265C1450.43 46.3265 1450.43 46.3266 1450.41 46.2764C1450.41 46.2513 1450.36 46.176 1450.31 46.1257C1450.23 46.0002 1450.11 45.7992 1449.96 45.548C1449.66 45.0458 1449.2 44.3426 1448.63 43.5138C1447.52 41.8313 1445.96 39.5711 1444.18 37.3109C1442.42 35.0507 1440.41 32.7151 1438.38 30.932C1437.35 30.028 1436.3 29.2244 1435.19 28.6216C1434.11 28.0189 1432.83 27.5669 1431.5 27.5669V32.5896C1431.7 32.5896 1432.1 32.6649 1432.8 33.0416C1433.46 33.3932 1434.24 33.9707 1435.09 34.699C1436.8 36.2058 1438.58 38.2652 1440.26 40.3998C1441.92 42.5345 1443.4 44.6692 1444.48 46.2764C1445.01 47.08 1445.44 47.758 1445.74 48.21C1445.89 48.4361 1445.99 48.637 1446.06 48.7375C1446.11 48.7877 1446.14 48.8379 1446.14 48.8881C1446.14 48.8881 1446.14 48.8882 1446.14 48.9133L1448.3 47.6073L1448.27 47.6325ZM1445.76 12.4738V47.6325H1450.79V12.4738H1445.76ZM1431.45 32.5645C1432.8 32.5645 1434.06 32.0873 1435.14 31.5097C1436.25 30.907 1437.32 30.1033 1438.33 29.1992C1440.36 27.391 1442.37 25.0556 1444.13 22.8205C1445.89 20.5603 1447.45 18.3001 1448.58 16.6175C1449.13 15.7637 1449.58 15.0605 1449.91 14.5834C1450.06 14.3322 1450.18 14.1312 1450.26 14.0056C1450.31 13.9303 1450.33 13.8801 1450.36 13.855C1450.36 13.855 1450.36 13.83 1450.38 13.8049C1450.38 13.8049 1449.66 13.3695 1448.22 12.4989L1446.06 11.193C1446.06 11.193 1446.06 11.193 1446.06 11.2181C1446.06 11.2432 1446.01 11.2934 1445.99 11.3688C1445.91 11.4943 1445.79 11.6702 1445.66 11.8962C1445.36 12.3734 1444.93 13.0262 1444.41 13.8298C1443.33 15.4371 1441.85 17.5969 1440.19 19.7064C1438.51 21.8411 1436.72 23.9004 1435.01 25.4072C1434.16 26.1606 1433.41 26.713 1432.73 27.0646C1432.05 27.4413 1431.62 27.5167 1431.42 27.5167V32.5393L1431.45 32.5645ZM1419.7 30.0531V32.5645H1431.47V27.5418H1419.7V30.0531ZM1412.99 40.0985C1407.39 40.0985 1406.08 37.4616 1406.08 36.3315C1406.08 35.2014 1407.39 32.5645 1412.99 32.5645V27.5418C1406.03 27.5418 1401.06 31.1832 1401.06 36.3315C1401.06 41.4797 1406.03 45.1211 1412.99 45.1211V40.0985ZM1412.99 32.5645H1418.01V27.5418H1412.99V32.5645ZM1392.9 32.5645H1412.99V27.5418H1392.9V32.5645ZM1418.01 40.0985H1412.99V45.1211H1418.01V40.0985ZM1418.01 32.5645C1422.73 32.5645 1423.99 35.0005 1423.99 36.3315C1423.99 37.6625 1422.73 40.0985 1418.01 40.0985V45.1211C1424.59 45.1211 1429.01 41.2788 1429.01 36.3315C1429.01 31.3841 1424.62 27.5418 1418.01 27.5418V32.5645ZM1448.27 47.6325L1446.11 48.9384L1450.79 56.6482V47.6325H1448.27ZM1448.27 12.4738H1450.79V3.45801L1446.11 11.1678L1448.27 12.4738Z" fill="white"/>
<path d="M1634.16 57.1919H1684.39V52.1693H1634.16V57.1919ZM1657.09 8.24604L1631.97 53.4501L1636.37 55.886L1661.48 10.682L1657.09 8.24604ZM1686.6 53.4501L1661.48 8.24604L1657.09 10.682L1682.2 55.886L1686.6 53.4501ZM1661.78 49.6579V44.6353H1656.76V49.6579H1661.78ZM1661.78 39.6126V27.0559H1656.76V39.6126H1661.78ZM1684.39 54.6806V57.1919H1688.65L1686.57 53.4501L1684.39 54.6806ZM1634.16 54.6806L1631.97 53.4501L1629.89 57.1919H1634.16V54.6806ZM1659.27 9.47657L1661.46 8.24604L1659.27 4.30322L1657.09 8.24604L1659.27 9.47657Z" fill="white"/>
</svg>
