<svg width="311" height="16" viewBox="0 0 311 16" fill="none" xmlns="http://www.w3.org/2000/svg">
<path d="M15.5389 12.0073C15.5389 10.4464 14.2746 9.18207 12.7136 9.18207V10.5947C13.4906 10.5947 14.1263 11.2304 14.1263 12.0073H15.5389ZM12.7136 9.18207H11.301V10.5947H12.7136V9.18207ZM15.5389 14.1263V12.0073H14.1263V14.1263H15.5389ZM1.41263 12.0073C1.41263 11.2304 2.04125 10.5947 2.82525 10.5947V9.18207C1.2643 9.18207 0 10.4464 0 12.0073H1.41263ZM2.82525 10.5947H7.76944V9.18207H2.82525V10.5947ZM1.41263 14.1263V12.0073H0V14.1263H1.41263ZM7.76944 1.41263C9.3304 1.41263 10.5947 2.67693 10.5947 4.23788H12.0073C12.0073 1.89998 10.1073 0 7.76944 0V1.41263ZM4.94419 4.23788C4.94419 2.67693 6.20849 1.41263 7.76944 1.41263V0C5.43155 0 3.53157 1.89998 3.53157 4.23788H4.94419ZM7.76944 7.06313C6.20849 7.06313 4.94419 5.79883 4.94419 4.23788H3.53157C3.53157 6.57578 5.43155 8.47576 7.76944 8.47576V7.06313ZM10.5947 4.23788C10.5947 5.79883 9.3304 7.06313 7.76944 7.06313V8.47576C10.1073 8.47576 12.0073 6.57578 12.0073 4.23788H10.5947Z" fill="white"/>
<path d="M47.0316 1.41263H52.6821V0H47.0316V1.41263ZM45.6189 15.5389H54.0947V14.1263H45.6189V15.5389ZM43.5 3.53157H56.2136V2.11894H43.5V3.53157ZM50.5631 4.94419V12.0073H51.9758V4.94419H50.5631ZM47.7379 4.94419V12.0073H49.1505V4.94419H47.7379ZM51.9758 0.706313V2.82525H53.3884V0.706313H51.9758ZM47.7379 2.82525V0.706313H46.3253V2.82525H47.7379ZM54.801 14.882L55.5073 4.99364L54.1018 4.89475L53.3954 14.7831L54.801 14.882ZM44.2134 4.99364L44.9197 14.882L46.3253 14.7831L45.6189 4.89475L44.2134 4.99364ZM52.6821 0.706313H53.3884V0H52.6821V0.706313ZM47.0316 0.706313V0H46.3253V0.706313H47.0316ZM54.0947 14.8326V15.5389H54.7516L54.801 14.882L54.0947 14.8326ZM45.6189 14.8326L44.9126 14.882L44.9621 15.5389H45.6189V14.8326Z" fill="white"/>
<path d="M92.3897 7.21852L95.9213 10.0438L95.0384 11.1456L91.5068 8.32037L92.3897 7.21852ZM92.6511 0.706313V7.76944H91.2384V0.706313H92.6511ZM89.176 2.0483C87.05 3.07952 85.595 5.25497 85.595 7.76944H84.1824C84.1824 4.68992 85.9693 2.03419 88.5615 0.776949L89.176 2.0483ZM98.3016 7.76944C98.3016 4.25907 95.4551 1.41263 91.9447 1.41263V0C96.2321 0 99.7142 3.48212 99.7142 7.76944H98.3016ZM91.9447 14.1263C95.4551 14.1263 98.3016 11.2798 98.3016 7.76944H99.7142C99.7142 12.0638 96.2321 15.5389 91.9447 15.5389V14.1263ZM85.5879 7.76944C85.5879 11.2798 88.4344 14.1263 91.9447 14.1263V15.5389C87.6504 15.5389 84.1753 12.0638 84.1753 7.76944H85.5879ZM91.9447 7.76944L91.5068 8.32037L91.2384 8.10847V7.76944H91.9447ZM91.9447 0.706313H91.2384V0H91.9447V0.706313Z" fill="white"/>
<path d="M138.856 11.301H127.555V12.7136H138.856V11.301ZM138.362 0.204826L132.005 6.56165L133.001 7.55755L139.358 1.20073L138.362 0.204826ZM138.164 0.706313L138.15 6.35682H139.563L139.577 0.713372H138.164V0.706313ZM133.206 1.41263H138.871V0H133.206V1.41263ZM127.555 1.41263H131.087V0H127.555V1.41263ZM128.262 12.0073V0.706313H126.849V12.0073H128.262ZM138.15 8.47576V12.0073H139.563V8.47576H138.15ZM138.871 0.706313H139.577V0H138.871V0.706313ZM127.555 0.706313V0H126.849V0.706313H127.555ZM127.555 12.0073H126.849V12.7136H127.555V12.0073ZM138.856 12.0073V12.7136H139.563V12.0073H138.856Z" fill="white"/>
<path d="M177.215 6.56166L181.467 7.16909L181.665 5.77058L177.412 5.16315L177.215 6.56166ZM178.973 10.0014L182.06 6.97132L181.071 5.96129L177.985 8.99136L178.973 10.0014ZM180.054 14.211L179.178 9.36572L177.787 9.61999L178.663 14.4653L180.054 14.211ZM171.55 14.9456L175.633 12.5229L174.912 11.3081L170.83 13.7307L171.55 14.9456ZM171.366 9.37278L170.491 14.2181L171.882 14.4724L172.758 9.62705L171.366 9.37278ZM168.372 6.98544L171.578 10.0085L172.546 8.97725L169.339 5.95423L168.372 6.98544ZM173.132 5.16315L168.753 5.77058L168.944 7.16909L173.316 6.56166L173.125 5.16315H173.132ZM174.637 1.32081L172.595 5.55869L173.867 6.17318L175.908 1.9353L174.637 1.32081ZM177.949 5.55869L175.908 1.32081L174.637 1.9353L176.678 6.17318L177.949 5.55869ZM181.566 6.46983L182.06 6.97132L183.084 5.96834L181.665 5.76352L181.566 6.46277V6.46983ZM178.479 9.49285L177.985 8.99136L177.716 9.25271L177.78 9.61999L178.472 9.49285H178.479ZM178.663 14.4653L178.79 15.1575L180.181 14.9032L180.054 14.211L178.663 14.4653ZM171.19 14.3382L170.498 14.211L170.222 15.7296L171.55 14.9385L171.19 14.3311V14.3382ZM172.066 9.49285L172.758 9.61999L172.829 9.24564L172.546 8.9843L172.059 9.49991L172.066 9.49285ZM168.852 6.46983L168.753 5.77058L167.291 5.97541L168.365 6.98544L168.852 6.46983ZM173.231 5.8624L173.33 6.56166L173.704 6.51221L173.867 6.17318L173.231 5.86946V5.8624ZM175.272 1.62452L175.908 1.32081L175.272 0L174.637 1.32081L175.272 1.62452ZM177.314 5.8624L176.678 6.16611L176.84 6.50515L177.215 6.56166L177.314 5.8624Z" fill="white"/>
<path d="M217.7 3.53157V5.65051H219.113V3.53157H217.7ZM217.7 7.06313V12.0073H219.113V7.06313H217.7ZM218.407 1.41263C221.917 1.41263 224.763 4.25907 224.763 7.76944H226.176C226.176 3.48212 222.694 0 218.407 0V1.41263ZM212.05 7.76944C212.05 4.25907 214.896 1.41263 218.407 1.41263V0C214.112 0 210.637 3.48212 210.637 7.76944H212.05ZM218.407 14.1263C214.896 14.1263 212.05 11.2798 212.05 7.76944H210.637C210.637 12.0638 214.112 15.5389 218.407 15.5389V14.1263ZM224.763 7.76944C224.763 11.2798 221.917 14.1263 218.407 14.1263V15.5389C222.694 15.5389 226.176 12.0638 226.176 7.76944H224.763Z" fill="white"/>
<path d="M261.29 1.41263C264.8 1.41263 267.647 4.25907 267.647 7.76944H269.059C269.059 3.48212 265.577 0 261.29 0V1.41263ZM254.933 7.76944C254.933 4.25907 257.78 1.41263 261.29 1.41263V0C256.996 0 253.521 3.48212 253.521 7.76944H254.933ZM261.29 14.1263C257.78 14.1263 254.933 11.2798 254.933 7.76944H253.521C253.521 12.0638 256.996 15.5389 261.29 15.5389V14.1263ZM267.647 7.76944C267.647 11.2798 264.8 14.1263 261.29 14.1263V15.5389C265.577 15.5389 269.059 12.0638 269.059 7.76944H267.647Z" fill="white"/>
<path d="M309.8 6.95013L298.499 13.3069L299.191 14.5359L310.492 8.17911L309.8 6.95013ZM298.499 1.82229L309.8 8.17911L310.492 6.95013L299.191 0.593311L298.499 1.82229ZM299.551 13.9214V1.2078H298.139V13.9214H299.551ZM310.146 7.56462L310.492 8.17911C310.711 8.05197 310.852 7.81889 310.852 7.56462C310.852 7.31035 310.711 7.07727 310.492 6.95013L310.146 7.56462ZM298.845 1.2078L299.191 0.593311L298.139 0V1.2078H298.845ZM298.845 13.9214H298.139V15.1292L299.191 14.5359L298.845 13.9214Z" fill="white"/>
</svg>
