<svg width="1683" height="66" viewBox="0 0 1683 66" fill="none" xmlns="http://www.w3.org/2000/svg">
<path fill-rule="evenodd" clip-rule="evenodd" d="M30.3181 26.8526C25.421 21.9555 17.4601 21.9555 12.563 26.8526L3.67283 35.7428C-1.22428 40.6399 -1.22428 48.6008 3.67283 53.498C8.56993 58.3951 16.5309 58.3951 21.428 53.498L26.752 48.1739L28.5351 46.3908L24.9941 42.8499L23.211 44.6329L17.887 49.957C14.9487 52.8952 10.1772 52.8952 7.23893 49.957C4.30066 47.0187 4.30066 42.2472 7.23893 39.3089L16.1291 30.4188C19.0673 27.4805 23.8389 27.4805 26.7771 30.4188L28.5602 32.2018L32.1012 28.6357L30.3181 26.8526ZM46.3153 10.8554C41.4182 5.95834 33.4573 5.95834 28.5602 10.8554L23.2361 16.1795L21.4531 17.9626L24.9941 21.5286L26.7771 19.7456L32.1012 14.4216C35.0394 11.4833 39.811 11.4833 42.7492 14.4216C45.6875 17.3598 45.6875 22.1314 42.7492 25.0696L33.8591 33.9598C30.9208 36.898 26.1493 36.898 23.211 33.9598L21.428 32.1767L17.8619 35.7177L19.6449 37.5008C24.542 42.3979 32.503 42.3979 37.4001 37.5008L46.2902 28.6106C51.1873 23.7135 51.1873 15.7526 46.2902 10.8554H46.3153Z" fill="white"/>
<path d="M281.038 15.0852H235.834V20.1079H281.038V15.0852ZM265.442 41.7054L283.022 19.1536L279.054 16.0647L261.474 38.6164L265.442 41.7054ZM265.97 52.7552V40.1484H260.947V52.7552H265.97ZM250.902 40.1986V62.8006H255.924V40.1986H250.902ZM233.85 19.1284L251.429 41.7304L255.397 38.6415L237.818 16.0395L233.85 19.1284ZM281.038 17.5965L283.022 19.1536L286.186 15.0852H281.038V17.5965ZM263.458 40.1484L261.474 38.5913L260.947 39.2694V40.1232H263.458V40.1484ZM260.947 52.7552V55.2666H265.97V52.7552H260.947ZM250.902 62.8006V65.3119H255.924V62.8006H250.902ZM253.413 40.1986H255.924V39.3447L255.397 38.6667L253.413 40.1986ZM235.834 17.5965V15.0852H230.685L233.85 19.1284L235.834 17.5965Z" fill="white"/>
<path d="M479.333 32.2535V24.7195H474.31V32.2535H479.333ZM491.89 44.8353C484.958 44.8353 479.333 39.235 479.333 32.2535H474.31C474.31 41.9975 482.171 49.858 491.89 49.858V44.8353ZM504.446 32.2786C504.446 39.2099 498.821 44.8353 491.89 44.8353V49.858C501.584 49.858 509.469 41.9975 509.469 32.2786H504.446ZM504.446 24.82V32.3038H509.469V24.82H504.446ZM486.867 17.2106C486.867 14.4482 489.102 12.188 491.89 12.188V7.16528C486.34 7.16528 481.844 11.6606 481.844 17.2106H486.867ZM486.867 32.2786V17.2106H481.844V32.2786H486.867ZM491.89 37.3013C489.102 37.3013 486.867 35.0662 486.867 32.2786H481.844C481.844 37.8287 486.34 42.324 491.89 42.324V37.3013ZM496.912 32.2786C496.912 35.0662 494.652 37.3013 491.89 37.3013V42.324C497.44 42.324 501.935 37.8287 501.935 32.2786H496.912ZM496.912 17.2106V32.2786H501.935V17.2106H496.912ZM491.89 12.188C494.652 12.188 496.912 14.4482 496.912 17.2106H501.935C501.935 11.6606 497.44 7.16528 491.89 7.16528V12.188ZM494.401 59.9033V47.3467H489.378V59.9033H494.401ZM479.333 62.4147H504.446V57.392H479.333V62.4147ZM479.333 24.7446V22.2333H474.31V24.7446H479.333ZM509.469 24.82V22.3086H504.446V24.82H509.469ZM489.378 59.9033V62.4147H494.401V59.9033H489.378ZM504.446 62.4147H506.958V57.392H504.446V62.4147ZM479.333 57.392H476.822V62.4147H479.333V57.392Z" fill="white"/>
<path d="M737.411 37.3436L710.289 14.7416L707.074 18.609L734.196 41.211L737.411 37.3436ZM723.85 52.512L737.411 41.211L734.196 37.3436L720.635 48.6446L723.85 52.512ZM719.731 5.3743V50.5783H724.754V5.3743H719.731ZM737.411 14.7416L723.85 3.44059L720.635 7.308L734.196 18.609L737.411 14.7416ZM710.289 41.211L737.411 18.609L734.196 14.7416L707.074 37.3436L710.289 41.211ZM710.289 14.7416L708.355 13.1343L705.14 17.0018L707.074 18.609L710.289 14.7416ZM735.804 39.2773L737.411 41.211L739.721 39.2773L737.411 37.3436L735.804 39.2773ZM722.243 50.5783H719.731V55.9526L723.85 52.512L722.243 50.5783ZM722.243 5.3743L723.85 3.44059L719.731 0V5.34916H722.243V5.3743ZM735.804 16.6753L737.411 18.609L739.721 16.6753L737.411 14.7416L735.804 16.6753ZM707.074 37.3436L705.14 38.9508L708.355 42.8183L710.289 41.211L707.074 37.3436Z" fill="white"/>
<path d="M960.787 45.0918L977.312 61.4657L980.853 57.8997L964.328 41.5257L960.787 45.0918ZM951.37 50.8679C956.242 50.5917 960.838 48.5324 964.303 45.1169L960.762 41.5508C958.151 44.1124 954.71 45.6694 951.069 45.8703L951.37 50.893V50.8679ZM937.859 46.6489C941.701 49.6374 946.523 51.1442 951.395 50.8428L951.094 45.8201C947.452 46.0461 943.836 44.916 940.948 42.6558L937.859 46.6237V46.6489ZM930.476 34.5693C931.38 39.366 934.017 43.6604 937.859 46.6489L940.948 42.681C938.06 40.4207 936.101 37.2062 935.398 33.615L930.476 34.5693ZM932.887 20.6063C930.425 24.8002 929.547 29.7727 930.476 34.5693L935.398 33.615C934.72 30.0238 935.348 26.307 937.206 23.1428L932.887 20.5812V20.6063ZM943.911 11.7162C939.29 13.2481 935.373 16.4124 932.887 20.6063L937.206 23.1679C939.064 20.0036 942.003 17.6429 945.468 16.4877L943.886 11.7162H943.911ZM958.05 12.3189C953.555 10.4103 948.532 10.2094 943.911 11.7413L945.493 16.5128C948.959 15.3576 952.751 15.5334 956.116 16.9398L958.075 12.3189H958.05ZM968.296 22.088C966.187 17.6932 962.545 14.2275 958.05 12.3189L956.091 16.9398C959.456 18.3712 962.194 20.983 963.776 24.2729L968.296 22.088ZM969.552 36.2017C970.858 31.5055 970.406 26.4828 968.296 22.088L963.776 24.2729C965.358 27.5627 965.685 31.3297 964.705 34.8456L969.552 36.2017ZM962.545 43.3088L964.303 41.5257L962.545 39.7678L960.787 41.5006L962.545 43.2837V43.3088Z" fill="white"/>
<path fill-rule="evenodd" clip-rule="evenodd" d="M1177.89 53.1067C1179.27 53.1067 1180.4 51.9766 1180.4 50.5953C1180.4 49.2141 1179.27 48.084 1177.89 48.084C1176.51 48.084 1175.38 49.2141 1175.38 50.5953C1175.38 51.9766 1176.51 53.1067 1177.89 53.1067ZM1192.96 38.0387C1194.34 38.0387 1195.47 36.9086 1195.47 35.5273C1195.47 34.1461 1194.34 33.016 1192.96 33.016C1191.58 33.016 1190.45 34.1461 1190.45 35.5273C1190.45 36.9086 1191.58 38.0387 1192.96 38.0387ZM1208.03 22.9706C1209.41 22.9706 1210.54 21.8405 1210.54 20.4593C1210.54 19.0781 1209.41 17.948 1208.03 17.948C1206.65 17.948 1205.52 19.0781 1205.52 20.4593C1205.52 21.8405 1206.65 22.9706 1208.03 22.9706ZM1200.92 22.9455C1200.8 22.9455 1200.65 22.9706 1200.52 22.9706H1170.38V17.948H1200.52C1200.67 17.948 1200.8 17.948 1200.92 17.9731C1201.95 15.0348 1204.74 12.9253 1208.03 12.9253C1212.2 12.9253 1215.56 16.2905 1215.56 20.4593C1215.56 24.6281 1212.2 27.9933 1208.03 27.9933C1204.74 27.9933 1201.93 25.8838 1200.92 22.9455ZM1185.85 38.0387H1170.36V33.016H1185.85C1186.88 30.1028 1189.67 27.9933 1192.96 27.9933C1196.25 27.9933 1199.04 30.1028 1200.07 33.016H1215.56V38.0387H1200.07C1199.04 40.9769 1196.25 43.0613 1192.96 43.0613C1189.67 43.0613 1186.88 40.9769 1185.85 38.0387ZM1185 48.084H1215.56V53.1067H1185C1183.97 56.0449 1181.18 58.1293 1177.89 58.1293C1173.72 58.1293 1170.36 54.7641 1170.36 50.5953C1170.36 46.4265 1173.72 43.0613 1177.89 43.0613C1181.18 43.0613 1183.97 45.1708 1185 48.084Z" fill="white"/>
<path d="M1442.67 15.6292C1439.03 20.2752 1437.68 24.1427 1438.1 27.7088C1438.53 31.1493 1440.59 33.7359 1442.15 35.745C1443.83 37.9298 1445.09 39.6125 1445.46 41.722C1445.81 43.7059 1445.44 46.5437 1442.55 50.9888L1446.77 53.7262C1450.06 48.6533 1451.06 44.5096 1450.41 40.8681C1449.81 37.3523 1447.7 34.7153 1446.14 32.6812C1444.43 30.4712 1443.33 28.9393 1443.1 27.106C1442.9 25.3983 1443.4 22.8618 1446.64 18.7181L1442.67 15.6292ZM1427.61 15.6292C1423.96 20.2752 1422.61 24.1427 1423.04 27.7088C1423.46 31.1493 1425.52 33.7359 1427.08 35.745C1428.76 37.9298 1430.02 39.6125 1430.39 41.722C1430.75 43.7059 1430.37 46.5437 1427.48 50.9888L1431.7 53.7262C1434.99 48.6533 1435.99 44.5096 1435.34 40.8681C1434.74 37.3523 1432.63 34.7153 1431.07 32.6812C1429.36 30.4712 1428.26 28.9393 1428.03 27.106C1427.83 25.3983 1428.33 22.8618 1431.57 18.7181L1427.61 15.6292ZM1412.54 15.6292C1408.9 20.2752 1407.54 24.1427 1407.97 27.7088C1408.39 31.1493 1410.45 33.7359 1412.01 35.745C1413.69 37.9298 1414.95 39.6125 1415.33 41.722C1415.68 43.7059 1415.3 46.5437 1412.41 50.9888L1416.63 53.7262C1419.92 48.6533 1420.93 44.5096 1420.27 40.8681C1419.67 37.3523 1417.56 34.7153 1416 32.6812C1414.3 30.4712 1413.19 28.9393 1412.97 27.106C1412.76 25.3983 1413.27 22.8618 1416.51 18.7181L1412.54 15.6292ZM1442.55 50.9637L1441.19 53.0732L1445.41 55.8106L1446.77 53.701L1442.55 50.9637ZM1446.64 18.7181L1448.17 16.7342L1444.21 13.6453L1442.67 15.6292L1446.64 18.7181ZM1427.48 50.9637L1426.12 53.0732L1430.34 55.8106L1431.7 53.701L1427.48 50.9637ZM1431.57 18.7181L1433.11 16.7342L1429.14 13.6453L1427.61 15.6292L1431.57 18.7181ZM1412.41 50.9637L1411.06 53.0732L1415.28 55.8106L1416.63 53.701L1412.41 50.9637ZM1416.51 18.7181L1418.04 16.7342L1414.07 13.6453L1412.54 15.6292L1416.51 18.7181Z" fill="white"/>
<path d="M1682.99 29.3993C1682.99 37.7118 1676.23 44.4673 1667.92 44.4673V39.4446C1673.47 39.4446 1677.96 34.9493 1677.96 29.3993H1682.99ZM1682.99 21.8653V29.3993H1677.96V21.8653H1682.99ZM1655.36 19.3539H1680.47V24.3766H1655.36V19.3539ZM1652.85 29.3993V29.3491V29.2988V29.2486V29.1984V29.1481V29.0979V29.0477V28.9975V28.9473V28.897V28.8468V28.7966V28.7463V28.6961V28.6459V28.5956V28.5454V28.4952V28.445V28.3948V28.3445V28.2943V28.2441V28.1938V28.1436V28.0934V28.0431V27.9929V27.9427V27.8925V27.8423V27.792V27.7418V27.6916V27.6413V27.5911V27.5409V27.4906V27.4404V27.3902V27.34V27.2898V27.2396V27.1893V27.1391V27.0888V27.0386V26.9884V26.9381V26.8879V26.8377V26.7875V26.7373V26.6871V26.6368V26.5866V26.5363V26.4861V26.4359V26.3856V26.3354V26.2852V26.235V26.1848V26.1346V26.0843V26.0341V25.9839V25.9336V25.8834V25.8332V25.783V25.7328V25.6825V25.6323V25.5821V25.5318V25.4816V25.4314V25.3811V25.3309V25.2807V25.2305V25.1803V25.13V25.0798V25.0296V24.9793V24.9291V24.8789V24.8286V24.7784V24.7282V24.678V24.6278V24.5775V24.5273V24.4771V24.4268V24.3766V24.3264V24.2761V24.2259V24.1757V24.1255V24.0753V24.025V23.9748V23.9246V23.8743V23.8241V23.7739V23.7236V23.6734V23.6232V23.573V23.5228V23.4726V23.4223V23.3721V23.3218V23.2716V23.2214V23.1711V23.1209V23.0707V23.0205V22.9703V22.9201V22.8698V22.8196V22.7693V22.7191V22.6689V22.6186V22.5684V22.5182V22.468V22.4178V22.3676V22.3173V22.2671V22.2169V22.1666V22.1164V22.0661V22.0159V21.9657V21.9155V21.8653V21.8151V21.7648V21.7146V21.6644V21.6141V21.5639V21.5136V21.4635V21.4133V21.363V21.3128V21.2626V21.2123V21.1621C1652.85 21.1621 1652.85 21.1621 1655.36 21.1621H1657.87V21.2123V21.2626V21.3128V21.363V21.4133V21.4635V21.5136V21.5639V21.6141V21.6644V21.7146V21.7648V21.8151V21.8653V21.9155V21.9657V22.0159V22.0661V22.1164V22.1666V22.2169V22.2671V22.3173V22.3676V22.4178V22.468V22.5182V22.5684V22.6186V22.6689V22.7191V22.7693V22.8196V22.8698V22.9201V22.9703V23.0205V23.0707V23.1209V23.1711V23.2214V23.2716V23.3218V23.3721V23.4223V23.4726V23.5228V23.573V23.6232V23.6734V23.7236V23.7739V23.8241V23.8743V23.9246V23.9748V24.025V24.0753V24.1255V24.1757V24.2259V24.2761V24.3264V24.3766V24.4268V24.4771V24.5273V24.5775V24.6278V24.678V24.7282V24.7784V24.8286V24.8789V24.9291V24.9793V25.0296V25.0798V25.13V25.1803V25.2305V25.2807V25.3309V25.3811V25.4314V25.4816V25.5318V25.5821V25.6323V25.6825V25.7328V25.783V25.8332V25.8834V25.9336V25.9839V26.0341V26.0843V26.1346V26.1848V26.235V26.2852V26.3354V26.3856V26.4359V26.4861V26.5363V26.5866V26.6368V26.6871V26.7373V26.7875V26.8377V26.8879V26.9381V26.9884V27.0386V27.0888V27.1391V27.1893V27.2396V27.2898V27.34V27.3902V27.4404V27.4906V27.5409V27.5911V27.6413V27.6916V27.7418V27.792V27.8423V27.8925V27.9427V27.9929V28.0431V28.0934V28.1436V28.1938V28.2441V28.2943V28.3445V28.3948V28.445V28.4952V28.5454V28.5956V28.6459V28.6961V28.7463V28.7966V28.8468V28.897V28.9473V28.9975V29.0477V29.0979V29.1481V29.1984V29.2486V29.2988V29.3491V29.3993L1652.85 29.4244V29.3993ZM1667.92 44.4673C1659.6 44.4673 1652.85 37.7118 1652.85 29.3993H1657.87C1657.87 34.9493 1662.37 39.4446 1667.92 39.4446V44.4673ZM1664.3 56.597C1659.81 59.5855 1655.26 59.5353 1650.36 59.5353V54.5126C1655.49 54.5126 1658.47 54.4625 1661.51 52.4283L1664.3 56.597ZM1670.43 41.956C1670.43 45.7983 1670.13 48.7115 1669.15 51.0973C1668.09 53.5835 1666.44 55.1907 1664.3 56.6222L1661.51 52.4533C1663.15 51.3483 1663.97 50.4443 1664.5 49.1886C1665.08 47.7823 1665.41 45.6979 1665.41 41.9811H1670.43V41.956ZM1660.38 21.8653V11.8199H1665.41V21.8653H1660.38ZM1670.43 21.8653V11.8199H1675.45V21.8653H1670.43ZM1680.47 21.8653V19.3539H1682.99V21.8653H1680.47ZM1655.36 21.8653H1652.85V19.3539H1655.36V21.8653ZM1660.38 11.8199V9.30859H1665.41V11.8199H1660.38ZM1670.43 11.8199V9.30859H1675.45V11.8199H1670.43Z" fill="white"/>
</svg>
