<svg width="150" height="94" viewBox="0 0 150 94" fill="none" xmlns="http://www.w3.org/2000/svg">
<path d="M136.736 84.8064L128.275 63.3989H133.705L139.333 78.7856L145.118 63.3989H149.997L137.995 93.5426H132.84L136.736 84.8064Z" fill="#05141F"/>
<path d="M117.262 67.3001H112.619V63.4043H117.262V56.8718H122.339V63.4043H127.1V67.3001H122.339V84.8904H117.262V67.3001Z" fill="#05141F"/>
<path d="M109.851 60.1273H104.774V54.7361H109.851V60.1273ZM109.851 84.8797H104.774V63.3935H109.851V84.8797Z" fill="#05141F"/>
<path d="M99.6443 84.8797H94.5679V54.7361H99.6443V84.8797Z" fill="#05141F"/>
<path d="M89.4343 60.1273H84.3579V54.7361H89.4343V60.1273ZM89.4343 84.8797H84.3579V63.3935H89.4343V84.8797Z" fill="#05141F"/>
<path d="M59.4768 84.8797V54.7361H64.5532V65.6759C65.314 64.784 66.2585 64.0887 67.3866 63.5903C68.5146 63.0656 69.7083 62.8032 70.9676 62.8032C72.7253 62.8032 74.3387 63.2624 75.8079 64.1806C77.277 65.0988 78.4445 66.4236 79.3102 68.1551C80.176 69.8604 80.6088 71.8542 80.6088 74.1366C80.6088 76.419 80.176 78.426 79.3102 80.1575C78.4445 81.8627 77.277 83.1745 75.8079 84.0927C74.3387 85.0109 72.7253 85.47 70.9676 85.47C69.6296 85.47 68.3835 85.1683 67.2291 84.5649C66.1011 83.9877 65.2091 83.2269 64.5532 82.2825L64.2384 84.8797H59.4768ZM64.5532 78.1505C65.0517 79.1999 65.7731 80.0394 66.7176 80.669C67.6883 81.2724 68.7114 81.5741 69.787 81.5741C70.7577 81.5741 71.6628 81.2987 72.5023 80.7478C73.3418 80.1968 74.0239 79.3573 74.5486 78.2292C75.0733 77.1011 75.3357 75.7369 75.3357 74.1366C75.3357 72.5363 75.0602 71.1721 74.5093 70.044C73.9583 68.9159 73.25 68.0764 72.3843 67.5255C71.5185 66.9746 70.6265 66.6991 69.7083 66.6991C68.6327 66.6991 67.6227 67.0008 66.6782 67.6042C65.76 68.2076 65.0517 69.0471 64.5532 70.1227V78.1505Z" fill="#05141F"/>
<path d="M34.1799 73.7861C34.1799 71.7398 34.639 69.8771 35.5572 68.1981C36.5017 66.5191 37.7872 65.2074 39.4137 64.2629C41.0665 63.2922 42.9161 62.8069 44.9624 62.8069C47.0087 62.8069 48.8451 63.2922 50.4717 64.2629C52.1244 65.2074 53.4099 66.5191 54.3281 68.1981C55.2726 69.8771 55.7448 71.7398 55.7448 73.7861V74.4551C55.7448 76.5538 55.2726 78.4427 54.3281 80.1218C53.4099 81.7745 52.1244 83.0863 50.4717 84.057C48.8451 85.0014 47.0087 85.4736 44.9624 85.4736C42.9161 85.4736 41.0665 85.0014 39.4137 84.057C37.7872 83.0863 36.5017 81.7614 35.5572 80.0824C34.639 78.4034 34.1799 76.5276 34.1799 74.4551V73.7861ZM39.4531 74.4551C39.4531 76.5014 39.9384 78.2066 40.9091 79.5708C41.8798 80.9088 43.2309 81.5778 44.9624 81.5778C46.6939 81.5778 48.0449 80.9088 49.0156 79.5708C49.9863 78.2066 50.4717 76.5014 50.4717 74.4551V73.7861C50.4717 71.766 49.9863 70.087 49.0156 68.749C48.0449 67.3848 46.6939 66.7027 44.9624 66.7027C43.2309 66.7027 41.8798 67.3848 40.9091 68.749C39.9384 70.087 39.4531 71.766 39.4531 73.7861V74.4551Z" fill="#05141F"/>
<path d="M5.11967 84.8831H0.00390625V54.9756H7.08727L15.4299 75.5567L23.9299 54.9756H30.1869V84.8831H25.0711V63.2002L16.1776 84.8831H13.9345L5.11967 63.2789V84.8831Z" fill="#05141F"/>
<path d="M150 2.99657C150 1.4157 148.944 0.359826 147.363 0.359826H137.088C135.967 0.359826 135.212 0.642967 134.392 1.17976L87.644 31.5349C87.5083 31.6233 87.3963 31.6764 87.2783 31.6764C87.1131 31.6764 87.0305 31.5172 87.0305 31.2399V2.99657C87.0305 1.4157 85.9747 0.359826 84.3938 0.359826H61.595C60.433 0.359826 59.8077 0.536787 58.799 1.15026L16.434 26.6094C16.2924 26.6979 16.1744 26.7686 16.0624 26.7686C15.8854 26.7686 15.8146 26.6389 15.8146 26.3734V0.631169C15.8146 0.194659 15.7084 0 15.5197 0C15.4194 0 15.3073 0.0294941 15.1776 0.106178L2.63675 7.63891C0.530888 8.90125 0 10.2639 0 12.6352V31.8947C0 33.4756 1.05588 34.5314 2.63675 34.5314H17.6668C18.6342 34.5314 19.3185 34.3368 20.3036 33.7469L36.6373 23.9313C36.7376 23.8664 36.8556 23.8252 36.9381 23.8252C37.0443 23.8252 37.1269 23.8841 37.2213 23.9785L46.9837 33.741C47.5972 34.3545 48.4761 34.5314 49.6205 34.5314H64.1905C64.4618 34.5314 64.6978 34.443 64.6978 34.2542C64.6978 34.089 64.5503 33.9239 64.338 33.7056L48.2402 17.6078C48.0809 17.4486 48.0396 17.3601 48.0396 17.2598C48.0396 17.1536 48.0986 17.0416 48.3287 16.9059L70.8679 3.3682C71.0095 3.27972 71.1216 3.23253 71.2336 3.23253C71.3929 3.23253 71.4814 3.42129 71.4814 3.62774V31.8947C71.4814 33.4756 72.5372 34.5314 74.1181 34.5314H96.7753C97.6542 34.5314 98.4388 34.3427 99.4003 33.7233L133.578 11.5262C133.713 11.4436 133.82 11.3905 133.938 11.3905C134.109 11.3905 134.191 11.5793 134.191 11.8329V34.732C134.191 35.1567 134.327 35.2747 134.48 35.2747C134.598 35.2747 134.734 35.2216 134.899 35.1213L147.363 27.6358C149.469 26.3675 149.994 24.999 149.994 22.6277V3.01428L150 2.99657Z" fill="#05141F"/>
</svg>
