<svg width="768" height="102" viewBox="0 0 768 102" fill="none" xmlns="http://www.w3.org/2000/svg">
<path opacity="0.03" d="M48.0703 29.668C47.25 21.875 40.9609 17.2266 30.9805 17.2266C20.5898 17.2266 14.8477 22.0117 14.7109 28.5742C14.5742 35.6836 22.0938 38.9648 30.5703 40.8789L39.457 43.0664C56.4102 46.8945 69.125 55.5078 69.125 72.0508C69.125 90.2344 54.9062 101.719 30.8438 101.719C6.91797 101.719 -8.39453 90.6445 -8.94141 69.4531H11.0195C11.7031 79.4336 19.6328 84.4922 30.5703 84.4922C41.3711 84.4922 48.3438 79.4336 48.3438 72.0508C48.3438 65.3516 42.1914 62.207 31.3906 59.4727L20.5898 56.875C3.91016 52.7734 -6.34375 44.4336 -6.34375 29.9414C-6.34375 11.8945 9.51562 0 31.1172 0C52.9922 0 67.4844 12.168 67.7578 29.668H48.0703ZM82.5234 1.36719H107.953L135.434 68.4961H136.527L164.008 1.36719H189.438V100.352H169.477V35.5469H168.656L142.816 99.9414H129.145L103.305 35.2734H102.484V100.352H82.5234V1.36719ZM222.66 100.352H200.512L234.828 1.36719H261.215L295.395 100.352H273.383L266 77.5195H230.18L222.66 100.352ZM235.375 61.5234H260.805L248.363 23.6523H247.68L235.375 61.5234ZM306.605 100.352V1.36719H345.434C367.992 1.36719 380.844 14.082 380.844 33.6328C380.844 47.168 374.623 57.0117 363.344 61.7969L384.398 100.352H361.703L342.836 65.2148H327.113V100.352H306.605ZM327.113 48.5352H341.605C353.773 48.5352 359.652 43.4766 359.652 33.6328C359.652 23.6523 353.773 18.1836 341.605 18.1836H327.113V48.5352ZM391.234 18.3203V1.36719H472.309V18.3203H441.957V100.352H421.586V18.3203H391.234ZM517.289 100.352V1.36719H537.797V45.2539H539.164L575.121 1.36719H599.867L562.953 45.6641L600.277 100.352H575.668L548.188 59.4727L537.797 72.0508V100.352H517.289ZM610.121 100.352V1.36719H676.566V18.3203H630.629V42.3828H673.148V59.3359H630.629V83.3984H676.703V100.352H610.121ZM686.547 1.36719H709.652L732.484 44.0234H733.441L756.137 1.36719H779.242L743.148 65.0781V100.352H722.641V65.0781L686.547 1.36719Z" fill="black"/>
</svg>
