<svg width="1602" height="320" viewBox="0 0 1602 320" fill="none" xmlns="http://www.w3.org/2000/svg">
<path d="M134.1 319.5C116.1 319.5 99 317.7 82.8 314.1C66.6 310.5 52.2 304.8 39.6 297C27.3 288.9 17.55 278.85 10.35 266.85C3.45 254.55 8.04663e-07 239.7 8.04663e-07 222.3C8.04663e-07 220.8 8.04663e-07 219.3 8.04663e-07 217.8C8.04663e-07 216 0.150001 214.65 0.450002 213.75H67.05C66.75 214.65 66.6 215.85 66.6 217.35C66.6 218.85 66.6 220.2 66.6 221.4C66.6 231 69.15 239.1 74.25 245.7C79.65 252.3 87.45 257.25 97.65 260.55C107.85 263.85 119.7 265.5 133.2 265.5C141.9 265.5 149.55 265.05 156.15 264.15C163.05 262.95 169.05 261.45 174.15 259.65C179.55 257.55 183.9 255.15 187.2 252.45C190.8 249.75 193.35 246.6 194.85 243C196.65 239.4 197.55 235.35 197.55 230.85C197.55 222.75 194.85 216.15 189.45 211.05C184.35 205.95 177.15 201.6 167.85 198C158.85 194.4 148.65 191.1 137.25 188.1C125.85 185.1 114.15 182.1 102.15 179.1C90.15 175.8 78.45 171.9 67.05 167.4C55.65 162.6 45.45 156.9 36.45 150.3C27.45 143.7 20.25 135.3 14.85 125.1C9.45 114.9 6.75 102.6 6.75 88.1996C6.75 72.8996 9.9 59.6996 16.2 48.5996C22.8 37.4996 31.95 28.3496 43.65 21.1496C55.35 13.9496 68.85 8.6996 84.15 5.39959C99.45 1.7996 116.1 -0.000396848 134.1 -0.000396848C150.9 -0.000396848 166.8 1.7996 181.8 5.39959C196.8 8.6996 210 14.0996 221.4 21.5996C232.8 29.0996 241.65 38.5496 247.95 49.9496C254.55 61.3496 257.85 74.8496 257.85 90.4496V95.8496H192.6V92.2496C192.6 84.1496 190.2 77.2496 185.4 71.5496C180.6 65.8496 173.85 61.3496 165.15 58.0496C156.45 54.7496 146.25 53.0996 134.55 53.0996C121.95 53.0996 111.15 54.2996 102.15 56.6996C93.45 59.0996 86.7 62.6996 81.9 67.4996C77.4 71.9996 75.15 77.3996 75.15 83.6996C75.15 90.8996 77.7 96.8996 82.8 101.7C88.2 106.2 95.4 110.25 104.4 113.85C113.7 117.15 124.05 120.15 135.45 122.85C146.85 125.55 158.55 128.55 170.55 131.85C182.55 135.15 194.25 139.05 205.65 143.55C217.05 148.05 227.25 153.75 236.25 160.65C245.25 167.25 252.45 175.5 257.85 185.4C263.25 195.3 265.95 207.15 265.95 220.95C265.95 244.65 260.25 263.7 248.85 278.1C237.45 292.5 221.85 303 202.05 309.6C182.25 316.2 159.6 319.5 134.1 319.5ZM319.37 314.1V5.39959H421.52L465.62 163.35C467.42 169.05 469.22 175.8 471.02 183.6C472.82 191.4 474.62 199.2 476.42 207C478.52 214.5 480.17 221.25 481.37 227.25H484.97C485.57 222.15 486.62 216.15 488.12 209.25C489.62 202.05 491.27 194.4 493.07 186.3C494.87 178.2 496.82 170.4 498.92 162.9L543.02 5.39959H643.37V314.1H577.22V167.85C577.22 154.35 577.22 140.85 577.22 127.35C577.52 113.55 577.82 101.55 578.12 91.3496C578.72 81.1496 579.02 74.5496 579.02 71.5496H575.42C574.82 74.8496 573.32 80.9996 570.92 89.9996C568.82 98.6996 566.42 108 563.72 117.9C561.32 127.8 559.07 136.35 556.97 143.55L508.82 314.1H450.32L401.72 144C399.92 137.7 397.82 130.35 395.42 121.95C393.32 113.25 391.22 104.4 389.12 95.3996C387.32 86.0996 385.52 78.1496 383.72 71.5496H380.12C380.42 79.6496 380.72 89.3996 381.02 100.8C381.32 111.9 381.62 123.45 381.92 135.45C382.22 147.15 382.37 157.95 382.37 167.85V314.1H319.37ZM680.302 314.1L799.102 5.39959H881.902L1000.7 314.1H928.252L906.202 253.35H771.652L749.602 314.1H680.302ZM791.002 199.35H886.852L859.402 123.3C858.202 120 856.702 116.1 854.902 111.6C853.402 106.8 851.752 101.55 849.952 95.8496C848.152 90.1496 846.352 84.5996 844.552 79.1996C843.052 73.4996 841.552 68.3996 840.052 63.8996H837.352C835.852 69.5996 833.902 76.3496 831.502 84.1496C829.102 91.6496 826.702 98.9996 824.302 106.2C821.902 113.1 819.952 118.8 818.452 123.3L791.002 199.35ZM1037.44 314.1V5.39959H1206.64C1229.44 5.39959 1248.34 9.44959 1263.34 17.5496C1278.64 25.6496 1290.04 37.0496 1297.54 51.7496C1305.04 66.1496 1308.79 82.7996 1308.79 101.7C1308.79 121.8 1304.29 139.65 1295.29 155.25C1286.29 170.55 1273.24 182.25 1256.14 190.35L1319.14 314.1H1244.89L1190.44 201.6H1104.49V314.1H1037.44ZM1104.49 148.5H1197.64C1211.14 148.5 1221.64 144.45 1229.14 136.35C1236.64 127.95 1240.39 116.7 1240.39 102.6C1240.39 93.5996 1238.74 85.9496 1235.44 79.6496C1232.14 73.0496 1227.34 68.0996 1221.04 64.7996C1214.74 61.4996 1206.94 59.8496 1197.64 59.8496H1104.49V148.5ZM1434.29 314.1V61.6496H1335.29V5.39959H1601.24V61.6496H1501.79V314.1H1434.29Z" fill="#E6E6E6"/>
</svg>
