<svg width="768" height="992" viewBox="0 0 768 992" fill="none" xmlns="http://www.w3.org/2000/svg">
<path fill-rule="evenodd" clip-rule="evenodd" d="M324.354 2.79953C327.573 -1.26404 334.6 -0.586995 337.904 2.79953C341.8 6.78078 341.123 12.2875 337.904 16.3534C314.949 45.1538 289.54 72.1771 262.35 97.081C231.942 124.95 198.228 151.546 161.805 173.061C206.953 192.205 251.76 212.622 297.416 230.665C300.465 227.277 303.6 223.889 306.734 220.586C366.62 156.971 440.99 106.061 521.289 72.0088C562.032 54.7285 604.724 41.6811 648.601 35.1585C691.207 28.8055 736.865 26.7719 779.048 37.1063C818.605 46.7631 854.771 72.856 861.209 115.294H860.785C866.375 152.226 852.147 189.92 829.023 218.466C806.492 246.335 774.135 265.817 741.439 279.285C706.372 293.685 668.761 301.056 631.152 304.613C556.867 311.644 480.378 303.936 407.871 286.74C371.872 278.269 336.972 266.579 302.583 253.365C291.741 265.901 281.578 278.947 272.176 292.499C252.779 320.791 233.55 354.506 233.888 389.828C234.057 406.77 239.481 422.526 251.932 434.385C263.451 445.397 278.273 452.343 293.265 457.934C294.366 457.341 295.471 456.663 296.572 456.07C352.053 425.407 414.904 416.597 477.245 421.171C490.459 422.103 503.843 423.628 516.718 426.847C526.628 429.303 537.723 433.115 544.669 440.992C554.748 452.512 550.514 467.506 538.91 476.231C520.19 490.292 496.556 496.223 473.77 499.103C423.795 505.541 371.534 500.373 322.999 487.413C314.02 484.957 304.615 482.329 295.128 479.111C266.16 497.407 240.071 523.583 230.584 557.043C225.418 575.508 227.281 593.128 236.767 609.815C243.713 622.012 253.033 632.517 263.706 641.666C278.021 653.948 294.792 663.265 312.325 670.465C355.355 634.126 422.527 624.384 476.738 629.552C496.135 631.415 516.717 636.245 530.523 651.068C542.128 663.52 542.722 680.886 529.424 692.406C516.21 703.841 497.913 707.059 481.057 709.431C465.386 711.634 449.546 712.651 433.706 712.567C395.674 712.313 354.423 706.891 316.9 693.254C300.637 710.28 290.134 731.963 289.541 756.104C288.779 788.123 303.345 818.11 325.706 840.727C329.772 839.033 333.925 837.51 338.076 836.24C361.793 829.125 387.034 827.938 411.682 828.361C427.437 828.615 441.754 830.988 456.154 837.596C467.927 843.017 481.141 853.011 480.125 867.495C478.6 888.333 454.121 897.228 436.841 899.346C404.4 903.412 371.111 895.789 343.159 878.933C335.874 874.528 328.842 869.359 322.235 863.684C305.294 872.578 291.148 885.795 283.778 904.769C277.172 921.794 278.697 939.836 289.877 954.49C299.957 967.704 316.476 976.26 332.993 971.431C344.851 967.959 349.934 986.427 338.076 989.9C299.112 1001.25 260.911 964.657 260.487 926.454C260.148 893.672 281.154 866.649 308.09 849.962C277.681 816.333 261.079 769.572 275.564 725.101C280.561 709.854 288.101 696.725 297.588 685.459C278.19 676.48 260.23 664.962 244.814 650.392C233.548 639.719 223.807 627.095 217.031 613.118C207.375 593.127 206.446 571.188 212.968 550.012C222.963 517.315 246.255 490.63 273.784 470.724C249.644 459.797 228.383 443.873 219.658 418.376C207.292 382.036 221.268 342.392 238.887 310.372C251.507 287.418 267.177 266.073 284.202 245.998C236.005 226.6 188.656 204.83 140.713 184.924C112.931 199.324 83.7072 210.502 53.214 216.771C16.3676 224.394 -31.3203 228.376 -61.1363 200.761C-71.9782 190.681 -82.5687 176.028 -81.9763 160.527C-81.5527 147.652 -73.4185 137.488 -63 130.796C-40.1298 115.972 -9.21251 114.954 16.4529 121.561C58.2965 132.319 98.9544 147.227 138.85 163.575C210.849 124.355 273.532 66.5843 324.354 2.79953ZM435.654 850.302C420.068 845.897 401.773 846.998 384.579 847.93L384.495 848.014C370.773 848.776 356.285 851.065 342.563 855.385C354.93 864.364 368.653 871.478 382.967 875.798C396.943 880.033 411.259 881.81 425.827 881.133C434.467 880.794 444.294 880.118 452.002 875.798C454.967 874.104 458.101 871.647 459.965 868.767C460.812 867.581 460.641 867.58 461.065 866.479C460.811 867.325 460.811 865.299 461.065 865.463C460.641 864.362 459.879 863.006 458.693 861.82C456.999 860.042 455.22 858.856 453.018 857.501C447.597 854.282 441.752 851.996 435.654 850.302ZM495.542 652.168C477.839 647.001 458.695 647.427 440.484 648.105L440.397 648.273C403.043 649.628 365.012 656.405 334.265 678.428C337.822 679.529 341.294 680.632 344.851 681.563C375.259 689.865 406.939 693.675 438.449 693.506C452.341 693.336 466.403 692.576 480.125 690.458C492.407 688.51 512.566 686.645 519.682 674.956C520.613 673.262 520.867 671.991 520.613 670.805C520.105 668.434 518.751 666.485 517.142 664.706C511.552 658.438 503.419 654.455 495.542 652.168ZM473.434 439.977C453.19 438.706 432.522 438.366 412.278 440.145C380.344 443.025 347.817 452.091 318.764 466.152C359.506 478.096 401.943 483.518 444.38 482.078C466.149 481.316 488.342 479.196 508.756 471.064C515.871 468.184 528.574 463.441 531.539 455.818V455.054C531.355 454.836 530.993 454.271 531.199 454.546C531.376 454.768 531.477 454.925 531.539 455.02V454.97C531.455 454.886 531.456 454.883 531.371 454.714C531.288 454.548 531.199 454.378 531.199 454.378C531.115 454.209 530.948 454.039 530.947 453.954C530.693 453.7 529.591 452.682 529.252 452.343C528.827 452.088 527.814 451.328 527.644 451.243C525.95 450.311 524.256 449.378 522.477 448.615C522.053 448.446 520.361 447.769 520.021 447.683C518.921 447.26 517.819 446.922 516.634 446.584C514.178 445.821 511.635 445.229 509.179 444.636C497.49 442.01 485.63 440.823 473.602 440.061L473.434 439.977ZM788.534 59.8947C750.587 46.511 707.049 47.5272 667.661 51.9319C626.919 56.4214 586.851 67.1784 548.564 81.6634C471.738 110.803 400.332 156.545 341.039 213.383C332.738 221.346 324.606 229.565 316.728 238.035C343.241 247.946 370.18 256.923 397.709 264.207C465.726 282.165 537.385 290.553 607.689 287.08C674.521 283.861 747.197 268.613 798.613 222.786C822.838 201.101 841.135 170.776 843.168 137.655L843.252 137.739C844.184 122.323 841.557 106.82 833.426 93.5216C823.516 77.0894 806.322 66.1629 788.534 59.8947ZM3.06759 137.995C-9.0444 135.623 -23.1039 136.64 -35.3853 139.858C-41.4835 141.468 -47.4139 143.67 -52.75 147.057C-55.2064 148.582 -56.4792 149.598 -58.5967 151.801C-59.6966 152.985 -61.3871 155.608 -61.6442 156.12C-63.5077 160.525 -63.2546 164.255 -61.0523 169.338C-57.8334 176.876 -51.6514 184.077 -45.2992 189.159C-28.7818 202.458 -5.57104 203.557 14.6733 202.541H14.7573C49.9938 200.847 84.469 190.006 116.402 175.013C100.986 168.914 85.401 163.069 69.7309 157.648C47.9618 150.193 25.6837 142.484 3.06759 137.995Z" fill="#0F0F0F"/>
</svg>
