<svg width="1838" height="275" viewBox="0 0 1838 275" fill="none" xmlns="http://www.w3.org/2000/svg">
<path d="M4.76837e-07 274.4V0.000370979H112C140.533 0.000370979 164.8 4.9337 184.8 14.8004C204.8 24.667 220.133 39.7337 230.8 60.0004C241.733 80.0004 247.2 105.734 247.2 137.2C247.2 168.4 241.733 194.134 230.8 214.4C220.133 234.667 204.8 249.734 184.8 259.6C164.8 269.467 140.533 274.4 112 274.4H4.76837e-07ZM59.6 225.2H111.6C123.6 225.2 134.267 223.467 143.6 220C152.933 216.534 160.667 211.467 166.8 204.8C172.933 197.867 177.6 189.334 180.8 179.2C184 168.8 185.6 156.8 185.6 143.2V131.2C185.6 117.6 184 105.734 180.8 95.6004C177.6 85.2004 172.933 76.667 166.8 70.0004C160.667 63.0671 152.933 57.8671 143.6 54.4004C134.267 50.6671 123.6 48.8004 111.6 48.8004H59.6V225.2ZM295.703 274.4V0.000370979H514.903V48.8004H355.703V110H496.503V158.4H355.703V225.2H517.303V274.4H295.703ZM568.75 274.4V0.000370979H771.15V48.8004H628.35V116.8H755.95V165.2H628.35V274.4H568.75ZM817.578 274.4V0.000370979H877.178V274.4H817.578ZM937.891 274.4V0.000370979H992.691L1103.09 148C1104.69 149.867 1106.69 152.534 1109.09 156C1111.49 159.2 1113.76 162.4 1115.89 165.6C1118.02 168.8 1119.49 171.334 1120.29 173.2H1122.29C1122.29 168.667 1122.29 164.267 1122.29 160C1122.29 155.467 1122.29 151.467 1122.29 148V0.000370979H1178.69V274.4H1123.89L1011.09 122.8C1008.42 119.067 1005.62 114.934 1002.69 110.4C999.757 105.867 997.624 102.4 996.291 100H994.291C994.291 104 994.291 108 994.291 112C994.291 115.734 994.291 119.334 994.291 122.8V274.4H937.891ZM1239.45 274.4V0.000370979H1299.05V274.4H1239.45ZM1427.37 274.4V50.0004H1339.37V0.000370979H1575.77V50.0004H1487.37V274.4H1427.37ZM1616.02 274.4V0.000370979H1835.22V48.8004H1676.02V110H1816.82V158.4H1676.02V225.2H1837.62V274.4H1616.02Z" fill="#F5F5F5"/>
</svg>
