<svg width="404" height="143" viewBox="0 0 404 143" fill="none" xmlns="http://www.w3.org/2000/svg">
<g clip-path="url(#clip0_2109_12370)">
<path d="M47.9656 44.4702V143H86.6659V63.8601L47.9656 44.4702Z" fill="white"/>
<path d="M134.63 0H0V33.8575H134.63V0Z" fill="white"/>
<path d="M167.325 43.9798H174.767V25.0629H191.709V18.818H174.767V7.78311H194.735V1.53796H167.325V43.9798Z" fill="white"/>
<path d="M218.386 14.0889C216.409 13.1597 214.109 12.6944 211.488 12.6944C208.826 12.6944 206.456 13.1396 204.378 14.0282C202.3 14.918 200.677 16.1609 199.508 17.7571C198.337 19.3543 197.753 21.1629 197.753 23.1835L204.953 23.79C204.953 22.3348 205.589 21.1629 206.859 20.2733C208.13 19.3847 209.814 18.9395 211.912 18.9395C213.524 18.9395 214.785 19.2226 215.693 19.7883C216.601 20.3548 217.074 21.1432 217.115 22.1529C217.155 22.9619 216.994 23.5777 216.631 24.0022C216.268 24.4264 215.582 24.7706 214.574 25.0329C213.565 25.2963 212.033 25.5691 209.975 25.8515C205.659 26.3365 202.401 27.3975 200.203 29.0346C198.004 30.6715 196.906 32.8847 196.906 35.6735C196.906 37.4528 197.349 39.0491 198.237 40.4633C199.124 41.8789 200.355 42.9795 201.928 43.7679C203.501 44.556 205.276 44.9501 207.252 44.9501C209.47 44.9501 211.407 44.4546 213.061 43.4648C214.715 42.4748 216.005 41.0803 216.933 39.2811C217.041 39.0725 217.141 38.8593 217.236 38.6434V43.98H224.557V24.1535C224.557 21.81 224.022 19.7788 222.954 18.0601C221.885 16.3428 220.362 15.0192 218.386 14.0889ZM216.238 33.5516C215.572 35.1688 214.634 36.4314 213.424 37.3409C212.214 38.2505 210.782 38.7052 209.128 38.7052C207.716 38.7052 206.576 38.3717 205.709 37.7047C204.842 37.0379 204.409 36.1388 204.409 35.0066C204.409 33.8347 204.912 32.8949 205.921 32.1873C206.929 31.4806 208.442 31.0052 210.459 30.7625C212.839 30.4802 214.715 29.8835 216.086 28.9739C216.548 28.6676 216.925 28.3302 217.232 27.9667C217.22 30.0999 216.891 31.9646 216.238 33.5516Z" fill="white"/>
<path d="M241.47 20.5058C242.579 19.6778 243.88 19.263 245.373 19.263C247.147 19.263 248.65 19.8597 249.88 21.0516C251.11 22.2442 251.887 23.8916 252.21 25.9931L260.015 25.3866C259.773 22.9216 258.996 20.7587 257.686 18.8992C256.374 17.0404 254.661 15.5949 252.543 14.5641C250.425 13.5334 248.055 13.0179 245.433 13.0179C242.448 13.0179 239.785 13.7058 237.447 15.0794C235.107 16.4539 233.291 18.364 232.001 20.8089C230.709 23.2553 230.065 26.0536 230.065 29.2065C230.065 32.3594 230.72 35.1482 232.031 37.5735C233.341 39.9987 235.167 41.8888 237.507 43.2426C239.846 44.5964 242.529 45.2736 245.554 45.2736C248.176 45.2736 250.536 44.7678 252.634 43.7578C254.73 42.7481 256.435 41.343 257.746 39.544C259.057 37.7459 259.813 35.6542 260.015 33.2687L252.21 32.6625C251.887 34.6435 251.11 36.1999 249.88 37.3311C248.65 38.4631 247.147 39.0287 245.373 39.0287C243.113 39.0287 241.319 38.1494 239.988 36.3913C238.657 34.633 237.991 32.2589 237.991 29.2672C237.991 27.2465 238.294 25.4881 238.899 23.9921C239.504 22.4973 240.36 21.3349 241.47 20.5058Z" fill="white"/>
<path d="M276.23 3.90256H268.969V13.6644H262.435V19.9093H268.969V34.5821C268.969 36.6843 269.333 38.4322 270.059 39.8267C270.785 41.2212 271.874 42.2622 273.326 42.9491C274.778 43.637 276.593 43.9798 278.772 43.9798H285.306V37.7347H279.861C278.651 37.7347 277.743 37.4317 277.138 36.8255C276.533 36.219 276.23 35.3097 276.23 34.0971V19.9093H285.306V13.6644H276.23L276.23 3.90256Z" fill="white"/>
<path d="M312.361 14.7558C310.021 13.3823 307.379 12.6944 304.435 12.6944C301.49 12.6944 298.838 13.3823 296.478 14.7558C294.119 16.1304 292.282 18.0404 290.972 20.4854C289.661 22.9317 289.006 25.7103 289.006 28.8222C289.006 31.9354 289.661 34.714 290.972 37.159C292.282 39.6053 294.119 41.515 296.478 42.8886C298.838 44.2624 301.49 44.9501 304.435 44.9501C307.42 44.9501 310.072 44.2624 312.392 42.8886C314.711 41.515 316.526 39.6145 317.837 37.1895C319.147 34.7642 319.804 31.9958 319.804 28.8829C319.804 25.73 319.147 22.9317 317.837 20.4854C316.526 18.0404 314.7 16.1304 312.361 14.7558ZM311.423 34.0366C310.758 35.5324 309.82 36.6845 308.61 37.4926C307.4 38.3017 306.008 38.7053 304.435 38.7053C302.862 38.7053 301.47 38.3017 300.26 37.4926C299.05 36.6845 298.112 35.5324 297.447 34.0366C296.781 32.5416 296.448 30.8033 296.448 28.8223C296.448 26.8823 296.781 25.1646 297.447 23.6687C298.112 22.1739 299.05 21.0115 300.26 20.1824C301.47 19.3543 302.862 18.9396 304.435 18.9396C306.048 18.9396 307.45 19.3543 308.64 20.1824C309.829 21.0115 310.758 22.1739 311.423 23.6687C312.089 25.1646 312.422 26.903 312.422 28.883C312.422 30.8232 312.089 32.5417 311.423 34.0366Z" fill="white"/>
<path d="M335.145 15.4225C334.031 16.5584 333.175 18.2002 332.573 20.3403V13.6643H325.312V43.9798H332.573V31.0653C332.573 28.3976 332.815 26.2557 333.299 24.6386C333.783 23.0224 334.559 21.8295 335.628 21.0611C336.697 20.2938 338.119 19.9092 339.894 19.9092H344.856V13.6643H339.289C337.675 13.6643 336.294 14.2506 335.145 15.4225Z" fill="white"/>
<path d="M371.478 13.6643L362.171 35.0666L353.628 13.6643H346.185L358.287 43.9798H358.296L353.023 56.1059H360.586L379.041 13.6643H371.478Z" fill="white"/>
<path d="M189.027 88.5225C187.251 87.6339 184.932 86.6637 182.068 85.6122C179.89 84.8041 178.165 84.1172 176.895 83.5507C175.624 82.9852 174.575 82.2681 173.749 81.3983C172.921 80.5295 172.508 79.4885 172.508 78.2759C172.508 76.6994 173.153 75.4261 174.444 74.456C175.735 73.486 177.328 73.0008 179.224 73.0008C180.474 73.0008 181.654 73.2434 182.764 73.7284C183.873 74.2134 184.791 74.9109 185.517 75.8203C186.243 76.7296 186.706 77.8116 186.908 79.064L194.351 78.4578C194.149 76.0326 193.332 73.9313 191.901 72.152C190.468 70.3739 188.642 69.0296 186.425 68.12C184.206 67.2108 181.826 66.756 179.285 66.756C176.582 66.756 174.151 67.2618 171.994 68.2717C169.835 69.2824 168.131 70.7075 166.881 72.5463C165.63 74.3859 165.005 76.4975 165.005 78.8821C165.005 81.3481 165.641 83.3688 166.911 84.9452C168.182 86.5217 169.704 87.7446 171.48 88.6134C173.254 89.4832 175.553 90.402 178.377 91.372C180.636 92.1811 182.391 92.868 183.641 93.4335C184.891 94.0003 185.94 94.7371 186.788 95.6467C187.635 96.5562 188.059 97.6579 188.059 98.951C188.059 100.164 187.665 101.225 186.879 102.134C186.092 103.044 185.083 103.732 183.853 104.196C182.622 104.661 181.342 104.893 180.011 104.893C178.075 104.893 176.35 104.429 174.837 103.498C173.325 102.569 172.165 101.285 171.358 99.6484C170.551 98.0112 170.149 96.1829 170.149 94.1612L162.646 94.7676C162.646 97.961 163.381 100.8 164.854 103.286C166.326 105.772 168.364 107.703 170.965 109.076C173.567 110.45 176.481 111.138 179.709 111.138C182.652 111.138 185.336 110.571 187.756 109.44C190.176 108.309 192.072 106.753 193.443 104.772C194.814 102.792 195.5 100.588 195.5 98.1629C195.5 95.7784 194.865 93.7974 193.595 92.2212C192.324 90.6447 190.801 89.412 189.027 88.5225Z" fill="white"/>
<path d="M222.543 80.9438C220.324 79.5703 217.783 78.8824 214.919 78.8824C212.055 78.8824 209.494 79.5702 207.235 80.9438C204.975 82.3184 203.211 84.2284 201.941 86.6734C200.67 89.1197 200.034 91.8783 200.034 94.9497C200.034 98.1431 200.7 100.962 202.031 103.408C203.362 105.854 205.228 107.753 207.628 109.107C210.028 110.461 212.781 111.138 215.887 111.138C219.557 111.138 222.634 110.238 225.115 108.44C227.595 106.642 229.078 104.267 229.562 101.316L222.18 100.71C221.736 102.004 220.929 103.024 219.76 103.772C218.589 104.52 217.178 104.893 215.524 104.893C213.951 104.893 212.569 104.56 211.379 103.893C210.189 103.226 209.251 102.316 208.566 101.164C207.88 100.012 207.537 98.6691 207.537 97.1324H229.622V95.1317C229.622 91.9787 228.997 89.1699 227.746 86.7039C226.496 84.2389 224.761 82.3184 222.543 80.9438ZM207.537 91.6149C207.537 90.3218 207.84 89.1897 208.445 88.2196C209.05 87.2494 209.907 86.4915 211.016 85.946C212.125 85.4003 213.407 85.1275 214.859 85.1275C216.27 85.1275 217.521 85.4004 218.61 85.946C219.699 86.4916 220.556 87.2599 221.182 88.2499C221.807 89.2409 222.119 90.3626 222.119 91.6149H207.537Z" fill="white"/>
<path d="M257.577 80.9438C255.237 79.5703 252.594 78.8824 249.651 78.8824C246.706 78.8824 244.053 79.5702 241.694 80.9438C239.334 82.3184 237.498 84.2284 236.188 86.6734C234.876 89.1197 234.221 91.8983 234.221 95.0102C234.221 98.1234 234.876 100.902 236.188 103.347C237.498 105.793 239.334 107.703 241.694 109.077C244.053 110.45 246.706 111.138 249.651 111.138C252.635 111.138 255.287 110.45 257.607 109.077C259.926 107.703 261.741 105.803 263.053 103.377C264.363 100.952 265.019 98.1838 265.019 95.0709C265.019 91.9179 264.363 89.1196 263.053 86.6734C261.741 84.2284 259.916 82.3184 257.577 80.9438ZM256.639 100.225C255.973 101.72 255.036 102.872 253.825 103.681C252.615 104.49 251.223 104.893 249.65 104.893C248.077 104.893 246.686 104.49 245.475 103.681C244.265 102.872 243.327 101.72 242.662 100.225C241.996 98.7296 241.663 96.9912 241.663 95.0102C241.663 93.0702 241.996 91.3526 242.662 89.8566C243.327 88.3618 244.265 87.1994 245.475 86.3704C246.686 85.5423 248.077 85.1275 249.65 85.1275C251.263 85.1275 252.665 85.5423 253.856 86.3704C255.045 87.1994 255.973 88.3618 256.639 89.8566C257.304 91.3526 257.637 93.0909 257.637 95.071C257.637 97.0112 257.304 98.7296 256.639 100.225Z" fill="white"/>
<path d="M293.375 80.3981C291.882 79.3883 290.087 78.8824 287.99 78.8824C285.771 78.8824 283.815 79.4281 282.121 80.5196C280.427 81.6107 279.105 83.1267 278.157 85.0668C278.147 85.0885 278.138 85.1114 278.127 85.1333V79.8526H270.867V110.168H278.127V95.4348C278.127 92.3226 278.793 89.8263 280.124 87.9468C281.455 86.0672 283.229 85.1275 285.449 85.1275C287.102 85.1275 288.393 85.7241 289.321 86.916C290.248 88.1087 290.713 89.7561 290.713 91.8576V110.168H297.974V91.6149C297.974 88.9473 297.58 86.6639 296.794 84.7636C296.007 82.8641 294.866 81.409 293.375 80.3981Z" fill="white"/>
<path d="M327.258 85.5575C327.198 85.4241 327.141 85.2883 327.076 85.1577C326.108 83.1976 324.737 81.6619 322.962 80.5497C321.186 79.4386 319.17 78.8824 316.911 78.8824C314.371 78.8824 312.111 79.5598 310.135 80.9136C308.158 82.2684 306.615 84.1572 305.506 86.5825C304.396 89.0077 303.842 91.7968 303.842 94.9497C303.842 98.1024 304.407 100.902 305.536 103.347C306.665 105.793 308.229 107.703 310.226 109.077C312.222 110.45 314.491 111.138 317.033 111.138C319.25 111.138 321.238 110.593 322.992 109.501C324.747 108.41 326.108 106.874 327.076 104.893C327.141 104.761 327.198 104.624 327.258 104.49V108.955C327.258 111.34 326.491 113.28 324.959 114.776C323.425 116.271 321.449 117.019 319.029 117.019C317.335 117.019 315.922 116.655 314.794 115.928C313.664 115.2 312.979 114.209 312.737 112.957L304.81 113.563C304.85 115.463 305.445 117.141 306.595 118.596C307.745 120.051 309.358 121.192 311.436 122.021C313.513 122.849 315.862 123.264 318.485 123.264C321.671 123.264 324.485 122.617 326.925 121.324C329.366 120.03 331.241 118.202 332.552 115.837C333.863 113.472 334.519 110.734 334.519 107.622V79.8526H327.258V85.5575ZM326.199 100.164C325.534 101.66 324.605 102.822 323.416 103.65C322.226 104.479 320.844 104.893 319.271 104.893C317.698 104.893 316.307 104.479 315.096 103.65C313.886 102.822 312.948 101.66 312.283 100.164C311.617 98.6691 311.284 96.9504 311.284 95.0102C311.284 93.0702 311.617 91.3525 312.283 89.8566C312.948 88.3618 313.886 87.1994 315.096 86.3703C316.307 85.5422 317.698 85.1275 319.271 85.1275C320.844 85.1275 322.226 85.5422 323.416 86.3703C324.605 87.1994 325.534 88.3618 326.199 89.8566C326.865 91.3525 327.198 93.0702 327.198 95.0102C327.198 96.9504 326.865 98.6691 326.199 100.164Z" fill="white"/>
<path d="M362.402 93.1305C360.769 92.5651 358.661 92.0393 356.08 91.5541C354.466 91.2313 353.206 90.9479 352.298 90.7052C351.39 90.4629 350.634 90.1293 350.029 89.705C349.424 89.2805 349.122 88.7046 349.122 87.9769C349.122 87.0883 349.585 86.3912 350.513 85.8852C351.441 85.3803 352.691 85.1274 354.264 85.1274C355.999 85.1274 357.36 85.4512 358.349 86.0974C359.337 86.7446 359.871 87.6739 359.952 88.8865L367.152 88.28C367.112 86.3808 366.547 84.7239 365.458 83.3083C364.369 81.894 362.866 80.8026 360.951 80.0345C359.034 79.2672 356.806 78.8824 354.264 78.8824C351.804 78.8824 349.625 79.2367 347.73 79.9435C345.834 80.6512 344.351 81.7122 343.283 83.1267C342.213 84.5419 341.679 86.2596 341.679 88.28C341.679 90.4629 342.254 92.1511 343.404 93.3427C344.553 94.5356 345.924 95.4042 347.518 95.9499C349.111 96.4956 351.179 96.9911 353.72 97.4354C355.414 97.7595 356.735 98.0419 357.683 98.2842C358.631 98.5268 359.417 98.8907 360.043 99.3757C360.668 99.8607 360.981 100.508 360.981 101.316C360.981 102.407 360.426 103.277 359.317 103.923C358.207 104.57 356.746 104.893 354.93 104.893C353.437 104.893 352.126 104.671 350.997 104.226C349.868 103.782 348.99 103.156 348.365 102.347C347.739 101.539 347.387 100.568 347.306 99.4363L340.167 100.043C340.206 102.266 340.852 104.206 342.102 105.863C343.352 107.521 345.087 108.814 347.306 109.743C349.524 110.673 352.065 111.138 354.93 111.138C357.673 111.138 360.063 110.723 362.1 109.895C364.136 109.067 365.7 107.894 366.789 106.379C367.878 104.863 368.423 103.095 368.423 101.073C368.423 98.8907 367.827 97.1625 366.638 95.8894C365.447 94.616 364.036 93.697 362.402 93.1305Z" fill="white"/>
<path d="M393.658 79.8524V94.5857C393.658 97.6986 392.992 100.194 391.661 102.074C390.33 103.953 388.575 104.893 386.397 104.893C384.703 104.893 383.392 104.297 382.464 103.104C381.535 101.912 381.073 100.265 381.073 98.1629V79.8524H373.812V98.4055C373.812 101.073 374.205 103.357 374.992 105.257C375.778 107.157 376.917 108.612 378.41 109.622C379.902 110.632 381.698 111.138 383.795 111.138C386.013 111.138 387.97 110.592 389.665 109.501C391.359 108.409 392.679 106.894 393.627 104.953C393.638 104.931 393.647 104.908 393.658 104.886V110.168H400.919V79.8523L393.658 79.8524Z" fill="white"/>
<path d="M403.996 132.624H162.967V142.027H403.996V132.624Z" fill="white"/>
</g>
<defs>
<clipPath id="clip0_2109_12370">
<rect width="404" height="143" fill="white"/>
</clipPath>
</defs>
</svg>
