<svg xmlns="http://www.w3.org/2000/svg" width="718" height="376" viewBox="0 0 718 376">
    <defs>
        <clipPath id="clip-path">
            <path id="사각형_5554" d="M0 0H718V376H0z" fill="#fff" stroke="#707070" transform="translate(0 -0.029)"/>
        </clipPath>
        <clipPath id="clip-path-2">
            <path id="사각형_10398" d="M0 0H239V320H0z" fill="#fff" stroke="#707070" transform="translate(-17527 -3808)"/>
        </clipPath>
    </defs>
    <g id="direct_illust_04_t" transform="translate(36 -3421.971)">
        <g id="마스크_그룹_101" clip-path="url(#clip-path)" transform="translate(-36 3422)">
            <rect id="사각형_5553" width="448.166" height="477.966" fill="#eaecf9" opacity="0.7" rx="80" transform="translate(224.39 13.226) rotate(28)"/>
            <g id="마스크_그룹_193" clip-path="url(#clip-path-2)" transform="translate(17643 3863.971)">
                <g id="그룹_5336" transform="translate(-37 1)">
                    <path id="패스_10022" d="M-17555.5-3577.047l4.908 72v81.993l-2.6 87.767s-11.836 5.2-19.053 0c-3.6-2.588.578-18.766-5.2-57.453-1.33-26.34-3.752-51.39-3.752-51.39l-19.92-57.742 7.508-63.515 15.879-11.66z" transform="translate(210.202 52.51)"/>
                    <path id="패스_10023" fill="#262323" d="M-17632.279-3575.4l2.023 40.708s6.639 72.465 4.328 86.034-13.279 105.378-13.279 105.378 7.217 4.908 13.279 2.31 31.76-107.687 31.76-107.687l9.236-49.08 6.354-36.955s13.568-39.553 26.561-42.44-80.262 1.732-80.262 1.732z" transform="translate(196.041 52.126)"/>
                    <path id="패스_10024" fill="#7882ff" d="M-17565.8-3684.71c-39.07-2.989-49.016-.657-49.016-.657s-39.133.111-43.352 63.626 37.3 12.657 37.3 12.657l-8.211 31.537-1.109 41.085h99.934l-7.547-67.291 15.449-15.517-2.348-30.454s-2.03-31.997-41.1-34.986z" transform="translate(190.256 17.411)"/>
                    <path id="합치기_92" d="M4.546 54.188c1.7-1.314 3.292-7.935 3.551-9.051l-.325-.208c-6.323-4.1-1.879-8.37-6.321-15.545s2.733-10.593 2.733-10.593L11.19 8.542l7.346-7.517L29.809 0l11.446 9.737s8.2 7 2.393 10.421a16.744 16.744 0 0 0-7.348 9.225s.512 1.537-2.049 14.521A10.053 10.053 0 0 1 34 44.945c-1.527 4.718-5.272 6.188-9.565 6.013a13.073 13.073 0 0 0 .026 4.127s2.333 4.9-6.518 4.964h-.177c-8.76.001-15.066-4.435-13.22-5.861z" fill="#ffdfc3" transform="translate(-17414.627 -3720.768)"/>
                    <path id="패스_10027" fill="#302537" d="M-17611.574-3726.235s-8.543 3.417-6.832 14.692 7.684 18.621 10.934 7.858 8.543-11.787 8.543-11.787 4.953-1.879 7.855 3.929 7.172 12.471 18.449 10.762 10.934-14.691 10.934-14.691 2.563-17.938-21.7-17.6-28.183 6.837-28.183 6.837z" transform="translate(205.061 0)"/>
                    <path id="패스_10028" d="M-17613.949-3646.99l11.992 8.217-15.109 34.2s-7.543 20.208-24.422 20.208-19.539-39.309-16.656-51.079-6.66 10.216 16.656 8.662c7.207-.48 10.984-4.181 15.324-7.107a38.091 38.091 0 0 0 12.215-13.101z" fill="#3e49d1" transform="translate(190 31.998)"/>
                    <path id="패스_10029" d="M-17624.328-3640.479l1.82-9.5s.5-5.357 7.984-5.863 9.5-1.82 9.5-1.82l8.188-3.134s3.945.1 1.215 3.134-10.918 5.155-10.918 5.155 5.457 10.209-4.652 15.062-13.137-3.034-13.137-3.034z" fill="#ffdfc3" transform="translate(202.944 26.865)"/>
                    <path id="패스_10030" fill="#424242" d="M-17600.082-3639.794h19.51l13.342-37.806h-18.9z" transform="translate(211.956 20.62)"/>
                    <path id="패스_10031" d="M-17594.225-3659.224l14.654 12.333 4.754 2.831 8.693-2.831 2.02-14.657s2.328-5.357-1.312-6.267-4.549 8.592-4.549 8.592l-7.379-4.953-11.93-6.874-.4-4.043s-3.637.2-4.547 6.065a28.324 28.324 0 0 0-.004 9.804z" fill="#ffdfc3" transform="translate(213.985 21.552)"/>
                    <path id="패스_10032" d="M-17539.42-3618.321l-29.98-37.087s-12.66 2-12.437 7.106 20.875 44.417 20.875 44.417 12.436 14.879 20.654 6.662.888-21.098.888-21.098z" fill="#3e49d1" transform="translate(218.737 28.869)"/>
                </g>
            </g>
        </g>
        <circle id="타원_343" cx="9.5" cy="9.5" r="9.5" fill="#33cac3" transform="translate(205 3503.971)"/>
        <circle id="타원_345" cx="5.5" cy="5.5" r="5.5" fill="#928ae0" transform="translate(236 3527.971)"/>
        <circle id="타원_346" cx="5.5" cy="5.5" r="5.5" fill="#feb639" transform="translate(295 3459.971)"/>
        <g id="그룹_5334" transform="translate(19343.652 9202.971)">
            <rect id="사각형_10379" width="146.474" height="62.45" fill="#3e4a60" rx="10" transform="translate(-19093.104 -5659)"/>
            <path id="패스_9948" d="M-18915.6-5590.56l3.635-15.22h23.018z" fill="#3e4a60" transform="translate(-160.017 7.209)"/>
            <circle id="타원_1262" cx="17.6" cy="17.6" r="17.6" fill="#788190" transform="translate(-19074.818 -5646.51)"/>
            <rect id="사각형_10380" width="59.044" height="5.677" fill="#788190" rx="2.839" transform="translate(-19027.129 -5645.375)"/>
            <rect id="사각형_10381" width="48.825" height="5.677" fill="#788190" rx="2.839" transform="translate(-19016.91 -5631.749)"/>
            <rect id="사각형_10382" width="59.044" height="5.677" fill="#788190" rx="2.839" transform="translate(-19027.129 -5618.124)"/>
        </g>
    </g>
</svg>
