<svg xmlns="http://www.w3.org/2000/svg" width="825" height="432" viewBox="0 0 825 432">
    <defs>
        <clipPath id="clip-path">
            <path id="사각형_5554" fill="#fff" stroke="#707070" d="M0 0H825V432H0z" transform="translate(-54.211 3753.646)"/>
        </clipPath>
    </defs>
    <g id="direct_illust_04_pc" transform="translate(0 -3422)">
        <g id="마스크_그룹_101" clip-path="url(#clip-path)" transform="translate(54.211 -331.646)">
            <rect id="사각형_5553" width="514.954" height="549.195" fill="#eaecf9" opacity="0.7" rx="91" transform="translate(309.49 3768.842) rotate(28)"/>
        </g>
        <circle id="타원_343" cx="10.5" cy="10.5" r="10.5" fill="#33cac3" transform="translate(360 3505)"/>
        <circle id="타원_345" cx="6" cy="6" r="6" fill="#928ae0" transform="translate(406 3544)"/>
        <circle id="타원_346" cx="6.5" cy="6.5" r="6.5" fill="#feb639" transform="translate(431 3424)"/>
        <g id="그룹_5315" transform="translate(16813 7191)">
            <ellipse id="타원_1261" cx="66.5" cy="15" fill="#9699ba" rx="66.5" ry="15" transform="translate(-16384.33 -3417.86)"/>
            <path id="패스_9944" fill="#ffddc0" d="M-16521.047-3428.193l-2.969 9.1 1.82 3.832 3.258-.383 3.256-1.82 1.246-10.729z" transform="translate(171.065)"/>
            <path id="패스_9945" d="M-16523.5-3420.453l-1.172.7-.75 1.125-.414 4.323s-.67 5.652 7.281 6.8a49.065 49.065 0 0 0 14.273 0s3.643-.862-.861-4.311-8.621-3.928-9.676-5.652-1.055 1.054-4.982.671a5.366 5.366 0 0 1-3.2-1.606 1.827 1.827 0 0 1-.499-2.05z" fill="#494848" transform="translate(171)"/>
            <path id="패스_9947" fill="#f2d2b6" d="M-16457.8-3424.377l.18 8.435-1.518 3.7-4.373-.58-1.83-2.365v-2.321l.49-6.873z" transform="translate(171)"/>
            <g id="그룹_5313" transform="translate(1100.149 8.073)">
                <path id="패스_9930" d="M-17570.295-3577.047l3.316 48.644v55.394l-1.756 59.3s-8 3.511-12.871 0c-2.43-1.749.389-12.678-3.514-38.815-.9-17.8-2.533-34.719-2.533-34.719l-13.459-39.011 5.072-42.911 10.729-7.878z" transform="translate(184.821 -15.138)"/>
                <path id="패스_9929" fill="#262323" d="M-17634.527-3576.266l1.369 27.5s4.484 48.958 2.924 58.125-8.973 71.194-8.973 71.194 4.875 3.316 8.973 1.56 21.457-72.754 21.457-72.754l6.24-33.158 4.293-24.967s9.166-26.722 17.943-28.673-54.226 1.173-54.226 1.173z" transform="translate(187.612 -15.063)"/>
                <path id="패스_9923" fill="#7882ff" d="M-17595.861-3685.2c-26.4-2.02-33.115-.444-33.115-.444s-26.437.075-29.289 42.986 25.2 8.551 25.2 8.551l-5.545 21.306-.752 27.758h67.518l-5.1-45.462 10.436-10.483-1.586-20.575s-1.373-21.622-27.767-23.637z" transform="translate(189.952 -3.432)"/>
                <path id="합치기_40" d="M3.071 36.609c1.146-.888 2.224-5.361 2.4-6.115l-.22-.14C.978 27.584 3.981 24.7.98 19.851A4.724 4.724 0 0 1 2.827 12.7L7.56 5.771 12.523.692 20.139 0l7.733 6.578s5.541 4.732 1.616 7.04a11.312 11.312 0 0 0-4.963 6.233s.346 1.038-1.385 9.81a6.793 6.793 0 0 1-.168.7c-1.031 3.187-3.562 4.181-6.462 4.063a8.832 8.832 0 0 0 .017 2.788s1.576 3.313-4.4 3.354H12c-5.915.004-10.173-2.993-8.929-3.957z" fill="#ffdfc3" transform="translate(-17432.314 -3724.76)"/>
                <path id="패스_9920" fill="#302537" d="M-17613.865-3728.454s-5.77 2.309-4.615 9.926 5.191 12.58 7.387 5.309 5.771-7.963 5.771-7.963 3.348-1.27 5.309 2.655 4.844 8.425 12.463 7.271 7.389-9.926 7.389-9.926 1.73-12.119-14.658-11.888-19.046 4.616-19.046 4.616z" transform="translate(187.031 0)"/>
                <path id="패스_9924" d="M-17628.613-3646.99l8.1 5.552-10.207 23.107s-5.1 13.653-16.5 13.653-13.2-26.557-11.252-34.509-4.5 6.9 11.252 5.852c4.869-.325 7.42-2.825 10.352-4.8a25.747 25.747 0 0 0 8.255-8.855z" fill="#3e49d1" transform="translate(190 -6.307)"/>
                <path id="패스_9926" d="M-17624.328-3647.071l1.23-6.42s.338-3.619 5.395-3.96 6.418-1.23 6.418-1.23l5.533-2.117s2.666.068.82 2.117-7.375 3.483-7.375 3.483 3.686 6.9-3.145 10.176-8.876-2.049-8.876-2.049z" fill="#ffdfc3" transform="translate(187.449 -5.295)"/>
                <path id="패스_9928" fill="#424242" d="M-17600.082-3652.058h13.18l9.016-25.542h-12.773z" transform="translate(185.672 -4.064)"/>
                <path id="패스_9927" d="M-17594.357-3664.372l9.9 8.332 3.213 1.913 5.875-1.913 1.365-9.9s1.57-3.619-.889-4.234-3.072 5.8-3.072 5.8l-4.984-3.346-8.061-4.644-.273-2.732s-2.457.137-3.072 4.1a19.109 19.109 0 0 0-.002 6.624z" fill="#ffdfc3" transform="translate(185.275 -4.248)"/>
                <path id="패스_9925" d="M-17553.182-3630.352l-20.254-25.057s-8.555 1.35-8.4 4.8 14.1 30.008 14.1 30.008 8.4 10.052 13.955 4.5.599-14.251.599-14.251z" fill="#3e49d1" transform="translate(184.338 -5.69)"/>
            </g>
            <path id="패스_9946" d="M-16465.656-3417.5a4.38 4.38 0 0 0 4.365 2.834c3.4-.113 3.854-2.381 3.854-2.381s10.885 3.117 15.646 7.2-19.9 2.438-19.9 2.438-4.42.624-4.363-3.8a43.374 43.374 0 0 1 .398-6.291z" fill="#494848" transform="translate(171)"/>
        </g>
        <g id="그룹_5333" transform="translate(19672.652 9089.875)">
            <rect id="사각형_10379" width="115.1" height="49.074" fill="#3e4a60" rx="8" transform="translate(-19093.104 -5659)"/>
            <path id="패스_9948" d="M-18915.6-5593.82l2.855-11.96h18.088z" fill="#3e4a60" transform="translate(-163.763 -5.734)"/>
            <circle id="타원_1262" cx="13.83" cy="13.83" r="13.83" fill="#788190" transform="translate(-19078.734 -5649.185)"/>
            <rect id="사각형_10380" width="46.397" height="4.461" fill="#788190" rx="2.231" transform="translate(-19041.26 -5648.293)"/>
            <rect id="사각형_10381" width="38.367" height="4.461" fill="#788190" rx="2.231" transform="translate(-19033.23 -5637.586)"/>
            <rect id="사각형_10382" width="46.397" height="4.461" fill="#788190" rx="2.231" transform="translate(-19041.26 -5626.879)"/>
        </g>
    </g>
</svg>
