<svg xmlns="http://www.w3.org/2000/svg" width="337" height="176" viewBox="0 0 337 176">
    <defs>
        <clipPath id="clip-path">
            <path id="사각형_9875" d="M0 0H337V176H0z" fill="#fff" stroke="#707070" transform="translate(-15558 -4554)"/>
        </clipPath>
        <clipPath id="clip-path-2">
            <path id="사각형_9884" d="M0 0H107V144H0z" fill="#fff" stroke="#707070" transform="translate(-17527 -3808.149)"/>
        </clipPath>
    </defs>
    <g id="direct_illust_04_m" clip-path="url(#clip-path)" transform="translate(15558 4554)">
        <g id="그룹_5002" transform="translate(-15543.81 -4547.542)">
            <path id="패스_9908" fill="#eaecf9" d="M49.938-.117l109.941-.258A49.577 49.577 0 0 1 209.7 49.288l-.291 123.5a50.143 50.143 0 0 1-50.055 49.9l-109.941.258A49.577 49.577 0 0 1-.408 173.28l.291-123.5A50.143 50.143 0 0 1 49.938-.117z" opacity="0.7" transform="translate(105.184 0) rotate(28)"/>
            <circle id="타원_343" cx="4.5" cy="4.5" r="4.5" fill="#33cac3" transform="translate(67.81 26.542)"/>
            <circle id="타원_345" cx="2.5" cy="2.5" r="2.5" fill="#928ae0" transform="translate(90.81 41.542)"/>
            <circle id="타원_346" cx="2.5" cy="2.5" r="2.5" fill="#feb639" transform="translate(156.81 9.542)"/>
            <g id="마스크_그룹_148" clip-path="url(#clip-path-2)" transform="translate(17576.809 3833.692)">
                <g id="그룹_5008" transform="translate(-17517.627 -3773.868)">
                    <path id="패스_9931" d="M-17576.93-3577.047l2.6 38.168v43.465l-1.381 46.526s-6.273 2.755-10.1 0c-1.906-1.372.307-9.948-2.754-30.457-.707-13.963-1.99-27.242-1.99-27.242l-10.561-30.61 3.98-33.67 8.418-6.181z" transform="translate(17642.588 3687.594)"/>
                    <path id="패스_9932" fill="#262323" d="M-17635.535-3576.656l1.074 21.58s3.52 38.415 2.295 45.608-7.039 55.862-7.039 55.862 3.824 2.6 7.039 1.225 16.836-57.087 16.836-57.087l4.9-26.018 3.367-19.59s7.193-20.967 14.082-22.5-42.554.92-42.554.92z" transform="translate(17652.98 3687.875)"/>
                    <path id="패스_9933" fill="#7882ff" d="M-17609.344-3685.425c-20.713-1.584-25.984-.348-25.984-.348s-20.746.059-22.982 33.729 19.773 6.709 19.773 6.709l-4.35 16.718-.588 21.78h52.975l-4-35.672 8.191-8.226-1.244-16.144s-1.08-16.962-21.791-18.546z" transform="translate(17658.969 3720.293)"/>
                    <path id="합치기_41" d="M2.41 28.726c.9-.7 1.745-4.207 1.882-4.8l-.172-.11c-3.352-2.173-1-4.437-3.351-8.241a3.706 3.706 0 0 1 1.449-5.614l3.714-5.433L9.826.543 15.8 0l6.07 5.162s4.347 3.713 1.268 5.524a8.876 8.876 0 0 0-3.895 4.891s.272.815-1.086 7.7a5.33 5.33 0 0 1-.132.552c-.809 2.5-2.795 3.281-5.071 3.188a6.93 6.93 0 0 0 .014 2.188s1.237 2.6-3.455 2.632h-.095c-4.644-.004-7.985-2.355-7.008-3.111z" fill="#ffdfc3" transform="translate(28.904 6.523)"/>
                    <path id="패스_9936" fill="#302537" d="M-17614.893-3729.448s-4.527 1.812-3.621 7.788 4.072 9.871 5.795 4.166 4.531-6.249 4.531-6.249 2.625-1 4.164 2.083 3.8 6.611 9.779 5.705 5.8-7.788 5.8-7.788 1.357-9.509-11.5-9.328-14.948 3.623-14.948 3.623z" transform="translate(17648.096 3733.073)"/>
                    <path id="패스_9937" d="M-17635.187-3646.99l6.357 4.356-8.01 18.131s-4 10.713-12.947 10.713-10.357-20.838-8.828-27.078-3.531 5.416 8.828 4.591c3.82-.254 5.822-2.216 8.125-3.768a20.2 20.2 0 0 0 6.475-6.945z" fill="#3e49d1" transform="translate(17659.148 3709.586)"/>
                    <path id="패스_9938" d="M-17624.328-3650.027l.965-5.037s.268-2.84 4.234-3.108 5.037-.965 5.037-.965l4.34-1.661s2.09.054.645 1.661-5.789 2.733-5.789 2.733 2.893 5.412-2.467 7.984-6.965-1.607-6.965-1.607z" fill="#ffdfc3" transform="translate(17649.65 3713.353)"/>
                    <path id="패스_9939" fill="#424242" d="M-17600.082-3657.558h10.342l7.074-20.042h-10.021z" transform="translate(17643.035 3717.938)"/>
                    <path id="패스_9940" d="M-17594.414-3666.681l7.768 6.537 2.52 1.5 4.607-1.5 1.07-7.77s1.234-2.84-.7-3.322-2.412 4.555-2.412 4.555l-3.91-2.626-6.324-3.644-.215-2.143s-1.928.107-2.408 3.215a14.99 14.99 0 0 0 .004 5.198z" fill="#ffdfc3" transform="translate(17641.545 3717.254)"/>
                    <path id="패스_9941" d="M-17559.35-3635.748l-15.895-19.66s-6.711 1.059-6.594 3.767 11.066 23.546 11.066 23.546 6.592 7.887 10.949 3.532.474-11.185.474-11.185z" fill="#3e49d1" transform="translate(17638.057 3711.883)"/>
                </g>
            </g>
            <g id="그룹_5335" transform="translate(19225.609 5702.865)">
                <rect id="사각형_10379" width="62.606" height="26.692" fill="#3e4a60" rx="5" transform="translate(-19093.104 -5659)"/>
                <path id="패스_9948" d="M-18915.6-5599.275l1.553-6.505h9.84z" fill="#3e4a60" transform="translate(-170.032 -27.391)"/>
                <circle id="타원_1262" cx="7.522" cy="7.522" r="7.522" fill="#788190" transform="translate(-19085.287 -5653.662)"/>
                <rect id="사각형_10380" width="25.236" height="2.427" fill="#788190" rx="1.213" transform="translate(-19064.904 -5653.176)"/>
                <rect id="사각형_10381" width="20.869" height="2.427" fill="#788190" rx="1.213" transform="translate(-19060.537 -5647.353)"/>
                <rect id="사각형_10382" width="25.236" height="2.427" fill="#788190" rx="1.213" transform="translate(-19064.904 -5641.528)"/>
            </g>
        </g>
    </g>
</svg>
