<svg xmlns="http://www.w3.org/2000/svg" width="319.503" height="154.16" viewBox="0 0 319.503 154.16">
    <defs>
        <filter id="합치기_88" width="99.521" height="87.776" x="160.005" y="4.67" filterUnits="userSpaceOnUse">
            <feOffset dy="10"/>
            <feGaussianBlur result="blur" stdDeviation="10"/>
            <feFlood flood-opacity=".051"/>
            <feComposite in2="blur" operator="in"/>
            <feComposite in="SourceGraphic"/>
        </filter>
        <filter id="합치기_89" width="98.85" height="84.872" x="102.708" y="19.097" filterUnits="userSpaceOnUse">
            <feOffset dy="10"/>
            <feGaussianBlur result="blur-2" stdDeviation="10"/>
            <feFlood flood-opacity=".051"/>
            <feComposite in2="blur-2" operator="in"/>
            <feComposite in="SourceGraphic"/>
        </filter>
        <clipPath id="clip-path">
            <path id="합치기_91" d="M45.678 63.307C6.159 62.539-.851 53.812.077 47.02h-.12v-133h307V21c32.712 20.912-11.818 38.038-11.818 38.038s-17.161 7.272-53.656 7.273a344.064 344.064 0 0 1-51.146-4.1 158.588 158.588 0 0 1-32.28 4.694c-10.548.437-28.212 1.281-47.7 1.281-21.728-.004-45.721-1.052-64.679-4.879z" class="cls-1" transform="translate(-15171.959 -6017.02)"/>
        </clipPath>
        <style>
            .cls-1{fill:#edeff5}.cls-5{fill:#c0c2cf}.cls-6{fill:#fcfcfc}.cls-7{fill:#dbdce5}.cls-8{fill:#c1c4d2}.cls-9{fill:#d8dae6}.cls-10{fill:#88909f}.cls-11{fill:#e1e2ec}.cls-12{fill:#9ba2b1}.cls-15,.cls-34,.cls-46{fill:#fff}.cls-16{fill:#f7d5e0}.cls-17{fill:#02457a}.cls-18{fill:#ddabc0}.cls-19,.cls-24,.cls-27,.cls-28,.cls-36,.cls-38,.cls-40,.cls-42{fill:none}.cls-19,.cls-28,.cls-40{stroke:#ddabc0}.cls-19,.cls-24,.cls-27,.cls-28,.cls-38,.cls-40,.cls-42{stroke-linecap:round}.cls-19,.cls-24,.cls-27,.cls-28,.cls-38,.cls-40{stroke-miterlimit:10}.cls-19{stroke-width:.5px}.cls-22{fill:#243372}.cls-24{stroke:#4f3e41;stroke-width:1.2px}.cls-25{fill:#4f3e41}.cls-26{fill:#f0b5bc}.cls-27{stroke:#c199a5}.cls-32{fill:#fffff7}.cls-37{fill:#edcace}.cls-38{stroke:#c68c5c}.cls-40{stroke-width:.7px}.cls-42{stroke:#435282;stroke-linejoin:round}.cls-46{stroke:#707070;opacity:.2}.cls-48,.cls-49{stroke:none}.cls-49{fill:#e9e9e9}
        </style>
    </defs>
    <g id="direct_illust_03_m" transform="translate(-860.5 -716.002)">
        <g id="img_001" transform="translate(-12605 8183.307)">
            <path id="합치기_28" fill="#eef0f8" d="M8.391 25.358a8.39 8.39 0 1 1 0-16.78h1.275a9.262 9.262 0 0 1 18.473 0h1.646a8.39 8.39 0 1 1 0 16.78z" transform="translate(13510.52 -7436.189)"/>
            <path id="합치기_27" fill="#eef0f8" d="M6.557 19.818a6.557 6.557 0 1 1 0-13.115h1.149a7.4 7.4 0 0 1 14.727 0h1.444a6.557 6.557 0 0 1 0 13.115z" opacity="0.8" transform="translate(13733.412 -7423.511)"/>
            <path id="합치기_30" d="M132.981 30.536S192.419-18.6 276.1 7.789s19.039 51.249 19.039 51.249-38.6 16.363-123.186 0-38.972-28.502-38.972-28.502z" class="cls-1" transform="translate(13466.043 -7381.326)"/>
            <path id="패스_9509" fill="#dbdde5" d="M2695.459 1057.91c7.76.8 16.166 2.857 20.2 5.5a16.822 16.822 0 0 1 7.042 8.5 45.908 45.908 0 0 1 2.154 8.82c.947 5.662 1.521 9.045 3.593 19.117 1.459 6.722 1.237 13.173 2.4 15.817a216.3 216.3 0 0 0 25.335.753c-.433-2.594-13.164-29.416-15.293-35.687-.253-.725-.506-1.449-.767-2.165-2.171-5.984-4.864-11.888-7.7-14.965-8.149-8.846-26.609-7.763-33.676-8.006.138-.084-4.56 1.278-6.361 1.964.47.03 3.065.352 3.073.352z" transform="translate(10956.047 -8431.413)"/>
            <g id="그룹_4925" transform="translate(13732.624 -7388.425)">
                <path id="패스_9511" d="M1239.146 706.038l-4.193-8.092h8.441l4.731 4.6z" class="cls-5" transform="translate(-1230.222 -697.946)"/>
                <path id="사각형_9522" d="M0 0H8.62V16.899H0z" class="cls-6" transform="translate(9.282 4.599)"/>
                <path id="패스_9512" d="M1196.7 719.444h-9.462v-16.9l4.731-4.6 4.731 4.6v16.9z" class="cls-7" transform="translate(-1187.236 -697.946)"/>
                <g id="그룹_4874" transform="translate(2.085 5.103)">
                    <path id="패스_9513" d="M1209.968 752.5h-1.7v-2.229a.85.85 0 0 1 .85-.85.85.85 0 0 1 .85.85z" class="cls-8" transform="translate(-1208.268 -749.417)"/>
                    <path id="패스_9514" d="M1246.194 752.5h-1.7v-2.229a.85.85 0 0 1 .85-.85.85.85 0 0 1 .85.85z" class="cls-8" transform="translate(-1240.903 -749.417)"/>
                </g>
                <g id="그룹_4875" transform="translate(2.085 9.753)">
                    <path id="패스_9515" d="M1209.968 799.4h-1.7v-2.229a.85.85 0 0 1 .85-.85.85.85 0 0 1 .85.85z" class="cls-8" transform="translate(-1208.268 -796.321)"/>
                    <path id="패스_9516" d="M1246.194 799.4h-1.7v-2.229a.85.85 0 0 1 .85-.85.85.85 0 0 1 .85.85z" class="cls-8" transform="translate(-1240.903 -796.321)"/>
                </g>
                <g id="그룹_4876" transform="translate(2.085 14.403)">
                    <path id="패스_9517" d="M1209.968 846.3h-1.7v-2.229a.85.85 0 0 1 .85-.85.85.85 0 0 1 .85.85z" class="cls-8" transform="translate(-1208.268 -843.225)"/>
                    <path id="패스_9518" d="M1246.194 846.3h-1.7v-2.229a.85.85 0 0 1 .85-.85.85.85 0 0 1 .85.85z" class="cls-8" transform="translate(-1240.903 -843.225)"/>
                </g>
                <g id="그룹_4878" transform="translate(14.543 9.514)">
                    <g id="그룹_4877">
                        <path id="패스_9519" d="M1337.828 802l-3.9-8.092h7.86l4.405 4.6z" class="cls-5" transform="translate(-1333.924 -793.91)"/>
                        <path id="사각형_9523" d="M0 0H8.027V7.366H0z" class="cls-6" transform="translate(4.239 4.599)"/>
                        <path id="패스_9520" d="M1338.329 805.875h-4.406V793.91l4.406 4.6v7.364z" class="cls-7" transform="translate(-1333.924 -793.91)"/>
                    </g>
                    <path id="패스_9521" d="M1408.507 868.611a1.261 1.261 0 0 0-1.261 1.261v3.3h2.523v-3.3a1.262 1.262 0 0 0-1.262-1.261z" class="cls-8" transform="translate(-1399.977 -861.205)"/>
                </g>
            </g>
            <g id="그룹_4926" transform="translate(13702.812 -7378.521)">
                <g id="그룹_4880" transform="translate(16.543 8.257)">
                    <path id="사각형_9524" d="M0 0H14.053V12.82H0z" class="cls-6" transform="translate(14.053 12.82) rotate(180)"/>
                </g>
                <g id="그룹_4881" transform="translate(0 0.123)">
                    <path id="패스_9522" d="M969.473 824.4v12.622h16.543V824.16l-8.088-8.088z" class="cls-7" transform="translate(-969.473 -816.072)"/>
                </g>
                <g id="그룹_4882" transform="translate(8.455 0)">
                    <path id="패스_9523" d="M1076.9 823.131l-8.578-8.295-13.568.132 8.088 8.163z" class="cls-5" transform="translate(-1054.757 -814.836)"/>
                </g>
                <g id="그룹_4883" transform="translate(23.811 12.054)">
                    <path id="사각형_9525" d="M0 0H2.596V4.207H0z" class="cls-8" transform="translate(2.596 4.207) rotate(180)"/>
                </g>
                <g id="그룹_4884" transform="translate(19.196 12.054)">
                    <path id="사각형_9526" d="M0 0H2.596V4.207H0z" class="cls-8" transform="translate(2.596 4.207) rotate(180)"/>
                </g>
                <g id="그룹_4885" transform="translate(6.941 6.852)">
                    <path id="사각형_9527" d="M0 0H2.493V2.493H0z" class="cls-8"/>
                </g>
                <g id="그룹_4886" transform="translate(6.655 14.843)">
                    <path id="사각형_9528" d="M0 0H3.43V6.222H0z" class="cls-8"/>
                </g>
            </g>
            <g id="그룹_4938" transform="translate(13649.376 -7388.425)">
                <rect id="사각형_9561" width="10.616" height="20.171" class="cls-9" rx="5.308" transform="translate(0 0)"/>
                <path id="합치기_24" d="M2.423 28.665V8.2L0 5.514l.526-.473 1.9 2.106V0h.708v3.254l1.9-2.106.526.474-2.429 2.69v24.353z" class="cls-10" transform="translate(2.885 6.016)"/>
            </g>
            <g id="그룹_4939" transform="translate(13620.578 -7379.313)">
                <rect id="사각형_9561-2" width="8.847" height="13.448" class="cls-11" rx="4.424" transform="translate(0 0)"/>
                <path id="합치기_24-2" d="M2.011 14.234V6.809L0 4.576l.436-.393 1.575 1.749V0H2.6v2.7L4.172.953l.437.393L2.6 3.579v10.655z" class="cls-12" transform="translate(2.394 4.876)"/>
            </g>
            <g id="그룹_4957" transform="translate(13765.586 -7375.829)">
                <rect id="사각형_9561-3" width="8.847" height="13.448" class="cls-11" rx="4.424" transform="translate(0 0)"/>
                <path id="합치기_24-3" d="M2.011 14.234V6.809L0 4.576l.436-.393 1.575 1.749V0H2.6v2.7L4.172.953l.437.393L2.6 3.579v10.655z" class="cls-12" transform="translate(2.394 4.876)"/>
            </g>
            <path id="패스_9906" fill="#f6f7fb" d="M13745.725-7542.264c7.359-5.325 50.561-33.594 150.855-13.471s42.9 39.528 2.416 41.205c-22.3.925-76.412 3.667-112.379-3.594-61.629-1.196-44.197-21.749-40.892-24.14z" transform="translate(-274.896 200.104)"/>
            <g id="그룹_4955" transform="translate(13507.47 -7382.762)">
                <rect id="사각형_9561-4" width="8.847" height="17.694" class="cls-9" rx="4.424" transform="translate(0 0)"/>
                <path id="합치기_24-4" d="M2.093 24.766V7.088L0 4.764l.454-.409 1.639 1.82V0h.612v2.811L4.344.991 4.8 1.4 2.705 3.725v21.041z" class="cls-10" transform="translate(2.493 5.315)"/>
            </g>
            <g id="그룹_4956" transform="translate(13498.976 -7361.883)">
                <rect id="사각형_9561-5" width="7.078" height="10.616" class="cls-11" rx="3.539" transform="translate(0 0)"/>
                <path id="합치기_24-5" d="M1.575 11.151V5.334L0 3.585l.342-.308 1.233 1.37V0h.46v2.116L3.269.746l.342.308L2.035 2.8v8.347z" class="cls-12" transform="translate(1.876 4.067)"/>
            </g>
            <g id="그룹_5000" transform="translate(13545.681 -7379.313)">
                <path id="패스_9529" d="M638.079 842l3.843 4.166h6.516L644.6 842z" class="cls-5" transform="translate(-632.724 -842)"/>
                <path id="패스_9530" d="M620.276 934.572l-1.533-1.662h6.516l1.533 1.662z" class="cls-5" transform="translate(-609.565 -925.798)"/>
                <path id="패스_9604" d="M6.5 0H0v2.946h6.5z" class="cls-6" transform="translate(9.215 4.166)"/>
                <path id="패스_9531" d="M627.958 846.166L624.1 842l-3.859 4.166v2.946l-1.5 1.662v13.1h17.229v-13.1h-6.516l-1.5-1.662z" class="cls-7" transform="translate(-618.743 -842)"/>
                <path id="패스_9603" d="M6.516 0H0v13.1h6.516z" class="cls-6" transform="translate(10.711 8.775)"/>
                <path id="사각형_9558" d="M.673 0a.673.673 0 0 1 .673.673V2.74H0V.673A.673.673 0 0 1 .673 0z" class="cls-8" transform="translate(4.683 2.249)"/>
                <path id="사각형_9559" d="M.466 0a.465.465 0 0 1 .465.465v2.442H0V.466A.466.466 0 0 1 .466 0z" class="cls-8" transform="translate(7.089 8.125)"/>
                <path id="사각형_9560" d="M.466 0a.466.466 0 0 1 .465.466v2.441H0V.466A.466.466 0 0 1 .466 0z" class="cls-8" transform="translate(3.655 11.559)"/>
            </g>
            <g id="그룹_5001" transform="translate(13527.907 -7369.592)">
                <g id="그룹_4897" transform="translate(0 0)">
                    <path id="패스_9524" d="M507.757 723.2l-5.68-8.808h7.97l6.409 5.009z" class="cls-5" transform="translate(-495.668 -714.392)"/>
                    <path id="패스_9528" d="M0 0h8.213v11.055H0z" class="cls-6" transform="translate(12.575 5.006)"/>
                    <path id="패스_9525" d="M433.869 730.453h-12.818V719.4l6.409-5.009 6.409 5.009v11.053z" class="cls-7" transform="translate(-421.051 -714.392)"/>
                    <path id="사각형_9552" d="M0 0H1.126V1.868H0z" class="cls-8" transform="translate(14.865 7.618)"/>
                    <path id="사각형_9553" d="M0 0H1.126V1.868H0z" class="cls-8" transform="translate(14.865 10.995)"/>
                </g>
                <path id="패스_9532" d="M0 0h1.126v1.868H0z" class="cls-8" transform="translate(18.165 7.618)"/>
                <path id="사각형_9555" d="M0 0H1.126V1.868H0z" class="cls-8" transform="translate(18.165 10.995)"/>
                <g id="그룹_4900" transform="translate(4.994 5.657)">
                    <path id="사각형_9527-2" d="M0 0H1.965V1.965H0z" class="cls-8"/>
                </g>
                <g id="그룹_4901" transform="translate(4.768 11.157)">
                    <path id="사각형_9528-2" d="M0 0H2.704V4.904H0z" class="cls-8"/>
                </g>
            </g>
        </g>
        <g id="마스크_그룹_192" clip-path="url(#clip-path)" transform="translate(16032.502 6819)">
            <g id="그룹_5331" transform="translate(-15080.771 -6078.328)">
                <g filter="url(#합치기_88)" transform="matrix(1, 0, 0, 1, -91.23, -24.67)">
                    <g id="합치기_88-2" class="cls-15">
                        <path d="M34.52 26.197H5c-2.481 0-4.5-2.019-4.5-4.5V6.913c0-.373.046-.745.136-1.104l.04-.16-.063-.154C.538 5.315.5 5.118.5 4.911V.924C.5-.017 1.268-.58 2.011-.58c.355 0 .69.128.97.369l2.308 1.993c.128.11.235.24.318.382l.144.25H34.52c2.482 0 4.5 2.018 4.5 4.499v14.784c0 2.481-2.018 4.5-4.5 4.5z" class="cls-48" transform="translate(229.53 51.37) rotate(180)"/>
                        <path d="M34.52 25.697c2.206 0 4-1.794 4-4V6.913c0-2.205-1.794-4-4-4H5.464l-.29-.497c-.055-.096-.126-.181-.212-.255L2.654.167c-.19-.163-.406-.247-.643-.247C1.514-.08 1 .296 1 .924v3.987c0 .14.025.273.075.393l.127.306-.08.322C1.04 6.25 1 6.58 1 6.912v14.785c0 2.206 1.795 4 4 4h29.52m0 1H5c-2.76 0-5-2.239-5-5V6.913c0-.423.053-.834.152-1.226C.055 5.454 0 5.193 0 4.911V.924C0-.788 2.012-1.708 3.308-.589l2.308 1.993c.174.15.315.323.423.51H34.52c2.762 0 5 2.238 5 4.999v14.784c0 2.761-2.238 5-5 5z" class="cls-49" transform="translate(229.53 51.37) rotate(180)"/>
                    </g>
                </g>
                <g id="그룹_5322" transform="translate(0 24.056)">
                    <path id="패스_9950" d="M1164.687 488.439l-2.963-9.241-1.045-3.259-9.482 5.6.559 3.521 1.119 2.391 1.6 3.423-10.691 8.466v10.518l10.058 1.283 8.661-12.185c4.197-4.356 2.184-10.517 2.184-10.517z" class="cls-16" transform="translate(-1114.441 -431.729)"/>
                    <path id="패스_9951" d="M1197.54 508.914l1.539 52.721-14.965.552-1.368-14.213-8.893 26.869-16.247 2.18 10-41.771s2.907-16.2 4.019-28.109l25.919 2.109" class="cls-17" transform="translate(-1157.607 -442.031)"/>
                    <path id="패스_9952" d="M1158.415 475.939l-9.483 5.6.559 3.521 1.119 2.39 8.848-8.256z" class="cls-18" transform="translate(-1112.176 -431.729)"/>
                    <path id="선_200" d="M0 3.708L3.862 0" class="cls-19" transform="translate(40.089 54.953)"/>
                    <path id="패스_9953" fill="#21234e" d="M1191.312 443.214s2.908.684 3.592-1.71a3.878 3.878 0 0 0-.513-3.677s-4.019-5.729-4.361-11.287c0 0 .171-2.736.685-6.5 0 0 .616-8.877-7.08-7 0 0-1.214-3.189-7.029-3.1 0 0-6.157-.684-9.834 7.867a26.812 26.812 0 0 0-1.454 10.176s1.282 7.012-2.223 10.09c0 0-3.079 2.993-2.481 5.387 0 0 1.8 5.473 5.73 4.96z" transform="translate(-1155.603 -409.938)"/>
                    <path id="패스_9954" d="M1176.091 456.2h-7.055l-7.917-.2s-7.731 3.816-9.655 8.357l-3.592 8 10.134 6.029v13.981s-3.848 2.309-.129 2.95l26.423-1.154s4.489.641.513-2.694c0 0 1.667-12.955.257-16.29l7.568-6.285-5.359-7.4s-3.336-4.781-11.188-5.294z" class="cls-17" transform="translate(-1144.643 -425.146)"/>
                    <path id="패스_9955" fill="#fffeff" d="M1187.775 454.958l-9.086-2.458-5.423 2.344s1.1 4.069 8.544 4.967c0 0 5.409.363 5.965-4.853z" transform="translate(-1156.791 -423.99)"/>
                    <path id="패스_9956" d="M1177.21 439.67v9.748l-1.668.706a9.39 9.39 0 0 0 7.375 3.847s4.483.122 4.483-3.662l-1.853-.506v-6.413z" class="cls-16" transform="translate(-1157.941 -419.754)"/>
                    <path id="패스_9957" d="M1178.309 443.945s6.926 8.1 8.337 4.288v-2.918z" class="cls-18" transform="translate(-1159.04 -421.166)"/>
                    <path id="패스_9958" d="M1187.9 421.287a13.165 13.165 0 0 0 2.63 3.72 14.508 14.508 0 0 0 0 4.553c.449 1.539 1.347 3.4-1.315 7.76 0 0-2.4 2.565-4.265 2.309 0 0-2.629.577-6.734-3.784l-1.731-2.309s-3.592 1.091-3.913-2.565a2.286 2.286 0 0 1 2.438-2.951 2.426 2.426 0 0 1 1.924 1.668s1.8-3.592 4.3-2.693 6.666-5.708 6.666-5.708z" class="cls-16" transform="translate(-1159.556 -413.685)"/>
                    <g id="그룹_5321" transform="translate(28.51 45.027)">
                        <path id="패스_9959" d="M1158.993 498l5.239-.66a2.346 2.346 0 0 0 2.444-1.881l3.67-15.831a2.588 2.588 0 0 0-2.592-2.468h-5.965s-1.353 0-1.906 1.845l-2.956 16.554s-.001 2.441 2.066 2.441z" class="cls-22" transform="translate(-1156.926 -477.158)"/>
                        <path id="패스_9960" fill="#8667a5" d="M1158.573 498.333h5.8a2.346 2.346 0 0 0 2.444-1.881l2.875-16.134a1.622 1.622 0 0 0-1.8-2.165h-5.965s-1.8-.288-2.228 2.165l-2.792 16.049s-.036 1.969 1.666 1.966z" transform="translate(-1156.333 -477.483)"/>
                        <path id="패스_9961" d="M1159.384 484.839h.851s.284.036.359-.392l.683-3.57s.1-.452-.263-.452h-.876s-.263-.06-.326.452l-.671 3.552s-.006.411.243.41z" class="cls-22" transform="translate(-1149.351 -478.236)"/>
                    </g>
                    <path id="패스_9962" d="M1160.347 494.767l1.409-5.558 1.126-3.676 9.877 4.728-1.7 5.856 1.725-.091 15.2-.807 3.181-4.426a1.654 1.654 0 0 1 1.85-.533 1.184 1.184 0 0 1 .035 1.359l-1.018 2.848a20.9 20.9 0 0 0 5.857.685s1.705-.042 1.8 1.026c0 0 .18.406-.9.983 0 0 .684 1.068-.77 1.411 0 0 .342.94-1.155 1.283 0 0 1.326 2.052-7.653 1.24a13.033 13.033 0 0 0-4.618.641l-11.233 2.651-5.236 1.026s-5.236 1.183-7.731-3.207c-.005.001-1.415-2.436-.046-7.439z" class="cls-16" transform="translate(-1159.654 -434.896)"/>
                    <path id="패스_9963" d="M1209.707 488.167v-1.454l-9.249-5.5-.884 2.9 9.878 4.727z" class="cls-18" transform="translate(-1196.345 -433.469)"/>
                    <path id="선_201" d="M7.439 0L0 1.439" class="cls-19" transform="translate(4.005 61.092)"/>
                    <path id="패스_9964" d="M1166.837 502.788c-1.789.092-3.057.587-5.731-.214" class="cls-19" transform="translate(-1127.708 -440.523)"/>
                    <path id="패스_9965" d="M1167.418 504.972c-1.612.086-2.413.527-4.819-.225" class="cls-19" transform="translate(-1129.289 -441.24)"/>
                    <path id="패스_9966" d="M1168.565 506.878c-1.422.086-2.015.752-4.14 0" class="cls-19" transform="translate(-1131.66 -441.944)"/>
                    <path id="패스_9967" d="M1182.9 429.824s.691-1.693 2.961-.827" class="cls-24" transform="translate(-1161.332 -416.149)"/>
                    <path id="패스_9968" d="M1174.786 429.228s1.647-.676 2.437.646" class="cls-24" transform="translate(-1147.257 -416.249)"/>
                    <ellipse id="타원_1263" cx=".719" cy=".754" class="cls-25" rx=".719" ry=".754" transform="translate(22.651 15.541)"/>
                    <ellipse id="타원_1264" cx=".613" cy=".643" class="cls-25" rx=".613" ry=".643" transform="matrix(-0.995, -0.102, 0.102, -0.995, 28.826, 16.895)"/>
                    <ellipse id="타원_1265" cx="1.452" cy="1.523" class="cls-26" rx="1.452" ry="1.523" transform="matrix(-0.995, -0.102, 0.102, -0.995, 23.145, 20.21)"/>
                    <ellipse id="타원_1266" cx="1.452" cy="1.523" class="cls-26" rx="1.452" ry="1.523" transform="matrix(-0.995, -0.102, 0.102, -0.995, 30.324, 20.947)"/>
                    <path id="패스_9969" d="M1179.661 432.732a4.059 4.059 0 0 0 .651 2.906s.8.953-.753 1.081" class="cls-27" transform="translate(-1153.75 -417.463)"/>
                    <path id="패스_9970" d="M1179.065 441.979a3.133 3.133 0 0 0 3.164.325" class="cls-27" transform="translate(-1155.129 -420.516)"/>
                </g>
                <g id="그룹_5325" transform="translate(68.941 42.56)">
                    <path id="패스_9971" d="M885.543 753.3l3.4-9.241 1.2-3.259 10.884 5.6-.642 3.521-1.285 2.391-1.839 3.423 12.27 8.465v10.518L897.985 776l-9.941-12.186c-4.81-4.356-2.501-10.514-2.501-10.514z" class="cls-16" transform="translate(-884.989 -683.938)"/>
                    <path id="패스_9972" d="M898.883 740.8l10.883 5.6-.642 3.521-1.285 2.391-10.155-8.256z" class="cls-18" transform="translate(-893.73 -683.938)"/>
                    <path id="선_202" d="M4.432 3.708L0 0" class="cls-28" transform="translate(7.779 67.605)"/>
                    <path id="패스_9973" fill="#e8b26b" d="M825.834 723.371l.687-1.492 4.025-8.739s4.554-9.3 13.725-10.293l6.729 2.469 8.786-3.206s8.474-.332 13.992 6.549a17.777 17.777 0 0 1 1.47 2.144c.29.5.569 1.014.829 1.568l10.548 25.829-16.895-2.87v4.205l-1.924-.086-1.4-.062-.783-.035 4.1.183v16.255s3.784 3.848.064 3.848h-34.111s-3.592-.171-.256-2.586l-.071-3.3-.055-2.591-.1-4.627-.051-2.433-.1-4.52a.5.5 0 0 1-.09-.042L835 737.1l-.026-1.2-6.86-4.344-2.257-1.429-2.427-1.537zm19.259 16.106h-.039zm-.525.036c-.248.016-.5.032-.775.047.271-.014.528-.03.775-.046zm7.077-.784l-.893-1.045-2.891-3.38zm-5.553.668l.067-.006zm.369-.034l.087-.009zm.283-.027l.072-.007zm.2-.02h.038zm-3.147.245c-.639.035-1.334.063-2.05.078.713-.014 1.406-.039 2.046-.077zm-8 .044c.026 0 .051.006.078.006a1.411 1.411 0 1 0 0-2.822c-.026 0-.05.005-.076.007a1.407 1.407 0 1 1 0 2.809z" transform="translate(-820.849 -671.163)"/>
                    <path id="패스_9974" fill="#202552" d="M879.1 676.635s5.066-1.155 5.451-5.323c0 0 .257-2.63-2.18-2.822 0 0 3.271-4.681-1.347-7.824a10.185 10.185 0 0 0-3.848-1.475c-2.566-.513-2.213.353-3.784-1.346 0 0-3.014-2.79-4.874-1.668 0 0-2.181 1.219 0 4.362l-3.528-2.373s-2.245-1.6-3.656-.513a2.033 2.033 0 0 0 0 2.822l3.143 4.169s-2.5-.706-3.207.449a2.155 2.155 0 0 0 .455 2.886s4.354 4.618 4.931 6.477z" transform="translate(-843.788 -655.911)"/>
                    <path id="선_203" fill="none" stroke="#8e613c" stroke-miterlimit="10" d="M0 15.085L2.761 0" transform="translate(15.025 48.994)"/>
                    <path id="패스_9975" d="M879.094 702.048l-2.117-.128-6.926 1.732-4.3-.834-2.181-.032s-1.4 7.023 7.283 7.023c.003-.001 7.118.705 8.241-7.761z" class="cls-32" transform="translate(-840.152 -671.101)"/>
                    <path id="패스_9976" d="M867.29 695.434v3.466h-.641s.064 4.682 4.617 4.682c0 0 6.606 0 6.606-5.58l-1.283-.385-.192-7.568z" class="cls-16" transform="translate(-841.047 -667.181)"/>
                    <g id="그룹_5323" transform="translate(11.239 47.329)">
                        <path id="패스_9977" fill="#cecece" d="M894.5 747.409l-6.233-.66a2.837 2.837 0 0 1-2.908-1.881l-4.367-15.831a2.805 2.805 0 0 1 3.085-2.469h7.1a2.556 2.556 0 0 1 2.268 1.845l3.517 16.553a2.4 2.4 0 0 1-2.462 2.443z" transform="translate(-880.972 -726.569)"/>
                        <path id="패스_9978" d="M895.325 747.744h-6.9a2.836 2.836 0 0 1-2.908-1.881l-3.42-16.134s-.77-2.165 2.137-2.165h7.1a2.434 2.434 0 0 1 2.651 2.165l3.32 16.048a1.893 1.893 0 0 1-1.98 1.967z" class="cls-34" transform="translate(-882.007 -726.894)"/>
                        <circle id="타원_1267" cx=".912" cy=".912" r=".912" fill="#686868" transform="translate(8.824 2.284)"/>
                    </g>
                    <path id="패스_9979" d="M846.292 753.436l1.345 2.746-2.052-.091v-3.844l.707 1.189z" class="cls-36" transform="translate(-796.703 -687.718)"/>
                    <path id="패스_9980" d="M848.3 753.311l-.707-1.189v-.255z" class="cls-37" transform="translate(-798.711 -687.592)"/>
                    <path id="선_204" d="M5.131 14.451L0 0" class="cls-38" transform="translate(43.751 49.31)"/>
                    <path id="패스_9981" d="M869.33 699.673s6.905.9 8.786-6.179c0 0-7.4 3.937-8.786 4.544z" class="cls-18" transform="translate(-843.087 -668.319)"/>
                    <path id="패스_9982" d="M865.053 673.771a3.867 3.867 0 0 1-1.474 1.81 2.89 2.89 0 0 0-1.284 2.358 32.893 32.893 0 0 1-.228 4.81s-1.439 5.644 2.986 8.273a8.007 8.007 0 0 0 10.518-4.041 6.8 6.8 0 0 0 .705-2.373s4.053 1.771 4.3-2.195c.29-4.691-4.745-1.076-4.745-1.076l.128-4.194s-8.469-1.192-10.906-3.372z" class="cls-16" transform="translate(-840.542 -661.808)"/>
                    <path id="패스_9983" d="M878.026 682.209s-.54-1.754-3-1.125" class="cls-24" transform="translate(-846.813 -664.177)"/>
                    <path id="패스_9984" d="M886.808 680.751s-1.647-.84-2.612.395" class="cls-24" transform="translate(-861.738 -664.02)"/>
                    <circle id="타원_1268" cx=".754" cy=".754" r=".754" class="cls-25" transform="translate(28.206 19.467)"/>
                    <circle id="타원_1269" cx=".643" cy=".643" r=".643" class="cls-25" transform="translate(23.298 19.208)"/>
                    <circle id="타원_1270" cx="1.523" cy="1.523" r="1.523" class="cls-26" transform="translate(28.87 21.327)"/>
                    <circle id="타원_1271" cx="1.523" cy="1.523" r="1.523" class="cls-26" transform="translate(21.302 21.327)"/>
                    <path id="패스_9985" d="M883.294 684.537a3.923 3.923 0 0 1-.99 2.825s-.939.866.67 1.151" class="cls-27" transform="translate(-856.781 -665.362)"/>
                    <path id="패스_9986" d="M866.033 684.586a2.694 2.694 0 0 0-2.544 1.515" class="cls-27" transform="translate(-827.091 -665.376)"/>
                    <path id="패스_9987" d="M882.426 693.494s-1.881.684-2.651.342c0 0-1.078.869.224 1.306a2.112 2.112 0 0 0 2.427-1.648z" class="cls-34" transform="translate(-854.114 -668.319)"/>
                    <path id="패스_9988" fill="#f4be7d" d="M886.412 758.046a1.4 1.4 0 0 1-.354-.05c.308-.017.6-.035.88-.053a1.407 1.407 0 0 1-.526.103z" transform="translate(-863.113 -689.598)"/>
                    <path id="선_205" d="M16.759 11.053L0 0" class="cls-38" transform="translate(19.062 74.464)"/>
                    <g id="그룹_5324" transform="translate(15.986 55.057)">
                        <path id="패스_9989" d="M825.927 742.337c.078-2.192 2.708-.5 2.708-.5a61.158 61.158 0 0 0 7.382 1.963l-.91-2.9a2.072 2.072 0 0 1 .859-2.756 1.935 1.935 0 0 1 2.335 1.131l2.3 5.35 17.028 6.148 1.932.7-.468-3.022-.246-1.589.032-.1 14.279 2.79.7 2.816c.9 4.648-1.74 9.467-1.74 9.467-3.41 7.066-11.991 2.915-11.991 2.915l-5.775-3.458-12.452-7.465c-2.936-1.788-4.47-1.393-4.47-1.393-2.688 1.514-6.86-.189-6.86-.189-2.89-1.5-1.855-3.533-1.855-3.533-2.293-2.125-1.426-3.4-1.426-3.4a5.828 5.828 0 0 1-1.362-2.975z" class="cls-16" transform="translate(-825.927 -738.105)"/>
                        <path id="패스_9990" d="M826.208 751.172l14.332 2.688.7 2.816-14.786-3.915z" class="cls-18" transform="translate(-793.311 -742.419)"/>
                        <path id="선_206" d="M0 0L7.712 1.039" class="cls-28" transform="translate(33.63 13.364)"/>
                        <path id="패스_9991" d="M883.593 749.07s5.493 2.517 7.906 1.484" class="cls-40" transform="translate(-882.01 -741.725)"/>
                        <path id="패스_9992" d="M881.868 753.562s3.779 3.365 7.907 1.484" class="cls-40" transform="translate(-879.13 -743.208)"/>
                    </g>
                </g>
                <g id="그룹_5328" transform="translate(123.595 27.76)">
                    <path id="패스_9993" d="M732.231 510.043l3.775-10.258 1.33-3.617 12.081 6.22-.717 3.912-1.426 2.653-2.042 3.8 13.62 9.4v11.667l-12.814 1.423-11.034-13.525c-5.335-4.841-2.773-11.675-2.773-11.675z" class="cls-16" transform="translate(-731.617 -433.207)"/>
                    <path id="패스_9994" d="M745.643 496.168l12.08 6.219-.713 3.909-1.426 2.653-11.272-9.164z" class="cls-18" transform="translate(-739.923 -433.207)"/>
                    <path id="패스_9995" fill="#657bf5" d="M688.7 520.822l-.427-25.828-12.814-8.116 7.9-17.156s5.054-10.322 15.234-11.426l7.475 2.741 9.753-3.559s12.529-.5 18.081 11.39l7.689 17.3-1.932 1.073-12.8 7.113v4.669l-20.075-.9-4.2-4.912s-.711-.854-2.847-.428a2.3 2.3 0 0 0 0 3.2l1.922 2.776a67.877 67.877 0 0 1-8.472.355s-3.346-.925-2.7 1.424a6.467 6.467 0 0 0 2.42 2.706s-.5 1.637 2.634 3.132c0 0-.427 2.491 3.132 3.132 0 0 4.983.428 7.332-2.065 0 0 1.5-.925 5.2 0l15.661 3.794-.071 8.177s4.2 4.271.071 4.271h-37.884s-3.982-.185-.282-2.863z" transform="translate(-672.596 -423.283)"/>
                    <path id="선_207" d="M0 16.744L3.065 0" class="cls-42" transform="translate(16.678 54.227)"/>
                    <path id="패스_9997" d="M727.437 457.43l-2.349-.143-7.688 1.922-4.77-.925-2.42-.036s-1.558 7.795 8.084 7.795c-.001 0 7.897.783 9.143-8.613z" class="cls-32" transform="translate(-684.212 -423.235)"/>
                    <path id="패스_9998" d="M713.989 451.394v3.845h-.713s.072 5.2 5.126 5.2c0 0 7.332 0 7.332-6.193l-1.423-.427-.214-8.4z" class="cls-16" transform="translate(-684.859 -420.19)"/>
                    <g id="그룹_5326" transform="translate(12.475 59.814)">
                        <path id="패스_9999" d="M742.609 515.068l-6.919-.732s-2.563.19-3.228-2.088l-4.847-17.571a3.114 3.114 0 0 1 3.424-2.741h7.877a2.836 2.836 0 0 1 2.518 2.048l3.9 18.374a2.66 2.66 0 0 1-2.725 2.71z" class="cls-22" transform="translate(-727.598 -491.936)"/>
                        <path id="패스_10000" fill="#384186" d="M743.418 515.333h-7.657s-2.563.189-3.227-2.089l-3.8-17.909s-.854-2.4 2.374-2.4h7.878a2.7 2.7 0 0 1 2.943 2.4l3.685 17.815a2.1 2.1 0 0 1-2.196 2.183z" transform="translate(-728.635 -492.188)"/>
                        <path id="패스_10001" d="M736.808 500.1h-1.123s-.376.039-.474-.436l-.9-3.962s-.125-.5.349-.5h1.155s.349-.067.432.5l.886 3.943s.005.455-.325.455z" class="cls-22" transform="translate(-724.357 -492.774)"/>
                    </g>
                    <path id="패스_10002" d="M710.877 519.521c-2.349 2.492-7.332 2.065-7.332 2.065-3.56-.641-3.132-3.132-3.132-3.132-3.132-1.495-2.634-3.132-2.634-3.132a6.467 6.467 0 0 1-2.42-2.706c-.641-2.349 2.7-1.424 2.7-1.424a67.86 67.86 0 0 0 8.472-.355l-1.922-2.776a2.3 2.3 0 0 1 0-3.2 2.144 2.144 0 0 1 2.847.428l4.2 4.912 20.075.9v12.224l-15.661-3.794c-3.698-.931-5.193-.01-5.193-.01z" class="cls-16" transform="translate(-677.477 -435.352)"/>
                    <path id="패스_10003" d="M693 508.935l1.493 3.048-2.278-.1v-4.266l.785 1.32z" class="cls-36" transform="translate(-637.954 -436.143)"/>
                    <path id="패스_10004" d="M695.006 508.837l-.785-1.32v-.283z" class="cls-37" transform="translate(-639.962 -436.045)"/>
                    <g id="그룹_5327" transform="translate(54.258 63.957)">
                        <path id="패스_10005" d="M684.073 501.832l2.97 4.895c2.492 4.627 1.281 10.607 1.281 10.607-1.281 8.614-11.746 7.048-11.746 7.048l-7.261-1.759V510.4l2.278.1-1.493-3.048z" class="cls-16" transform="translate(-669.318 -498.616)"/>
                        <path id="패스_10006" d="M675.431 504.739v-.119l12.8-7.113 1.952 3.216-13.97 5.619z" class="cls-16" transform="translate(-675.431 -497.507)"/>
                    </g>
                    <path id="패스_10007" d="M675.431 504.739v-.119l12.8-7.113 1.952 3.216-13.97 5.619z" class="cls-18" transform="translate(-621.172 -433.551)"/>
                    <path id="선_208" d="M5.695 16.041L0 0" class="cls-42" transform="translate(48.564 54.578)"/>
                    <path id="선_209" d="M32.756 4.643L0 0" class="cls-42" transform="translate(20.075 91.408)"/>
                    <path id="선_210" d="M0 0L9.825 1.597" class="cls-28" transform="translate(55.98 76.145)"/>
                    <path id="선_211" d="M4.92 4.116L0 0" class="cls-28" transform="translate(8.635 74.886)"/>
                    <path id="패스_10008" d="M728.635 518.78s6.652.854 8.869-1.038" class="cls-40" transform="translate(-708.048 -438.741)"/>
                    <path id="패스_10009" d="M725.652 522.557s5.115 2.318 8.87-1.038" class="cls-40" transform="translate(-702.848 -439.709)"/>
                    <path id="패스_10010" d="M715.957 455.719s7.664 1 9.753-6.857c0 0-8.211 4.37-9.753 5.044z" class="cls-18" transform="translate(-686.827 -421.074)"/>
                    <path id="패스_10011" fill="#242860" d="M712.551 431.659s-2.776-2.634-2.776-6.051c0 0 0-1.922 1.388-2.492a7.82 7.82 0 0 1-3.88-7.19s.213-5.979 6.763-4.057a37.662 37.662 0 0 1 4.627 2.42 15.036 15.036 0 0 0 8.044 2.848c4.13.356 5.482 1.353 6.621 6.122 0 0 .925 8.258-5.909 16.018z" transform="translate(-688.049 -411.488)"/>
                    <path id="패스_10012" d="M712.033 429.028s-2.248-1.169-3.174.967a4.521 4.521 0 0 0 .113 3.661c.816 1.756-.253 5.339-.253 5.339s-1.6 6.264 3.314 9.183a8.889 8.889 0 0 0 11.675-4.485 7.565 7.565 0 0 0 .783-2.634s4.5 1.966 4.77-2.436c.321-5.207-5.268-1.195-5.268-1.195l.142-7.629s-9.396 1.65-12.102-.771z" class="cls-16" transform="translate(-684.826 -415.905)"/>
                    <path id="패스_10013" d="M724.984 437.716s-.6-1.948-3.33-1.248" class="cls-24" transform="translate(-690.337 -417.856)"/>
                    <path id="패스_10014" d="M733.723 436.15s-1.828-.933-2.9.438" class="cls-24" transform="translate(-705.895 -417.734)"/>
                    <circle id="타원_1272" cx=".836" cy=".836" r=".836" class="cls-25" transform="translate(31.309 21.452)"/>
                    <circle id="타원_1273" cx=".714" cy=".714" r=".714" class="cls-25" transform="translate(25.861 21.165)"/>
                    <circle id="타원_1274" cx="1.691" cy="1.691" r="1.691" class="cls-26" transform="translate(32.045 23.517)"/>
                    <circle id="타원_1275" cx="1.691" cy="1.691" r="1.691" class="cls-26" transform="translate(23.645 23.517)"/>
                    <path id="패스_10015" d="M730.061 439.9a4.356 4.356 0 0 1-1.1 3.135s-1.042.962.744 1.278" class="cls-27" transform="translate(-700.631 -418.776)"/>
                    <path id="패스_10016" d="M730.287 449.4a3.8 3.8 0 0 1-3.7 0" class="cls-27" transform="translate(-699.306 -421.213)"/>
                    <path id="패스_10017" d="M712.941 439.953a2.991 2.991 0 0 0-2.824 1.682" class="cls-27" transform="translate(-669.716 -418.787)"/>
                </g>
                <g filter="url(#합치기_89)" transform="matrix(1, 0, 0, 1, -91.23, -24.67)">
                    <g id="합치기_89-2" class="cls-15">
                        <path d="M26.414 24.372H12.436c-2.555 0-4.992-.796-7.047-2.301l-.208-.153-.245.081-3.822 1.268c-.02.006-.04.01-.06.01-.056 0-.11-.031-.145-.084-.025-.038-.048-.1-.014-.18l1.54-3.655.103-.244-.143-.221C1.155 16.968.5 14.736.5 12.436c0-3.188 1.242-6.185 3.496-8.44C6.251 1.742 9.248.5 12.436.5h13.978c3.188 0 6.186 1.242 8.44 3.496 2.255 2.255 3.496 5.252 3.496 8.44 0 3.189-1.241 6.186-3.496 8.44-2.254 2.255-5.251 3.496-8.44 3.496z" class="cls-48" transform="translate(132.71 39.1)"/>
                        <path d="M26.414 23.872c3.055 0 5.927-1.19 8.087-3.349 2.16-2.16 3.35-5.032 3.35-8.087 0-3.054-1.19-5.926-3.35-8.086S29.469 1 26.414 1H12.436C9.382 1 6.51 2.19 4.35 4.35S1 9.382 1 12.436c0 2.204.628 4.343 1.815 6.186l.286.444-1.477 3.505 3.644-1.209.416.305c1.969 1.443 4.304 2.205 6.752 2.205h13.978m0 1H12.436c-2.746 0-5.285-.89-7.343-2.398l-3.821 1.267c-.557.185-1.068-.377-.838-.922l1.54-3.656C.726 17.224 0 14.915 0 12.436 0 5.568 5.568 0 12.436 0h13.978C33.283 0 38.85 5.568 38.85 12.436c0 6.869-5.567 12.436-12.436 12.436z" class="cls-49" transform="translate(132.71 39.1)"/>
                    </g>
                </g>
                <g id="그룹_5329" transform="translate(52.195 21.126)">
                    <rect id="사각형_10389" width="16.746" height="1.34" fill="#657bf5" opacity="0.67" rx=".67" transform="translate(0 0)"/>
                    <g id="사각형_10390" class="cls-46" transform="translate(0 3.349)">
                        <rect width="13.397" height="1.34" class="cls-48" rx=".67"/>
                        <rect width="12.397" height=".34" x=".5" y=".5" class="cls-36" rx=".17"/>
                    </g>
                    <g id="사각형_10391" class="cls-46" transform="translate(0 10.048)">
                        <rect width="10.048" height="1.34" class="cls-48" rx=".67"/>
                        <rect width="9.048" height=".34" x=".5" y=".5" class="cls-36" rx=".17"/>
                    </g>
                    <g id="사각형_10392" class="cls-46" transform="translate(0 6.698)">
                        <rect width="15.406" height="1.34" class="cls-48" rx=".67"/>
                        <rect width="14.406" height=".34" x=".5" y=".5" class="cls-36" rx=".17"/>
                    </g>
                </g>
                <g id="그룹_5330" transform="translate(105.782 6.698)">
                    <rect id="사각형_10393" width="25.413" height="1.34" fill="#e8b26b" opacity="0.7" rx=".67" transform="translate(0)"/>
                    <g id="사각형_10394" class="cls-46" transform="translate(0 3.349)">
                        <rect width="15.406" height="1.34" class="cls-48" rx=".67"/>
                        <rect width="14.406" height=".34" x=".5" y=".5" class="cls-36" rx=".17"/>
                    </g>
                    <g id="사각형_10395" class="cls-46" transform="translate(0 10.048)">
                        <rect width="11.387" height="1.34" class="cls-48" rx=".67"/>
                        <rect width="10.387" height=".34" x=".5" y=".5" class="cls-36" rx=".17"/>
                    </g>
                    <g id="사각형_10396" class="cls-46" transform="translate(0 6.698)">
                        <rect width="23.404" height="1.34" class="cls-48" rx=".67"/>
                        <rect width="22.404" height=".34" x=".5" y=".5" class="cls-36" rx=".17"/>
                    </g>
                </g>
            </g>
        </g>
    </g>
</svg>
