<svg xmlns="http://www.w3.org/2000/svg" width="1003.859" height="332.144" viewBox="0 0 1003.859 332.144">
    <defs>
        <filter id="합치기_31" width="121.904" height="104.848" x="523.831" y="95.894" filterUnits="userSpaceOnUse">
            <feOffset dy="10"/>
            <feGaussianBlur result="blur" stdDeviation="10"/>
            <feFlood flood-opacity=".051"/>
            <feComposite in2="blur" operator="in"/>
            <feComposite in="SourceGraphic"/>
        </filter>
        <filter id="합치기_32" width="120.854" height="98.959" x="434.084" y="118.492" filterUnits="userSpaceOnUse">
            <feOffset dy="10"/>
            <feGaussianBlur result="blur-2" stdDeviation="10"/>
            <feFlood flood-opacity=".051"/>
            <feComposite in2="blur-2" operator="in"/>
            <feComposite in="SourceGraphic"/>
        </filter>
        <clipPath id="clip-path">
            <path id="합치기_33" d="M106.713 306.047C12.9 304.237-2.5 283.372.3 267.518H.044V0h494.025v267.518h-1.211c12.091 25.434-63.688 44.4-123.6 46.862-24.642 1.013-65.917 2.97-111.45 2.97-50.756.001-106.808-2.429-151.095-11.303z" class="cls-1" transform="translate(0)"/>
        </clipPath>
        <style>
            .cls-1{fill:#edeff5}.cls-6{fill:#c0c2cf}.cls-7{fill:#fcfcfc}.cls-8{fill:#dbdce5}.cls-9{fill:#c1c4d2}.cls-10{fill:#d8dae6}.cls-11{fill:#88909f}.cls-12{fill:#e1e2ec}.cls-13{fill:#9ba2b1}.cls-15,.cls-34,.cls-46{fill:#fff}.cls-16{fill:#f7d5e0}.cls-17{fill:#02457a}.cls-18{fill:#ddabc0}.cls-19,.cls-24,.cls-27,.cls-28,.cls-36,.cls-38,.cls-40,.cls-42{fill:none}.cls-19,.cls-28,.cls-40{stroke:#ddabc0}.cls-19,.cls-24,.cls-27,.cls-28,.cls-38,.cls-40,.cls-42{stroke-linecap:round}.cls-19,.cls-24,.cls-27,.cls-28,.cls-38,.cls-40{stroke-miterlimit:10}.cls-19{stroke-width:.5px}.cls-22{fill:#243372}.cls-24{stroke:#4f3e41;stroke-width:1.2px}.cls-25{fill:#4f3e41}.cls-26{fill:#f0b5bc}.cls-27{stroke:#c199a5}.cls-32{fill:#fffff7}.cls-37{fill:#edcace}.cls-38{stroke:#c68c5c}.cls-40{stroke-width:.7px}.cls-42{stroke:#435282;stroke-linejoin:round}.cls-46{stroke:#707070;opacity:.2}.cls-49,.cls-50{stroke:none}.cls-50{fill:#e9e9e9}
        </style>
    </defs>
    <g id="direct_illust_03_pc" transform="translate(-13381.542 7450)">
        <path id="합치기_28" fill="#eef0f8" d="M19.456 58.8a19.456 19.456 0 0 1 0-38.912h2.957a21.477 21.477 0 0 1 42.837 0h3.816a19.456 19.456 0 1 1 0 38.912z" transform="translate(13730.348 -7415.335)"/>
        <path id="합치기_27" fill="#eef0f8" d="M15.206 45.953a15.205 15.205 0 1 1 0-30.41h2.663a17.151 17.151 0 0 1 34.15 0h3.348a15.205 15.205 0 1 1 0 30.41z" opacity="0.8" transform="translate(14137.506 -7402.487)"/>
        <path id="합치기_29" fill="#eef0f8" d="M11.507 34.774a11.506 11.506 0 1 1 0-23.012h2.156A12.976 12.976 0 0 1 26.719 0a12.976 12.976 0 0 1 13.057 11.762h2.68a11.506 11.506 0 0 1 0 23.012z" opacity="0.7" transform="translate(13487.169 -7307.213)"/>
        <path id="합치기_30" d="M105.92 143.46C-36.986 140.682 3.434 93.023 11.1 87.479c16.352-11.831 108.993-72.5 321.287-36.52 47.523-29.106 161.748-82.316 307.85-36.239 194.044 61.2 44.151 118.842 44.151 118.842s-76.489 32.431-243.029 7.347c-22.752 5.994-50.153 9.86-74.847 10.883-24.463 1.014-65.427 2.971-110.63 2.971-50.37 0-106.005-2.43-149.962-11.303z" class="cls-1" transform="translate(13645.774 -7287.413)"/>
        <path id="패스_9509" fill="#dbdde5" d="M2699.521 1060.978c18 1.846 37.486 6.625 46.834 12.744 8.439 5.538 13.189 11.553 16.33 19.705 2.176 5.621 3.614 12.259 5 20.452 2.195 13.13 3.526 20.975 8.332 44.331 3.382 15.586 2.869 30.547 5.565 36.676 8.241.558 20.926 2.281 58.749 1.745-1-6.015-30.525-68.212-35.463-82.752-.586-1.68-1.173-3.36-1.779-5.02-5.033-13.877-11.278-27.567-17.863-34.7-18.9-20.512-61.7-18-78.092-18.565.321-.2-10.575 2.963-14.751 4.553 1.103.083 7.117.831 7.138.831z" transform="translate(11376.317 -8333.589)"/>
        <g id="그룹_4925" transform="translate(14234.689 -7309.666)">
            <path id="패스_9511" d="M1244.675 716.71l-9.722-18.764h19.573l10.97 10.67z" class="cls-6" transform="translate(-1223.983 -697.946)"/>
            <path id="사각형_9522" d="M0 0H19.988V39.187H0z" class="cls-7" transform="translate(21.525 10.665)"/>
            <path id="패스_9512" d="M1209.176 747.8h-21.94v-39.184l10.97-10.67 10.97 10.67V747.8z" class="cls-8" transform="translate(-1187.236 -697.946)"/>
            <g id="그룹_4874" transform="translate(4.835 11.833)">
                <path id="패스_9513" d="M1212.209 756.556h-3.941v-5.168a1.971 1.971 0 0 1 1.971-1.971 1.971 1.971 0 0 1 1.97 1.971z" class="cls-9" transform="translate(-1208.268 -749.417)"/>
                <path id="패스_9514" d="M1248.436 756.556h-3.941v-5.168a1.971 1.971 0 0 1 1.971-1.971 1.97 1.97 0 0 1 1.97 1.971z" class="cls-9" transform="translate(-1236.166 -749.417)"/>
            </g>
            <g id="그룹_4875" transform="translate(4.835 22.616)">
                <path id="패스_9515" d="M1212.209 803.46h-3.941v-5.168a1.971 1.971 0 0 1 1.971-1.971 1.97 1.97 0 0 1 1.97 1.971z" class="cls-9" transform="translate(-1208.268 -796.321)"/>
                <path id="패스_9516" d="M1248.436 803.46h-3.941v-5.168a1.971 1.971 0 0 1 1.971-1.971 1.97 1.97 0 0 1 1.97 1.971z" class="cls-9" transform="translate(-1236.166 -796.321)"/>
            </g>
            <g id="그룹_4876" transform="translate(4.835 33.399)">
                <path id="패스_9517" d="M1212.209 850.364h-3.941V845.2a1.971 1.971 0 0 1 1.971-1.971 1.97 1.97 0 0 1 1.97 1.971z" class="cls-9" transform="translate(-1208.268 -843.225)"/>
                <path id="패스_9518" d="M1248.436 850.364h-3.941V845.2a1.971 1.971 0 0 1 1.971-1.971 1.97 1.97 0 0 1 1.97 1.971z" class="cls-9" transform="translate(-1236.166 -843.225)"/>
            </g>
            <g id="그룹_4878" transform="translate(33.723 22.062)">
                <g id="그룹_4877">
                    <path id="패스_9519" d="M1342.978 812.674l-9.054-18.764h18.228l10.216 10.67z" class="cls-6" transform="translate(-1333.924 -793.91)"/>
                    <path id="사각형_9523" d="M0 0H18.614V17.082H0z" class="cls-7" transform="translate(9.829 10.665)"/>
                    <path id="패스_9520" d="M1344.14 821.656h-10.216V793.91l10.216 10.67v17.076z" class="cls-8" transform="translate(-1333.924 -793.91)"/>
                </g>
                <path id="패스_9521" d="M1410.171 868.611a2.925 2.925 0 0 0-2.925 2.925v7.648h5.851v-7.648a2.925 2.925 0 0 0-2.926-2.925z" class="cls-9" transform="translate(-1390.389 -851.437)"/>
            </g>
        </g>
        <g id="그룹_4926" transform="translate(14194.813 -7284.251)">
            <g id="그룹_4880" transform="translate(38.361 19.147)">
                <path id="사각형_9524" d="M0 0H32.587V29.727H0z" class="cls-7" transform="translate(32.587 29.727) rotate(180)"/>
            </g>
            <g id="그룹_4881" transform="translate(0 0.284)">
                <path id="패스_9522" d="M969.473 835.395v29.268h38.361v-29.837l-18.754-18.754z" class="cls-8" transform="translate(-969.473 -816.072)"/>
            </g>
            <g id="그룹_4882" transform="translate(19.607 0)">
                <path id="패스_9523" d="M1106.11 834.07l-19.891-19.234-31.462.306 18.754 18.928z" class="cls-6" transform="translate(-1054.757 -814.836)"/>
            </g>
            <g id="그룹_4883" transform="translate(55.214 27.952)">
                <path id="사각형_9525" d="M0 0H6.02V9.757H0z" class="cls-9" transform="translate(6.02 9.757) rotate(180)"/>
            </g>
            <g id="그룹_4884" transform="translate(44.512 27.952)">
                <path id="사각형_9526" d="M0 0H6.02V9.757H0z" class="cls-9" transform="translate(6.02 9.757) rotate(180)"/>
            </g>
            <g id="그룹_4885" transform="translate(16.095 15.888)">
                <path id="사각형_9527" d="M0 0H5.781V5.781H0z" class="cls-9"/>
            </g>
            <g id="그룹_4886" transform="translate(15.432 34.419)">
                <path id="사각형_9528" d="M0 0H7.954V14.428H0z" class="cls-9"/>
            </g>
        </g>
        <g id="그룹_4938" transform="translate(14070.901 -7307.214)">
            <rect id="사각형_9561" width="24.618" height="46.775" class="cls-10" rx="12.309" transform="translate(0 0)"/>
            <path id="합치기_24" d="M5.618 66.469V19.023L0 12.785l1.219-1.1 4.4 4.884V0h1.642v7.544l4.4-4.884 1.219 1.1L7.261 10v56.469z" class="cls-11" transform="translate(6.69 13.951)"/>
        </g>
        <g id="그룹_4939" transform="translate(14148.908 -7316.241)">
            <rect id="사각형_9561-2" width="20.515" height="31.183" class="cls-12" rx="10.258" transform="translate(0 0)"/>
            <path id="합치기_24-2" d="M4.662 33.006V15.79L0 10.611 1.012 9.7l3.651 4.055V0h1.361v6.264l3.651-4.055 1.013.911L6.024 8.3v24.706z" class="cls-13" transform="translate(5.552 11.308)"/>
        </g>
        <g id="그룹_4957" transform="translate(14305.595 -7244.027)">
            <rect id="사각형_9561-3" width="20.515" height="31.183" class="cls-12" rx="10.258" transform="translate(0 0)"/>
            <path id="합치기_24-3" d="M4.662 33.006V15.79L0 10.611 1.012 9.7l3.651 4.055V0h1.361v6.264l3.651-4.055 1.013.911L6.024 8.3v24.706z" class="cls-13" transform="translate(5.552 11.308)"/>
        </g>
        <g id="마스크_그룹_134" clip-path="url(#clip-path)" transform="translate(13643.363 -7450)">
            <g id="그룹_4954" transform="translate(137.294 115.894)">
                <g filter="url(#합치기_31)" transform="matrix(1, 0, 0, 1, -399.12, -115.89)">
                    <g id="합치기_31-2" class="cls-15">
                        <path d="M56.903 44.256H5c-2.481 0-4.5-2.018-4.5-4.5V1.913C.5.971 1.268.408 2.011.408c.355 0 .69.128.97.37l6.412 5.536.14.121h47.37c2.482 0 4.5 2.02 4.5 4.5v28.822c0 2.48-2.018 4.5-4.5 4.5z" class="cls-49" transform="translate(615.73 160.65) rotate(180)"/>
                        <path d="M56.903 43.756c2.206 0 4-1.794 4-4v-28.82c0-2.206-1.794-4-4-4H9.347l-6.693-5.78C2.464.99 2.248.907 2.01.907 1.514.908 1 1.284 1 1.912v37.845c0 2.205 1.795 4 4 4h51.903m0 1H5c-2.76 0-5-2.24-5-5V1.912C0 .2 2.012-.72 3.308.4l6.411 5.536h47.184c2.762 0 5 2.24 5 5v28.822c0 2.76-2.238 5-5 5z" class="cls-50" transform="translate(615.73 160.65) rotate(180)"/>
                    </g>
                </g>
                <g id="그룹_4945" transform="translate(0 37.681)">
                    <path id="패스_9678" d="M1176.524 495.518l-4.641-14.475-1.637-5.1-14.852 8.776.876 5.516 1.753 3.745 2.511 5.361-16.746 13.26v16.474l15.755 2.009 13.566-19.086c6.565-6.836 3.415-16.48 3.415-16.48z" class="cls-16" transform="translate(-1097.819 -406.69)"/>
                    <path id="패스_9679" d="M1220.157 509.917l2.411 82.58-23.44.866-2.142-22.263-13.93 42.087-25.448 3.414 15.671-65.43s4.553-25.374 6.3-44.029l40.6 3.3" class="cls-17" transform="translate(-1157.607 -405.154)"/>
                    <path id="패스_9680" d="M1163.785 475.939l-14.853 8.776.876 5.516 1.753 3.744 13.86-12.931z" class="cls-18" transform="translate(-1091.358 -406.69)"/>
                    <path id="선_129" d="M0 5.808L6.049 0" class="cls-19" transform="translate(62.794 86.077)"/>
                    <path id="패스_9681" fill="#21234e" d="M1208.742 462.061s4.555 1.071 5.626-2.679-.8-5.76-.8-5.76-6.295-8.974-6.831-17.68c0 0 .269-4.286 1.073-10.179 0 0 .965-13.9-11.09-10.957 0 0-1.9-4.994-11.01-4.848 0 0-9.644-1.071-15.4 12.323a42.01 42.01 0 0 0-2.277 15.94s2.009 10.983-3.482 15.8c0 0-4.822 4.689-3.885 8.439 0 0 2.813 8.572 8.975 7.768z" transform="translate(-1152.81 -409.937)"/>
                    <path id="패스_9682" d="M1192.073 456.313h-11.05l-12.4-.313s-12.11 5.977-15.123 13.09l-5.626 12.538 15.873 9.443v21.9s-6.028 3.616-.2 4.621l41.388-1.808s7.032 1 .8-4.22c0 0 2.612-20.292.4-25.516l11.854-9.845-8.394-11.585s-5.222-7.502-17.522-8.305z" class="cls-17" transform="translate(-1142.815 -407.671)"/>
                    <path id="패스_9683" fill="#fffeff" d="M1195.992 456.351l-14.232-3.851-8.494 3.672s1.73 6.373 13.384 7.78c0 0 8.471.569 9.342-7.601z" transform="translate(-1147.46 -407.843)"/>
                    <path id="패스_9684" d="M1178.155 439.67v15.269l-2.613 1.106a14.708 14.708 0 0 0 11.553 6.027s7.021.191 7.021-5.736l-2.9-.793V445.5z" class="cls-16" transform="translate(-1147.972 -408.475)"/>
                    <path id="패스_9685" d="M1178.309 443.945s10.849 12.693 13.058 6.716v-4.571z" class="cls-18" transform="translate(-1148.126 -408.264)"/>
                    <path id="패스_9686" d="M1196.623 421.287s1.909 4.018 4.119 5.826c0 0-.7 4.721 0 7.133s2.11 5.325-2.06 12.155c0 0-3.766 4.018-6.68 3.617 0 0-4.118.9-10.548-5.927l-2.712-3.617s-5.626 1.708-6.129-4.017c0 0-1.1-4.622 3.818-4.622 0 0 2.511.4 3.013 2.613 0 0 2.813-5.626 6.73-4.219s10.449-8.942 10.449-8.942z" class="cls-16" transform="translate(-1152.22 -409.379)"/>
                    <g id="그룹_4944" transform="translate(44.656 70.528)">
                        <path id="패스_9687" d="M1160.163 509.8l8.207-1.033a3.674 3.674 0 0 0 3.828-2.946l5.749-24.8s-.233-3.866-4.06-3.866h-9.343s-2.12 0-2.986 2.889l-4.63 25.929s-.002 3.827 3.235 3.827z" class="cls-22" transform="translate(-1156.926 -477.158)"/>
                        <path id="패스_9688" fill="#8667a5" d="M1159.516 509.768h9.08a3.674 3.674 0 0 0 3.828-2.946l4.5-25.272s1.012-3.391-2.814-3.391h-9.343s-2.815-.451-3.49 3.391l-4.372 25.138s-.055 3.085 2.611 3.08z" transform="translate(-1156.008 -477.109)"/>
                        <path id="패스_9689" d="M1159.521 487.34h1.332s.446.057.562-.614l1.069-5.592s.149-.707-.412-.707h-1.372s-.412-.094-.512.707l-1.05 5.564s-.007.643.383.642z" class="cls-22" transform="translate(-1143.807 -476.997)"/>
                    </g>
                    <path id="패스_9690" d="M1160.686 500l2.208-8.706 1.764-5.758 15.471 7.405-2.669 9.172 2.7-.143 23.808-1.263 4.982-6.932a2.591 2.591 0 0 1 2.9-.834 1.855 1.855 0 0 1 .056 2.129l-1.595 4.461a32.743 32.743 0 0 0 9.174 1.072s2.671-.066 2.813 1.607c0 0 .282.636-1.406 1.54 0 0 1.071 1.673-1.206 2.21 0 0 .535 1.473-1.809 2.009 0 0 2.077 3.215-11.987 1.942a20.415 20.415 0 0 0-7.233 1l-17.6 4.153-8.2 1.607s-8.2 1.853-12.109-5.023c.002.003-2.207-3.815-.062-11.648z" class="cls-16" transform="translate(-1159.6 -406.218)"/>
                    <path id="패스_9691" d="M1215.446 492.107v-2.277l-14.487-8.619-1.385 4.535 15.472 7.4z" class="cls-18" transform="translate(-1194.517 -406.43)"/>
                    <path id="선_130" d="M11.652 0L0 2.253" class="cls-19" transform="translate(6.273 95.693)"/>
                    <path id="패스_9692" d="M1170.082 502.91c-2.8.144-4.789.92-8.976-.336" class="cls-19" transform="translate(-1108.792 -405.379)"/>
                    <path id="패스_9693" d="M1170.148 505.1c-2.525.135-3.78.826-7.549-.353" class="cls-19" transform="translate(-1110.424 -405.272)"/>
                    <path id="패스_9694" d="M1170.91 506.878c-2.227.135-3.156 1.177-6.484 0" class="cls-19" transform="translate(-1113.103 -405.168)"/>
                    <path id="패스_9695" d="M1182.9 430.432s1.083-2.652 4.638-1.3" class="cls-24" transform="translate(-1149.115 -409.012)"/>
                    <path id="패스_9696" d="M1174.786 429.326s2.58-1.059 3.817 1.013" class="cls-24" transform="translate(-1131.665 -408.997)"/>
                    <ellipse id="타원_1209" cx="1.126" cy="1.18" class="cls-25" rx="1.126" ry="1.18" transform="translate(35.48 24.342)"/>
                    <ellipse id="타원_1210" cx=".961" cy="1.007" class="cls-25" rx=".961" ry="1.007" transform="matrix(-0.995, -0.102, 0.102, -0.995, 45.152, 26.463)"/>
                    <ellipse id="타원_1211" cx="2.275" cy="2.386" class="cls-26" rx="2.275" ry="2.386" transform="matrix(-0.995, -0.102, 0.102, -0.995, 36.254, 31.657)"/>
                    <ellipse id="타원_1212" cx="2.275" cy="2.386" class="cls-26" rx="2.275" ry="2.386" transform="matrix(-0.995, -0.102, 0.102, -0.995, 47.498, 32.81)"/>
                    <path id="패스_9697" d="M1179.719 432.732a6.357 6.357 0 0 0 1.02 4.553s1.257 1.493-1.179 1.692" class="cls-27" transform="translate(-1139.133 -408.816)"/>
                    <path id="패스_9698" d="M1179.065 441.979s2.5 1.873 4.955.509" class="cls-27" transform="translate(-1141.573 -408.361)"/>
                </g>
                <g id="그룹_4948" transform="translate(107.986 66.665)">
                    <path id="패스_9699" d="M885.857 760.38l5.326-14.475 1.878-5.1 17.047 8.776-1.006 5.516-2.012 3.745-2.881 5.361 19.219 13.26v16.475l-18.082 2.009-15.571-19.087c-7.535-6.836-3.918-16.48-3.918-16.48z" class="cls-16" transform="translate(-884.989 -651.734)"/>
                    <path id="패스_9700" d="M899.562 740.8l17.047 8.776-1.006 5.516-2.012 3.744-15.907-12.931z" class="cls-18" transform="translate(-891.49 -651.734)"/>
                    <path id="선_131" d="M6.943 5.808L0 0" class="cls-28" transform="translate(12.185 105.895)"/>
                    <path id="패스_9701" fill="#e8b26b" d="M827.2 735.415l1.075-2.338 6.3-13.688s7.133-14.566 21.5-16.123l10.548 3.867 13.762-5.023s13.273-.519 21.916 10.258a27.783 27.783 0 0 1 2.3 3.359c.454.778.892 1.589 1.3 2.456l16.518 40.458-26.463-4.495v6.587l-3.014-.134-2.187-.1-1.227-.055 6.428.286v25.459s5.927 6.027.1 6.027h-53.442s-5.626-.267-.4-4.051L842.1 783l-.086-4.058-.154-7.247-.081-3.811-.15-7.08a.793.793 0 0 1-.142-.065l.059-3.816-.04-1.873-10.745-6.805-3.535-2.239-3.8-2.408zm30.167 25.228h-.061zm-.821.057c-.388.025-.789.05-1.214.073.421-.023.823-.048 1.21-.073zm11.085-1.229l-1.4-1.637-4.531-5.294zm-8.7 1.046l.1-.01zm.577-.053l.136-.013zm.443-.043l.113-.012zm.307-.032l.059-.006zm-4.929.384c-1 .055-2.09.1-3.212.122 1.122-.022 2.209-.066 3.21-.121zm-12.527.068c.041 0 .081.009.123.009a2.21 2.21 0 1 0 0-4.42c-.04 0-.079.008-.119.012a2.2 2.2 0 1 1 0 4.4z" transform="translate(-819.388 -653.638)"/>
                    <path id="패스_9702" fill="#202552" d="M889.5 688.373s7.935-1.809 8.539-8.338c0 0 .4-4.119-3.415-4.42 0 0 5.123-7.333-2.11-12.256a15.948 15.948 0 0 0-6.028-2.31c-4.018-.8-3.466.553-5.927-2.109 0 0-4.721-4.37-7.634-2.613 0 0-3.416 1.909 0 6.831l-5.525-3.717s-3.516-2.511-5.727-.8a3.184 3.184 0 0 0 0 4.42l4.923 6.53s-3.918-1.106-5.023.7a3.376 3.376 0 0 0 .713 4.52s6.82 7.233 7.724 10.146z" transform="translate(-834.179 -655.911)"/>
                    <path id="선_132" fill="none" stroke="#8e613c" stroke-miterlimit="10" d="M0 23.628L4.325 0" transform="translate(23.535 76.742)"/>
                    <path id="패스_9703" d="M887.931 702.12l-3.315-.2-10.849 2.712-6.731-1.306-3.416-.05s-2.2 11 11.408 11c0-.001 11.145 1.105 12.903-12.156z" class="cls-32" transform="translate(-826.935 -653.647)"/>
                    <path id="패스_9704" d="M867.653 698.486v5.424h-1s.1 7.334 7.232 7.334c0 0 10.347 0 10.347-8.74l-2.009-.6-.3-11.854z" class="cls-16" transform="translate(-826.547 -654.231)"/>
                    <g id="그룹_4946" transform="translate(17.604 74.135)">
                        <path id="패스_9705" fill="#cecece" d="M902.146 759.212l-9.764-1.034s-3.617.269-4.555-2.946l-6.841-24.8s.278-3.867 4.832-3.867h11.117a4 4 0 0 1 3.553 2.891L906 755.387s0 3.825-3.854 3.825z" transform="translate(-880.964 -726.569)"/>
                        <path id="패스_9706" d="M902.868 759.179h-10.8s-3.617.269-4.555-2.946l-5.357-25.272s-1.205-3.391 3.348-3.391h11.117a3.813 3.813 0 0 1 4.153 3.391l5.2 25.138a2.966 2.966 0 0 1-3.106 3.08z" class="cls-34" transform="translate(-882.007 -726.52)"/>
                        <circle id="타원_1213" cx="1.428" cy="1.428" r="1.428" fill="#686868" transform="translate(13.822 3.578)"/>
                    </g>
                    <path id="패스_9707" d="M846.693 754.11l2.107 4.3-3.215-.143v-6.02l1.108 1.862z" class="cls-36" transform="translate(-769.018 -651.17)"/>
                    <path id="패스_9708" d="M848.7 754.128l-1.108-1.862v-.4z" class="cls-37" transform="translate(-771.026 -651.189)"/>
                    <path id="선_133" d="M8.036 22.636L0 0" class="cls-38" transform="translate(68.531 77.238)"/>
                    <path id="패스_9709" d="M869.33 703.172s10.816 1.406 13.762-9.678c0 0-11.585 6.166-13.762 7.118z" class="cls-18" transform="translate(-828.224 -654.061)"/>
                    <path id="패스_9710" d="M866.871 673.771a6.056 6.056 0 0 1-2.309 2.835s-2.187 1.44-2.01 3.694a51.555 51.555 0 0 1-.357 7.534s-2.255 8.841 4.677 12.959c0 0 10.648 4.822 16.475-6.329a10.657 10.657 0 0 0 1.1-3.716s6.349 2.774 6.731-3.438c.453-7.348-7.434-1.685-7.434-1.685l.2-6.57s-13.257-1.869-17.073-5.284z" class="cls-16" transform="translate(-828.477 -655.032)"/>
                    <path id="패스_9711" d="M879.725 682.923s-.846-2.748-4.7-1.762" class="cls-24" transform="translate(-830.834 -654.679)"/>
                    <path id="패스_9712" d="M888.288 680.909s-2.579-1.316-4.091.618" class="cls-24" transform="translate(-849.018 -654.702)"/>
                    <circle id="타원_1214" cx="1.18" cy="1.18" r="1.18" class="cls-25" transform="translate(44.181 30.492)"/>
                    <circle id="타원_1215" cx="1.007" cy="1.007" r="1.007" class="cls-25" transform="translate(36.493 30.087)"/>
                    <circle id="타원_1216" cx="2.386" cy="2.386" r="2.386" class="cls-26" transform="translate(45.22 33.405)"/>
                    <circle id="타원_1217" cx="2.386" cy="2.386" r="2.386" class="cls-26" transform="translate(33.367 33.405)"/>
                    <path id="패스_9713" d="M884.009 684.537a6.144 6.144 0 0 1-1.551 4.424s-1.471 1.357 1.049 1.8" class="cls-27" transform="translate(-842.48 -654.502)"/>
                    <path id="패스_9714" d="M867.474 684.589a4.22 4.22 0 0 0-3.985 2.373" class="cls-27" transform="translate(-806.477 -654.5)"/>
                    <path id="패스_9715" d="M884.165 693.494s-2.946 1.072-4.152.536c0 0-1.688 1.361.35 2.045a3.309 3.309 0 0 0 3.802-2.581z" class="cls-34" transform="translate(-839.817 -654.061)"/>
                    <path id="패스_9716" fill="#f4be7d" d="M886.612 758.1a2.194 2.194 0 0 1-.554-.079c.483-.026.943-.055 1.378-.084a2.2 2.2 0 0 1-.824.163z" transform="translate(-850.118 -650.89)"/>
                    <path id="선_134" d="M26.25 17.313L0 0" class="cls-38" transform="translate(29.859 116.638)"/>
                    <g id="그룹_4947" transform="translate(25.039 86.238)">
                        <path id="패스_9717" d="M825.927 744.734c.122-3.434 4.242-.783 4.242-.783a95.827 95.827 0 0 0 11.562 3.075l-1.425-4.547c-1.111-3.187 1.345-4.316 1.345-4.316 2.978-.44 3.658 1.771 3.658 1.771l3.6 8.38 26.672 9.63 3.026 1.093-.732-4.734-.385-2.489.051-.159 22.367 4.37 1.1 4.411c1.416 7.28-2.725 14.828-2.725 14.828-5.342 11.068-18.783 4.566-18.783 4.566l-9.045-5.417-19.508-11.683c-4.6-2.8-7-2.181-7-2.181-4.21 2.371-10.746-.3-10.746-.3-4.526-2.357-2.905-5.535-2.905-5.535-3.592-3.328-2.234-5.325-2.234-5.325-1.662-1.455-2.135-4.655-2.135-4.655z" class="cls-16" transform="translate(-825.927 -738.105)"/>
                        <path id="패스_9718" d="M826.208 751.172l22.449 4.21 1.1 4.411-23.16-6.132z" class="cls-18" transform="translate(-774.68 -737.462)"/>
                        <path id="선_135" d="M0 0L12.079 1.628" class="cls-28" transform="translate(52.677 20.932)"/>
                        <path id="패스_9719" d="M883.593 749.07s8.6 3.943 12.385 2.324" class="cls-40" transform="translate(-881.113 -737.565)"/>
                        <path id="패스_9720" d="M881.868 753.562s5.919 5.27 12.386 2.324" class="cls-40" transform="translate(-877.579 -737.344)"/>
                    </g>
                </g>
                <g id="그룹_4951" transform="translate(193.595 43.483)">
                    <path id="패스_9721" d="M732.579 517.9l5.913-16.068 2.083-5.666 18.925 9.744-1.117 6.122-2.234 4.155-3.2 5.951 21.333 14.718v18.288l-20.071 2.229-17.283-21.185c-8.362-7.582-4.349-18.288-4.349-18.288z" class="cls-16" transform="translate(-731.617 -397.548)"/>
                    <path id="패스_9722" d="M746.4 496.168l18.922 9.741-1.117 6.122-2.234 4.156-17.656-14.354z" class="cls-18" transform="translate(-737.437 -397.548)"/>
                    <path id="패스_9723" fill="#657bf5" d="M696.2 556.7l-.669-40.457-20.071-12.712 12.376-26.872s7.917-16.168 23.863-17.9l11.708 4.293 15.276-5.575S758.305 456.7 767 475.32l12.043 27.1-3.027 1.68-20.056 11.142v7.313l-31.445-1.4-6.579-7.693s-1.115-1.338-4.459-.67c0 0-2.23 2.007 0 5.018l3.01 4.349a106.3 106.3 0 0 1-13.27.557s-5.241-1.449-4.237 2.23c0 0 1.561 3.234 3.791 4.238 0 0-.781 2.564 4.126 4.905 0 0-.669 3.9 4.907 4.906 0 0 7.805.67 11.484-3.234 0 0 2.342-1.449 8.141 0l24.53 5.943-.112 12.808s6.579 6.691.112 6.691h-59.317s-6.242-.303-.442-4.503z" transform="translate(-670.975 -403.918)"/>
                    <path id="선_136" d="M0 26.227L4.8 0" class="cls-42" transform="translate(26.123 84.939)"/>
                    <path id="패스_9725" d="M737.247 457.51l-3.68-.224-12.042 3.01-7.471-1.449-3.791-.056S707.822 471 722.924 471c0 0 12.371 1.229 14.323-13.49z" class="cls-32" transform="translate(-669.541 -403.949)"/>
                    <path id="패스_9726" d="M714.393 454.781v6.019h-1.116s.112 8.139 8.029 8.139c0 0 11.484 0 11.484-9.7l-2.229-.668-.335-13.158z" class="cls-16" transform="translate(-668.765 -405.903)"/>
                    <g id="그룹_4949" transform="translate(19.54 93.691)">
                        <path id="패스_9727" d="M751.1 528.169l-10.838-1.146s-4.014.3-5.056-3.271l-7.592-27.523s.307-4.293 5.363-4.293h12.339a4.442 4.442 0 0 1 3.944 3.208l6.115 28.781s.001 4.244-4.275 4.244z" class="cls-22" transform="translate(-727.589 -491.936)"/>
                        <path id="패스_9728" fill="#384186" d="M751.79 528.026H739.8s-4.014.3-5.055-3.271L728.8 496.7s-1.338-3.764 3.717-3.764h12.339s3.717-.5 4.61 3.764l5.773 27.9a3.292 3.292 0 0 1-3.449 3.426z" transform="translate(-728.635 -491.774)"/>
                        <path id="패스_9729" d="M738.232 502.88h-1.76s-.589.062-.742-.682l-1.414-6.206s-.2-.785.546-.785h1.81s.546-.1.677.785l1.388 6.176s.012.713-.505.712z" class="cls-22" transform="translate(-718.729 -491.398)"/>
                    </g>
                    <path id="패스_9730" d="M719.712 528.009c-3.679 3.9-11.484 3.234-11.484 3.234-5.576-1-4.907-4.906-4.907-4.906-4.907-2.341-4.126-4.905-4.126-4.905-2.23-1-3.791-4.238-3.791-4.238-1-3.679 4.237-2.23 4.237-2.23a106.29 106.29 0 0 0 13.27-.556l-3.011-4.349c-2.23-3.012 0-5.018 0-5.018 3.011-1.45 4.459.67 4.459.67l6.579 7.693 31.445 1.4v19.147l-24.53-5.943c-5.799-1.447-8.141.001-8.141.001z" class="cls-16" transform="translate(-667.395 -396.171)"/>
                    <path id="패스_9731" d="M693.442 509.682l2.339 4.774-3.568-.159v-6.682l1.23 2.067z" class="cls-36" transform="translate(-607.224 -395.664)"/>
                    <path id="패스_9732" d="M695.45 509.745l-1.23-2.067v-.443z" class="cls-37" transform="translate(-609.232 -395.727)"/>
                    <g id="그룹_4950" transform="translate(84.988 100.179)">
                        <path id="패스_9733" d="M692.43 501.832l4.653 7.667c3.9 7.247 2.007 16.614 2.007 16.614-2.007 13.492-18.4 11.039-18.4 11.039l-11.372-2.752v-19.151l3.568.158-2.339-4.774z" class="cls-16" transform="translate(-669.318 -496.795)"/>
                        <path id="패스_9734" d="M675.431 508.835v-.186l20.055-11.142 3.057 5.037-21.883 8.8z" class="cls-16" transform="translate(-675.431 -497.507)"/>
                    </g>
                    <path id="패스_9735" d="M675.431 508.835v-.186l20.055-11.142 3.057 5.037-21.883 8.8z" class="cls-18" transform="translate(-590.442 -397.328)"/>
                    <path id="선_137" d="M8.92 25.126L0 0" class="cls-42" transform="translate(76.068 85.489)"/>
                    <path id="선_138" d="M51.308 7.273L0 0" class="cls-42" transform="translate(31.444 143.178)"/>
                    <path id="선_139" d="M0 0L15.39 2.501" class="cls-28" transform="translate(87.685 119.271)"/>
                    <path id="선_140" d="M7.707 6.447L0 0" class="cls-28" transform="translate(13.525 117.298)"/>
                    <path id="패스_9736" d="M728.635 519.368s10.42 1.338 13.893-1.626" class="cls-40" transform="translate(-696.389 -393.997)"/>
                    <path id="패스_9737" d="M725.652 523.145s8.012 3.63 13.894-1.626" class="cls-40" transform="translate(-689.933 -393.375)"/>
                    <path id="패스_9738" d="M715.957 459.6s12 1.562 15.276-10.741c0 0-12.861 6.844-15.276 7.9z" class="cls-18" transform="translate(-670.329 -405.336)"/>
                    <path id="패스_9739" fill="#242860" d="M715.535 443.083s-4.349-4.126-4.349-9.478c0 0 0-3.011 2.174-3.9 0 0-6.077-2.9-6.077-11.263 0 0 .334-9.366 10.593-6.355a59.011 59.011 0 0 1 7.247 3.791c3.568 2.23 6.133 3.9 12.6 4.46s8.587 2.118 10.371 9.589c0 0 1.449 12.935-9.255 25.089z" transform="translate(-677.155 -411.488)"/>
                    <path id="패스_9740" d="M714.05 429.209s-3.522-1.832-4.972 1.514a7.081 7.081 0 0 0 .177 5.735c1.277 2.751-.4 8.363-.4 8.363s-2.5 9.812 5.191 14.384c0 0 11.82 5.351 18.288-7.025a11.853 11.853 0 0 0 1.226-4.126s7.046 3.079 7.471-3.815c.5-8.156-8.251-1.872-8.251-1.872l.222-11.95s-14.713 2.583-18.952-1.208z" class="cls-16" transform="translate(-671.435 -408.653)"/>
                    <path id="패스_9741" d="M726.87 438.509s-.939-3.051-5.216-1.955" class="cls-24" transform="translate(-672.601 -407.401)"/>
                    <path id="패스_9742" d="M735.365 436.326s-2.863-1.462-4.54.686" class="cls-24" transform="translate(-691.776 -407.479)"/>
                    <circle id="타원_1218" cx="1.31" cy="1.31" r="1.31" class="cls-25" transform="translate(49.04 33.602)"/>
                    <circle id="타원_1219" cx="1.118" cy="1.118" r="1.118" class="cls-25" transform="translate(40.507 33.153)"/>
                    <circle id="타원_1220" cx="2.648" cy="2.648" r="2.648" class="cls-26" transform="translate(50.194 36.836)"/>
                    <circle id="타원_1221" cx="2.648" cy="2.648" r="2.648" class="cls-26" transform="translate(37.037 36.836)"/>
                    <path id="패스_9743" d="M730.855 439.9a6.823 6.823 0 0 1-1.723 4.911s-1.632 1.507 1.165 2" class="cls-27" transform="translate(-684.756 -406.81)"/>
                    <path id="패스_9744" d="M732.383 449.4s-3.122 1.784-5.8 0" class="cls-27" transform="translate(-683.857 -405.246)"/>
                    <path id="패스_9745" d="M714.54 439.958a4.684 4.684 0 0 0-4.423 2.634" class="cls-27" transform="translate(-646.835 -406.803)"/>
                </g>
                <g filter="url(#합치기_32)" transform="matrix(1, 0, 0, 1, -399.12, -115.89)">
                    <g id="합치기_32-2" class="cls-15">
                        <path d="M42.854 38.46H18c-3.781 0-7.38-1.187-10.409-3.432l-.208-.154-.247.081-5.3 1.758c-.062.02-.124.031-.184.031-.183 0-.356-.097-.464-.259-.063-.096-.154-.294-.048-.547l2.148-5.096.102-.242-.141-.221C1.45 27.569.5 24.31.5 20.959V18c0-4.674 1.82-9.069 5.126-12.374C8.93 2.32 13.326.5 18 .5h24.854c4.675 0 9.07 1.82 12.375 5.126 3.305 3.305 5.125 7.7 5.125 12.374v2.96c0 4.674-1.82 9.068-5.125 12.374-3.306 3.305-7.7 5.125-12.375 5.125z" class="cls-49" transform="translate(464.08 138.49)"/>
                        <path d="M42.854 37.96c4.541 0 8.81-1.77 12.021-4.98 3.211-3.21 4.98-7.48 4.98-12.02V18c0-4.54-1.769-8.81-4.98-12.02C51.664 2.767 47.395 1 42.855 1H18C13.46 1 9.19 2.768 5.98 5.98 2.767 9.19 1 13.46 1 18v2.96c0 3.256.923 6.42 2.67 9.15l.283.442-2.352 5.58c-.012.028-.015.049.004.077.013.02.034.035.047.035.004 0 .012 0 .026-.005l5.794-1.922.417.31c2.942 2.18 6.438 3.332 10.111 3.332h24.854m0 1H18c-4.01 0-7.714-1.311-10.707-3.529l-5.3 1.758C1.12 37.477.32 36.596.68 35.743l2.148-5.095C1.038 27.851 0 24.526 0 20.96V18C0 8.06 8.06 0 18 0h24.854c9.94 0 18 8.06 18 18v2.96c0 9.94-8.06 18-18 18z" class="cls-50" transform="translate(464.08 138.49)"/>
                    </g>
                </g>
                <g id="그룹_4952" transform="translate(81.756 33.091)">
                    <rect id="사각형_9595" width="26.23" height="2.098" fill="#657bf5" opacity="0.67" rx="1.049" transform="translate(0 0)"/>
                    <g id="사각형_9596" class="cls-46" transform="translate(0 5.246)">
                        <rect width="20.984" height="2.098" class="cls-49" rx="1.049"/>
                        <rect width="19.984" height="1.098" x=".5" y=".5" class="cls-36" rx=".549"/>
                    </g>
                    <g id="사각형_9597" class="cls-46" transform="translate(0 15.738)">
                        <rect width="15.738" height="2.098" class="cls-49" rx="1.049"/>
                        <rect width="14.738" height="1.098" x=".5" y=".5" class="cls-36" rx=".549"/>
                    </g>
                    <g id="사각형_9598" class="cls-46" transform="translate(0 10.492)">
                        <rect width="24.132" height="2.098" class="cls-49" rx="1.049"/>
                        <rect width="23.132" height="1.098" x=".5" y=".5" class="cls-36" rx=".549"/>
                    </g>
                </g>
                <g id="그룹_4953" transform="translate(165.692 10.492)">
                    <rect id="사각형_9599" width="39.806" height="2.098" fill="#e8b26b" opacity="0.7" rx="1.049" transform="translate(0)"/>
                    <g id="사각형_9600" class="cls-46" transform="translate(0 5.246)">
                        <rect width="24.132" height="2.098" class="cls-49" rx="1.049"/>
                        <rect width="23.132" height="1.098" x=".5" y=".5" class="cls-36" rx=".549"/>
                    </g>
                    <g id="사각형_9601" class="cls-46" transform="translate(0 15.738)">
                        <rect width="17.836" height="2.098" class="cls-49" rx="1.049"/>
                        <rect width="16.836" height="1.098" x=".5" y=".5" class="cls-36" rx=".549"/>
                    </g>
                    <g id="사각형_9602" class="cls-46" transform="translate(0 10.492)">
                        <rect width="36.658" height="2.098" class="cls-49" rx="1.049"/>
                        <rect width="35.658" height="1.098" x=".5" y=".5" class="cls-36" rx=".549"/>
                    </g>
                </g>
            </g>
        </g>
        <path id="패스_9675" fill="#f6f7fb" d="M13508.421-7509.613s57.427-35.726 170.806-38.2 164.111 34.652 164.111 34.652 92.482 68.243-164.111 69.232-170.806-65.684-170.806-65.684z" transform="translate(-113.103 326.065)"/>
        <g id="그룹_4942" transform="translate(13571.894 -7271.208)">
            <path id="패스_9529" d="M638.079 842l12.055 13.07h20.442L658.521 842z" class="cls-6" transform="translate(-621.278 -842)"/>
            <path id="패스_9530" d="M623.553 938.125l-4.81-5.215h20.441l4.81 5.215z" class="cls-6" transform="translate(-589.951 -910.598)"/>
            <path id="패스_9604" d="M20.39 0H0v9.242h20.39z" class="cls-7" transform="translate(28.908 13.07)"/>
            <path id="패스_9531" d="M647.651 855.07L635.544 842l-12.107 13.07v9.242l-4.694 5.215v41.083h54.044v-41.083h-20.442l-4.694-5.215z" class="cls-8" transform="translate(-618.743 -842)"/>
            <path id="패스_9603" d="M20.442 0H0v41.083h20.442z" class="cls-7" transform="translate(33.602 27.527)"/>
            <path id="사각형_9558" d="M1.6 0h1.03a1.6 1.6 0 0 1 1.6 1.6v7H0v-7A1.6 1.6 0 0 1 1.6 0z" class="cls-9" transform="translate(14.69 7.054)"/>
            <path id="사각형_9559" d="M1.1 0h.712a1.1 1.1 0 0 1 1.1 1.1v8.02H0V1.1A1.1 1.1 0 0 1 1.1 0z" class="cls-9" transform="translate(22.24 25.488)"/>
            <path id="사각형_9560" d="M1.1 0h.712a1.1 1.1 0 0 1 1.1 1.1v8.02H0V1.1A1.1 1.1 0 0 1 1.1 0z" class="cls-9" transform="translate(11.466 36.262)"/>
        </g>
        <g id="그룹_4943" transform="translate(13516.139 -7240.713)">
            <g id="그룹_4897" transform="translate(0 0)">
                <path id="패스_9524" d="M519.895 742.023l-17.818-27.631h25l20.108 15.708z" class="cls-6" transform="translate(-481.971 -714.392)"/>
                <path id="패스_9528" d="M0 0h25.764v34.681H0z" class="cls-7" transform="translate(39.45 15.704)"/>
                <path id="패스_9525" d="M461.262 764.777h-40.211V730.1l20.106-15.712 20.105 15.712v34.673z" class="cls-8" transform="translate(-421.051 -714.392)"/>
                <path id="사각형_9552" d="M0 0H3.532V5.859H0z" class="cls-9" transform="translate(46.632 23.899)"/>
                <path id="사각형_9553" d="M0 0H3.532V5.859H0z" class="cls-9" transform="translate(46.632 34.493)"/>
            </g>
            <path id="패스_9532" d="M0 0h3.532v5.859H0z" class="cls-9" transform="translate(56.986 23.899)"/>
            <path id="사각형_9555" d="M0 0H3.532V5.859H0z" class="cls-9" transform="translate(56.986 34.493)"/>
            <g id="그룹_4900" transform="translate(15.665 17.748)">
                <path id="사각형_9527-2" d="M0 0H6.164V6.164H0z" class="cls-9"/>
            </g>
            <g id="그룹_4901" transform="translate(14.959 35)">
                <path id="사각형_9528-2" d="M0 0H8.482V15.385H0z" class="cls-9"/>
            </g>
        </g>
        <g id="그룹_4955" transform="translate(13741.837 -7294.084)">
            <rect id="사각형_9561-4" width="20.515" height="41.03" class="cls-10" rx="10.258" transform="translate(0 0)"/>
            <path id="합치기_24-4" d="M4.854 57.429V16.436L0 11.046l1.053-.946 3.8 4.22V0h1.42v6.519l3.8-4.22 1.053.949-4.853 5.39v48.791z" class="cls-11" transform="translate(5.78 12.324)"/>
        </g>
        <g id="그룹_4958" transform="translate(13466.653 -7239.616)">
            <rect id="사각형_9561-5" width="20.515" height="41.03" class="cls-10" rx="10.258" transform="translate(0 0)"/>
            <path id="합치기_24-5" d="M4.854 57.429V16.436L0 11.046l1.053-.946 3.8 4.22V0h1.42v6.519l3.8-4.22 1.053.949-4.853 5.39v48.791z" class="cls-11" transform="translate(5.78 12.324)"/>
        </g>
        <g id="그룹_4956" transform="translate(13722.142 -7245.668)">
            <rect id="사각형_9561-6" width="16.412" height="24.618" class="cls-12" rx="8.206" transform="translate(0 0)"/>
            <path id="합치기_24-6" d="M3.653 25.857V12.37L0 8.313.793 7.6l2.86 3.176V0h1.066v4.907l2.86-3.176.793.714L4.719 6.5v19.357z" class="cls-13" transform="translate(4.349 9.43)"/>
        </g>
    </g>
</svg>
