<svg xmlns="http://www.w3.org/2000/svg" width="226.34" height="377.691" viewBox="0 0 226.34 377.691">
    <defs>
        <clipPath id="clip-path">
            <path id="패스_9325" fill="none" d="M256.146 94.19c.008-1.243-.006-2.492-.049-3.748-.138-4.025-.11-8.144 1.918-11.742 2.049-3.636 5.719-4.568 9.807-3.931 3.509.546 4.909 1.763 6.035 4.862a32.573 32.573 0 0 1 2.131 11.726 13.727 13.727 0 0 1-1 5.989 5.266 5.266 0 0 1-4.8 3.188c.093 3.5.611 9.093-3.172 10.572-3.4 1.329-10.736 1.146-11.387-3.661a8.831 8.831 0 0 1 0-1.774c.26-3.871.493-7.655.517-11.481z" transform="translate(-255.581 -74.584)"/>
        </clipPath>
        <style>
            .cls-10{fill:none}.cls-2{fill:#fdc3ae}.cls-3{fill:#1c396a}.cls-4{fill:#6d7df9}.cls-7{fill:#0f171e}.cls-8{fill:#f2c366}.cls-10{stroke:#0f171e;stroke-miterlimit:10}.cls-11{fill:#1f2531}.cls-14{fill:#3e4a60}.cls-15{fill:#788190}
        </style>
    </defs>
    <g id="direct_illust_01" transform="translate(0 -147.987)">
        <g id="그룹_4495" transform="translate(0 220.342)">
            <g id="그룹_4449" transform="translate(6.751 240.767)">
                <g id="그룹_4448">
                    <g id="그룹_4447">
                        <g id="그룹_4446">
                            <path id="패스_9316" d="M334.867 405.209c-.253.39-2.241.788-2.635.975-.769.366-1.667-.216-2.4-.774l-8.188-6.189c3.171-7.368 11.86-21.695 15.846-28.475 2.612 2.171 12.869 11.235 12.293 15.518-.339 2.5-14.916 18.945-14.916 18.945z" class="cls-2" transform="translate(-321.641 -370.747)"/>
                        </g>
                    </g>
                </g>
            </g>
            <g id="그룹_4453" transform="translate(84.358 266.966)">
                <g id="그룹_4452" transform="translate(0)">
                    <g id="그룹_4451">
                        <g id="그룹_4450">
                            <path id="패스_9317" d="M245.235 430.664c-.78.217-9.02.026-9.016.1-.335-8.05-2.844-16.733-1.366-24.727 4.7 2.38 13.219.016 17.988-1.617-.463 6.566-1.907 18.012-2.217 24.99-.016.349-3.055.603-5.389 1.254z" class="cls-2" transform="translate(-234.39 -404.416)"/>
                        </g>
                    </g>
                </g>
            </g>
            <g id="그룹_4457" transform="translate(12.324 93.263)">
                <g id="그룹_4456">
                    <g id="그룹_4455">
                        <g id="그룹_4454">
                            <path id="패스_9318" d="M289.283 350.3c-1.368 2.372-2.968 3.485-4.7 3.82a38.89 38.89 0 0 1-5.214-1.855c-3.99-1.758-13.961-6.436-15.749-10.693-1.937-4.612 4.563-14.437 6.64-19.106a362.947 362.947 0 0 1 21.958-41.811 25.183 25.183 0 0 0 3.345-6.929 24.347 24.347 0 0 0 .249-7.539l-2.655-37.329c-.553-7.785-1.1-15.665.277-23.347s4.913-15.267 11.138-19.973c6.676-5.047 20.114-7.41 22.371 2.616 5.793 25.742 4.849 53.6 2.541 79.766-.568 6.44-1.326 12.929-3.46 19.031-3.745 10.706-11.455 19.5-17.063 29.227l-19.628 34.039z" class="cls-3" transform="translate(-263.261 -181.19)"/>
                        </g>
                    </g>
                </g>
            </g>
            <g id="그룹_4461" transform="translate(67.142 102.84)">
                <g id="그룹_4460">
                    <g id="그룹_4459">
                        <g id="그룹_4458">
                            <path id="패스_9319" d="M237.676 365.256c-.423-1.654-.481-42.058-.538-58.41-.016-4.7-3.2-24.682-4.18-30.049-3.327-18.25-5.255-37.01-8.291-55.388-.966-5.849-1.866-12.17.84-17.445 3.122-6.087 10.2-9.031 16.924-10.28a4.852 4.852 0 0 1 3.187.163c1.121.605 7.12 2.345 7.511 3.557 10.061 31.152 11.832 62.4 14.331 94.947.377 4.916.739 74.67-2.926 74.671-.577-.057-26.607-.79-26.858-1.766z" class="cls-3" transform="translate(-223.71 -193.497)"/>
                        </g>
                    </g>
                </g>
            </g>
            <path id="패스_9320" d="M196.245 113.057a63.088 63.088 0 0 1 17.838 9.182 101.14 101.14 0 0 1 10.775 8.426c2.911 2.718 4.972 5.456 8.429 7.742 1.706 1.128 3.617 2.381 4.317 4.421a11.62 11.62 0 0 1 .174 4.425A22.416 22.416 0 0 0 241 160.092a17.707 17.707 0 0 1 2.026 3.713 3.934 3.934 0 0 1-.685 3.969c-1.085 1.062-2.8 1.057-4.307.846-6.42-.9-12.251-4.239-17.427-8.142q-3.072-2.317-5.915-4.919a46.463 46.463 0 0 0-5.072-4.63c-4-2.685-7.438-7.086-10.607-10.688-2.973-3.381-6.673-6.873-8.665-10.93-2.3-4.681-2.745-10.965-2.422-16.079a1.355 1.355 0 0 1 1.791-1.587 40.784 40.784 0 0 1 6.528 1.412z" class="cls-4" transform="translate(-104.237 -72.489)"/>
            <path id="패스_9321" fill="#fff" d="M231.91 121.785c1.9-3.964 6.057-6.467 10.34-7.459 5.937-1.373 15.186-2.638 20.963.057 3.828 1.787 5.844 5.967 7.027 9.8a57.035 57.035 0 0 0 5.392 12.47 62.277 62.277 0 0 1 7.9 31.548c-.142 6.47-1.975 13.857-7.785 16.705-2.664 1.3-5.736 1.41-8.7 1.459q-15.371.258-30.734-.552a4.261 4.261 0 0 1-4.677-3.324c-2.848-6.557-4.73-11.319-5.144-18.392-.423-7.221-.444-14.4-.444-21.633.091-4.085.1-6.715 2.067-10.136 1.923-3.345 2.152-7.121 3.795-10.543z" transform="translate(-174.249 -72.754)"/>
            <path id="패스_9322" d="M238.576 122.774c.893 3.1.45 6.511 2.036 10.861 3.35 9.191 5.063 18.257 6.453 28.233A619.74 619.74 0 0 1 252.729 229c-1.318.64-20.913 3.806-21.018 2.86-1.841-16.482-3.781-32.952-5.723-49.422q-1.471-12.475-2.931-24.952c-.484-4.161-3-18.476-3.474-21.661-1.173-7.852-2.078-15.747-2.759-23.656a1.232 1.232 0 0 1 .223-1.026 1.149 1.149 0 0 1 .745-.232c5.065-.289 10.482 2.4 14.715 4.926 3.877 2.318 5.376 4.532 6.069 6.937z" class="cls-4" transform="translate(-136.238 -72.332)"/>
            <path id="패스_9323" d="M254.15 89.51c-.127-3.688-1.972-11.979.405-15.049 1.889-2.438 4.952-2.369 7.659-3.325 1.289-.455 2.54-.151 3.844-.282a40.333 40.333 0 0 1 4.552-.473 3.967 3.967 0 0 1 2.607.7 4.323 4.323 0 0 1 1.113 2.55 54.111 54.111 0 0 1 1.419 12.625c-.149 3.283-.6 8.112-2.987 10.61-1.873 1.959-4.72 2.943-4.747 2.751a24.8 24.8 0 0 1 .275 4.128c-.117 2.446-.652 5.417-3.224 6.424-3.4 1.329-10.736 1.146-11.387-3.661a8.838 8.838 0 0 1 0-1.774c.262-3.869.5-7.655.519-11.481.009-1.239-.005-2.487-.048-3.743z" class="cls-2" transform="translate(-187.722 -63.344)"/>
            <g id="그룹_4463" transform="translate(65.913 10.308)">
                <g id="그룹_4462" clip-path="url(#clip-path)" transform="translate(0 0)">
                    <path id="패스_9324" d="M263.7 107.693c.593 0 1.07.012 1.661-.038l1.324-.111c-.276.45-.573.881-.809 1.358a13.746 13.746 0 0 0-.694 1.977 5.418 5.418 0 0 1-2.327-.691 8.431 8.431 0 0 1-3.845-3.5 10.891 10.891 0 0 0 4.69 1.005z" class="cls-7" transform="translate(-248.941 -81.706)"/>
                </g>
            </g>
            <path id="패스_9326" d="M287.783 151.552a136.4 136.4 0 0 0-1.447 15.831 37.644 37.644 0 0 1-.489 6.174c-1.028 4.809-6.452 49.491-8.134 61.41a2.547 2.547 0 0 0 2.532 2.906 290.256 290.256 0 0 0 30.007-1.764 4.27 4.27 0 0 0 3.7-3.387 397.406 397.406 0 0 0 7.75-65.176c.178-5-2.969-58.787-2.862-58.825-8.344 2.958-16.9 4.046-24.573 8.836-2 1.247-4.009 2.682-5.1 4.772-1.111 2.132-1.114 4.653-1.026 7.055.154 4.174.742 8.335.9 12.5.127 3.238-.741 6.427-1.258 9.668z" class="cls-4" transform="translate(-252.597 -71.85)"/>
            <path id="패스_9327" d="M325.534 227.97c-1.464 4.853-4.047 9.2-8.2 12.035a17.8 17.8 0 0 1-15.66 2.069c-14.221-4.978-13.216-21.4-13.2-33.627 8.069 2.747 16.894-1.119 23.853-6.04 2.537-1.794 9.748-11.25 13.352-7.627 1.464 1.471.672 7.873.815 9.94.265 3.786.624 7.564.636 11.364a41.193 41.193 0 0 1-1.596 11.886z" class="cls-8" transform="translate(-266.399 -90.76)"/>
            <path id="패스_9328" d="M307.364 234.646a2.576 2.576 0 0 1 1.829-1.58 2.676 2.676 0 0 1 1.92.835 12.2 12.2 0 0 1 3.987 6.721 54.87 54.87 0 0 1 1.117 8.359 13.489 13.489 0 0 0 2.459 7.455c.637.847 1.391 1.6 1.988 2.479a17.283 17.283 0 0 1 1.59 3.2l1.107 2.682a2.646 2.646 0 0 1 .261.967.826.826 0 0 1-1.4.641 4.959 4.959 0 0 1-1.419-2.447c-.227-.662-.938-2.912-1.71-3.112-1-.26-.717 2.092-.673 2.649.227 2.882.556 5.771.9 8.643.075.635.5 1.941.13 2.54-.5.808-1.367.237-1.661-.421a15.836 15.836 0 0 1-.864-4.036c-.072-.454-.946-4.458-.709-4.593a5.419 5.419 0 0 1-.857.381c.114.841.251 1.68.4 2.515.424 2.369.865 4.779 1.152 7.166a1.429 1.429 0 0 1-.3 1.308.925.925 0 0 1-1.113-.049 1.785 1.785 0 0 1-.583-1.024c-.578-2.44-1.192-4.893-1.56-7.4-.1-.683-.146-1.385-.192-2.088-.215.014-.426 0-.64.008-.064 0 1.193 7.141 1.369 7.88a1.033 1.033 0 0 1 .035.509c-.2.735-1.208.324-1.559-.036a3.823 3.823 0 0 1-.658-2q-.627-3.191-.982-6.427c-.055-.006-.117-.007-.172-.014-.093-.011-.186-.029-.279-.046.022.3.047.6.068.9a37.354 37.354 0 0 1 .3 4.953.762.762 0 0 1-1.5.126c-.514-2-.513-4.158-.85-6.2-1.019-6.175.181-12.448-.665-18.637-.579-4.311-2.241-8.929-.266-12.807z" class="cls-2" transform="translate(-276.867 -99.434)"/>
            <path id="패스_9329" d="M245.066 183.906a29.245 29.245 0 0 0 4.026-2.6 65.173 65.173 0 0 0 8.673-8.646c5.365-6.361 9.662-13.521 13.779-20.725 4.631-8.1 9.3-16.243 13.224-24.719a110.453 110.453 0 0 0 5.241-13.4c.247-.791.475-2.146.8-3.565.711.167 1.425.326 2.134.493a18.833 18.833 0 0 1 4.086 1.239c-.392 1.725-1.012 3.428-1.424 4.807a102.822 102.822 0 0 1-5.292 13.666c-4.259 9.2-9.486 17.935-14.716 26.608-4.435 7.356-9.107 14.66-14.795 21.124a64.608 64.608 0 0 1-9.171 8.631 53.442 53.442 0 0 1-6.843 4.323c.198-2.427-.269-4.569.278-7.236z" class="cls-8" transform="translate(-202.311 -72.189)"/>
            <path id="패스_9330" d="M283.676 159.695c2.881-22.31 14.18-45.611 39.368-47 1.538-.085 3.2-.135 4.468.745a6.4 6.4 0 0 1 2.106 3.457c2.5 7.8-10.531 15.689-12.895 22.338-4.273 12.022-9.37 27.419-10.307 40.079-.9 12.2 2.77 22.8.982 34.905a15.541 15.541 0 0 1-1.829 6.047c-3.435 5.5-12.323 4.922-16.941.369s-5.935-11.437-6.478-17.9c-1.089-12.941 0-25.954 1.085-38.9q.172-2.057.441-4.14z" class="cls-4" transform="translate(-263.939 -72.722)"/>
            <path id="패스_9331" d="M247.494 147.087a1.441 1.441 0 1 0 1.441-1.441 1.441 1.441 0 0 0-1.441 1.441z" class="cls-7" transform="translate(-157.765 -80.042)"/>
            <path id="패스_9332" d="M244.416 158.849a1.441 1.441 0 1 0 1.441-1.441 1.441 1.441 0 0 0-1.441 1.441z" class="cls-7" transform="translate(-152.292 -82.651)"/>
            <path id="패스_9333" d="M243.164 171.362a1.441 1.441 0 1 0 1.441-1.441 1.441 1.441 0 0 0-1.441 1.441z" class="cls-7" transform="translate(-150.065 -85.427)"/>
            <path id="패스_9334" d="M241.913 184.375a1.441 1.441 0 1 0 1.441-1.441 1.441 1.441 0 0 0-1.441 1.441z" class="cls-7" transform="translate(-147.841 -88.314)"/>
            <g id="그룹_4493" transform="translate(102.132 33.656)">
                <g id="그룹_4467" transform="translate(13.695 21.012)">
                    <g id="그룹_4466">
                        <g id="그룹_4465">
                            <g id="그룹_4464">
                                <path id="패스_9335" d="M175.08 153.941a53.292 53.292 0 0 1-.7-8.938c-.04-4.165 1.265-8.535 4.387-11.292a7.4 7.4 0 0 1 6.319-1.984 10.241 10.241 0 0 1 4.31 2.616c3.664 3.235 6.575 7.252 10.164 10.479a28.018 28.018 0 0 1 7.705 11.55c1.453 4.456 1.007 9.806-2.22 13.205-2.581 2.72-6.539 3.791-10.285 3.637a19.381 19.381 0 0 1-10.079-3.344 22.668 22.668 0 0 1-7.957-10.173 28.189 28.189 0 0 1-1.644-5.756z" class="cls-4" transform="translate(-174.381 -131.592)"/>
                            </g>
                        </g>
                    </g>
                </g>
                <g id="그룹_4470" transform="translate(11.153 6.772)">
                    <g id="그룹_4469">
                        <g id="그룹_4468">
                            <path id="패스_9336" d="M214.567 114.545c2.285 2.327 4.238 5.222 4.217 8.458 0 .782-.258 1.721-1.011 1.931a1.408 1.408 0 0 1-.8-.042c-2.321-.735-1.038-3.3-1.624-4.97-.58-1.655-2.192-2.725-3.458-3.825-1.239-1.077-.545-3.352 1.265-2.687a2.912 2.912 0 0 1 .971.7c.15.144.296.29.44.435z" class="cls-2" transform="translate(-211.27 -113.291)"/>
                        </g>
                    </g>
                </g>
                <g id="그룹_4473" transform="translate(1.709)">
                    <g id="그룹_4472">
                        <g id="그룹_4471">
                            <path id="사각형_9371" d="M.783 0h10.831a.78.78 0 0 1 .78.78v23.527a.9.9 0 0 1-.9.9H.9a.9.9 0 0 1-.9-.9V.783A.783.783 0 0 1 .783 0z"/>
                        </g>
                    </g>
                </g>
                <g id="그룹_4486" transform="translate(0 7.231)">
                    <g id="그룹_4476" transform="translate(2.732)">
                        <g id="그룹_4475">
                            <g id="그룹_4474">
                                <path id="패스_9337" d="M216.563 113.918c3.77.839 7.161 1.808 10.543 4.522 2.1 1.687.083 3.228-1.331 2.277a28.857 28.857 0 0 0-9.914-4.256c-1.655-.369-.954-2.912.702-2.543z" class="cls-2" transform="translate(-214.916 -113.881)"/>
                            </g>
                        </g>
                    </g>
                    <g id="그룹_4479" transform="translate(0 2.56)">
                        <g id="그룹_4478">
                            <g id="그룹_4477">
                                <path id="패스_9338" d="M218.065 117.217a66.8 66.8 0 0 1 12.339 4.905c1.53.732.194 3.007-1.331 2.277a63.339 63.339 0 0 0-11.71-4.64 1.319 1.319 0 0 1 .702-2.542z" class="cls-2" transform="translate(-216.426 -117.171)"/>
                            </g>
                        </g>
                    </g>
                    <g id="그룹_4482" transform="translate(0.869 6.191)">
                        <g id="그룹_4481">
                            <g id="그룹_4480">
                                <path id="패스_9339" d="M219.345 121.89a4.951 4.951 0 0 1 2.442.395q1.47.434 2.893 1.008a35.251 35.251 0 0 1 5.347 2.7c1.441.89.118 3.172-1.331 2.277a32.187 32.187 0 0 0-4.441-2.319c-.745-.313-1.5-.592-2.27-.844q-.559-.184-1.126-.349a3.9 3.9 0 0 1-.876-.271 1.251 1.251 0 0 1-1.183-.352l-.038-.043a1.333 1.333 0 0 1 .583-2.202z" class="cls-2" transform="translate(-218.403 -121.837)"/>
                            </g>
                        </g>
                    </g>
                    <g id="그룹_4485" transform="translate(1.941 9.815)">
                        <g id="그룹_4484">
                            <g id="그룹_4483">
                                <path id="패스_9340" d="M221.4 126.558a33.832 33.832 0 0 1 7.855 3.668 1.319 1.319 0 0 1-1.331 2.277 31.149 31.149 0 0 0-7.226-3.4c-1.619-.495-.929-3.041.702-2.545z" class="cls-2" transform="translate(-219.776 -126.494)"/>
                            </g>
                        </g>
                    </g>
                </g>
                <g id="그룹_4489" transform="translate(8.67 11.743)">
                    <g id="그룹_4488">
                        <g id="그룹_4487">
                            <path id="패스_9341" d="M206.359 128.527a1.784 1.784 0 0 0-.254 1.208 2.985 2.985 0 0 0 .655 1.443 13.768 13.768 0 0 0 3.338 3.512 4.385 4.385 0 0 0 2.1.9c.525 0 .816-.263 1.358-.036a3.225 3.225 0 0 1 1.059.906 12.2 12.2 0 0 0 2.866-2c.314-.272 2.817-2.458 2.629-2.821-.695-1.344-1.682-2.6-2.309-3.964-.471-1.023-.721-2.068-1.286-3.078-.951-1.7-2.46-4.5-4.585-4.9-1.835-.349-2.963 5.438-5.571 8.83z" class="cls-2" transform="translate(-206.096 -119.68)"/>
                        </g>
                    </g>
                </g>
                <g id="그룹_4492" transform="translate(7.328 2.843)">
                    <g id="그룹_4491" transform="translate(0)">
                        <g id="그룹_4490">
                            <path id="패스_9342" fill="#fff" d="M223.745 109.057a.816.816 0 1 0 .816-.816.817.817 0 0 0-.816.816z" opacity="0.54" transform="translate(-223.745 -108.242)"/>
                        </g>
                    </g>
                </g>
            </g>
            <path id="패스_9343" d="M265.168 96.5a5.826 5.826 0 0 1-3.808 2.358 4.385 4.385 0 0 1-4.069-1.629" class="cls-10" transform="translate(-180.181 -69.138)"/>
            <path id="패스_9344" d="M217.5 430.051h.514a.935.935 0 0 1 .984.5 25.428 25.428 0 0 0 8.25 7.135c5.175 2.845 10.709 4.8 16.042 7.239a5.03 5.03 0 0 1 1.91 1.275 2.129 2.129 0 0 1 .333 2.278c-1.113 0-4.656-.029-9.286-.1-13.137-.209-35.031-.779-35-2.074.1-4.958.066-9.826.949-14.74a2 2 0 0 1 .462-1.127 2.045 2.045 0 0 1 1.453-.377z" class="cls-11" transform="translate(-117.129 -143.137)"/>
            <path id="패스_9345" d="M356.669 435.843a2.168 2.168 0 0 0-.181-1.923c-2.686-5.128-5.822-9.994-8.138-15.349a33.985 33.985 0 0 1-1.581-4.921c-.193-.753-.143-4.733-.474-4.972l-14.035-10.133a43.337 43.337 0 0 0-5.826 6.526c-.726 1-3.631 4.048-3.6 5.067.041 1.573 4.372 4.467 5.4 5.368 6.691 5.869 13.68 11.41 20.657 16.933 1.4 1.112 3.692 3.766 5.454 4.2a1.887 1.887 0 0 0 2.324-.796z" class="cls-11" transform="translate(-322.829 -136.148)"/>
            <path id="패스_9346" fill="#18195a" d="M251.53 74.84a12.111 12.111 0 0 1 .3-5.237c.09-.295.122-4.645 4.488-5.86-.653-.357 2.539-1.782 4.927-2.391 2.794-.3 3.85-.747 6.642-.431a14.035 14.035 0 0 1 9.5 4.957c2.041 2.607 2.846 5.944 3.6 9.168l-11.7 1.616a1.823 1.823 0 0 1-2.157-.8 15.045 15.045 0 0 0-2.772-3.177 12.882 12.882 0 0 1 .689 3.246l-2.667-1.891a4.236 4.236 0 0 1-.642 1.761.587.587 0 0 1-.262.253c-.726.263-.944-1-1.637-.5-.291.212-.173 1.756-.18 2.1-.006.307.177 4.008.456 3.941a17.178 17.178 0 0 0-3.927.934 3.574 3.574 0 0 0-2.123 3.338c-.401-3.718-2.024-7.39-2.535-11.027z" transform="translate(-191.396 -60.812)"/>
            <g id="그룹_4494" transform="translate(62.386 20.282)">
                <path id="패스_9347" d="M284.3 90.967a3.566 3.566 0 1 1-3.566-3.565 3.566 3.566 0 0 1 3.566 3.565z" class="cls-2" transform="translate(-277.171 -87.402)"/>
                <path id="패스_9348" d="M282.842 89.91a2.08 2.08 0 0 0-1.195 3.6" class="cls-7" transform="translate(-278.671 -87.958)"/>
            </g>
            <path id="패스_9349" d="M232.3 164.071a38.858 38.858 0 0 1-7.287-13.423" class="cls-10" transform="translate(-122.193 -81.151)"/>
            <path id="패스_9350" fill="none" stroke="#0f171e" stroke-miterlimit="10" stroke-width="0.75px" d="M264.216 292.954a429.554 429.554 0 0 0 2.622-55.595" transform="translate(-187.307 -100.388)"/>
            <path id="패스_9351" d="M232.894 320.224a4.976 4.976 0 0 1-5.684 5.478" class="cls-7" transform="translate(-124.563 -118.772)"/>
            <path id="패스_9352" d="M283.728 318.069c.033 1.57-2.04 2.345-3.56 1.955s-2.818-1.445-4.357-1.751" class="cls-7" transform="translate(-213.153 -118.294)"/>
            <path id="패스_9353" d="M309.422 152.737c-7.751 14.043-5.1 24.627-5.738 39.882" class="cls-10" transform="translate(-260.532 -81.615)"/>
            <path id="패스_9354" d="M210.447 141.878c-2.694 1.992-3.748 5.652-3.388 8.982s1.923 6.4 3.624 9.291a52.309 52.309 0 0 1 4.7 8.862" class="cls-10" transform="translate(-91.256 -79.206)"/>
        </g>
        <g id="그룹_5317" transform="translate(85.353 147.987)">
            <rect id="사각형_10379" width="140.987" height="60.111" class="cls-14" rx="10"/>
            <path id="패스_9948" d="M-18915.6-5591.13l3.5-14.65h22.156z" class="cls-14" transform="translate(18932.432 5663.945)"/>
            <circle id="타원_1262" cx="16.94" cy="16.94" r="16.94" class="cls-15" transform="translate(17.6 12.022)"/>
            <rect id="사각형_10380" width="56.832" height="5.465" class="cls-15" rx="2.732" transform="translate(63.503 13.115)"/>
            <rect id="사각형_10381" width="46.996" height="5.465" class="cls-15" rx="2.732" transform="translate(73.339 26.23)"/>
            <rect id="사각형_10382" width="56.832" height="5.465" class="cls-15" rx="2.732" transform="translate(63.503 39.345)"/>
        </g>
    </g>
</svg>
