<svg xmlns="http://www.w3.org/2000/svg" width="140" height="70" viewBox="0 0 140 70">
  <g id="list_logo_1" transform="translate(-860 -1986)">
    <rect id="사각형_9907" data-name="사각형 9907" width="140" height="70" transform="translate(860 1986)" fill="none"/>
    <g id="logo_genesis_w" transform="translate(874 2001.4)">
      <rect id="사각형_7862" data-name="사각형 7862" width="112" height="40" transform="translate(0 -0.401)" fill="none"/>
      <g id="그룹_5280" data-name="그룹 5280" transform="translate(1.106 1.303)">
        <g id="그룹_5278" data-name="그룹 5278" transform="translate(0 0)">
          <path id="패스_4902" data-name="패스 4902" d="M90.815,47.752c4.037-.662,7.077-1.3,12.826-2.674.2-.051.2-.1-.026-.127-2.529-.153-4.676-.306-6.183-.433-.358-.025-.383-.153-.23-.357.409-.509.843-.611,1.916-.611,1,0,3.5.026,6.03.051,5.008.026,9.939-1.248,16.1-3.285.077-.025.051-.076-.026-.076-8.61.2-19.06.306-20.746.306-.256,0-.23-.178-.051-.382.383-.458.818-.688,2.249-.789,1.993-.153,18.983-.968,21.768-1.07a12.192,12.192,0,0,0,8.023-2.7,26.815,26.815,0,0,0,2.785-2.42c.153-.153.153-.255-.128-.229-5.161.458-31.451,2.9-32.678,3.056-2.248.28-3.27.891-4.114,2.216-2.785,4.33-4.011,6.443-7.639,9.321C90.534,47.676,90.534,47.8,90.815,47.752Zm-7.46.993a.441.441,0,0,1-.256-.076c-5.033-3.005-10.169-7.64-11.216-13.039-.358-2.037.409-2.419,1.686-2.878,2.3-.84,7.588-2.47,9.785-2.47s7.486,1.63,9.785,2.47c1.277.458,2.044.84,1.686,2.878-1.047,5.4-6.183,10.034-11.216,13.039A.44.44,0,0,1,83.355,48.745Zm-7.461-.993c.281.051.281-.076.128-.2-3.628-2.878-4.854-4.991-7.639-9.321-.843-1.324-1.865-1.935-4.114-2.216-1.226-.153-27.517-2.6-32.678-3.056-.281-.025-.281.077-.128.229a26.788,26.788,0,0,0,2.785,2.42,12.192,12.192,0,0,0,8.023,2.7c2.785.1,19.775.917,21.768,1.07,1.431.1,1.865.331,2.248.789.179.2.2.382-.051.382-1.686,0-12.136-.1-20.746-.306-.077,0-.1.051-.025.076,6.157,2.037,11.089,3.311,16.1,3.285,2.529-.025,5.033-.051,6.03-.051,1.073,0,1.507.1,1.916.611.153.2.128.331-.23.357-1.507.128-3.654.28-6.183.433-.23.025-.23.076-.025.127C68.817,46.453,71.858,47.09,75.894,47.752Zm7.461,2.6a.776.776,0,0,0,.307-.076c6.183-3.082,9.07-5.908,12.7-11.766,1.354-2.241,2.121-3.387,5.417-3.871,5.161-.739,28.462-2.369,33.061-3.005,1.967-.28,2.5-.586,3.424-1.554.153-.153.153-.28-.128-.255-.588.051-23.838,1.044-37.788,1.554a15.507,15.507,0,0,1-7.307-.84c-4.241-1.3-8.074-2.19-9.683-2.19s-5.442.891-9.683,2.19a15.508,15.508,0,0,1-7.307.84c-13.95-.509-37.2-1.5-37.788-1.554-.281-.025-.281.1-.128.255.92.968,1.456,1.274,3.424,1.554,4.6.637,27.9,2.267,33.061,3.005,3.3.484,4.062,1.63,5.417,3.871,3.628,5.857,6.515,8.684,12.7,11.766A.776.776,0,0,0,83.355,50.35Z" transform="translate(-28.346 -28.346)" fill="#fff"/>
          <path id="패스_4903" data-name="패스 4903" d="M222.9,54.811c-.358-.188-.736-.292-.736-.619,0-.16.155-.292.459-.292a2.209,2.209,0,0,1,.864.223l.081-.431a2.79,2.79,0,0,0-.9-.153c-.749,0-1.161.334-1.161.793s.324.688.769.9c.391.181.719.3.719.584,0,.215-.169.354-.5.354a2.378,2.378,0,0,1-.9-.223l-.047.5a4.782,4.782,0,0,0,.965.118c.6,0,1.14-.292,1.14-.82C223.664,55.236,223.283,55.013,222.9,54.811Zm-11.934-.841-.1-.368H208.8l-.068.174.128.063a.179.179,0,0,1,.108.195V56.5h2v-.375h-1.356V55.18h1.174v-.361h-1.174V53.97Zm7.775.841c-.358-.188-.736-.292-.736-.619,0-.16.155-.292.459-.292a2.21,2.21,0,0,1,.864.223l.081-.431a2.793,2.793,0,0,0-.9-.153c-.749,0-1.137.334-1.137.793s.3.688.745.9c.391.181.719.3.719.584,0,.215-.169.354-.5.354a2.378,2.378,0,0,1-.9-.223l-.047.5a4.776,4.776,0,0,0,.965.118c.6,0,1.141-.292,1.141-.82C219.5,55.236,219.123,55.013,218.746,54.811Zm1.2-1.036.128.063a.18.18,0,0,1,.115.195V56.5h.641V53.6h-.81Zm-3.017.195-.1-.368h-2.065l-.068.174.128.063a.179.179,0,0,1,.108.195V56.5h2v-.375h-1.356V55.18h1.174v-.361h-1.174V53.97Zm-3.269,1.6L212.1,53.6h-.614l-.074.174.128.063a.176.176,0,0,1,.115.188V56.5h.459V54.624L213.6,56.5h.513V53.6h-.459Zm-6.4-.445.283.118a.161.161,0,0,1,.115.174v.647a.944.944,0,0,1-.465.111,1.146,1.146,0,0,1,.034-2.266,1.358,1.358,0,0,1,.857.327l.128-.473a2.526,2.526,0,0,0-1-.236,1.471,1.471,0,0,0-1.646,1.543,1.433,1.433,0,0,0,1.545,1.495,1.968,1.968,0,0,0,1.134-.292V54.957h-.918Z" transform="translate(-159.708 -47.01)" fill="#fff"/>
        </g>
        <g id="그룹_5279" data-name="그룹 5279" transform="translate(32.248 28.869)">
          <path id="패스_4904" data-name="패스 4904" d="M152.979,143.822a3.774,3.774,0,0,1,3.824-3.9,3.645,3.645,0,0,1,3.281,1.818l-.765.565a2.775,2.775,0,0,0-2.516-1.419,2.74,2.74,0,0,0-2.771,2.937,2.785,2.785,0,0,0,2.86,2.938,3.242,3.242,0,0,0,2.295-.876V144.4h-1.507v-.92h2.527v2.849a4.68,4.68,0,0,1-3.325,1.4A3.812,3.812,0,0,1,152.979,143.822Z" transform="translate(-152.979 -139.92)" fill="#fff"/>
          <path id="패스_4905" data-name="패스 4905" d="M189.3,140.435h3.935v.909h-2.915v2.372h2.694v.909h-2.694v2.438h2.915v.909H189.3Z" transform="translate(-179.904 -140.302)" fill="#fff"/>
          <path id="패스_4906" data-name="패스 4906" d="M214.138,142.6v5.365h-1.02v-7.539h.255l5.165,5.366v-5.365h1.02v7.67H219.3Z" transform="translate(-197.557 -140.297)" fill="#fff"/>
          <path id="패스_4907" data-name="패스 4907" d="M247.942,140.435h3.935v.909h-2.915v2.372h2.694v.909h-2.694v2.438h2.915v.909h-3.935Z" transform="translate(-223.371 -140.302)" fill="#fff"/>
          <path id="패스_4908" data-name="패스 4908" d="M269.273,145.795l.8-.465a2.012,2.012,0,0,0,1.94,1.43,1.317,1.317,0,0,0,1.5-1.286c0-.609-.366-1.008-1.241-1.241l-.765-.2a2.1,2.1,0,0,1-1.807-1.984,2.157,2.157,0,0,1,2.372-2.128,2.551,2.551,0,0,1,2.383,1.452l-.765.51a1.824,1.824,0,0,0-1.629-1c-.8,0-1.308.455-1.308,1.108,0,.521.366.887.986,1.053l.743.2c1.3.344,2.084,1.031,2.084,2.195A2.349,2.349,0,0,1,272,147.723,2.8,2.8,0,0,1,269.273,145.795Z" transform="translate(-239.182 -139.92)" fill="#fff"/>
          <path id="패스_4909" data-name="패스 4909" d="M297.473,140.435h1.02v7.537h-1.02Z" transform="translate(-260.086 -140.302)" fill="#fff"/>
          <path id="패스_4910" data-name="패스 4910" d="M308.477,145.795l.8-.465a2.012,2.012,0,0,0,1.94,1.43,1.317,1.317,0,0,0,1.5-1.286c0-.609-.366-1.008-1.241-1.241l-.765-.2a2.1,2.1,0,0,1-1.807-1.984,2.157,2.157,0,0,1,2.372-2.128,2.55,2.55,0,0,1,2.383,1.452l-.765.51a1.824,1.824,0,0,0-1.63-1c-.8,0-1.308.455-1.308,1.108,0,.521.366.887.987,1.053l.743.2c1.3.344,2.084,1.031,2.084,2.195a2.349,2.349,0,0,1-2.561,2.283A2.8,2.8,0,0,1,308.477,145.795Z" transform="translate(-268.243 -139.92)" fill="#fff"/>
        </g>
      </g>
    </g>
  </g>
</svg>
