<svg xmlns="http://www.w3.org/2000/svg" width="200" height="60" viewBox="0 0 200 60">
    <path data-name="사각형 9903" style="fill:none" d="M0 0h200v60H0z"/>
    <path data-name="패스 32302" d="M26.14 18.11a8.492 8.492 0 0 0-.6-2.043 10.127 10.127 0 0 0-4.04-4.673 9.1 9.1 0 0 0-9.374.053 8.227 8.227 0 0 0-3.085 3.31 9.967 9.967 0 0 0-.587 1.443 10.192 10.192 0 0 0 .641 7.91 3.98 3.98 0 0 0 1.9 1.649 2.745 2.745 0 0 0 2.452-.195 2.6 2.6 0 0 0 .913-2.74A7.188 7.188 0 0 1 14.444 19a2.991 2.991 0 0 1 .68-1.089 2.487 2.487 0 0 1 .65-.444 2.727 2.727 0 0 1 1.614-.265 3.1 3.1 0 0 1 2.175 1.776 7.182 7.182 0 0 1 .584 2.831 42.77 42.77 0 0 1-1.891 12.675q-.167.629-.349 1.254c-.09.321-.255.73-.051 1.044a.81.81 0 0 0 .378.286 1.42 1.42 0 0 0 1.558-.555 22.626 22.626 0 0 0 5.17-9.022 28.962 28.962 0 0 0 .987-3.776 16.553 16.553 0 0 0 .195-5.606" transform="translate(8.521 16.087)" style="fill:#fff"/>
    <path data-name="패스 32303" d="M51.424 4.685a1.073 1.073 0 0 0-1.168-1.032 5.537 5.537 0 0 0-1.743.549 70.521 70.521 0 0 1-34.721 3.279C11.823 7.2 9.833 6.8 7.853 6.494c-1.237-.194-2.46-.475-3.712-.569a4.479 4.479 0 0 0-3.246.621 3.427 3.427 0 0 0-.413 4.062 9.123 9.123 0 0 0 3.534 3.41A8.549 8.549 0 0 0 8.643 15.6q6.592-.423 13.15-1.272c7.449-.974 15.257-1.881 22.256-4.769a28 28 0 0 0 6.507-3.649c.352-.265.867-.711.867-1.229" transform="translate(1 9.956)" style="fill:#fff"/>
    <path data-name="패스 32304" d="M10.335 4.4a4.291 4.291 0 0 0 8.582 0 2.428 2.428 0 0 0-.232-1.03c-.368-.779-.779-1.159-.738-2.093C18 .021 16.387 0 15.517 0A6.319 6.319 0 0 0 12.7.564 4.284 4.284 0 0 0 10.335 4.3z" transform="translate(10.791 6.5)" style="fill:#fff"/>
    <path data-name="패스 32305" d="M36.427 7.8V4.842h4.362V7.8h5.826v2.8h-3.053a9.447 9.447 0 0 1 1.62 2.96 11.387 11.387 0 0 1 .654 3.739 12.871 12.871 0 0 1-.561 3.677 8.9 8.9 0 0 1-1.5 2.9 6.937 6.937 0 0 1-2.274 1.932 6.8 6.8 0 0 1-5.889.031 7.012 7.012 0 0 1-2.274-1.932 9.278 9.278 0 0 1-1.5-2.929 12.9 12.9 0 0 1-.5-3.677 11.38 11.38 0 0 1 .592-3.739 9.941 9.941 0 0 1 1.651-2.96h-2.855V7.8zm2.181 2.866q-1.309 0-2.212 1.838a10.863 10.863 0 0 0-.841 4.8 10.2 10.2 0 0 0 .841 4.642q.873 1.745 2.181 1.745t2.181-1.714a10.534 10.534 0 0 0 .872-4.674 11.143 11.143 0 0 0-.872-4.892q-.841-1.743-2.15-1.743zm15.018 5.546v16.827H49.42V4.842h4.206v8.568h4.05v2.8z" transform="translate(30.107 11.087)" style="fill:#fff"/>
    <path data-name="패스 32306" d="M51.189 22.134h8.381q.654 0 1.277-.062a7.822 7.822 0 0 0 1.215-.218 6.878 6.878 0 0 0 1.309-.561V4.842h4.206v8.568h4.05v2.8h-4.05v16.829h-4.206V24.1a9.172 9.172 0 0 1-2.524.685 23.741 23.741 0 0 1-2.68.156h-9.315a2.92 2.92 0 0 1-2.337-1.122 4.312 4.312 0 0 1-.9-2.742V6.088h4.206v14.893a1.12 1.12 0 0 0 .343.872 1.6 1.6 0 0 0 1.025.281z" transform="translate(44.21 11.087)" style="fill:#fff"/>
    <path data-name="패스 32307" d="M65.93 16.214h-5.92v-2.8h6.73q.125-.748.187-1.5a12.56 12.56 0 0 0 .093-1.558V9.2h-7.01V6.4h11.372v3.147a20.337 20.337 0 0 1-.81 5.546 16.478 16.478 0 0 1-2.274 4.8 14.723 14.723 0 0 1-3.677 3.677 13.832 13.832 0 0 1-4.921 2.116v-2.835a10.663 10.663 0 0 0 3.737-2.651 13.183 13.183 0 0 0 2.493-3.986zm12.151.156v16.669H74.03V4.842h4.05v8.724h2.025V4.842h4.05v28.2h-4.05V16.37z" transform="translate(57.554 11.087)" style="fill:#fff"/>
    <path data-name="패스 32308" d="M74.34 9.2V6.4h15.423v2.8h-2.337v7.509a30.435 30.435 0 0 1-.156 3.209 11.19 11.19 0 0 1-.405 2.212h.872v2.8H74.184v-2.8h2.493V9.2zm6.543 12.93h1.776a8.438 8.438 0 0 0 .436-2.212q.125-1.433.125-3.209V9.2h-2.337zm3.895 0h4.05a11.823 11.823 0 0 0 1.745-.187 8.672 8.672 0 0 0 1.589-.467 6.532 6.532 0 0 0 1.558-1v2.742a5.7 5.7 0 0 1-2.96 1.382 20.361 20.361 0 0 1-3.739.343h-2.243zM96.929 4.842v28.2h-4.206v-28.2z" transform="translate(71.277 11.087)" style="fill:#fff"/>
    <path data-name="패스 32309" d="M111.14 33.351H95.685a2.639 2.639 0 0 1-1.246-.312 2.968 2.968 0 0 1-1.028-.81 4.689 4.689 0 0 1-.717-1.215 4.254 4.254 0 0 1-.249-1.464v-3.739h14.145v-1.839H92.445v-2.8h18.384v4.8a2.981 2.981 0 0 1-.624 1.869 1.81 1.81 0 0 1-1.433.779H96.651v.841a.994.994 0 0 0 .312.779 1.385 1.385 0 0 0 .966.312h13.211zM88.831 5.465h13.242v2.8h-9.036v2.337h8.724v2.8h-8.724v1.34a1.119 1.119 0 0 0 .343.872 1.6 1.6 0 0 0 1.028.28h7.384q1.371 0 2.461-.093a6.282 6.282 0 0 0 2.337-.717V4.842h4.21v5.141h4.05v2.8h-4.05v6.855h-4.21V17.8a8.459 8.459 0 0 1-2.337.717 16.406 16.406 0 0 1-2.555.187h-9.627a2.92 2.92 0 0 1-2.337-1.122 4.312 4.312 0 0 1-.9-2.742z" transform="translate(85.152 11.087)" style="fill:#fff"/>
</svg>
