<svg xmlns="http://www.w3.org/2000/svg" width="140" height="70" viewBox="0 0 140 70">
  <g id="list_logo_2" transform="translate(-1359 -625)">
    <rect id="사각형_9903" data-name="사각형 9903" width="140" height="70" transform="translate(1359 625)" fill="none"/>
    <g id="그룹_5421" data-name="그룹 5421" transform="translate(1365.3 643.281)">
      <g id="그룹_5419" data-name="그룹 5419" transform="translate(38.565 7.196)">
        <g id="그룹_5418" data-name="그룹 5418">
          <path id="패스_11716" data-name="패스 11716" d="M306.691,318.11v-2.429h3.572v2.429h4.774v2.3h-2.5a7.918,7.918,0,0,1,1.339,2.42,9.563,9.563,0,0,1,.525,3.063,10.47,10.47,0,0,1-.462,3.011,7.284,7.284,0,0,1-1.226,2.373,5.655,5.655,0,0,1-1.861,1.582,5.562,5.562,0,0,1-4.823.016,5.612,5.612,0,0,1-1.862-1.572,7.355,7.355,0,0,1-1.214-2.4,10.311,10.311,0,0,1-.419-3.011,9.191,9.191,0,0,1,.5-3.063,7.9,7.9,0,0,1,1.341-2.42h-2.348v-2.3Zm1.787,2.344c-.716,0-1.317.5-1.8,1.493a8.847,8.847,0,0,0-.707,3.942,8.411,8.411,0,0,0,.69,3.8q.713,1.427,1.787,1.429c.716,0,1.308-.471,1.787-1.42a8.524,8.524,0,0,0,.713-3.811,9.262,9.262,0,0,0-.7-4.008C309.783,320.929,309.2,320.454,308.479,320.454Zm12.3,4.541v13.783h-3.444v-23.1h3.444V322.7H324.1v2.3Z" transform="translate(-302.023 -315.681)" fill="#fff"/>
          <path id="패스_11717" data-name="패스 11717" d="M395.478,329.848h6.88c.349,0,.693-.024,1.031-.054a5.722,5.722,0,0,0,1.008-.19,5.022,5.022,0,0,0,1.062-.449V315.681h3.44V322.7h3.32v2.3H408.9v13.783h-3.44V331.45A7.243,7.243,0,0,1,403.4,332a17.5,17.5,0,0,1-2.207.139h-7.629a2.333,2.333,0,0,1-1.9-.935,3.4,3.4,0,0,1-.752-2.231V316.7h3.445v12.2a.874.874,0,0,0,.28.7A1.256,1.256,0,0,0,395.478,329.848Z" transform="translate(-367.82 -315.681)" fill="#fff"/>
          <path id="패스_11718" data-name="패스 11718" d="M483.131,324.995h-6.024v-2.3h6.887a12.606,12.606,0,0,0,.284-1.375,9.723,9.723,0,0,0,.1-1.377v-.689h-7.273v-2.3h10.846V319.2a14.371,14.371,0,0,1-3.189,9.1,12.508,12.508,0,0,1-3.509,2.979,11.394,11.394,0,0,1-4.4,1.439v-2.3a9.235,9.235,0,0,0,3.739-2.117A11.963,11.963,0,0,0,483.131,324.995Zm11.712,0v13.783H491.4v-23.1h3.448V322.7h3.315v2.3Z" transform="translate(-431.433 -315.681)" fill="#fff"/>
          <path id="패스_11719" data-name="패스 11719" d="M562.3,336.816h20.669v2.293H562.3Zm2.576-16.2h15.566v2.3h-12.12v6.323a.9.9,0,0,0,.277.707,1.332,1.332,0,0,0,.871.239h10.971v2.3H567.557a2.4,2.4,0,0,1-1.916-.931,3.427,3.427,0,0,1-.765-2.236Z" transform="translate(-494.68 -319.331)" fill="#fff"/>
        </g>
      </g>
      <g id="그룹_5420" data-name="그룹 5420" transform="translate(0 0)">
        <path id="패스_11720" data-name="패스 11720" d="M209.162,347.947a6.068,6.068,0,0,0-.428-1.462,7.242,7.242,0,0,0-2.893-3.349,6.51,6.51,0,0,0-6.707.041,5.883,5.883,0,0,0-2.207,2.366,7.071,7.071,0,0,0-.42,1.035,7.289,7.289,0,0,0,.458,5.66,2.845,2.845,0,0,0,1.357,1.179,1.965,1.965,0,0,0,1.754-.135,1.863,1.863,0,0,0,.653-1.961,5.143,5.143,0,0,1,.063-2.738,2.129,2.129,0,0,1,.486-.779,1.765,1.765,0,0,1,.466-.318,1.95,1.95,0,0,1,1.155-.189,2.215,2.215,0,0,1,1.556,1.271,5.141,5.141,0,0,1,.424,2.026,30.6,30.6,0,0,1-1.353,9.069q-.12.45-.249.9c-.065.23-.182.523-.036.747a.583.583,0,0,0,.27.205,1.017,1.017,0,0,0,1.115-.4,16.189,16.189,0,0,0,3.693-6.456,20.707,20.707,0,0,0,.707-2.7,11.847,11.847,0,0,0,.135-4.01" transform="translate(-185.09 -328.134)" fill="#fff"/>
        <path id="패스_11721" data-name="패스 11721" d="M190.363,308.292a.768.768,0,0,0-.835-.738,3.958,3.958,0,0,0-1.246.393,50.452,50.452,0,0,1-24.841,2.346c-1.408-.2-2.833-.486-4.249-.707-.884-.139-1.76-.34-2.655-.407a3.2,3.2,0,0,0-2.323.444,2.453,2.453,0,0,0-.3,2.907,6.53,6.53,0,0,0,2.529,2.443,6.118,6.118,0,0,0,3.31,1.13q4.716-.3,9.408-.91c5.329-.693,10.916-1.345,15.923-3.412a20.046,20.046,0,0,0,4.655-2.611c.253-.19.62-.509.62-.88" transform="translate(-153.584 -302.469)" fill="#fff"/>
        <path id="패스_11722" data-name="패스 11722" d="M208.964,291.131a3.07,3.07,0,1,0,6.14,0,1.742,1.742,0,0,0-.165-.737c-.264-.557-.558-.828-.528-1.5.04-.9-1.117-.914-1.74-.914a4.518,4.518,0,0,0-2.013.4,3.067,3.067,0,0,0-1.694,2.676v.07" transform="translate(-194.576 -287.983)" fill="#fff"/>
      </g>
    </g>
  </g>
</svg>
