<svg width="200" height="60" viewBox="0 0 200 60" fill="none" xmlns="http://www.w3.org/2000/svg">
<g clip-path="url(#clip0_2656_70560)">
<path fill-rule="evenodd" clip-rule="evenodd" d="M160.146 36.006V35.5322C160.146 32.5615 158.225 30.5853 155.45 29.8511C157.439 28.9761 159.117 27.2987 159.117 24.7847V24.4688C159.117 20.7981 156.185 18.2115 151.801 18.2115H142.112V42.7115H152.254C156.705 42.7115 160.146 40.2658 160.146 36.0017V36.006ZM146.496 28.2975V21.7286H150.58C152.817 21.7286 154.58 22.6377 154.58 24.8572V25.2072C154.58 27.3926 152.8 28.3017 150.58 28.3017H146.496V28.2975ZM151.067 31.8103C153.355 31.8103 155.519 32.7194 155.519 35.3914V35.6005C155.519 38.3109 153.355 39.1816 151.067 39.1816H146.491V31.806H151.067V31.8103ZM163.774 22.4243V18.0194H167.927V22.4414H163.774V22.4243ZM163.774 42.6987V25.1005H167.927V42.6987H163.774ZM171.939 40.1078V42.7115L171.956 42.7286H185.871V39.4761H177.142L185.871 27.6103V25.1304H172.34V28.3828H180.544L171.939 40.1078Z" fill="white"/>
<path d="M122.514 19.9709C122.514 18.827 121.75 18.063 120.606 18.063H113.171C112.36 18.063 111.814 18.2679 111.22 18.6563L77.3941 40.6209C77.296 40.6849 77.2149 40.7233 77.1295 40.7233C77.01 40.7233 76.9502 40.6081 76.9502 40.4075V19.9709C76.9502 18.827 76.1862 18.063 75.0423 18.063H58.5453C57.7045 18.063 57.252 18.191 56.5222 18.6349L25.8673 37.0569C25.7649 37.1209 25.6795 37.1721 25.5984 37.1721C25.4703 37.1721 25.4191 37.0782 25.4191 36.8861V18.2593C25.4191 17.9435 25.3423 17.8026 25.2057 17.8026C25.1331 17.8026 25.052 17.824 24.9581 17.8794L15.8838 23.33C14.36 24.2435 13.9758 25.2294 13.9758 26.9453V40.8813C13.9758 42.0252 14.7399 42.7892 15.8838 42.7892H26.7594C27.4594 42.7892 27.9545 42.6483 28.6673 42.2215L40.4862 35.1191C40.5588 35.0721 40.6441 35.0422 40.7039 35.0422C40.7807 35.0422 40.8405 35.0849 40.9088 35.1532L47.9728 42.2172C48.4167 42.6611 49.0527 42.7892 49.8807 42.7892H60.4234C60.6197 42.7892 60.7905 42.7252 60.7905 42.5886C60.7905 42.4691 60.6838 42.3496 60.5301 42.1916L48.8819 30.5435C48.7667 30.4282 48.7368 30.3642 48.7368 30.2916C48.7368 30.2148 48.7795 30.1337 48.9459 30.0355L65.2551 20.2398C65.3575 20.1758 65.4386 20.1416 65.5197 20.1416C65.635 20.1416 65.699 20.2782 65.699 20.4276V40.8813C65.699 42.0252 66.463 42.7892 67.6069 42.7892H84.0014C84.6374 42.7892 85.2051 42.6526 85.9008 42.2044L110.631 26.1429C110.729 26.0831 110.806 26.0447 110.892 26.0447C111.015 26.0447 111.075 26.1813 111.075 26.3648V42.9343C111.075 43.2416 111.173 43.327 111.284 43.327C111.37 43.327 111.468 43.2886 111.587 43.216L120.606 37.7996C122.13 36.8819 122.51 35.8916 122.51 34.1758V19.9837L122.514 19.9709Z" fill="white"/>
</g>
<defs>
<clipPath id="clip0_2656_70560">
<rect width="175" height="25.6098" fill="white" transform="translate(12 17.75)"/>
</clipPath>
</defs>
</svg>
