<svg xmlns="http://www.w3.org/2000/svg" width="140" height="70" viewBox="0 0 140 70">
  <g id="list_logo_8" transform="translate(-360 -2662.989)">
    <rect id="사각형_9906" data-name="사각형 9906" width="140" height="70" transform="translate(360 2662.989)" fill="none"/>
    <path id="패스_11724" data-name="패스 11724" d="M54.643,21.156c0,.164.05.26.149.26a.4.4,0,0,0,.216-.084L82.837,3.261a2.685,2.685,0,0,1,1.6-.487h6.117a1.482,1.482,0,0,1,1.569,1.569V16.02A2.934,2.934,0,0,1,90.558,19L83.14,23.458a.5.5,0,0,1-.249.092c-.09,0-.173-.069-.173-.323V9.6c0-.148-.05-.262-.151-.262a.424.424,0,0,0-.215.08L62.007,22.629a2.674,2.674,0,0,1-1.561.481H46.958a1.482,1.482,0,0,1-1.569-1.569V4.712c0-.123-.055-.237-.149-.237a.433.433,0,0,0-.219.081L31.6,12.618c-.134.08-.171.146-.171.211s.024.111.119.207l9.584,9.584c.127.128.216.225.216.325s-.141.166-.3.166H32.372a2.1,2.1,0,0,1-1.569-.47l-5.811-5.811a.242.242,0,0,0-.168-.092.38.38,0,0,0-.18.062l-9.722,5.842a2.732,2.732,0,0,1-1.57.469H4.4a1.482,1.482,0,0,1-1.568-1.569V10.077A2.929,2.929,0,0,1,4.4,7.1l7.464-4.484a.385.385,0,0,1,.2-.066c.113,0,.175.119.175.377V18.257c0,.161.044.237.149.237a.47.47,0,0,0,.222-.093L37.838,3.244a2.73,2.73,0,0,1,1.664-.47H53.074a1.482,1.482,0,0,1,1.569,1.569Z" transform="translate(382.365 2684.936)" fill="#fff"/>
  </g>
</svg>
