<svg width="200" height="60" viewBox="0 0 200 60" fill="none" xmlns="http://www.w3.org/2000/svg">
<g clip-path="url(#clip0_2064_7722)">
<path d="M132.72 7.3117L132.76 7.04738L130.276 7.59994C131.245 6.86281 132.434 5.4911 132.344 0.603509L132.338 0.320964L108.76 11.3585L108.83 11.5225C109.039 12.009 109.144 12.5274 109.144 13.0606C109.144 14.3594 108.503 15.5693 107.421 16.3053C107.413 16.311 106.517 16.9741 105.23 16.9741C105.134 16.9741 105.043 16.9684 104.952 16.9616C104.06 16.8886 103.441 16.4637 103.277 15.7915L102.134 11.0919L103.627 9.59827H102.184L102.858 7.79932H101.75L101.722 7.94856C101.66 8.26529 101.381 8.49543 101.059 8.49543C100.685 8.49543 100.383 8.19351 100.383 7.81982C100.383 7.63412 100.457 7.45981 100.593 7.32993L100.769 7.15903L99.7838 6.59964L98.7983 7.16017L98.9772 7.32993C99.1127 7.45981 99.1879 7.63526 99.1879 7.81982C99.1879 8.19351 98.8849 8.49543 98.5112 8.49543C98.1876 8.49543 97.9085 8.26529 97.8493 7.94856L97.8208 7.79932H96.7111L97.4027 9.64726C96.8535 9.80448 96.5858 10.2169 96.4867 10.5165H95.9603C95.312 10.5165 94.7219 11.0019 94.7014 11.7333C94.6695 12.8077 95.6026 13.2566 95.6026 13.2566C95.5604 12.9307 95.6288 12.7496 95.7689 12.6812C95.7689 12.6812 95.8851 12.5741 96.195 12.6527C96.4662 12.7211 96.8433 12.9136 97.1099 13.1916C97.4573 13.5528 97.659 14.013 97.6579 14.5098C97.6579 15.0088 97.4596 15.4793 97.1019 15.8325C96.7783 16.1538 95.9125 16.8727 94.6182 16.9661V16.9638C94.5282 16.9707 94.4359 16.9764 94.3402 16.9764C93.0528 16.9764 92.1573 16.3133 92.1493 16.3076C91.0682 15.5705 90.4256 14.3617 90.4256 13.0629C90.4256 12.5297 90.5327 12.0113 90.74 11.5248L90.8095 11.3608L67.234 0.319824L67.2283 0.60237C67.1383 5.48996 68.3289 6.86281 69.2962 7.5988L66.8125 7.04624L66.8524 7.31056C67.4619 11.4211 68.8142 12.6459 69.9125 13.2645H67.6271L67.7114 13.5095C67.7239 13.5459 68.9544 16.9809 72.5272 18.1817L69.8567 18.7708L69.9946 18.9906C70.0139 19.0203 71.822 21.8662 75.257 22.29L73.1083 23.2881L73.286 23.4738C73.3657 23.5558 75.2513 25.4801 78.0619 25.4801C78.2522 25.4801 78.4436 25.4721 78.635 25.4527L77.0628 26.6558L77.2724 26.7994C77.3328 26.8415 78.7865 27.8259 80.7564 27.8259C81.3249 27.8259 81.8797 27.7427 82.4152 27.5775L81.383 28.8046L81.6165 28.9003C81.6553 28.9151 82.5565 29.2751 83.7721 29.2751C84.7086 29.2751 85.5597 29.0655 86.3127 28.6508L85.7374 29.7536L85.9971 29.7878C86.0051 29.7889 86.1999 29.814 86.5178 29.814C87.3313 29.814 88.7987 29.6522 90.0849 28.653L89.8377 29.569L90.0884 29.5599C90.1761 29.5554 92.2416 29.4448 93.6737 27.5741C94.1181 26.9931 94.4348 26.1226 94.6193 25.3684C94.8301 25.8914 95.0922 26.3927 95.402 26.8621L93.1599 29.1885C91.803 30.477 89.6429 32.3204 86.9815 33.8847C86.879 33.9451 86.6351 34.0943 86.6351 34.0943L86.7844 34.2652C86.8448 34.3267 88.2678 35.7816 89.9004 35.7816C89.9699 35.7816 90.0416 35.7793 90.1123 35.7736C89.8525 36.0607 89.3136 36.6577 89.3136 36.6577L89.4857 36.7671C89.5426 36.8024 90.8973 37.6523 92.1847 37.6523C92.4991 37.6523 92.7965 37.6102 93.0836 37.5225C92.8842 37.8768 92.4809 38.5888 92.4809 38.5888L92.6803 38.6549C92.727 38.6697 93.8139 39.0263 94.7139 39.0263C95.6937 39.0263 96.3864 38.6663 96.8444 38.2858C96.9526 38.9181 97.324 39.5424 97.9541 40.1451C98.6616 40.8242 99.6573 41.3892 99.7872 41.3892H99.7883C99.9365 41.3744 102.397 40.128 102.717 38.2869C103.174 38.6686 103.867 39.0275 104.848 39.0275C105.749 39.0275 106.835 38.6709 106.882 38.6561L107.082 38.5888C107.082 38.5888 106.68 37.8836 106.476 37.5225C106.764 37.6102 107.066 37.6535 107.377 37.6535C108.665 37.6535 110.018 36.8036 110.075 36.7683L110.245 36.66C110.245 36.66 109.704 36.055 109.451 35.7748C109.521 35.7805 109.592 35.7828 109.661 35.7828C111.296 35.7828 112.718 34.3279 112.777 34.2663L112.939 34.0966C112.939 34.0966 112.685 33.9462 112.582 33.8847C109.92 32.3216 107.762 30.4782 106.403 29.1896L104.163 26.8632C104.472 26.3927 104.734 25.8925 104.946 25.3696C105.039 25.7467 105.165 26.1523 105.322 26.5385C105.48 26.9224 105.671 27.2859 105.894 27.5764C107.325 29.4471 109.39 29.5588 109.478 29.5622L109.729 29.5713L109.481 28.6553C110.769 29.6545 112.237 29.8163 113.05 29.8163C113.366 29.8163 113.561 29.7912 113.569 29.7901L113.829 29.7559L113.254 28.653C114.007 29.0689 114.86 29.2774 115.794 29.2774C117.011 29.2774 117.913 28.9173 117.95 28.9025L118.183 28.8068L117.151 27.5798C117.687 27.745 118.244 27.8282 118.81 27.8282C120.78 27.8282 122.234 26.8438 122.294 26.8017L122.504 26.6581L120.931 25.455C121.123 25.4744 121.314 25.4824 121.506 25.4824C124.316 25.4824 126.201 23.5581 126.28 23.4761L126.458 23.2904L124.309 22.2923C127.744 21.8685 129.554 19.0225 129.573 18.9929L129.71 18.773L127.039 18.184C130.612 16.9843 131.842 13.5494 131.856 13.5118L131.939 13.2679H129.654C130.753 12.647 132.106 11.4223 132.714 7.31284L132.72 7.3117ZM91.6378 18.4575L89.0448 23.41C88.9479 23.59 88.7691 23.6971 88.5674 23.6971C88.4387 23.6971 88.3202 23.6549 88.2313 23.574C87.9784 23.3553 87.9966 23.034 88.1356 22.8494L91.6378 18.4575ZM90.6956 17.7454L86.7696 22.3926C86.6545 22.5247 86.4973 22.5977 86.3264 22.5977C86.1464 22.5977 85.9721 22.5145 85.8741 22.3778C85.661 22.0861 85.7511 21.7603 85.9436 21.5928L90.6945 17.7454H90.6956ZM84.6847 20.8169C84.573 20.9001 84.4431 20.9445 84.3098 20.9445C84.0694 20.9445 83.8461 20.8055 83.755 20.5948C83.5989 20.245 83.7744 19.9192 84.0102 19.7938L89.7785 16.9319L84.6847 20.8181V20.8169ZM82.929 18.7195C82.8379 18.7605 82.7444 18.781 82.6499 18.781C82.348 18.781 82.07 18.56 82.0176 18.2752C81.9355 17.8707 82.1862 17.5791 82.4676 17.5016L89.0915 15.8371L82.9302 18.7195H82.929ZM81.6325 16.1595C81.5824 16.1709 81.53 16.1754 81.481 16.1754C81.2918 16.1754 81.1141 16.0991 80.982 15.9624C80.8544 15.8314 80.7849 15.6593 80.7917 15.4884C80.7962 15.0566 81.1312 14.806 81.4343 14.7901L88.8123 14.5895L81.6325 16.1595ZM80.3189 9.09812C80.5171 8.69025 80.8771 8.64695 81.0218 8.64695C81.1198 8.64695 81.2189 8.66518 81.2975 8.69594L88.9137 12.1184L80.8544 10.1702C80.6128 10.1132 80.4226 9.95943 80.32 9.73954C80.2232 9.52877 80.222 9.28952 80.3189 9.09698V9.09812ZM80.1856 12.4044C80.287 11.9817 80.6299 11.8313 80.8954 11.8313C80.9318 11.8313 80.9706 11.8336 80.9979 11.8381L88.6597 13.4673L80.8919 13.2759C80.6584 13.2736 80.4545 13.1711 80.3166 12.99C80.1856 12.8179 80.1366 12.5992 80.1867 12.4032L80.1856 12.4044ZM68.927 2.91401L79.3209 7.77311C79.0178 8.08642 78.8025 8.47948 78.7079 8.90216C78.6487 9.1642 78.635 9.42737 78.6658 9.68372L77.1448 9.34648C70.4241 7.87109 69.0011 5.93429 68.927 2.91401ZM68.8268 9.12888L78.9472 11.3824C78.7398 11.731 78.6304 12.1264 78.627 12.5399C78.627 12.7917 78.668 13.0378 78.7489 13.2748L77.2918 13.2725C70.6508 13.2725 69.4636 11.4952 68.8268 9.12774V9.12888ZM70.1404 14.7889H79.3983C79.2707 15.1637 79.2502 15.5625 79.3368 15.9578C79.3904 16.1914 79.4781 16.4101 79.5988 16.6106L78.9255 16.7599C77.7908 17.0105 76.7312 17.137 75.7799 17.137C72.5477 17.137 70.9026 15.7664 70.1404 14.7889ZM72.566 19.6856L80.5524 17.922C80.5126 18.2968 80.5752 18.6705 80.7381 19.0168C80.8327 19.2174 80.958 19.4042 81.1096 19.5648L80.8817 19.6719C79.1796 20.4638 77.5914 20.8648 76.1616 20.8648C74.7318 20.8648 73.5218 20.4592 72.566 19.6856ZM77.9617 24.0525C77.2063 24.0525 76.5022 23.8953 75.8619 23.5854L82.3013 20.5902C82.3446 20.9411 82.4801 21.2738 82.7023 21.5632C82.8333 21.7329 82.9848 21.8776 83.1546 21.995C82.5189 22.4826 80.2938 24.0525 77.9617 24.0525ZM80.6356 26.453C80.3291 26.453 80.0261 26.42 79.731 26.3562L84.5104 22.6956C84.6254 23.0089 84.8191 23.2858 85.0789 23.5057C85.2224 23.6287 85.3876 23.7301 85.5653 23.8053C83.9703 25.5382 82.2694 26.453 80.6356 26.453ZM83.8439 27.9524L87.0202 24.1744C87.1923 24.4399 87.4292 24.6541 87.7129 24.8033C87.861 24.8785 88.0183 24.9355 88.1789 24.9697C86.9633 26.8586 85.4332 27.9113 83.8427 27.9524H83.8439ZM87.8895 28.4172L89.6702 25.0004C89.799 25.1246 89.9801 25.2625 90.2182 25.3605C90.4188 25.4402 90.617 25.4835 90.8209 25.4915C90.1294 27.0603 89.1029 28.0834 87.8895 28.4183V28.4172ZM90.8881 24.2234C90.8107 24.2234 90.7355 24.2052 90.6694 24.1688C90.3948 24.0195 90.347 23.7256 90.4381 23.5307L92.6814 18.8653L91.3746 23.8543C91.3006 24.1095 91.0761 24.2234 90.8881 24.2234ZM91.5854 27.8567L92.3032 25.185C92.4547 25.275 92.6187 25.3411 92.7874 25.3787C92.8705 25.3981 93.005 25.4208 93.169 25.4208C93.2226 25.4208 93.2761 25.4197 93.3285 25.414C92.9913 26.5636 92.3954 27.3987 91.5854 27.8567ZM93.6202 23.7609C93.6042 24.0355 93.3752 24.1995 93.1633 24.1995C93.1246 24.1995 93.087 24.195 93.0494 24.1836C92.7748 24.1061 92.6723 23.8498 92.7133 23.6583L93.8275 19.5022L93.6202 23.7609ZM101.475 9.31116L101.317 9.78056H98.256L98.0965 9.31116H101.476H101.475ZM97.602 10.8731C97.536 10.8731 97.4858 10.8868 97.4118 10.9324C97.4118 10.9324 97.5895 10.5165 98.1352 10.5165H100.216L98.894 10.8082C98.894 10.8082 98.9692 11.3334 98.4246 11.3334C97.9245 11.3334 97.9233 10.8743 97.602 10.8743V10.8731ZM94.5259 28.7886C94.9099 28.6245 95.5593 28.8513 95.377 29.7285C95.377 29.7285 95.1332 29.7103 95.0135 30.0794C94.9361 30.3232 94.9839 30.6901 95.4077 31.1595C94.4758 30.8245 94.1306 30.1865 94.1146 29.6385C94.1067 29.2398 94.2719 28.898 94.5259 28.7886ZM93.2362 30.9772C93.3468 30.6981 93.8321 30.5181 94.2833 31.0262C94.0964 31.0535 94.0292 31.2381 94.0292 31.3862C94.0292 31.8123 94.3505 32.0071 94.7663 32.1473C93.4914 32.415 93.054 31.442 93.2362 30.9772ZM89.9015 34.4931C89.6668 34.4931 89.3114 34.4429 88.883 34.2208C90.0622 33.4495 91.2208 32.5893 92.3339 31.6551C92.4023 32.0026 92.5709 32.2646 92.7395 32.4515C92.1733 33.2 91.6253 33.7503 91.1103 34.0863C90.691 34.3598 90.2957 34.4919 89.9004 34.4919L89.9015 34.4931ZM93.5268 35.8101C93.1417 36.1576 92.7395 36.3365 92.2952 36.3592C92.2861 36.3604 92.2519 36.3638 92.1926 36.3638C92.0411 36.3638 91.7574 36.3456 91.4202 36.2419C92.2838 35.2575 93.1337 34.1877 93.9517 33.0598C94.0941 33.0735 94.2308 33.0815 94.3619 33.0815C94.7777 33.0815 95.0922 33.0086 95.3257 32.9129C95.1355 33.2831 94.9156 33.7138 94.8415 33.8642C94.3778 34.803 93.9597 35.4216 93.5268 35.809V35.8101ZM96.4115 36.8685C95.9478 37.5327 95.3553 37.6558 95.3496 37.6569C95.156 37.7116 94.9497 37.7378 94.7207 37.7378C94.6193 37.7378 94.5248 37.7321 94.445 37.7253C94.9543 36.7967 95.4488 35.8033 95.917 34.7642C96.3351 35.0399 96.7373 35.1037 97.0164 35.1037C97.0723 35.1037 97.1235 35.1015 97.1691 35.0969C96.9766 35.8317 96.7236 36.4265 96.4115 36.8685ZM96.4696 30.9772C95.7997 29.9233 96.1016 28.6713 96.8695 28.6713C97.2386 28.6713 97.7467 29.1133 97.4425 29.9393C97.3423 29.7183 97.1543 29.6738 96.9504 29.7411C96.5425 29.8698 96.4251 30.5511 96.4696 30.9772ZM97.078 34.1957C96.4935 34.1957 96.2018 33.8562 96.2018 33.2159C96.2018 32.9995 96.2349 32.7123 96.318 32.4822C96.3796 32.8286 96.6393 33.3162 96.9948 33.4597C97.2956 33.5828 97.6601 33.413 97.6601 33.1122C97.9791 33.7332 97.4756 34.1957 97.078 34.1957ZM99.7849 39.9161C98.5579 39.138 97.9005 38.4088 98.1375 37.0576L99.7849 30.6981L101.433 37.0599C101.672 38.4088 101.012 39.1391 99.7849 39.9161ZM101.912 33.1122C101.912 33.413 102.277 33.5828 102.578 33.4597C102.933 33.3162 103.19 32.8286 103.254 32.4822C103.337 32.7135 103.37 33.0006 103.37 33.2159C103.37 33.8573 103.081 34.1957 102.494 34.1957C102.093 34.1957 101.595 33.732 101.912 33.1122ZM102.622 29.7411C102.418 29.6738 102.228 29.7183 102.127 29.9393C101.824 29.1122 102.332 28.6713 102.703 28.6713C103.469 28.6713 103.772 29.9233 103.101 30.9772C103.147 30.5522 103.027 29.8698 102.622 29.7411ZM104.849 37.7378C104.622 37.7378 104.416 37.7116 104.237 37.6603C104.219 37.6558 103.621 37.5259 103.161 36.8685C102.853 36.4322 102.599 35.8374 102.402 35.0969C102.449 35.1015 102.499 35.1037 102.555 35.1037C102.834 35.1037 103.237 35.0411 103.655 34.7642C104.113 35.7816 104.608 36.7751 105.127 37.7253C105.046 37.7321 104.951 37.7378 104.849 37.7378ZM107.237 31.6551C108.351 32.5882 109.509 33.4495 110.688 34.2208C110.258 34.4418 109.903 34.4931 109.667 34.4931C109.276 34.4931 108.881 34.3609 108.458 34.0875C107.947 33.7537 107.399 33.2034 106.83 32.4526C106.999 32.2657 107.168 32.0014 107.236 31.6562L107.237 31.6551ZM108.152 36.2419C107.812 36.3456 107.531 36.3638 107.378 36.3638C107.321 36.3638 107.287 36.3615 107.283 36.3592C106.833 36.3365 106.429 36.1553 106.044 35.8101C105.611 35.4227 105.194 34.8052 104.731 33.8653C104.655 33.7149 104.437 33.2843 104.246 32.914C104.479 33.0097 104.793 33.0826 105.207 33.0826C105.338 33.0826 105.476 33.0746 105.617 33.061C106.426 34.1752 107.278 35.2439 108.151 36.243L108.152 36.2419ZM106.335 30.9772C106.517 31.442 106.077 32.415 104.804 32.1473C105.221 32.006 105.542 31.8123 105.542 31.3862C105.542 31.2381 105.475 31.0535 105.288 31.0262C105.738 30.5181 106.225 30.6981 106.335 30.9772ZM105.045 28.7886C105.299 28.898 105.467 29.2398 105.455 29.6385C105.44 30.1865 105.095 30.8245 104.164 31.1595C104.588 30.6901 104.636 30.3232 104.559 30.0794C104.44 29.7103 104.193 29.7285 104.193 29.7285C104.014 28.8513 104.663 28.6245 105.046 28.7886H105.045ZM102.852 26.9418C102.738 27.0854 102.612 27.2289 102.475 27.3725C101.778 28.121 100.825 28.8763 99.7849 29.3548C98.7459 28.8763 97.7957 28.1221 97.095 27.3725C96.9595 27.2289 96.833 27.0854 96.7191 26.9418C94.8392 24.6222 94.9691 22.0702 94.9691 21.0687C94.9691 19.6799 95.0705 18.0758 95.0705 18.0758C95.0705 18.0758 97.5804 18.0222 99.7849 16.5366C101.989 18.0222 104.502 18.0758 104.502 18.0758C104.502 18.0758 104.602 19.6799 104.602 21.0687C104.602 22.0702 104.731 24.6222 102.852 26.9418ZM130.645 2.91401C130.572 5.93429 129.148 7.87109 122.427 9.34648L120.906 9.68372C120.936 9.42623 120.922 9.1642 120.864 8.90216C120.77 8.47948 120.555 8.08642 120.252 7.77311L130.646 2.91401H130.645ZM119.256 12.9911C119.118 13.1711 118.914 13.2736 118.681 13.2771L110.914 13.4685L118.573 11.8393C118.6 11.8347 118.639 11.8324 118.677 11.8324C118.941 11.8324 119.285 11.9828 119.384 12.4055C119.437 12.6015 119.387 12.8202 119.254 12.9922L119.256 12.9911ZM118.782 15.4873C118.787 15.6582 118.718 15.8302 118.59 15.9612C118.458 16.098 118.28 16.1743 118.091 16.1743C118.042 16.1743 117.991 16.1686 117.941 16.1583L110.761 14.5884L118.139 14.7889C118.441 14.8049 118.776 15.0555 118.782 15.4873ZM118.275 8.69594C118.354 8.66404 118.452 8.64695 118.55 8.64695C118.695 8.64695 119.055 8.69025 119.253 9.09812C119.35 9.29066 119.35 9.52991 119.252 9.74068C119.15 9.96057 118.959 10.1144 118.718 10.1713L110.658 12.1195L118.275 8.69708V8.69594ZM117.105 17.5016C117.386 17.5791 117.637 17.8707 117.556 18.2752C117.502 18.56 117.223 18.781 116.922 18.781C116.828 18.781 116.733 18.7605 116.643 18.7195L110.48 15.8371L117.103 17.5016H117.105ZM115.563 19.7938C115.798 19.9192 115.973 20.245 115.817 20.5948C115.726 20.8055 115.504 20.9445 115.262 20.9445C115.13 20.9445 115 20.9012 114.887 20.8169L109.794 16.9308L115.563 19.7927V19.7938ZM113.627 21.5939C113.82 21.7603 113.912 22.0873 113.697 22.3789C113.599 22.5156 113.425 22.5988 113.245 22.5988C113.074 22.5988 112.916 22.5259 112.801 22.3937L108.875 17.7465L113.626 21.5939H113.627ZM111.437 22.8494C111.576 23.034 111.594 23.3553 111.342 23.574C111.252 23.6549 111.132 23.6971 111.005 23.6971C110.804 23.6971 110.624 23.59 110.527 23.41L107.934 18.4575L111.437 22.8494ZM105.952 23.7609L105.745 19.5022L106.858 23.6583C106.9 23.8498 106.797 24.105 106.523 24.1836C106.484 24.1961 106.448 24.1995 106.408 24.1995C106.197 24.1995 105.968 24.0355 105.952 23.7609ZM106.244 25.414C106.297 25.4197 106.351 25.4208 106.403 25.4208C106.567 25.4208 106.702 25.3981 106.786 25.3787C106.952 25.34 107.116 25.275 107.27 25.185L107.988 27.8567C107.178 27.3987 106.581 26.5636 106.244 25.414ZM108.196 23.8543L106.89 18.8653L109.133 23.5307C109.224 23.7267 109.176 24.0206 108.902 24.1688C108.836 24.2052 108.76 24.2234 108.683 24.2234C108.494 24.2234 108.27 24.1095 108.196 23.8543ZM108.75 25.4903C108.954 25.4824 109.152 25.4379 109.353 25.3593C109.592 25.2625 109.772 25.1246 109.901 24.9993L111.681 28.4161C110.469 28.0811 109.443 27.0592 108.75 25.4892V25.4903ZM111.392 24.9697C111.554 24.9355 111.712 24.8785 111.858 24.8033C112.143 24.6541 112.379 24.4399 112.552 24.1744L115.728 27.9524C114.138 27.9113 112.608 26.8586 111.391 24.9697H111.392ZM118.937 26.453C117.303 26.453 115.603 25.5382 114.008 23.8053C114.186 23.7301 114.35 23.6287 114.493 23.5057C114.753 23.2858 114.947 23.0078 115.062 22.6956L119.841 26.3562C119.546 26.42 119.243 26.453 118.937 26.453ZM121.609 24.0525C119.277 24.0525 117.052 22.4837 116.416 21.995C116.586 21.8776 116.738 21.7329 116.869 21.5632C117.09 21.2738 117.225 20.9411 117.269 20.5902L123.708 23.5854C123.069 23.8953 122.365 24.0525 121.608 24.0525H121.609ZM123.409 20.8648C121.98 20.8648 120.393 20.4626 118.689 19.6719L118.463 19.5648C118.613 19.4031 118.741 19.2174 118.834 19.0168C118.996 18.6705 119.058 18.2968 119.02 17.922L127.006 19.6856C126.048 20.4592 124.812 20.8648 123.408 20.8648H123.409ZM123.791 17.1381C122.84 17.1381 121.781 17.0105 120.645 16.761L119.972 16.6118C120.094 16.4113 120.182 16.1925 120.234 15.959C120.322 15.5636 120.3 15.1649 120.173 14.7901H129.431C128.67 15.7676 127.023 17.1381 123.791 17.1381ZM122.279 13.2736L120.822 13.2759C120.903 13.0378 120.944 12.7917 120.944 12.5411C120.942 12.1264 120.832 11.7322 120.624 11.3835L130.745 9.13002C130.107 11.4975 128.92 13.2748 122.279 13.2748V13.2736Z" fill="white"/>
<path d="M102.427 26.3156C102.29 26.4888 102.142 26.6597 101.981 26.8249C101.962 26.8442 101.948 26.8602 101.929 26.8773L95.6606 20.6043C95.6652 20.2431 95.6743 19.8991 95.688 19.5767L102.427 26.3156Z" fill="white"/>
<path d="M103.438 24.5222C103.344 24.7637 103.237 25.0098 103.111 25.2547L96.4722 18.6149C96.7798 18.5648 97.0703 18.5044 97.3483 18.4326L103.438 24.5222Z" fill="white"/>
<path d="M103.903 22.1046C103.887 22.6503 103.809 23.2997 103.613 23.9878L97.8975 18.272C98.7405 17.9962 99.3911 17.651 99.7876 17.3867C100.473 17.8516 101.943 18.5545 103.843 18.706C103.897 19.6015 103.94 20.8331 103.904 22.1057L103.903 22.1046Z" fill="white"/>
<path d="M101.571 27.2256C100.782 27.9559 100.126 28.3137 99.7862 28.4686C99.3886 28.2897 98.5592 27.8294 97.5896 26.8257C96.0698 25.2501 95.7075 23.3885 95.6711 22.1045C95.6619 21.839 95.6585 21.5747 95.6562 21.3115L101.571 27.2256Z" fill="white"/>
<path d="M51.6564 60.1503L43 60.1332V49.3691L45.6728 49.3931V58.643H51.1448L51.6564 60.1503Z" fill="white"/>
<path d="M147.992 60.1503L139.335 60.1332V49.3691L142.008 49.3931V58.643H147.48L147.992 60.1503Z" fill="white"/>
<path d="M72.7412 49.3613L72.6056 50.8857H69.0589L69.0305 60.1493L66.393 60.1448L66.3907 50.8857H62.8407L62.7051 49.3613H72.7412Z" fill="white"/>
<path d="M83.3881 49.3613L83.2526 50.8857H79.7059L79.6774 60.1493L77.04 60.1448L77.0377 50.8857H73.4876L73.3521 49.3613H83.3881Z" fill="white"/>
<path d="M128.125 49.3613L128.261 50.8857H131.811L131.813 60.1448L134.449 60.1493L134.479 50.8857H138.024L138.161 49.3613H128.125Z" fill="white"/>
<path d="M84.5934 49.3804V60.141L86.9734 60.1296L93.2225 60.1456L92.7143 58.6463L87.2936 58.6383C87.2491 57.6266 87.256 55.3184 87.256 55.3184C87.256 55.3184 91.7311 55.3036 92.1185 55.3446L92.1504 53.786C92.1504 53.786 91.46 53.8134 90.5702 53.8134L87.2537 53.81C87.2537 53.81 87.256 52.5864 87.256 50.8888L92.5343 50.8797L92.7759 49.3815H84.5923L84.5934 49.3804Z" fill="white"/>
<path d="M157.366 49.3805L157.125 50.8787L151.846 50.8878C151.846 52.5854 151.844 53.809 151.844 53.809L155.16 53.8124C156.049 53.8124 156.741 53.7851 156.741 53.7851L156.709 55.3436C156.321 55.3026 151.846 55.3174 151.846 55.3174C151.846 55.3174 151.839 57.6245 151.884 58.6373L157.305 58.6453L157.813 60.1446L151.564 60.1287L149.184 60.1401V49.3794H157.367L157.366 49.3805Z" fill="white"/>
<path d="M60.4962 50.2894C58.9525 49.1319 57.4691 49.2265 57.0157 49.2265C56.5622 49.2265 55.1335 49.1319 53.5898 50.2894C51.9743 51.5005 51.522 53.4373 51.522 54.7692C51.522 56.101 51.9355 58.0891 53.5898 59.2489C55.2156 60.3859 56.6568 60.3141 57.0157 60.3141C57.3745 60.3141 58.8682 60.387 60.4962 59.2489C62.1482 58.0902 62.5618 56.0999 62.5618 54.7692C62.5618 53.4385 62.1095 51.5005 60.4962 50.2894ZM58.8488 58.2292C58.1071 58.9151 57.0157 58.8889 57.0157 58.8889H57.0009C56.8721 58.8889 55.9265 58.8672 55.2349 58.2292C54.5195 57.5696 54.1617 56.2947 54.1617 54.768C54.1617 53.2414 54.5195 51.9676 55.2349 51.3057C55.9766 50.621 57.0157 50.646 57.0157 50.646H57.0305C57.1558 50.646 58.1572 50.6677 58.8488 51.3057C59.5631 51.9676 59.922 53.2402 59.922 54.768C59.922 56.2958 59.5643 57.5684 58.8488 58.2292Z" fill="white"/>
<path d="M101.309 58.0665C100.08 57.1824 99.9124 55.6489 99.9124 54.8024C99.9124 53.8249 100.092 52.4213 101.217 51.4198C102.361 50.4001 104.849 50.121 106.403 51.5622L107.443 50.0777C105.367 48.9054 102.586 48.9532 101.056 49.5069C99.7631 49.974 98.9975 50.6645 98.437 51.4164C97.6076 52.5329 97.3364 53.7964 97.3364 54.742C97.3364 56.4817 98.0303 58.8765 100.778 59.8461C102.634 60.5012 104.889 60.4829 106.655 59.7105L107.066 58.1793C107.109 57.9901 107.139 57.8739 107.139 57.8739L106.96 57.7555C105.57 58.8287 103.286 59.486 101.31 58.0676L101.309 58.0665Z" fill="white"/>
<path d="M126.575 51.3411C126.347 51.2374 125.988 51.0505 125.592 50.874C124.282 50.2872 122.379 50.343 121.849 51.0984C121.286 51.9016 121.534 52.78 123.869 53.5057C125.426 53.9899 126.284 54.3773 126.936 54.8125C127.851 55.4243 128.211 56.2663 128.149 57.246C128.093 58.145 127.582 58.9482 126.867 59.4734C125.329 60.6024 122.986 60.3438 121.754 60.1399C120.232 59.8869 119.137 59.315 119.137 59.315L119.649 57.1093L119.87 57.1036C119.87 57.1036 120.207 57.6801 120.888 58.1882C121.362 58.5414 122.003 58.8878 122.808 58.9846C124.062 59.1373 125.063 58.9151 125.422 58.1222C125.722 57.458 125.422 56.7436 124.714 56.3984C124.21 56.1535 123.364 55.831 122.789 55.61C121.449 55.0962 120.912 54.9276 120.164 54.3625C118.912 53.4191 119.068 51.8275 119.602 50.9492C120.125 50.0901 121.367 49.2368 123.313 49.1718C124.001 49.1491 125.131 49.2129 126.003 49.4259C126.514 49.5512 126.931 49.7164 127.44 49.8862L126.577 51.3411H126.575Z" fill="white"/>
<path d="M114.138 49.3599H111.936C111.936 49.3599 109.044 56.4657 108.578 57.5936C108.106 58.7238 107.476 60.1399 107.476 60.1399H109.636C109.984 59.0986 110.569 57.4432 110.569 57.4432H114.735L115.779 60.1399H118.664L114.139 49.3599H114.138ZM110.983 56.0362L112.593 51.8561L114.214 56.0362H110.983Z" fill="white"/>
</g>
<defs>
<clipPath id="clip0_2064_7722">
<rect width="200" height="60" fill="white"/>
</clipPath>
</defs>
</svg>
