<svg xmlns="http://www.w3.org/2000/svg" width="140" height="70" viewBox="0 0 140 70">
  <g id="list_logo_3" transform="translate(-860.5 -1309.152)">
    <rect id="사각형_9905" data-name="사각형 9905" width="140" height="70" transform="translate(860.5 1309.152)" fill="none"/>
    <path id="패스_11723" data-name="패스 11723" d="M45.151,24.916a2.934,2.934,0,0,1-3.136,2.676,2.934,2.934,0,0,1-3.136-2.676V10.2a2.934,2.934,0,0,1,3.136-2.676A2.934,2.934,0,0,1,45.151,10.2Zm50.168,0a3.175,3.175,0,0,1-6.271,0V10.2a3.175,3.175,0,0,1,6.271,0ZM64.585,7.525A2.936,2.936,0,0,0,61.445,10.2v9.726a2.342,2.342,0,0,0-.214-.631c-1.006-1.627-5.27-8.519-6.361-10.3a3.248,3.248,0,0,0-2.813-1.471A2.936,2.936,0,0,0,48.914,10.2V24.914a2.936,2.936,0,0,0,3.142,2.675l4.395,0a13.481,13.481,0,0,0-2.827-2.713c-3.4-2.333-1.52-5.782,1.61-5.013,3.03.746,3.143,5.975,3.143,7.726,1.358,0,4.668,0,6.223,0a2.932,2.932,0,0,0,3.127-2.675V10.2a2.936,2.936,0,0,0-3.142-2.676m19.515,0H71.421a2.658,2.658,0,0,0-2.439,2.833,2.658,2.658,0,0,0,2.439,2.833h3.4V24.916a2.954,2.954,0,0,0,5.882,0V13.192h3.4a2.66,2.66,0,0,0,2.439-2.835A2.658,2.658,0,0,0,84.1,7.525M115.81.238a2.447,2.447,0,0,0-3.029.734,2.507,2.507,0,0,0,.459,3.485,1.155,1.155,0,0,1-.849,2.068H100.371A2.784,2.784,0,0,0,97.828,9.5a2.784,2.784,0,0,0,2.544,2.974h3.543v12.31a3.077,3.077,0,0,0,6.131,0V12.473h2.483c4.041,0,6.621-2.439,6.621-6.1,0-2.36-1.545-5.383-3.34-6.136m-85,7.293A2.979,2.979,0,0,0,28.082,9.02c-1.067,1.8-4.319,7.288-5.039,8.5a1.585,1.585,0,0,0-.142.383,1.548,1.548,0,0,0-.144-.389c-.712-1.2-3.859-6.5-5.008-8.431a2.951,2.951,0,0,0-2.759-1.561,3.008,3.008,0,0,0-3.143,2.709C10.6,17.983,9.884,24.492,7.252,24.492a1.8,1.8,0,0,1-1.622-2.84c.86-1.568,1.286-3.1-.824-4.154a2.752,2.752,0,0,0-3.065.532C-1.5,21.337-.542,30.1,7.356,30.1c5.742,0,8.318-3.28,9.479-11.663.589,1.279,1.8,4.56,2.972,7.55a2.92,2.92,0,0,0,2.715,1.852h2.152c0-1.772.11-7.065,3.051-7.819,3.04-.78,4.861,2.712,1.564,5.073a13.309,13.309,0,0,0-2.744,2.745l4.267,0a2.9,2.9,0,0,0,3.05-2.708V10.239a2.9,2.9,0,0,0-3.05-2.709" transform="translate(870.323 1329.107)" fill="#fff"/>
  </g>
</svg>
