<svg xmlns="http://www.w3.org/2000/svg" width="140" height="70" viewBox="0 0 140 70">
  <g id="list_logo_4" transform="translate(-1374.69 -1302.69)">
    <rect id="사각형_9904" data-name="사각형 9904" width="140" height="70" transform="translate(1374.69 1302.69)" fill="none"/>
    <path id="ic_BI" d="M20.377,0A20.326,20.326,0,0,0,6.012,6.02c-7.713,7.719-8.067,19.83-.778,27.124a18.7,18.7,0,0,0,4.1,3.045A49.755,49.755,0,0,0,7.215,45.4h3.821a47.009,47.009,0,0,1,1.769-7.719,18.829,18.829,0,0,0,5.307.708,20.326,20.326,0,0,0,14.365-6.02c6.652-6.657,8-17.068,3.114-24.433H30.143A54.523,54.523,0,0,0,10.824,32.223a19.225,19.225,0,0,1-2.689-2.2c-6.794-6.87-7.5-17-1.274-23.158a13.746,13.746,0,0,1,9.695-4.108,16.9,16.9,0,0,1,8.209,2.266l4.741-2.62A17.966,17.966,0,0,0,20.377,0m1.132,35.622a19.622,19.622,0,0,1-7.36-1.558h0C17.9,24.787,23.916,16.5,31.912,10.906h0c4.812,6.657,5.1,15.226-.283,20.609a13.825,13.825,0,0,1-10.119,4.108" transform="translate(1425.275 1314.795)" fill="#fff"/>
  </g>
</svg>
