<svg xmlns="http://www.w3.org/2000/svg" width="140" height="70" viewBox="0 0 140 70">
    <defs>
        <style>
            .cls-2{fill:#fff}
        </style>
    </defs>
    <g id="list_logo_5" transform="translate(-360 -1986)">
        <path id="사각형_9908" fill="none" d="M0 0H140V70H0z" transform="translate(360 1986)"/>
        <g id="그룹_5438" transform="translate(384.097 2003.397)">
            <g id="그룹_5432" transform="translate(33.051 22.429)">
                <g id="그룹_5431">
                    <g id="그룹_5430">
                        <path id="패스_11725" d="M713.7 187.859a3.621 3.621 0 0 0-2.856 1.358 2.546 2.546 0 0 0-2.368-1.358 3.647 3.647 0 0 0-2.617 1.064 1.338 1.338 0 0 0-1.4-.913 4.3 4.3 0 0 0-.76.1 11.674 11.674 0 0 1 .235 2.407v5.658H706v-5.767a2.828 2.828 0 0 1 1.748-.822c.95 0 1.395.694 1.395 1.645v4.944h2.078v-5.769a2.766 2.766 0 0 1 1.748-.819c.946 0 1.38.694 1.38 1.645v4.944h2.09v-5.266c-.005-1.847-1.058-3.051-2.739-3.051z" class="cls-2" transform="translate(-658.083 -183.718)"/>
                        <path id="패스_11726" d="M691.561 194.682a2.579 2.579 0 0 1 0-5.147c.683 0 .973.209 1.427.209a1.025 1.025 0 0 0 .98-.7l.212-.408a5.376 5.376 0 0 0-2.932-.777 4.251 4.251 0 0 0 0 8.5 5.178 5.178 0 0 0 2.963-.838l-.72-1.417a3.628 3.628 0 0 1-1.93.578z" class="cls-2" transform="translate(-658.659 -183.718)"/>
                        <path id="패스_11727" d="M669.583 187.86c-1.985 0-3.66 1.616-3.66 4.259 0 2.707 1.624 4.241 4.052 4.241a4.887 4.887 0 0 0 3.047-.922s-.189-.305-.24-.391a1.03 1.03 0 0 0-.922-.587c-.681 0-.77.285-1.7.285a2.088 2.088 0 0 1-2.174-2.064h5.314v-.615c0-2.535-1.456-4.206-3.717-4.206zm-1.6 3.351a1.6 1.6 0 1 1 3.17 0z" class="cls-2" transform="translate(-659.393 -183.718)"/>
                        <path id="패스_11728" d="M676.552 194.026v-8.473a1.6 1.6 0 0 0-1.629-1.7h-.445v11a1.546 1.546 0 0 0 1.722 1.647 1.653 1.653 0 0 0 1.748-1.857 1.6 1.6 0 0 1-.628.145.7.7 0 0 1-.768-.762z" class="cls-2" transform="translate(-659.096 -183.857)"/>
                        <path id="패스_11729" d="M663.216 193.677v-4.028h1.732l.6-1.559h-2.334v-2.437h-.195c-.921 0-1.877.391-1.877 2.417v.02h-1.532v1.559h1.532v4.744a2 2 0 1 0 4.007-.039 2.039 2.039 0 0 1-1 .328c-.668 0-.933-.411-.933-1.005z" class="cls-2" transform="translate(-659.612 -183.795)"/>
                    </g>
                    <path id="패스_11730" d="M682.145 187.86c-1.984 0-3.658 1.616-3.658 4.259 0 2.707 1.623 4.241 4.05 4.241a4.885 4.885 0 0 0 3.048-.922l-.241-.391a1.026 1.026 0 0 0-.919-.587c-.684 0-.771.285-1.7.285a2.091 2.091 0 0 1-2.177-2.064h5.315v-.615c.004-2.535-1.454-4.206-3.718-4.206zm-1.6 3.351a1.6 1.6 0 1 1 3.171 0z" class="cls-2" transform="translate(-658.957 -183.718)"/>
                    <path id="패스_11731" d="M698.7 196.359c-2.537 0-4.062-1.674-4.062-4.246s1.505-4.255 4.062-4.255 4.063 1.693 4.063 4.255c-.004 2.422-1.393 4.246-4.063 4.246zm0-1.594c1.271 0 2-1.092 2-2.652s-.715-2.66-2-2.66c-1.251 0-2 1.082-2 2.66 0 1.521.708 2.652 2 2.652z" class="cls-2" transform="translate(-658.397 -183.718)"/>
                </g>
            </g>
            <g id="그룹_5437">
                <g id="그룹_5433" transform="translate(0 19.731)">
                    <path id="패스_11732" d="M634.289 187.352c-1.253-.587-2.279-1.06-2.279-2.016 0-.729.585-1.262 1.74-1.262a5.862 5.862 0 0 1 1.132.117 3.5 3.5 0 0 0 .556.06c1.006 0 1.576-.6 1.953-1.743l.156-.467a10.517 10.517 0 0 0-3.957-.791c-3.422 0-5.226 2.193-5.224 4.468a3.86 3.86 0 0 0 .923 2.635 8.321 8.321 0 0 0 2.722 1.866c1.41.691 2.682 1.2 2.682 2.227 0 .909-.937 1.427-2.195 1.427a6.857 6.857 0 0 1-3.418-1.1l-1.412 2.649a9.774 9.774 0 0 0 5.064 1.3c3.193 0 5.608-1.828 5.608-4.644s-2.24-3.85-4.051-4.726z" class="cls-2" transform="translate(-627.669 -181.25)"/>
                    <path id="패스_11733" d="M646.345 188.646l5.788-7.1h-4.125l-4.616 6.125h-.068v-6.125h-3.4v15.035h.2a2.92 2.92 0 0 0 3.221-3.134V190h.069l4.707 6.4h4.326z" class="cls-2" transform="translate(-627.244 -181.24)"/>
                </g>
                <g id="그룹_5436" transform="translate(16.135)">
                    <g id="그룹_5434" transform="translate(11.042 9.231)">
                        <path id="패스_11734" d="M659.7 176.246l.641.025c.3.018.636.038 1.1.036a12.384 12.384 0 0 0 6.315-1.749A22.259 22.259 0 0 0 656.8 171.1c-.305.863-2.684 7.475-2.863 8.006a8.863 8.863 0 0 1 .963 1.408 15.649 15.649 0 0 1 1.4 2.941 9.649 9.649 0 0 0 .751-4.3c.06-1.465.313-2.9 2.649-2.909z" class="cls-2" transform="translate(-653.935 -171.102)"/>
                        <path id="패스_11735" d="M671.585 177.717a13.471 13.471 0 0 0-3-2.678l-.049.028a14 14 0 0 1-7.092 2.048c-.448 0-.711-.017-.942-.03l-.621-.023c-1.606.008-1.93.689-1.986 2.025l-.01.362-.019.67a7.189 7.189 0 0 1-1.206 4.3l-.042.05a2.121 2.121 0 0 0 .115.247.377.377 0 0 0 .334.208.778.778 0 0 0 .305-.083c.282-.129 11.5-5.349 13.184-6.129.246-.119.711-.325.865-.414a.413.413 0 0 0 .232-.358.442.442 0 0 0-.068-.223z" class="cls-2" transform="translate(-653.842 -170.965)"/>
                    </g>
                    <g id="그룹_5435">
                        <path id="패스_11736" d="M652.143 166.078l-.1.02a3.414 3.414 0 0 0-2.872 3.116 4.985 4.985 0 0 0 .634 2.137 6.591 6.591 0 0 1 .8 2.952 4.118 4.118 0 0 1-1.841 3.5c.348-.024.721-.04 1.125-.04a11.27 11.27 0 0 1 1.719.1l5.369-6.59a22.335 22.335 0 0 0-4.834-5.195z" class="cls-2" transform="translate(-643.072 -162.045)"/>
                        <path id="패스_11737" d="M647.882 177.611a3.561 3.561 0 0 0 1.944-3.2 5.813 5.813 0 0 0-.721-2.534 6.057 6.057 0 0 1-.74-2.627 4.028 4.028 0 0 1 2.961-3.769 18.635 18.635 0 0 0-7.66-3.3.4.4 0 0 0-.4.437c0 .178.068.675.1.946.2 1.861 1.543 14.146 1.577 14.457s.172.494.445.491c.04 0 .09 0 .145-.007a4.05 4.05 0 0 0 1.037-.249 8.649 8.649 0 0 0 1.312-.645z" class="cls-2" transform="translate(-643.263 -162.18)"/>
                    </g>
                </g>
            </g>
        </g>
    </g>
</svg>
