<svg xmlns="http://www.w3.org/2000/svg" width="200" height="60" viewBox="0 0 200 60">
    <path data-name="사각형 9908" style="fill:none" d="M0 0h200v60H0z"/>
    <g data-name="그룹 5438">
        <g data-name="그룹 5432">
            <g data-name="그룹 5431">
                <g data-name="그룹 5430">
                    <path data-name="패스 11725" d="M717.985 187.859a5.173 5.173 0 0 0-4.08 1.939 3.637 3.637 0 0 0-3.383-1.939 5.211 5.211 0 0 0-3.738 1.52 1.911 1.911 0 0 0-2.006-1.3 6.142 6.142 0 0 0-1.086.146 16.674 16.674 0 0 1 .336 3.438v8.082h2.956V191.5a4.04 4.04 0 0 1 2.5-1.174c1.357 0 1.993.992 1.993 2.35v7.062h2.968V191.5a3.951 3.951 0 0 1 2.5-1.171c1.351 0 1.972.992 1.972 2.35v7.062h2.983v-7.522c0-2.639-1.51-4.36-3.915-4.36z" transform="translate(-556.896 -145.05)" style="fill:#fff"/>
                    <path data-name="패스 11726" d="M693.483 197.606a3.684 3.684 0 0 1 0-7.352c.976 0 1.389.3 2.038.3a1.464 1.464 0 0 0 1.4-1c.191-.368.3-.582.3-.582a7.681 7.681 0 0 0-4.189-1.11 6.073 6.073 0 0 0 0 12.144 7.4 7.4 0 0 0 4.233-1.2l-1.029-2.024a5.182 5.182 0 0 1-2.753.824z" transform="translate(-564.84 -145.05)" style="fill:#fff"/>
                    <path data-name="패스 11727" d="M671.151 187.86c-2.835 0-5.228 2.309-5.228 6.084 0 3.867 2.321 6.059 5.788 6.059a6.982 6.982 0 0 0 4.353-1.317s-.271-.436-.343-.559a1.472 1.472 0 0 0-1.317-.838c-.973 0-1.1.406-2.423.406a2.983 2.983 0 0 1-3.105-2.949h7.59v-.878c0-3.621-2.085-6.008-5.315-6.008zm-2.284 4.788a2.282 2.282 0 1 1 4.529 0z" transform="translate(-574.955 -145.049)" style="fill:#fff"/>
                    <path data-name="패스 11728" d="M677.441 198.384v-12.1a2.281 2.281 0 0 0-2.326-2.423h-.636v15.714a2.209 2.209 0 0 0 2.455 2.346 2.361 2.361 0 0 0 2.5-2.653 2.287 2.287 0 0 1-.9.207 1 1 0 0 1-1.093-1.091z" transform="translate(-570.864 -146.963)" style="fill:#fff"/>
                    <path data-name="패스 11729" d="M664.76 197.116v-5.754h2.474l.86-2.228h-3.334v-3.481h-.278c-1.315 0-2.681.559-2.681 3.453v.028h-2.189v2.228h2.188v6.777a2.611 2.611 0 0 0 2.742 2.918c1.305 0 2.983-.4 2.983-2.974a2.913 2.913 0 0 1-1.423.469c-.963-.001-1.342-.587-1.342-1.436z" transform="translate(-577.972 -146.105)" style="fill:#fff"/>
                </g>
                <path data-name="패스 11730" d="M683.712 187.86c-2.835 0-5.225 2.309-5.225 6.084 0 3.867 2.319 6.059 5.785 6.059a6.979 6.979 0 0 0 4.354-1.317l-.344-.559a1.466 1.466 0 0 0-1.312-.838c-.977 0-1.1.406-2.423.406a2.987 2.987 0 0 1-3.11-2.949h7.593v-.878c0-3.621-2.084-6.008-5.318-6.008zm-2.284 4.788a2.283 2.283 0 1 1 4.53 0z" transform="translate(-568.947 -145.049)" style="fill:#fff"/>
                <path data-name="패스 11731" d="M700.437 200c-3.624 0-5.8-2.392-5.8-6.066s2.151-6.078 5.8-6.078 5.8 2.418 5.8 6.078c.005 3.466-1.98 6.066-5.8 6.066zm0-2.278c1.815 0 2.86-1.559 2.86-3.788 0-2.208-1.021-3.8-2.86-3.8-1.787 0-2.859 1.546-2.859 3.8 0 2.175 1.022 3.79 2.859 3.79z" transform="translate(-561.227 -145.05)" style="fill:#fff"/>
            </g>
        </g>
        <g data-name="그룹 5437">
            <g data-name="그룹 5433">
                <path data-name="패스 11732" d="M637.126 189.966c-1.79-.838-3.256-1.514-3.256-2.879 0-1.042.835-1.8 2.486-1.8a8.374 8.374 0 0 1 1.617.167 5 5 0 0 0 .794.086c1.437 0 2.251-.86 2.791-2.491l.223-.667a15.025 15.025 0 0 0-5.652-1.129c-4.888 0-7.466 3.132-7.463 6.383a5.515 5.515 0 0 0 1.318 3.765 11.888 11.888 0 0 0 3.889 2.665c2.015.987 3.831 1.718 3.831 3.181 0 1.3-1.339 2.038-3.135 2.038a9.8 9.8 0 0 1-4.882-1.576l-2.018 3.784a13.962 13.962 0 0 0 7.234 1.851c4.562 0 8.011-2.612 8.011-6.634 0-4.01-3.198-5.492-5.788-6.744z" transform="translate(-593.245 -148.209)" style="fill:#fff"/>
                <path data-name="패스 11733" d="m649.1 191.687 8.269-10.138h-5.893l-6.594 8.75h-.1v-8.75h-4.859v21.479h.285c2.1 0 4.6-.97 4.6-4.477v-4.931h.1l6.724 9.142h6.18z" transform="translate(-587.386 -148.066)" style="fill:#fff"/>
            </g>
            <g data-name="그룹 5436">
                <g data-name="그룹 5434">
                    <path data-name="패스 11734" d="m662.168 178.451.915.035c.427.025.909.055 1.565.052a17.692 17.692 0 0 0 9.021-2.5 31.8 31.8 0 0 0-15.644-4.938c-.436 1.233-3.834 10.678-4.09 11.438a12.662 12.662 0 0 1 1.376 2.012 22.355 22.355 0 0 1 2 4.2c.846-1.423.99-3.623 1.073-6.14.089-2.097.449-4.147 3.784-4.159z" transform="translate(-580.687 -153.061)" style="fill:#fff"/>
                    <path data-name="패스 11735" d="M678 178.864a19.245 19.245 0 0 0-4.289-3.825l-.07.04A20 20 0 0 1 663.51 178c-.64 0-1.016-.024-1.345-.043l-.887-.033c-2.294.012-2.757.984-2.836 2.893l-.015.517-.027.958c-.086 2.108-.361 4.486-1.723 6.139l-.061.071a3.033 3.033 0 0 0 .164.353.538.538 0 0 0 .477.3 1.112 1.112 0 0 0 .436-.118c.4-.185 16.423-7.642 18.834-8.756.352-.17 1.016-.464 1.236-.591a.59.59 0 0 0 .331-.511.633.633 0 0 0-.094-.315z" transform="translate(-579.405 -151.179)" style="fill:#fff"/>
                </g>
                <g data-name="그룹 5435">
                    <path data-name="패스 11736" d="m653.591 166.078-.143.028c-1.592.3-4.112 1.771-4.1 4.452a7.12 7.12 0 0 0 .906 3.052 9.416 9.416 0 0 1 1.144 4.217 5.882 5.882 0 0 1-2.63 5c.5-.034 1.03-.058 1.607-.058a16.1 16.1 0 0 1 2.455.148l7.67-9.414a31.9 31.9 0 0 0-6.909-7.425z" transform="translate(-583.158 -155.463)" style="fill:#fff"/>
                    <path data-name="패스 11737" d="M649.861 184.225a5.087 5.087 0 0 0 2.777-4.567 8.3 8.3 0 0 0-1.03-3.62 8.654 8.654 0 0 1-1.057-3.753 5.754 5.754 0 0 1 4.23-5.385c-5.191-3.589-10.044-4.723-10.943-4.72a.567.567 0 0 0-.576.624c0 .254.1.964.138 1.351.284 2.659 2.2 20.209 2.253 20.652s.245.705.636.7c.058 0 .129 0 .207-.01a5.783 5.783 0 0 0 1.481-.356 12.351 12.351 0 0 0 1.884-.916z" transform="translate(-585.789 -157.327)" style="fill:#fff"/>
                </g>
            </g>
        </g>
    </g>
</svg>
