<svg width="200" height="60" viewBox="0 0 200 60" fill="none" xmlns="http://www.w3.org/2000/svg">
<g clip-path="url(#clip0_2281_17299)">
<path d="M46.6216 20.549V54.9998H60.0325V27.3287L46.6216 20.549Z" fill="white"/>
<path d="M76.654 5H30V16.8383H76.654V5Z" fill="white"/>
<path d="M87.9839 20.3776H90.5629V13.7632H96.4338V11.5797H90.5629V7.72137H97.4822V5.53775H87.9839V20.3776Z" fill="white"/>
<path d="M105.678 9.9262C104.993 9.60129 104.196 9.43859 103.288 9.43859C102.365 9.43859 101.544 9.59428 100.824 9.90496C100.104 10.2161 99.5415 10.6507 99.1363 11.2088C98.7306 11.7672 98.5282 12.3996 98.5282 13.1061L101.023 13.3182C101.023 12.8094 101.244 12.3996 101.684 12.0886C102.124 11.7779 102.708 11.6222 103.435 11.6222C103.994 11.6222 104.431 11.7212 104.745 11.919C105.06 12.1171 105.224 12.3927 105.238 12.7458C105.252 13.0287 105.196 13.2439 105.07 13.3924C104.944 13.5407 104.706 13.661 104.357 13.7528C104.008 13.8449 103.477 13.9403 102.764 14.039C101.268 14.2086 100.139 14.5795 99.3774 15.152C98.6154 15.7243 98.2346 16.4981 98.2346 17.4733C98.2346 18.0954 98.3883 18.6535 98.6959 19.148C99.0033 19.643 99.4298 20.0278 99.975 20.3035C100.52 20.579 101.135 20.7168 101.82 20.7168C102.589 20.7168 103.26 20.5436 103.833 20.1975C104.406 19.8513 104.853 19.3637 105.175 18.7347C105.212 18.6617 105.247 18.5872 105.28 18.5117V20.3776H107.817V13.4453C107.817 12.6259 107.631 11.9157 107.261 11.3147C106.891 10.7143 106.363 10.2515 105.678 9.9262ZM104.934 16.7313C104.703 17.2968 104.378 17.7382 103.959 18.0563C103.539 18.3743 103.043 18.5333 102.47 18.5333C101.981 18.5333 101.586 18.4167 101.285 18.1835C100.985 17.9503 100.835 17.6359 100.835 17.2401C100.835 16.8303 101.009 16.5017 101.359 16.2543C101.708 16.0072 102.232 15.841 102.931 15.7561C103.756 15.6574 104.406 15.4488 104.881 15.1307C105.041 15.0236 105.172 14.9057 105.278 14.7786C105.274 15.5244 105.16 16.1764 104.934 16.7313Z" fill="white"/>
<path d="M113.678 12.1699C114.062 11.8803 114.513 11.7353 115.03 11.7353C115.645 11.7353 116.166 11.9439 116.592 12.3607C117.018 12.7777 117.287 13.3537 117.399 14.0885L120.104 13.8765C120.02 13.0146 119.751 12.2583 119.297 11.6081C118.843 10.9582 118.249 10.4528 117.515 10.0924C116.781 9.73196 115.96 9.55171 115.051 9.55171C114.016 9.55171 113.094 9.79223 112.283 10.2725C111.472 10.7531 110.843 11.421 110.396 12.2759C109.949 13.1312 109.725 14.1096 109.725 15.2121C109.725 16.3145 109.952 17.2896 110.407 18.1376C110.861 18.9856 111.494 19.6464 112.304 20.1198C113.115 20.5932 114.045 20.8299 115.093 20.8299C116.002 20.8299 116.819 20.6531 117.546 20.2999C118.273 19.9469 118.864 19.4556 119.318 18.8266C119.772 18.1979 120.034 17.4665 120.104 16.6324L117.399 16.4205C117.287 17.1131 117.018 17.6573 116.592 18.0528C116.166 18.4486 115.645 18.6464 115.03 18.6464C114.247 18.6464 113.625 18.339 113.164 17.7242C112.703 17.1094 112.472 16.2793 112.472 15.2333C112.472 14.5267 112.577 13.9119 112.787 13.3888C112.996 12.8662 113.293 12.4598 113.678 12.1699Z" fill="white"/>
<path d="M125.724 6.36453H123.207V9.77776H120.943V11.9613H123.207V17.0916C123.207 17.8267 123.333 18.4378 123.585 18.9254C123.836 19.413 124.214 19.777 124.717 20.0172C125.22 20.2577 125.849 20.3776 126.604 20.3776H128.869V18.194H126.982C126.562 18.194 126.248 18.088 126.038 17.876C125.828 17.664 125.724 17.3461 125.724 16.9221V11.9613H128.869V9.77776H125.724L125.724 6.36453Z" fill="white"/>
<path d="M138.244 10.1594C137.433 9.67913 136.518 9.43859 135.497 9.43859C134.477 9.43859 133.558 9.67911 132.74 10.1594C131.922 10.64 131.286 11.3078 130.832 12.1627C130.378 13.0181 130.151 13.9896 130.151 15.0777C130.151 16.1662 130.378 17.1378 130.832 17.9927C131.286 18.848 131.922 19.5158 132.74 19.996C133.558 20.4764 134.477 20.7168 135.497 20.7168C136.532 20.7168 137.451 20.4764 138.255 19.996C139.058 19.5158 139.687 18.8512 140.142 18.0033C140.596 17.1553 140.823 16.1873 140.823 15.0989C140.823 13.9965 140.596 13.0181 140.142 12.1627C139.687 11.3078 139.055 10.64 138.244 10.1594ZM137.919 16.9009C137.689 17.4239 137.363 17.8268 136.944 18.1093C136.525 18.3922 136.043 18.5333 135.497 18.5333C134.952 18.5333 134.47 18.3922 134.051 18.1093C133.631 17.8268 133.306 17.4239 133.076 16.9009C132.845 16.3782 132.73 15.7704 132.73 15.0777C132.73 14.3994 132.845 13.7988 133.076 13.2758C133.306 12.7531 133.631 12.3467 134.051 12.0568C134.47 11.7673 134.952 11.6222 135.497 11.6222C136.056 11.6222 136.542 11.7673 136.954 12.0568C137.367 12.3467 137.688 12.7531 137.919 13.2758C138.15 13.7988 138.265 14.4066 138.265 15.099C138.265 15.7774 138.15 16.3782 137.919 16.9009Z" fill="white"/>
<path d="M146.139 10.3925C145.753 10.7897 145.457 11.3637 145.248 12.112V9.77774H142.732V20.3775H145.248V15.862C145.248 14.9292 145.332 14.1803 145.499 13.6149C145.667 13.0498 145.936 12.6327 146.307 12.364C146.677 12.0957 147.17 11.9613 147.785 11.9613H149.504V9.77774H147.575C147.016 9.77774 146.537 9.98272 146.139 10.3925Z" fill="white"/>
<path d="M158.73 9.77774L155.505 17.2611L152.544 9.77774H149.965L154.159 20.3775H154.162L152.335 24.6175H154.956L161.351 9.77774H158.73Z" fill="white"/>
<path d="M95.5044 35.9519C94.8891 35.6412 94.0855 35.302 93.0932 34.9343C92.3383 34.6518 91.7406 34.4116 91.3003 34.2135C90.8601 34.0158 90.4963 33.7651 90.2101 33.4609C89.9234 33.1571 89.7801 32.7932 89.7801 32.3692C89.7801 31.818 90.0036 31.3728 90.4512 31.0336C90.8983 30.6944 91.4505 30.5247 92.1076 30.5247C92.5407 30.5247 92.9495 30.6096 93.3342 30.7792C93.7184 30.9488 94.0366 31.1926 94.2882 31.5106C94.5399 31.8285 94.7004 32.2068 94.7704 32.6447L97.3495 32.4328C97.2795 31.5848 96.9964 30.8501 96.5004 30.228C96.004 29.6063 95.3713 29.1362 94.6028 28.8182C93.8339 28.5003 93.0092 28.3412 92.1287 28.3412C91.1919 28.3412 90.3496 28.5181 89.602 28.8712C88.854 29.2246 88.2633 29.7229 87.8302 30.3658C87.3967 31.009 87.1802 31.7474 87.1802 32.5811C87.1802 33.4434 87.4004 34.1499 87.8407 34.7011C88.2811 35.2523 88.8085 35.6799 89.4238 35.9837C90.0387 36.2878 90.8354 36.6091 91.8141 36.9483C92.5968 37.2312 93.2048 37.4713 93.6383 37.6691C94.0714 37.8672 94.435 38.1249 94.7286 38.4429C95.022 38.7609 95.169 39.1461 95.169 39.5982C95.169 40.0222 95.0326 40.3933 94.7601 40.7112C94.4875 41.0292 94.1379 41.2698 93.7117 41.432C93.285 41.5947 92.8415 41.6759 92.3803 41.6759C91.7092 41.6759 91.1116 41.5135 90.5874 41.1883C90.0632 40.8633 89.6612 40.4144 89.3818 39.8421C89.102 39.2696 88.9625 38.6304 88.9625 37.9235L86.3625 38.1355C86.3625 39.2521 86.6175 40.2449 87.1278 41.1141C87.638 41.9832 88.344 42.6583 89.2456 43.1386C90.1472 43.6189 91.1569 43.8594 92.2754 43.8594C93.2956 43.8594 94.2254 43.6613 95.0641 43.2658C95.9028 42.8703 96.5597 42.3261 97.035 41.6334C97.5101 40.9411 97.7478 40.1707 97.7478 39.3227C97.7478 38.4889 97.5277 37.7963 97.0875 37.2452C96.6471 36.694 96.1193 36.2629 95.5044 35.9519Z" fill="white"/>
<path d="M107.119 33.302C106.35 32.8218 105.469 32.5812 104.477 32.5812C103.484 32.5812 102.597 32.8218 101.814 33.302C101.031 33.7827 100.42 34.4505 99.9794 35.3054C99.539 36.1607 99.3188 37.1253 99.3188 38.1992C99.3188 39.3158 99.5496 40.3015 100.011 41.1565C100.472 42.0118 101.118 42.676 101.95 43.1493C102.782 43.6227 103.736 43.8594 104.812 43.8594C106.084 43.8594 107.15 43.5448 108.01 42.9161C108.87 42.2874 109.383 41.457 109.551 40.4252L106.993 40.2131C106.839 40.6656 106.56 41.0223 106.154 41.2837C105.749 41.5454 105.26 41.6759 104.687 41.6759C104.142 41.6759 103.662 41.5593 103.25 41.3261C102.838 41.0929 102.513 40.7749 102.275 40.3721C102.038 39.9694 101.919 39.4997 101.919 38.9624H109.572V38.2628C109.572 37.1604 109.355 36.1783 108.922 35.3161C108.489 34.4542 107.887 33.7827 107.119 33.302ZM101.919 37.0332C101.919 36.5811 102.024 36.1852 102.233 35.846C102.443 35.5068 102.74 35.2418 103.124 35.0511C103.509 34.8602 103.953 34.7649 104.456 34.7649C104.945 34.7649 105.379 34.8603 105.756 35.0511C106.133 35.2418 106.43 35.5104 106.647 35.8566C106.864 36.2031 106.972 36.5953 106.972 37.0332H101.919Z" fill="white"/>
<path d="M119.259 33.302C118.448 32.8218 117.533 32.5812 116.513 32.5812C115.492 32.5812 114.573 32.8218 113.755 33.302C112.938 33.7827 112.301 34.4505 111.847 35.3054C111.393 36.1607 111.166 37.1323 111.166 38.2203C111.166 39.3089 111.393 40.2804 111.847 41.1353C112.301 41.9906 112.938 42.6584 113.755 43.1387C114.573 43.619 115.492 43.8594 116.513 43.8594C117.547 43.8594 118.466 43.619 119.27 43.1387C120.073 42.6584 120.703 41.9939 121.157 41.146C121.611 40.298 121.838 39.33 121.838 38.2416C121.838 37.1391 121.611 36.1607 121.157 35.3054C120.703 34.4505 120.07 33.7826 119.259 33.302ZM118.934 40.0436C118.704 40.5665 118.379 40.9694 117.959 41.2519C117.54 41.5348 117.058 41.6759 116.513 41.6759C115.967 41.6759 115.485 41.5348 115.066 41.2519C114.646 40.9694 114.321 40.5665 114.091 40.0436C113.86 39.5208 113.745 38.913 113.745 38.2203C113.745 37.542 113.86 36.9415 114.091 36.4184C114.321 35.8957 114.646 35.4893 115.066 35.1994C115.485 34.9099 115.967 34.7649 116.513 34.7649C117.072 34.7649 117.557 34.9099 117.97 35.1994C118.382 35.4893 118.704 35.8957 118.934 36.4184C119.165 36.9415 119.28 37.5493 119.28 38.2416C119.28 38.92 119.165 39.5208 118.934 40.0436Z" fill="white"/>
<path d="M131.665 33.1112C131.147 32.7582 130.525 32.5812 129.798 32.5812C129.03 32.5812 128.352 32.772 127.765 33.1537C127.178 33.5352 126.72 34.0653 126.391 34.7436C126.388 34.7512 126.385 34.7592 126.381 34.7669V32.9205H123.865V43.5203H126.381V38.3688C126.381 37.2806 126.611 36.4078 127.073 35.7506C127.534 35.0934 128.149 34.7648 128.918 34.7648C129.491 34.7648 129.938 34.9735 130.26 35.3902C130.581 35.8072 130.742 36.3833 130.742 37.118V43.5203H133.258V37.0332C133.258 36.1004 133.122 35.3021 132.849 34.6376C132.577 33.9734 132.181 33.4647 131.665 33.1112Z" fill="white"/>
<path d="M143.406 34.9152C143.385 34.8686 143.366 34.8211 143.343 34.7754C143.008 34.0901 142.533 33.5531 141.917 33.1642C141.302 32.7757 140.603 32.5812 139.821 32.5812C138.94 32.5812 138.157 32.8181 137.472 33.2915C136.787 33.7652 136.253 34.4256 135.868 35.2736C135.484 36.1216 135.292 37.0968 135.292 38.1992C135.292 39.3015 135.487 40.2804 135.879 41.1353C136.27 41.9906 136.812 42.6584 137.504 43.1387C138.196 43.619 138.982 43.8594 139.863 43.8594C140.631 43.8594 141.32 43.6687 141.928 43.2871C142.536 42.9055 143.008 42.3685 143.343 41.6759C143.366 41.6298 143.385 41.5819 143.406 41.5348V43.0963C143.406 43.93 143.141 44.6085 142.609 45.1314C142.078 45.6542 141.393 45.9158 140.555 45.9158C139.967 45.9158 139.478 45.7886 139.087 45.5342C138.695 45.2799 138.458 44.9334 138.374 44.4955L135.627 44.7074C135.641 45.3716 135.847 45.9582 136.246 46.467C136.644 46.9758 137.203 47.375 137.923 47.6648C138.643 47.9543 139.457 48.0994 140.366 48.0994C141.47 48.0994 142.445 47.8732 143.291 47.421C144.137 46.9685 144.787 46.3293 145.241 45.5024C145.695 44.6757 145.922 43.718 145.922 42.6299V32.9205H143.406V34.9152ZM143.039 40.0223C142.809 40.5454 142.487 40.9518 142.075 41.2413C141.662 41.5312 141.184 41.6759 140.639 41.6759C140.093 41.6759 139.611 41.5312 139.192 41.2413C138.772 40.9518 138.447 40.5454 138.217 40.0223C137.986 39.4997 137.871 38.8988 137.871 38.2203C137.871 37.542 137.986 36.9414 138.217 36.4184C138.447 35.8957 138.772 35.4893 139.192 35.1994C139.611 34.9099 140.093 34.7648 140.639 34.7648C141.184 34.7648 141.662 34.9099 142.075 35.1994C142.487 35.4893 142.809 35.8957 143.039 36.4184C143.27 36.9414 143.385 37.542 143.385 38.2203C143.385 38.8988 143.27 39.4997 143.039 40.0223Z" fill="white"/>
<path d="M155.585 37.5631C155.019 37.3654 154.288 37.1816 153.394 37.0119C152.835 36.899 152.398 36.8 152.084 36.7151C151.769 36.6304 151.507 36.5137 151.297 36.3654C151.088 36.2169 150.983 36.0156 150.983 35.7612C150.983 35.4505 151.143 35.2067 151.465 35.0298C151.787 34.8532 152.22 34.7648 152.765 34.7648C153.366 34.7648 153.838 34.878 154.18 35.104C154.523 35.3303 154.708 35.6552 154.736 36.0792L157.231 35.8671C157.217 35.2031 157.022 34.6237 156.644 34.1288C156.267 33.6343 155.746 33.2526 155.082 32.9841C154.418 32.7158 153.646 32.5812 152.765 32.5812C151.912 32.5812 151.157 32.7051 150.501 32.9523C149.843 33.1997 149.33 33.5707 148.959 34.0653C148.589 34.5601 148.404 35.1607 148.404 35.8671C148.404 36.6304 148.603 37.2207 149.001 37.6373C149.4 38.0544 149.875 38.3581 150.427 38.5489C150.979 38.7397 151.696 38.913 152.576 39.0683C153.163 39.1816 153.621 39.2804 153.95 39.3651C154.278 39.4499 154.551 39.5772 154.768 39.7467C154.984 39.9163 155.092 40.1426 155.092 40.4252C155.092 40.8067 154.9 41.1108 154.516 41.3367C154.131 41.5629 153.625 41.6759 152.996 41.6759C152.478 41.6759 152.024 41.5984 151.633 41.4427C151.241 41.2873 150.937 41.0684 150.721 40.7855C150.504 40.503 150.382 40.1637 150.354 39.7679L147.88 39.9799C147.893 40.7573 148.117 41.4357 148.551 42.0151C148.984 42.5948 149.585 43.0469 150.354 43.3718C151.122 43.6968 152.003 43.8594 152.996 43.8594C153.946 43.8594 154.774 43.7144 155.48 43.4248C156.186 43.1353 156.728 42.7253 157.105 42.1953C157.483 41.6652 157.671 41.0472 157.671 40.3403C157.671 39.5771 157.465 38.9729 157.053 38.5278C156.64 38.0825 156.151 37.7612 155.585 37.5631Z" fill="white"/>
<path d="M166.416 32.9204V38.0719C166.416 39.1604 166.185 40.0329 165.724 40.6901C165.263 41.3473 164.655 41.6759 163.9 41.6759C163.313 41.6759 162.859 41.4675 162.537 41.0505C162.215 40.6337 162.055 40.0577 162.055 39.3227V32.9204H159.539V39.4075C159.539 40.3403 159.675 41.1389 159.948 41.8031C160.22 42.4675 160.615 42.9763 161.132 43.3294C161.649 43.6825 162.272 43.8594 162.998 43.8594C163.767 43.8594 164.445 43.6686 165.032 43.287C165.619 42.9054 166.077 42.3754 166.406 41.697C166.409 41.6892 166.412 41.6811 166.416 41.6733V43.5202H168.932V32.9204L166.416 32.9204Z" fill="white"/>
<path d="M169.999 51.3722H86.4736V54.6598H169.999V51.3722Z" fill="white"/>
</g>
<defs>
<clipPath id="clip0_2281_17299">
<rect width="140" height="50" fill="white" transform="translate(30 5)"/>
</clipPath>
</defs>
</svg>
