<svg xmlns="http://www.w3.org/2000/svg" width="57.284" height="40.179" viewBox="0 0 57.284 40.179">
    <g data-name="그룹 23777">
        <g data-name="그룹 21446">
            <path data-name="빼기 345" d="M28.238 27.454a.9.9 0 0 1-.173-.015L28 27.43a3.1 3.1 0 0 1-1-.343l-11.419-6.616L34.827.937 9.232 16.564l-.014.221L.35 11.647a.73.73 0 0 1-.278-.941c.126-.347.613-.515.894-.583h.007l.009-.006L34.169.04a1.377 1.377 0 0 1 .324-.04.92.92 0 0 1 .77.342 1.4 1.4 0 0 1 .04.887l-.007.051c-.012.09-.024.185-.033.279L29.127 26.97a.9.9 0 0 1-.889.484z" style="fill:#4749fb;opacity:.2" transform="translate(21.71 .171)"/>
            <path data-name="패스 17351" d="m9359.106 2125.757-25.595 15.63-.436 7.267s-.36 3.868 2.422 1.55a19.867 19.867 0 0 0 4.166-4.712z" transform="translate(-9302.569 -2124.65)" style="fill:#3436be;opacity:.3"/>
        </g>
        <path data-name="패스 17352" d="M0 10.123a12.054 12.054 0 0 0 9.813.812s6.461-5.749 4.327-9.266S5.376.526 7.347 5.725 18.754 12.842 24.1 8.781" transform="rotate(-20.97 76.59 10.589)" style="fill:none;stroke:#4749fb;stroke-linecap:round;stroke-width:1.5px;stroke-dasharray:2 3;opacity:.25"/>
    </g>
</svg>
