<svg width="658" height="40" viewBox="0 0 658 40" fill="none" xmlns="http://www.w3.org/2000/svg">
<path fill-rule="evenodd" clip-rule="evenodd" d="M18.1909 16.1116C15.2526 13.1733 10.476 13.1733 7.53778 16.1116L2.2037 21.4457C-0.734566 24.3839 -0.734566 29.1605 2.2037 32.0988C5.14196 35.037 9.91852 35.037 12.8568 32.0988L16.0512 28.9044L17.121 27.8345L14.9964 25.71L13.9266 26.7798L10.7322 29.9742C8.96924 31.7371 6.10631 31.7371 4.34336 29.9742C2.5804 28.2112 2.5804 25.3483 4.34336 23.5854L9.67743 18.2513C11.4404 16.4883 14.3033 16.4883 16.0663 18.2513L17.1361 19.3211L19.2607 17.1814L18.1909 16.1116ZM27.7892 6.51327C24.8509 3.575 20.0744 3.575 17.1361 6.51327L13.9417 9.70768L12.8719 10.7775L14.9964 12.9172L16.0663 11.8474L19.2607 8.65295C21.0236 6.88999 23.8866 6.88999 25.6495 8.65295C27.4125 10.4159 27.4125 13.2788 25.6495 15.0418L20.3155 20.3759C18.5525 22.1388 15.6896 22.1388 13.9266 20.3759L12.8568 19.306L10.7171 21.4306L11.787 22.5005C14.7252 25.4387 19.5018 25.4387 22.44 22.5005L27.7741 17.1664C30.7124 14.2281 30.7124 9.45153 27.7741 6.51327H27.7892Z" fill="white"/>
<path d="M118.337 9.05127H91.2144V12.0649H118.337V9.05127ZM108.98 25.0234L119.527 11.4923L117.146 9.63894L106.599 23.17L108.98 25.0234ZM109.296 31.6533V24.0892H106.282V31.6533H109.296ZM100.255 24.1193V37.6805H103.269V24.1193H100.255ZM90.024 11.4772L100.572 25.0384L102.952 23.1851L92.4048 9.62386L90.024 11.4772ZM118.337 10.5581L119.527 11.4923L121.426 9.05127H118.337V10.5581ZM107.789 24.0892L106.599 23.1549L106.282 23.5618V24.0741H107.789V24.0892ZM106.282 31.6533V33.1601H109.296V31.6533H106.282ZM100.255 37.6805V39.1873H103.269V37.6805H100.255ZM101.762 24.1193H103.269V23.607L102.952 23.2002L101.762 24.1193ZM91.2144 10.5581V9.05127H88.1255L90.024 11.4772L91.2144 10.5581Z" fill="white"/>
<path d="M187.028 19.3522V14.8318H184.015V19.3522H187.028ZM194.562 26.9013C190.403 26.9013 187.028 23.5412 187.028 19.3522H184.015C184.015 25.1986 188.731 29.9149 194.562 29.9149V26.9013ZM202.096 19.3673C202.096 23.5261 198.721 26.9013 194.562 26.9013V29.9149C200.379 29.9149 205.11 25.1987 205.11 19.3673H202.096ZM202.096 14.8921V19.3824H205.11V14.8921H202.096ZM191.549 10.3265C191.549 8.66904 192.89 7.31292 194.562 7.31292V4.29932C191.232 4.29932 188.535 6.99649 188.535 10.3265H191.549ZM191.549 19.3673V10.3265H188.535V19.3673H191.549ZM194.562 22.3809C192.89 22.3809 191.549 21.0399 191.549 19.3673H188.535C188.535 22.6974 191.232 25.3945 194.562 25.3945V22.3809ZM197.576 19.3673C197.576 21.0399 196.22 22.3809 194.562 22.3809V25.3945C197.892 25.3945 200.589 22.6974 200.589 19.3673H197.576ZM197.576 10.3265V19.3673H200.589V10.3265H197.576ZM194.562 7.31292C196.22 7.31292 197.576 8.66904 197.576 10.3265H200.589C200.589 6.99649 197.892 4.29932 194.562 4.29932V7.31292ZM196.069 35.9421V28.4081H193.055V35.9421H196.069ZM187.028 37.4489H202.096V34.4353H187.028V37.4489ZM187.028 14.8469V13.3401H184.015V14.8469H187.028ZM205.11 14.8921V13.3853H202.096V14.8921H205.11ZM193.055 35.9421V37.4489H196.069V35.9421H193.055ZM202.096 37.4489H203.603V34.4353H202.096V37.4489ZM187.028 34.4353H185.521V37.4489H187.028V34.4353Z" fill="white"/>
<path d="M291.59 22.4062L275.316 8.84496L273.387 11.1654L289.661 24.7266L291.59 22.4062ZM283.453 31.5072L291.59 24.7266L289.661 22.4062L281.524 29.1868L283.453 31.5072ZM280.982 3.22458V30.347H283.995V3.22458H280.982ZM291.59 8.84496L283.453 2.06436L281.524 4.3848L289.661 11.1654L291.59 8.84496ZM275.316 24.7266L291.59 11.1654L289.661 8.84496L273.387 22.4062L275.316 24.7266ZM275.316 8.84496L274.156 7.88059L272.227 10.2011L273.387 11.1654L275.316 8.84496ZM290.625 23.5664L291.59 24.7266L292.976 23.5664L291.59 22.4062L290.625 23.5664ZM282.488 30.347H280.982V33.5716L283.453 31.5072L282.488 30.347ZM282.488 3.22458L283.453 2.06436L280.982 0V3.20949H282.488V3.22458ZM290.625 10.0052L291.59 11.1654L292.976 10.0052L291.59 8.84496L290.625 10.0052ZM273.387 22.4062L272.227 23.3705L274.156 25.691L275.316 24.7266L273.387 22.4062Z" fill="white"/>
<path d="M375.33 27.0551L385.244 36.8795L387.369 34.7398L377.454 24.9155L375.33 27.0551ZM369.679 30.5208C372.602 30.355 375.36 29.1195 377.439 27.0702L375.315 24.9306C373.747 26.4675 371.683 27.4017 369.498 27.5223L369.679 30.5359V30.5208ZM361.572 27.9894C363.878 29.7825 366.771 30.6865 369.694 30.5057L369.513 27.4921C367.328 27.6277 365.159 26.9497 363.426 25.5936L361.572 27.9743V27.9894ZM357.143 20.7417C357.685 23.6196 359.267 26.1963 361.572 27.9894L363.426 25.6086C361.693 24.2525 360.518 22.3238 360.096 20.1691L357.143 20.7417ZM358.589 12.3638C357.112 14.8802 356.585 17.8637 357.143 20.7417L360.096 20.1691C359.689 18.0143 360.066 15.7843 361.181 13.8857L358.589 12.3488V12.3638ZM365.204 7.02976C362.431 7.94891 360.081 9.84748 358.589 12.3638L361.181 13.9008C362.296 12.0022 364.059 10.5858 366.138 9.89268L365.189 7.02976H365.204ZM373.687 7.39139C370.99 6.24622 367.976 6.12568 365.204 7.04483L366.153 9.90775C368.233 9.21462 370.508 9.3201 372.527 10.1639L373.702 7.39139H373.687ZM379.835 13.2528C378.569 10.6159 376.384 8.53656 373.687 7.39139L372.512 10.1639C374.531 11.0228 376.173 12.5899 377.123 14.5638L379.835 13.2528ZM380.588 21.7211C381.372 18.9034 381.101 15.8898 379.835 13.2528L377.123 14.5638C378.072 16.5377 378.268 18.7979 377.68 20.9074L380.588 21.7211ZM376.384 25.9853L377.439 24.9155L376.384 23.8607L375.33 24.9004L376.384 25.9703V25.9853Z" fill="white"/>
<path fill-rule="evenodd" clip-rule="evenodd" d="M455.307 31.8642C456.136 31.8642 456.814 31.1861 456.814 30.3574C456.814 29.5287 456.136 28.8506 455.307 28.8506C454.478 28.8506 453.8 29.5287 453.8 30.3574C453.8 31.1861 454.478 31.8642 455.307 31.8642ZM464.348 22.8234C465.177 22.8234 465.855 22.1453 465.855 21.3166C465.855 20.4878 465.177 19.8098 464.348 19.8098C463.519 19.8098 462.841 20.4878 462.841 21.3166C462.841 22.1453 463.519 22.8234 464.348 22.8234ZM473.389 13.7826C474.217 13.7826 474.895 13.1045 474.895 12.2758C474.895 11.447 474.217 10.769 473.389 10.769C472.56 10.769 471.882 11.447 471.882 12.2758C471.882 13.1045 472.56 13.7826 473.389 13.7826ZM469.124 13.7675C469.049 13.7675 468.959 13.7826 468.883 13.7826H450.802V10.769H468.883C468.974 10.769 469.049 10.769 469.124 10.7841C469.742 9.0211 471.415 7.75537 473.389 7.75537C475.89 7.75537 477.909 9.77449 477.909 12.2758C477.909 14.7771 475.89 16.7962 473.389 16.7962C471.415 16.7962 469.727 15.5305 469.124 13.7675ZM460.084 22.8234H450.787V19.8098H460.084C460.701 18.0619 462.374 16.7962 464.348 16.7962C466.322 16.7962 467.994 18.0619 468.612 19.8098H477.909V22.8234H468.612C467.994 24.5863 466.322 25.837 464.348 25.837C462.374 25.837 460.701 24.5863 460.084 22.8234ZM459.571 28.8506H477.909V31.8642H459.571C458.953 33.6272 457.281 34.8778 455.307 34.8778C452.806 34.8778 450.787 32.8587 450.787 30.3574C450.787 27.8561 452.806 25.837 455.307 25.837C457.281 25.837 458.953 27.1027 459.571 28.8506Z" fill="white"/>
<path d="M563.89 9.3774C561.706 12.165 560.892 14.4855 561.148 16.6251C561.404 18.6894 562.64 20.2414 563.574 21.4468C564.584 22.7578 565.337 23.7673 565.563 25.033C565.774 26.2234 565.548 27.9261 563.815 30.5931L566.347 32.2355C568.32 29.1918 568.923 26.7056 568.531 24.5207C568.17 22.4112 566.904 20.8291 565.97 19.6085C564.945 18.2826 564.282 17.3634 564.147 16.2634C564.026 15.2388 564.327 13.717 566.271 11.2307L563.89 9.3774ZM554.85 9.3774C552.665 12.165 551.851 14.4855 552.107 16.6251C552.363 18.6894 553.599 20.2414 554.533 21.4468C555.543 22.7578 556.296 23.7673 556.522 25.033C556.733 26.2234 556.507 27.9261 554.774 30.5931L557.306 32.2355C559.28 29.1918 559.882 26.7056 559.491 24.5207C559.129 22.4112 557.863 20.8291 556.929 19.6085C555.904 18.2826 555.241 17.3634 555.106 16.2634C554.985 15.2388 555.287 13.717 557.23 11.2307L554.85 9.3774ZM545.809 9.3774C543.624 12.165 542.81 14.4855 543.066 16.6251C543.323 18.6894 544.558 20.2414 545.492 21.4468C546.502 22.7578 547.255 23.7673 547.481 25.033C547.692 26.2234 547.466 27.9261 545.734 30.5931L548.265 32.2355C550.239 29.1918 550.842 26.7056 550.45 24.5207C550.088 22.4112 548.822 20.8291 547.888 19.6085C546.864 18.2826 546.201 17.3634 546.065 16.2634C545.944 15.2388 546.246 13.717 548.19 11.2307L545.809 9.3774ZM563.815 30.5781L563.001 31.8438L565.533 33.4862L566.347 32.2205L563.815 30.5781ZM566.271 11.2307L567.19 10.0403L564.81 8.18701L563.89 9.3774L566.271 11.2307ZM554.774 30.5781L553.961 31.8438L556.492 33.4862L557.306 32.2205L554.774 30.5781ZM557.23 11.2307L558.15 10.0403L555.769 8.18701L554.85 9.3774L557.23 11.2307ZM545.734 30.5781L544.92 31.8438L547.451 33.4862L548.265 32.2205L545.734 30.5781ZM548.19 11.2307L549.109 10.0403L546.728 8.18701L545.809 9.3774L548.19 11.2307Z" fill="white"/>
<path d="M657.791 17.6399C657.791 22.6274 653.738 26.6807 648.75 26.6807V23.6671C652.08 23.6671 654.778 20.9699 654.778 17.6399H657.791ZM657.791 13.1195V17.6399H654.778V13.1195H657.791ZM641.216 11.6127H656.284V14.6263H641.216V11.6127ZM639.709 17.6399V17.6097V17.5796V17.5495V17.5193V17.4892V17.4591V17.4289V17.3988V17.3686V17.3385V17.3084V17.2782V17.2481V17.218V17.1878V17.1577V17.1276V17.0974V17.0673V17.0372V17.007V16.9769V16.9467V16.9166V16.8865V16.8563V16.8262V16.7961V16.7659V16.7358V16.7057V16.6755V16.6454V16.6152V16.5851V16.555V16.5248V16.4947V16.4646V16.4344V16.4043V16.3742V16.344V16.3139V16.2837V16.2536V16.2235V16.1933V16.1632V16.1331V16.1029V16.0728V16.0427V16.0125V15.9824V15.9523V15.9221V15.892V15.8618V15.8317V15.8016V15.7714V15.7413V15.7112V15.681V15.6509V15.6208V15.5906V15.5605V15.5303V15.5002V15.4701V15.4399V15.4098V15.3797V15.3495V15.3194V15.2893V15.2591V15.229V15.1989V15.1687V15.1386V15.1084V15.0783V15.0482V15.018V14.9879V14.9578V14.9276V14.8975V14.8674V14.8372V14.8071V14.7769V14.7468V14.7167V14.6865V14.6564V14.6263V14.5961V14.566V14.5359V14.5057V14.4756V14.4454V14.4153V14.3852V14.355V14.3249V14.2948V14.2646V14.2345V14.2044V14.1742V14.1441V14.114V14.0838V14.0537V14.0235V13.9934V13.9633V13.9331V13.903V13.8729V13.8427V13.8126V13.7825V13.7523V13.7222V13.692V13.6619V13.6318V13.6016V13.5715V13.5414V13.5112V13.4811V13.451V13.4208V13.3907V13.3606V13.3304V13.3003V13.2701V13.24V13.2099V13.1797V13.1496V13.1195V13.0893V13.0592V13.0291V12.9989V12.9688V12.9386V12.9085V12.8784V12.8482V12.8181V12.788V12.7578V12.7277V12.6976C639.709 12.6976 639.709 12.6976 641.216 12.6976H642.723V12.7277V12.7578V12.788V12.8181V12.8482V12.8784V12.9085V12.9386V12.9688V12.9989V13.0291V13.0592V13.0893V13.1195V13.1496V13.1797V13.2099V13.24V13.2701V13.3003V13.3304V13.3606V13.3907V13.4208V13.451V13.4811V13.5112V13.5414V13.5715V13.6016V13.6318V13.6619V13.692V13.7222V13.7523V13.7825V13.8126V13.8427V13.8729V13.903V13.9331V13.9633V13.9934V14.0235V14.0537V14.0838V14.114V14.1441V14.1742V14.2044V14.2345V14.2646V14.2948V14.3249V14.355V14.3852V14.4153V14.4454V14.4756V14.5057V14.5359V14.566V14.5961V14.6263V14.6564V14.6865V14.7167V14.7468V14.7769V14.8071V14.8372V14.8674V14.8975V14.9276V14.9578V14.9879V15.018V15.0482V15.0783V15.1084V15.1386V15.1687V15.1989V15.229V15.2591V15.2893V15.3194V15.3495V15.3797V15.4098V15.4399V15.4701V15.5002V15.5303V15.5605V15.5906V15.6208V15.6509V15.681V15.7112V15.7413V15.7714V15.8016V15.8317V15.8618V15.892V15.9221V15.9523V15.9824V16.0125V16.0427V16.0728V16.1029V16.1331V16.1632V16.1933V16.2235V16.2536V16.2837V16.3139V16.344V16.3742V16.4043V16.4344V16.4646V16.4947V16.5248V16.555V16.5851V16.6152V16.6454V16.6755V16.7057V16.7358V16.7659V16.7961V16.8262V16.8563V16.8865V16.9166V16.9467V16.9769V17.007V17.0372V17.0673V17.0974V17.1276V17.1577V17.1878V17.218V17.2481V17.2782V17.3084V17.3385V17.3686V17.3988V17.4289V17.4591V17.4892V17.5193V17.5495V17.5796V17.6097V17.6399L639.709 17.6549V17.6399ZM648.75 26.6807C643.763 26.6807 639.709 22.6274 639.709 17.6399H642.723C642.723 20.9699 645.42 23.6671 648.75 23.6671V26.6807ZM646.58 33.9585C643.883 35.7516 641.156 35.7215 638.218 35.7215V32.7079C641.292 32.7079 643.085 32.6778 644.908 31.4573L646.58 33.9585ZM650.257 25.1739C650.257 27.4793 650.076 29.2272 649.489 30.6586C648.856 32.1504 647.861 33.1147 646.58 33.9736L644.908 31.4723C645.887 30.8093 646.385 30.2669 646.701 29.5135C647.048 28.6697 647.244 27.419 647.244 25.189H650.257V25.1739ZM644.23 13.1195V7.09225H647.244V13.1195H644.23ZM650.257 13.1195V7.09225H653.271V13.1195H650.257ZM656.284 13.1195V11.6127H657.791V13.1195H656.284ZM641.216 13.1195H639.709V11.6127H641.216V13.1195ZM644.23 7.09225V5.58545H647.244V7.09225H644.23ZM650.257 7.09225V5.58545H653.271V7.09225H650.257Z" fill="white"/>
</svg>
