<svg width="311" height="16" viewBox="0 0 311 16" fill="none" xmlns="http://www.w3.org/2000/svg">
<path d="M5.65051 1.46583V7.82265H7.06313V1.46583H5.65051ZM12.7136 8.52897C12.7136 6.17694 11.4352 4.12159 9.54229 3.0268L8.83598 4.24871C10.3122 5.10335 11.3081 6.69962 11.3081 8.52897H12.7207H12.7136ZM6.35682 14.8858C9.8672 14.8858 12.7136 12.0393 12.7136 8.52897H11.301C11.301 11.2624 9.09025 13.4732 6.35682 13.4732V14.8858ZM0 8.52897C0 12.0393 2.84644 14.8858 6.35682 14.8858V13.4732C3.62339 13.4732 1.41263 11.2624 1.41263 8.52897H0ZM3.21372 3.00559C1.29962 4.10038 0 6.16282 0 8.52897H1.41263C1.41263 6.69255 2.41559 5.08214 3.91298 4.2275L3.21372 2.99852V3.00559ZM5.65051 7.82265V8.52897H7.06313V7.82265H5.65051ZM7.06313 1.46583V0.759521H5.65051V1.46583H7.06313ZM9.54229 3.0268L8.9278 2.67365L8.22149 3.89555L8.82891 4.24871L9.53523 3.0268H9.54229ZM3.91298 4.23457L4.52747 3.88848L3.82822 2.65951L3.21372 3.01266L3.91298 4.24164V4.23457Z" fill="white"/>
<path d="M47.5579 4.0547V12.5305H48.9706V4.0547H47.5579ZM50.8705 6.13833L55.1084 7.55095L55.5534 6.20896L51.3155 4.79633L50.8705 6.13833ZM50.8705 8.96358L55.1084 10.3762L55.5534 9.03421L51.3155 7.62158L50.8705 8.96358ZM50.8705 11.7888L55.1084 13.2015L55.5534 11.8595L51.3155 10.4468L50.8705 11.7888ZM48.2643 3.34839C45.8699 3.34839 43.9911 3.89931 42.6985 4.79633C41.3989 5.69335 40.6714 6.95765 40.6714 8.29258C40.6714 9.62751 41.3989 10.8848 42.6985 11.7888C43.9911 12.6859 45.8699 13.2368 48.2643 13.2368V11.8241C46.0676 11.8241 44.4996 11.3156 43.5037 10.6234C42.5078 9.93123 42.084 9.07659 42.084 8.29258C42.084 7.50857 42.5078 6.64687 43.5037 5.96175C44.5067 5.26956 46.0747 4.76102 48.2643 4.76102V3.34839ZM55.1084 7.55095L55.7794 7.77697L56.2244 6.43498L55.5534 6.20896L55.1084 7.55095ZM51.3155 4.79633L50.6445 4.57031L50.1995 5.91231L50.8705 6.13833L51.3155 4.79633ZM55.1084 10.3762L55.7794 10.6022L56.2244 9.26023L55.5534 9.03421L55.1084 10.3762ZM51.3155 7.62158L50.6445 7.39556L50.1995 8.73756L50.8705 8.96358L51.3155 7.62158ZM55.1084 13.2015L55.7794 13.4275L56.2244 12.0855L55.5534 11.8595L55.1084 13.2015ZM51.3155 10.4468L50.6445 10.2208L50.1995 11.5628L50.8705 11.7888L51.3155 10.4468ZM48.2643 12.5305V13.2368H48.9706V12.5305H48.2643ZM48.2643 4.0547H48.9706V3.34839H48.2643V4.0547Z" fill="white"/>
<path d="M84.1784 12.9746H90.5352V11.562H84.1784V12.9746ZM90.5352 12.2683V12.9746H96.8921V11.562H90.5352V12.2683ZM85.591 5.91149C85.591 7.19698 85.5769 7.70555 85.4639 8.05164C85.3721 8.34123 85.2026 8.539 84.5951 9.15349L85.591 10.1494C86.1561 9.58432 86.594 9.15348 86.8059 8.48248C87.0037 7.87505 87.0037 7.0981 87.0037 5.91149H85.591ZM90.5352 0.260986C88.9743 0.260986 87.7029 0.811917 86.8342 1.85726C85.9795 2.88142 85.591 4.3011 85.591 5.91149H87.0037C87.0037 4.50593 87.3498 3.45351 87.9219 2.76132C88.4799 2.09032 89.3274 1.67361 90.5352 1.67361V0.260986ZM95.4794 5.91149C95.4794 4.29403 95.0839 2.88142 94.2363 1.85726C93.3675 0.811917 92.0962 0.260986 90.5352 0.260986V1.67361C91.743 1.67361 92.5906 2.08326 93.1486 2.76132C93.7278 3.45351 94.0668 4.51299 94.0668 5.91149H95.4794ZM95.4794 5.92563V5.91149H94.0668V5.92563H95.4794ZM95.8043 8.12226C95.5571 7.50776 95.4794 6.95685 95.4794 5.92563H94.0668C94.0668 7.03454 94.1445 7.79029 94.4906 8.65199L95.7973 8.12226H95.8043ZM96.4824 9.15349C96.1857 8.85684 95.9668 8.51779 95.8043 8.12226L94.4976 8.65199C94.7237 9.20998 95.0486 9.71146 95.4865 10.1494L96.4824 9.15349ZM96.8921 12.2683L97.5984 12.2401C97.5984 12.2401 97.5984 12.2189 97.5984 12.2118C97.5984 12.1977 97.5984 12.1694 97.5984 12.1412C97.5984 12.0847 97.5913 11.9999 97.5772 11.901C97.556 11.7032 97.5207 11.4278 97.4501 11.1241C97.3229 10.5378 97.0545 9.7256 96.4824 9.14642L95.4865 10.1423C95.769 10.4248 95.9597 10.9122 96.0727 11.4278C96.1292 11.6679 96.1575 11.8869 96.1716 12.0494C96.1787 12.127 96.1857 12.1906 96.1857 12.233C96.1857 12.2542 96.1857 12.2683 96.1857 12.2754V12.2825C96.1857 12.2825 96.1857 12.2824 96.8921 12.2612V12.2683ZM84.5951 9.15349C84.023 9.7256 83.7546 10.5449 83.6275 11.1312C83.5569 11.4349 83.5216 11.7103 83.5004 11.9081C83.4862 12.007 83.4862 12.0917 83.4792 12.1482C83.4792 12.1765 83.4792 12.1977 83.4792 12.2189C83.4792 12.2259 83.4792 12.233 83.4792 12.2401C83.4792 12.2401 83.4792 12.2471 84.1855 12.2754C84.6564 12.2895 84.8918 12.2965 84.8918 12.2965C84.8918 12.2965 84.8918 12.2613 84.8918 12.2401C84.8918 12.1977 84.8989 12.1341 84.9059 12.0564C84.92 11.894 84.9554 11.675 85.0048 11.4349C85.1178 10.9193 85.3085 10.4319 85.591 10.1494L84.5951 9.15349ZM90.0408 14.1824C89.9066 14.0482 89.836 13.8716 89.836 13.6809H88.4234C88.4234 14.2389 88.6494 14.7828 89.0449 15.1783L90.0408 14.1824ZM90.5352 14.3872C90.3516 14.3872 90.168 14.3096 90.0338 14.1824L89.0379 15.1783C89.4334 15.5739 89.9773 15.7999 90.5352 15.7999V14.3872ZM91.0367 14.1824C90.9025 14.3166 90.7259 14.3872 90.5352 14.3872V15.7999C91.1003 15.7999 91.6371 15.5739 92.0326 15.1783L91.0367 14.1824ZM91.2416 13.6809C91.2416 13.8646 91.1709 14.0482 91.0367 14.1824L92.0326 15.1783C92.4282 14.7828 92.6542 14.2389 92.6542 13.6809H91.2416ZM96.8921 12.2683V12.9746H97.6266L97.5984 12.2401L96.8921 12.2683ZM84.1784 12.2683L83.4721 12.2401L83.4438 12.9746H84.1713V12.2683H84.1784Z" fill="white"/>
<path d="M135.335 10.5947V4.94419H133.923V10.5947H135.335ZM132.51 10.5947V3.53157H131.098V10.5947H132.51ZM129.685 10.5947V6.35682H128.272V10.5947H129.685ZM126.153 13.4199V0.706313H124.741V13.4199H126.153ZM138.161 12.7136H125.447V14.1263H138.161V12.7136ZM137.454 0.706313V13.4199H138.867V0.706313H137.454ZM125.447 1.41263H138.161V0H125.447V1.41263ZM125.447 13.4199H124.741V14.1263H125.447V13.4199ZM138.161 13.4199V14.1263H138.867V13.4199H138.161ZM138.161 0.706313H138.867V0H138.161V0.706313ZM125.447 0.706313V0H124.741V0.706313H125.447Z" fill="white"/>
<path d="M178.722 11.4389H168.834V7.90733H178.722V11.4389ZM170.141 4.37576H177.409L178.171 6.57239H169.378L170.141 4.37576ZM178.299 2.96313H169.258C168.551 4.5594 167.994 6.26162 167.421 7.90733C167.421 10.0263 167.421 12.1452 167.421 14.2641H169.54V12.8515H178.016V14.2641H180.135C180.135 12.1452 180.135 10.0263 180.135 7.90733C179.563 6.26162 179.005 4.5594 178.299 2.96313Z" fill="white"/>
<path d="M219.822 4.80918V13.2073L222.648 12.2679V3.86981L219.822 4.80918ZM214.172 3.86981L211.347 4.80918V13.2073L214.172 12.2679V3.86981ZM215.585 12.2679L218.41 13.2073V4.80918L215.585 3.86981V12.2679ZM214.878 2.18171C214.878 2.18171 217.802 3.12112 219.116 3.55903L224.06 1.89917V3.86981C224.06 7.00584 224.06 10.1419 224.06 13.2708C222.429 13.85 220.769 14.3656 219.116 14.8953C219.116 14.8953 216.114 13.9348 214.878 13.518C213.24 14.0619 209.934 15.2485 209.934 15.2485V13.2073C209.934 10.0712 209.934 6.93519 209.934 3.80622C211.573 3.23411 213.226 2.71145 214.878 2.18171Z" fill="white"/>
<path fill-rule="evenodd" clip-rule="evenodd" d="M258.828 9.12576V7.80496L259.888 7.16926L260.947 7.80496V9.12576L259.888 9.76146L258.828 9.12576ZM259.182 5.94735L258.08 6.61129L257.437 6.23696L256.738 3.6236L255.876 3.1221L255.375 3.98382L255.706 5.23397L254.739 4.676L253.771 4.93733L254.033 5.90497L255 6.46295L253.75 6.79494L253.249 7.66369L254.11 8.16518L256.724 7.46594L257.409 7.86147V9.08338L256.724 9.47892L254.11 8.77967L253.249 9.28117L253.75 10.1429L255 10.4748L254.033 11.0328L253.771 12.0005L254.739 12.2618L255.706 11.7038L255.375 12.954L255.876 13.8228L256.738 13.3213L257.437 10.7079L258.08 10.3336L259.182 10.9975V11.7179L257.267 13.632V14.6279H258.263L259.175 13.7168V14.8399L259.881 15.5462L260.587 14.8399V13.7168L261.498 14.6279H262.494V13.632L260.58 11.7179V10.9975L261.682 10.3336L262.325 10.7079L263.024 13.3213L263.886 13.8228L264.387 12.954L264.055 11.7038L265.023 12.2618L265.99 12.0005L265.729 11.0328L264.761 10.4748L266.012 10.1429L266.513 9.28117L265.651 8.77967L263.038 9.47892L262.353 9.08338V7.86147L263.038 7.46594L265.651 8.16518L266.513 7.66369L266.012 6.79494L264.761 6.46295L265.729 5.90497L265.99 4.93733L265.023 4.676L264.055 5.23397L264.387 3.98382L263.886 3.1221L263.024 3.6236L262.325 6.23696L261.682 6.61129L260.58 5.95442V5.23397L262.494 3.31989V2.32396H261.498L260.587 3.23513V2.11207L259.881 1.40576L259.175 2.11207V3.23513L258.263 2.32396H257.267V3.31989L259.182 5.23397V5.95442V5.94735Z" fill="white"/>
<path d="M296.277 7.83884L302.578 14.6477L303.616 13.6871L297.315 6.87827L296.277 7.83884ZM296.899 1.70805C295.076 3.20543 294.787 5.92473 296.235 7.78939L297.351 6.92064C296.362 5.65634 296.567 3.79876 297.796 2.7958L296.899 1.70805ZM302.874 2.38612C301.412 0.50733 298.735 0.196537 296.906 1.70805L297.803 2.7958C299.018 1.7999 300.783 1.99764 301.758 3.25488L302.874 2.38612ZM303.679 3.51621L302.895 2.40729L301.744 3.22664L302.528 4.33556L303.679 3.51621ZM303.277 2.41436L302.514 3.52328L303.679 4.32142L304.442 3.2125L303.277 2.41436ZM309.273 1.70805C307.444 0.196537 304.76 0.50733 303.305 2.38612L304.421 3.25488C305.396 1.99764 307.169 1.7999 308.376 2.7958L309.273 1.70805ZM309.937 7.78939C311.385 5.92473 311.096 3.20543 309.28 1.70805L308.383 2.7958C309.605 3.80583 309.81 5.65634 308.828 6.92064L309.944 7.78939H309.937ZM303.623 14.6477L309.902 7.83181L308.864 6.87827L302.585 13.6871L303.623 14.6477ZM296.8 7.35855L296.242 7.78939L296.263 7.8106L296.284 7.83181L296.8 7.35148V7.35855ZM302.316 2.81696L302.895 2.40729V2.39319L302.874 2.37905L302.316 2.80989V2.81696ZM303.1 3.92588L302.521 4.33556L303.107 5.16193L303.679 4.32849L303.1 3.92588ZM303.863 2.81696L303.305 2.38612L303.291 2.40026L303.277 2.41436L303.856 2.81696H303.863ZM309.379 7.35855L309.895 7.83884L309.916 7.81767L309.937 7.79646L309.379 7.36562V7.35855ZM303.1 14.1674L302.585 14.6477L303.1 15.2057L303.616 14.6406L303.1 14.1604V14.1674Z" fill="white"/>
</svg>
