<svg width="1692" height="57" viewBox="0 0 1692 57" fill="none" xmlns="http://www.w3.org/2000/svg">
<path d="M20.0907 5.21153V27.8136H25.1134V5.21153H20.0907ZM45.204 30.3249C45.204 21.9621 40.6585 14.6542 33.9281 10.7616L31.4168 15.1062C36.6655 18.1449 40.2065 23.8205 40.2065 30.3249H45.2292H45.204ZM22.602 52.9269C35.0834 52.9269 45.204 42.8062 45.204 30.3249H40.1814C40.1814 40.0438 32.3209 47.9042 22.602 47.9042V52.9269ZM0 30.3249C0 42.8062 10.1207 52.9269 22.602 52.9269V47.9042C12.8832 47.9042 5.02267 40.0438 5.02267 30.3249H0ZM11.4266 10.6862C4.62086 14.5788 0 21.9119 0 30.3249H5.02267C5.02267 23.7954 8.58877 18.0695 13.9128 15.0308L11.4266 10.6611V10.6862ZM20.0907 27.8136V30.3249H25.1134V27.8136H20.0907ZM25.1134 5.21153V2.7002H20.0907V5.21153H25.1134ZM33.9281 10.7616L31.7433 9.50597L29.232 13.8505L31.3917 15.1062L33.903 10.7616H33.9281ZM13.9128 15.0559L16.0977 13.8254L13.6114 9.45569L11.4266 10.7114L13.9128 15.0811V15.0559Z" fill="white"/>
<path d="M252.904 14.4166V44.5526H257.927V14.4166H252.904ZM264.682 21.825L279.75 26.8477L281.333 22.0762L266.265 17.0535L264.682 21.825ZM264.682 31.8704L279.75 36.8931L281.333 32.1215L266.265 27.0989L264.682 31.8704ZM264.682 41.9157L279.75 46.9384L281.333 42.1669L266.265 37.1442L264.682 41.9157ZM255.416 11.9053C246.902 11.9053 240.222 13.8641 235.626 17.0535C231.005 20.2429 228.419 24.7382 228.419 29.4846C228.419 34.231 231.005 38.7012 235.626 41.9157C240.222 45.1051 246.902 47.064 255.416 47.064V42.0413C247.605 42.0413 242.03 40.2331 238.489 37.772C234.948 35.3109 233.441 32.2722 233.441 29.4846C233.441 26.697 234.948 23.6332 238.489 21.1972C242.055 18.7361 247.631 16.9279 255.416 16.9279V11.9053ZM279.75 26.8477L282.136 27.6514L283.718 22.8798L281.333 22.0762L279.75 26.8477ZM266.265 17.0535L263.879 16.2499L262.297 21.0214L264.682 21.825L266.265 17.0535ZM279.75 36.8931L282.136 37.6967L283.718 32.9252L281.333 32.1215L279.75 36.8931ZM266.265 27.0989L263.879 26.2952L262.297 31.0668L264.682 31.8704L266.265 27.0989ZM279.75 46.9384L282.136 47.742L283.718 42.9705L281.333 42.1669L279.75 46.9384ZM266.265 37.1442L263.879 36.3406L262.297 41.1121L264.682 41.9157L266.265 37.1442ZM255.416 44.5526V47.064H257.927V44.5526H255.416ZM255.416 14.4166H257.927V11.9053H255.416V14.4166Z" fill="white"/>
<path d="M466.921 46.1318H489.523V41.1091H466.921V46.1318ZM489.523 43.6204V46.1318H512.125V41.1091H489.523V43.6204ZM471.944 21.0184C471.944 25.5891 471.893 27.3973 471.492 28.6278C471.165 29.6575 470.562 30.3607 468.403 32.5455L471.944 36.0864C473.953 34.0774 475.51 32.5455 476.263 30.1597C476.966 28 476.966 25.2375 476.966 21.0184H471.944ZM489.523 0.927734C483.973 0.927734 479.453 2.8866 476.364 6.60338C473.325 10.2448 471.944 15.2926 471.944 21.0184H476.966C476.966 16.0209 478.197 12.2789 480.231 9.81781C482.215 7.43204 485.229 5.95041 489.523 5.95041V0.927734ZM507.102 21.0184C507.102 15.2675 505.696 10.2448 502.682 6.60338C499.593 2.8866 495.073 0.927734 489.523 0.927734V5.95041C493.817 5.95041 496.831 7.40693 498.815 9.81781C500.874 12.2789 502.08 16.046 502.08 21.0184H507.102ZM507.102 21.0687V21.0184H502.08V21.0687H507.102ZM508.258 28.8789C507.379 26.694 507.102 24.7352 507.102 21.0687H502.08C502.08 25.0115 502.356 27.6986 503.587 30.7624L508.232 28.8789H508.258ZM510.668 32.5455C509.614 31.4908 508.835 30.2853 508.258 28.8789L503.612 30.7624C504.415 32.7464 505.57 34.5294 507.128 36.0864L510.668 32.5455ZM512.125 43.6204L514.636 43.52C514.636 43.52 514.636 43.4446 514.636 43.4195C514.636 43.3693 514.636 43.2689 514.636 43.1684C514.636 42.9675 514.611 42.6661 514.561 42.3145C514.486 41.6113 514.36 40.632 514.109 39.5521C513.657 37.4677 512.703 34.5797 510.668 32.5204L507.128 36.0613C508.132 37.0658 508.81 38.7987 509.212 40.6319C509.413 41.4858 509.513 42.2643 509.563 42.8419C509.589 43.1182 509.614 43.3442 509.614 43.4949C509.614 43.5702 509.614 43.6205 509.614 43.6456V43.6707C509.614 43.6707 509.614 43.6706 512.125 43.5953V43.6204ZM468.403 32.5455C466.369 34.5797 465.414 37.4928 464.962 39.5772C464.711 40.6571 464.585 41.6365 464.51 42.3396C464.46 42.6912 464.46 42.9926 464.435 43.1936C464.435 43.294 464.435 43.3693 464.435 43.4446C464.435 43.4697 464.435 43.4949 464.435 43.52C464.435 43.52 464.435 43.5451 466.946 43.6456C468.62 43.6958 469.457 43.7208 469.457 43.7208C469.457 43.7208 469.457 43.5954 469.457 43.52C469.457 43.3694 469.483 43.1433 469.508 42.8671C469.558 42.2895 469.683 41.5109 469.859 40.6571C470.261 38.8238 470.939 37.091 471.944 36.0864L468.403 32.5455ZM487.765 50.4262C487.288 49.9491 487.037 49.3212 487.037 48.6431H482.014C482.014 50.6271 482.818 52.5608 484.224 53.9671L487.765 50.4262ZM489.523 51.1544C488.87 51.1544 488.217 50.8783 487.74 50.4262L484.199 53.9671C485.605 55.3735 487.539 56.1771 489.523 56.1771V51.1544ZM491.306 50.4262C490.829 50.9034 490.201 51.1544 489.523 51.1544V56.1771C491.532 56.1771 493.441 55.3735 494.847 53.9671L491.306 50.4262ZM492.034 48.6431C492.034 49.2961 491.783 49.9491 491.306 50.4262L494.847 53.9671C496.253 52.5608 497.057 50.6271 497.057 48.6431H492.034ZM512.125 43.6204V46.1318H514.737L514.636 43.52L512.125 43.6204ZM466.921 43.6204L464.41 43.52L464.309 46.1318H466.896V43.6204H466.921Z" fill="white"/>
<path d="M732.621 37.67V17.5793H727.598V37.67H732.621ZM722.575 37.67V12.5567H717.553V37.67H722.575ZM712.53 37.67V22.602H707.507V37.67H712.53ZM699.973 47.7154V2.51134H694.951V47.7154H699.973ZM742.666 45.204H697.462V50.2267H742.666V45.204ZM740.155 2.51134V47.7154H745.177V2.51134H740.155ZM697.462 5.02267H742.666V0H697.462V5.02267ZM697.462 47.7154H694.951V50.2267H697.462V47.7154ZM742.666 47.7154V50.2267H745.177V47.7154H742.666ZM742.666 2.51134H745.177V0H742.666V2.51134ZM697.462 2.51134V0H694.951V2.51134H697.462Z" fill="white"/>
<path d="M970.696 40.6717H935.537V28.115H970.696V40.6717ZM940.183 15.5583H966.025L968.737 23.3685H937.471L940.183 15.5583ZM969.189 10.5356H937.044C934.532 16.2113 932.548 22.2636 930.514 28.115C930.514 35.649 930.514 43.183 930.514 50.717H938.048V45.6944H968.184V50.717H975.718C975.718 43.183 975.718 35.649 975.718 28.115C973.684 22.2636 971.7 16.2113 969.189 10.5356Z" fill="white"/>
<path d="M1200.64 17.0996V46.9594L1210.68 43.6195V13.7597L1200.64 17.0996ZM1180.55 13.7597L1170.5 17.0996V46.9594L1180.55 43.6195V13.7597ZM1185.57 43.6195L1195.62 46.9594V17.0996L1185.57 13.7597V43.6195ZM1183.06 7.75753C1183.06 7.75753 1193.46 11.0976 1198.13 12.6547L1215.71 6.75293V13.7597C1215.71 24.91 1215.71 36.0603 1215.71 47.1855C1209.91 49.2448 1204 51.0781 1198.13 52.9616C1198.13 52.9616 1187.45 49.5461 1183.06 48.0644C1177.23 49.9982 1165.48 54.2172 1165.48 54.2172V46.9594C1165.48 35.8091 1165.48 24.6588 1165.48 13.5336C1171.31 11.4994 1177.18 9.64103 1183.06 7.75753Z" fill="white"/>
<path fill-rule="evenodd" clip-rule="evenodd" d="M1423.14 32.4479V27.7517L1426.9 25.4915L1430.67 27.7517V32.4479L1426.9 34.7082L1423.14 32.4479ZM1424.39 21.1469L1420.47 23.5076L1418.19 22.1766L1415.7 12.8847L1412.64 11.1016L1410.86 14.1655L1412.04 18.6104L1408.6 16.6265L1405.15 17.5557L1406.08 20.9962L1409.52 22.9801L1405.08 24.1605L1403.3 27.2494L1406.36 29.0325L1415.65 26.5463L1418.09 27.9527V32.2972L1415.65 33.7036L1406.36 31.2174L1403.3 33.0005L1405.08 36.0642L1409.52 37.2446L1406.08 39.2285L1405.15 42.6691L1408.6 43.5982L1412.04 41.6143L1410.86 46.0593L1412.64 49.1484L1415.7 47.3652L1418.19 38.0733L1420.47 36.7423L1424.39 39.103V41.6645L1417.59 48.4702V52.0112H1421.13L1424.37 48.7716V52.7647L1426.88 55.276L1429.39 52.7647V48.7716L1432.63 52.0112H1436.17V48.4702L1429.36 41.6645V39.103L1433.28 36.7423L1435.57 38.0733L1438.05 47.3652L1441.12 49.1484L1442.9 46.0593L1441.72 41.6143L1445.16 43.5982L1448.6 42.6691L1447.67 39.2285L1444.23 37.2446L1448.68 36.0642L1450.46 33.0005L1447.4 31.2174L1438.1 33.7036L1435.67 32.2972V27.9527L1438.1 26.5463L1447.4 29.0325L1450.46 27.2494L1448.68 24.1605L1444.23 22.9801L1447.67 20.9962L1448.6 17.5557L1445.16 16.6265L1441.72 18.6104L1442.9 14.1655L1441.12 11.1016L1438.05 12.8847L1435.57 22.1766L1433.28 23.5076L1429.36 21.172V18.6104L1436.17 11.8048V8.26373H1432.63L1429.39 11.5035V7.51036L1426.88 4.99902L1424.37 7.51036V11.5035L1421.13 8.26373H1417.59V11.8048L1424.39 18.6104V21.172V21.1469Z" fill="white"/>
<path d="M1640.1 27.8712L1662.5 52.0805L1666.19 48.6652L1643.79 24.4558L1640.1 27.8712ZM1642.31 6.07284C1635.83 11.3969 1634.8 21.0655 1639.95 27.6954L1643.91 24.6065C1640.4 20.1112 1641.13 13.5065 1645.5 9.9404L1642.31 6.07284ZM1663.55 8.48378C1658.35 1.80362 1648.84 0.698581 1642.33 6.07284L1645.52 9.9404C1649.84 6.39941 1656.12 7.1025 1659.58 11.5727L1663.55 8.48378ZM1666.42 12.5019L1663.63 8.55904L1659.53 11.4723L1662.32 15.4151L1666.42 12.5019ZM1664.98 8.58418L1662.27 12.527L1666.42 15.3648L1669.13 11.422L1664.98 8.58418ZM1686.31 6.07284C1679.8 0.698581 1670.26 1.80362 1665.08 8.48378L1669.05 11.5727C1672.52 7.1025 1678.82 6.39941 1683.12 9.9404L1686.31 6.07284ZM1688.67 27.6954C1693.81 21.0655 1692.78 11.3969 1686.33 6.07284L1683.14 9.9404C1687.49 13.5316 1688.21 20.1112 1684.72 24.6065L1688.69 27.6954H1688.67ZM1666.21 52.0805L1688.54 27.8462L1684.85 24.4558L1662.52 48.6652L1666.21 52.0805ZM1641.96 26.1635L1639.97 27.6954L1640.05 27.7708L1640.12 27.8462L1641.96 26.1384V26.1635ZM1661.57 10.0157L1663.63 8.55904V8.50892L1663.55 8.45864L1661.57 9.99052V10.0157ZM1664.36 13.9585L1662.3 15.4151L1664.38 18.3533L1666.42 15.39L1664.36 13.9585ZM1667.07 10.0157L1665.08 8.48378L1665.03 8.53405L1664.98 8.58418L1667.04 10.0157H1667.07ZM1686.68 26.1635L1688.52 27.8712L1688.59 27.796L1688.67 27.7205L1686.68 26.1887V26.1635ZM1664.36 50.3728L1662.52 52.0805L1664.36 54.0644L1666.19 52.0554L1664.36 50.3477V50.3728Z" fill="white"/>
</svg>
