<svg width="1692" height="56" viewBox="0 0 1692 56" fill="none" xmlns="http://www.w3.org/2000/svg">
<path d="M55.2494 42.6927C55.2494 37.1427 50.7541 32.6474 45.204 32.6474V37.67C47.9665 37.67 50.2267 39.9302 50.2267 42.6927H55.2494ZM45.204 32.6474H40.1814V37.67H45.204V32.6474ZM55.2494 50.2267V42.6927H50.2267V50.2267H55.2494ZM5.02267 42.6927C5.02267 39.9302 7.25776 37.67 10.0453 37.67V32.6474C4.49529 32.6474 0 37.1427 0 42.6927H5.02267ZM10.0453 37.67H27.6247V32.6474H10.0453V37.67ZM5.02267 50.2267V42.6927H0V50.2267H5.02267ZM27.6247 5.02267C33.1747 5.02267 37.67 9.51796 37.67 15.068H42.6927C42.6927 6.75549 35.9372 0 27.6247 0V5.02267ZM17.5793 15.068C17.5793 9.51796 22.0746 5.02267 27.6247 5.02267V0C19.3122 0 12.5567 6.75549 12.5567 15.068H17.5793ZM27.6247 25.1134C22.0746 25.1134 17.5793 20.6181 17.5793 15.068H12.5567C12.5567 23.3805 19.3122 30.136 27.6247 30.136V25.1134ZM37.67 15.068C37.67 20.6181 33.1747 25.1134 27.6247 25.1134V30.136C35.9372 30.136 42.6927 23.3805 42.6927 15.068H37.67Z" fill="white"/>
<path d="M251.033 5.02267H271.124V0H251.033V5.02267ZM246.011 55.2494H276.147V50.2267H246.011V55.2494ZM238.477 12.5567H283.681V7.53401H238.477V12.5567ZM263.59 17.5793V42.6927H268.613V17.5793H263.59ZM253.545 17.5793V42.6927H258.567V17.5793H253.545ZM268.613 2.51134V10.0453H273.636V2.51134H268.613ZM253.545 10.0453V2.51134H248.522V10.0453H253.545ZM278.658 52.9139L281.17 17.7552L276.172 17.4035L273.661 52.5622L278.658 52.9139ZM241.013 17.7552L243.525 52.9139L248.522 52.5622L246.011 17.4035L241.013 17.7552ZM271.124 2.51134H273.636V0H271.124V2.51134ZM251.033 2.51134V0H248.522V2.51134H251.033ZM276.147 52.738V55.2494H278.482L278.658 52.9139L276.147 52.738ZM246.011 52.738L243.499 52.9139L243.675 55.2494H246.011V52.738Z" fill="white"/>
<path d="M496.115 25.6659L508.672 35.7112L505.533 39.6289L492.976 29.5835L496.115 25.6659ZM497.044 2.51134V27.6247H492.022V2.51134H497.044ZM484.689 7.28286C477.13 10.9494 471.956 18.6843 471.956 27.6247H466.934C466.934 16.6753 473.287 7.23266 482.504 2.76248L484.689 7.28286ZM517.135 27.6247C517.135 15.1434 507.014 5.02267 494.533 5.02267V0C509.777 0 522.158 12.3809 522.158 27.6247H517.135ZM494.533 50.2267C507.014 50.2267 517.135 40.106 517.135 27.6247H522.158C522.158 42.8936 509.777 55.2494 494.533 55.2494V50.2267ZM471.931 27.6247C471.931 40.106 482.052 50.2267 494.533 50.2267V55.2494C479.264 55.2494 466.908 42.8936 466.908 27.6247H471.931ZM494.533 27.6247L492.976 29.5835L492.022 28.8301V27.6247H494.533ZM494.533 2.51134H492.022V0H494.533V2.51134Z" fill="white"/>
<path d="M745.14 40.1814H704.958V45.204H745.14V40.1814ZM743.382 0.728271L720.78 23.3303L724.321 26.8713L746.923 4.26926L743.382 0.728271ZM742.679 2.51134L742.628 22.602H747.651L747.701 2.53644H742.679V2.51134ZM725.049 5.02267H745.19V0H725.049V5.02267ZM704.958 5.02267H717.515V0H704.958V5.02267ZM707.47 42.6927V2.51134H702.447V42.6927H707.47ZM742.628 30.136V42.6927H747.651V30.136H742.628ZM745.19 2.51134H747.701V0H745.19V2.51134ZM704.958 2.51134V0H702.447V2.51134H704.958ZM704.958 42.6927H702.447V45.204H704.958V42.6927ZM745.14 42.6927V45.204H747.651V42.6927H745.14Z" fill="white"/>
<path d="M965.334 23.3303L980.452 25.4901L981.156 20.5176L966.037 18.3579L965.334 23.3303ZM971.587 35.5605L982.562 24.7869L979.046 21.1957L968.071 31.9693L971.587 35.5605ZM975.43 50.5281L972.316 33.3003L967.368 34.2044L970.482 51.4321L975.43 50.5281ZM945.193 53.1399L959.709 44.526L957.147 40.2065L942.632 48.8204L945.193 53.1399ZM944.54 33.3254L941.426 50.5532L946.373 51.4573L949.488 34.2295L944.54 33.3254ZM933.892 24.8371L945.294 35.5856L948.734 31.9191L937.333 21.1706L933.892 24.8371ZM950.819 18.3579L935.248 20.5176L935.926 25.4901L951.472 23.3303L950.793 18.3579H950.819ZM956.168 4.69622L948.91 19.7642L953.43 21.9491L960.688 6.88107L956.168 4.69622ZM967.946 19.7642L960.688 4.69622L956.168 6.88107L963.426 21.9491L967.946 19.7642ZM980.804 23.0038L982.562 24.7869L986.203 21.2208L981.156 20.4925L980.804 22.9787V23.0038ZM969.829 33.7524L968.071 31.9693L967.117 32.8985L967.343 34.2044L969.804 33.7524H969.829ZM970.482 51.4321L970.934 53.8933L975.882 52.9892L975.43 50.5281L970.482 51.4321ZM943.912 50.9801L941.451 50.5281L940.472 55.9275L945.193 53.1148L943.912 50.955V50.9801ZM947.026 33.7524L949.488 34.2044L949.739 32.8734L948.734 31.9442L947.001 33.7775L947.026 33.7524ZM935.6 23.0038L935.248 20.5176L930.05 21.2459L933.867 24.8371L935.6 23.0038ZM951.17 20.8441L951.522 23.3303L952.853 23.1545L953.43 21.9491L951.17 20.8692V20.8441ZM958.428 5.77608L960.688 4.69622L958.428 0L956.168 4.69622L958.428 5.77608ZM965.686 20.8441L963.426 21.924L964.003 23.1294L965.334 23.3303L965.686 20.8441Z" fill="white"/>
<path d="M1193.09 12.5567V20.0907H1198.12V12.5567H1193.09ZM1193.09 25.1134V42.6927H1198.12V25.1134H1193.09ZM1195.6 5.02267C1208.09 5.02267 1218.21 15.1434 1218.21 27.6247H1223.23C1223.23 12.3809 1210.85 0 1195.6 0V5.02267ZM1173 27.6247C1173 15.1434 1183.12 5.02267 1195.6 5.02267V0C1180.33 0 1167.98 12.3809 1167.98 27.6247H1173ZM1195.6 50.2267C1183.12 50.2267 1173 40.106 1173 27.6247H1167.98C1167.98 42.8936 1180.33 55.2494 1195.6 55.2494V50.2267ZM1218.21 27.6247C1218.21 40.106 1208.09 50.2267 1195.6 50.2267V55.2494C1210.85 55.2494 1223.23 42.8936 1223.23 27.6247H1218.21Z" fill="white"/>
<path d="M1431.89 5.02267C1444.37 5.02267 1454.49 15.1434 1454.49 27.6247H1459.51C1459.51 12.3809 1447.13 0 1431.89 0V5.02267ZM1409.29 27.6247C1409.29 15.1434 1419.41 5.02267 1431.89 5.02267V0C1416.62 0 1404.26 12.3809 1404.26 27.6247H1409.29ZM1431.89 50.2267C1419.41 50.2267 1409.29 40.106 1409.29 27.6247H1404.26C1404.26 42.8936 1416.62 55.2494 1431.89 55.2494V50.2267ZM1454.49 27.6247C1454.49 40.106 1444.37 50.2267 1431.89 50.2267V55.2494C1447.13 55.2494 1459.51 42.8936 1459.51 27.6247H1454.49Z" fill="white"/>
<path d="M1688.18 24.7116L1648 47.3136L1650.46 51.6833L1690.64 29.0813L1688.18 24.7116ZM1648 6.47925L1688.18 29.0813L1690.64 24.7116L1650.46 2.10955L1648 6.47925ZM1651.74 49.4984V4.2944H1646.72V49.4984H1651.74ZM1689.41 26.8964L1690.64 29.0813C1691.42 28.6292 1691.92 27.8005 1691.92 26.8964C1691.92 25.9923 1691.42 25.1636 1690.64 24.7116L1689.41 26.8964ZM1649.23 4.2944L1650.46 2.10955L1646.72 0V4.2944H1649.23ZM1649.23 49.4984H1646.72V53.7928L1650.46 51.6833L1649.23 49.4984Z" fill="white"/>
</svg>
