<svg width="309" height="19" viewBox="0 0 309 19" fill="none" xmlns="http://www.w3.org/2000/svg">
<path fill-rule="evenodd" clip-rule="evenodd" d="M8.52697 7.55246C7.14966 6.17515 4.91064 6.17515 3.53333 7.55246L1.03298 10.0528C-0.344328 11.4301 -0.344328 13.6691 1.03298 15.0465C2.41029 16.4238 4.64931 16.4238 6.02662 15.0465L7.524 13.5491L8.02548 13.0476L7.02958 12.0517L6.5281 12.5532L5.03072 14.0505C4.20433 14.8769 2.86233 14.8769 2.03595 14.0505C1.20956 13.2242 1.20956 11.8822 2.03595 11.0558L4.5363 8.55543C5.36268 7.72905 6.70468 7.72905 7.53107 8.55543L8.03255 9.05691L9.02845 8.05396L8.52697 7.55246ZM13.0262 3.05325C11.6489 1.67594 9.40986 1.67594 8.03255 3.05325L6.53516 4.55063L6.03368 5.05213L7.02958 6.05508L7.53107 5.5536L9.02845 4.05622C9.85484 3.22983 11.1968 3.22983 12.0232 4.05622C12.8496 4.88261 12.8496 6.2246 12.0232 7.05098L9.52287 9.55134C8.69648 10.3777 7.35449 10.3777 6.5281 9.55134L6.02662 9.04986L5.02365 10.0457L5.52514 10.5472C6.90245 11.9246 9.14146 11.9246 10.5188 10.5472L13.0191 8.04689C14.3964 6.66958 14.3964 4.43056 13.0191 3.05325H13.0262Z" fill="white"/>
<path d="M55.4707 4.24268H42.757V5.6553H55.4707V4.24268ZM51.0845 11.7296L56.0286 5.3869L54.9127 4.51815L49.9685 10.8608L51.0845 11.7296ZM51.2328 14.8374V11.2917H49.8202V14.8374H51.2328ZM46.9949 11.3058V17.6626H48.4075V11.3058H46.9949ZM42.199 5.37983L47.1432 11.7366L48.2592 10.8679L43.315 4.51108L42.199 5.37983ZM55.4707 4.94899L56.0286 5.3869L56.9186 4.24268H55.4707V4.94899ZM50.5265 11.2917L49.9685 10.8538L49.8202 11.0445V11.2846H50.5265V11.2917ZM49.8202 14.8374V15.5437H51.2328V14.8374H49.8202ZM46.9949 17.6626V18.3689H48.4075V17.6626H46.9949ZM47.7012 11.3058H48.4075V11.0657L48.2592 10.875L47.7012 11.3058ZM42.757 4.94899V4.24268H41.3091L42.199 5.37983L42.757 4.94899Z" fill="white"/>
<path d="M87.67 9.07144V6.9525H86.2573V9.07144H87.67ZM91.2015 12.6101C89.2521 12.6101 87.67 11.035 87.67 9.07144H86.2573C86.2573 11.8119 88.4681 14.0227 91.2015 14.0227V12.6101ZM94.7331 9.07851C94.7331 11.0279 93.1509 12.6101 91.2015 12.6101V14.0227C93.9279 14.0227 96.1457 11.8119 96.1457 9.07851H94.7331ZM94.7331 6.98076V9.08558H96.1457V6.98076H94.7331ZM89.7889 4.84063C89.7889 4.06369 90.4175 3.42801 91.2015 3.42801V2.01538C89.6406 2.01538 88.3763 3.27968 88.3763 4.84063H89.7889ZM89.7889 9.07851V4.84063H88.3763V9.07851H89.7889ZM91.2015 10.4911C90.4175 10.4911 89.7889 9.86252 89.7889 9.07851H88.3763C88.3763 10.6395 89.6406 11.9038 91.2015 11.9038V10.4911ZM92.6141 9.07851C92.6141 9.86252 91.9785 10.4911 91.2015 10.4911V11.9038C92.7625 11.9038 94.0268 10.6395 94.0268 9.07851H92.6141ZM92.6141 4.84063V9.07851H94.0268V4.84063H92.6141ZM91.2015 3.42801C91.9785 3.42801 92.6141 4.06369 92.6141 4.84063H94.0268C94.0268 3.27968 92.7625 2.01538 91.2015 2.01538V3.42801ZM91.9078 16.848V13.3164H90.4952V16.848H91.9078ZM87.67 17.5543H94.7331V16.1416H87.67V17.5543ZM87.67 6.95957V6.25326H86.2573V6.95957H87.67ZM96.1457 6.98076V6.27445H94.7331V6.98076H96.1457ZM90.4952 16.848V17.5543H91.9078V16.848H90.4952ZM94.7331 17.5543H95.4394V16.1416H94.7331V17.5543ZM87.67 16.1416H86.9636V17.5543H87.67V16.1416Z" fill="white"/>
<path d="M136.683 10.5029L129.054 4.14608L128.15 5.23378L135.778 11.5906L136.683 10.5029ZM132.868 14.769L136.683 11.5906L135.778 10.5029L131.964 13.6813L132.868 14.769ZM131.71 1.51152V14.2252H133.123V1.51152H131.71ZM136.683 4.14608L132.868 0.967667L131.964 2.05537L135.778 5.23378L136.683 4.14608ZM129.054 11.5906L136.683 5.23378L135.778 4.14608L128.15 10.5029L129.054 11.5906ZM129.054 4.14608L128.511 3.69403L127.606 4.78175L128.15 5.23378L129.054 4.14608ZM136.231 11.0467L136.683 11.5906L137.332 11.0467L136.683 10.5029L136.231 11.0467ZM132.416 14.2252H131.71V15.7367L132.868 14.769L132.416 14.2252ZM132.416 1.51152L132.868 0.967667L131.71 0V1.50445H132.416V1.51152ZM136.231 4.68993L136.683 5.23378L137.332 4.68993L136.683 4.14608L136.231 4.68993ZM128.15 10.5029L127.606 10.9549L128.511 12.0427L129.054 11.5906L128.15 10.5029Z" fill="white"/>
<path d="M175.936 12.682L180.584 17.2872L181.58 16.2842L176.932 11.679L175.936 12.682ZM173.287 14.3065C174.658 14.2288 175.95 13.6496 176.925 12.6891L175.929 11.6861C175.194 12.4065 174.227 12.8444 173.203 12.901L173.287 14.3136V14.3065ZM169.487 13.1199C170.568 13.9604 171.924 14.3842 173.294 14.2995L173.21 12.8868C172.186 12.9504 171.168 12.6326 170.356 11.9969L169.487 13.1128V13.1199ZM167.411 9.72254C167.665 11.0716 168.407 12.2794 169.487 13.1199L170.356 12.0039C169.544 11.3683 168.993 10.4642 168.795 9.45414L167.411 9.72254ZM168.089 5.79544C167.397 6.97498 167.15 8.37348 167.411 9.72254L168.795 9.45414C168.605 8.44412 168.781 7.39877 169.304 6.50882L168.089 5.78838V5.79544ZM171.19 3.29509C169.89 3.72594 168.788 4.6159 168.089 5.79544L169.304 6.51588C169.827 5.62593 170.653 4.96199 171.628 4.63709L171.183 3.29509H171.19ZM175.166 3.46461C173.902 2.92781 172.489 2.8713 171.19 3.30216L171.635 4.64415C172.609 4.31925 173.676 4.36869 174.622 4.76422L175.173 3.46461H175.166ZM178.048 6.21217C177.455 4.97612 176.431 4.00141 175.166 3.46461L174.615 4.76422C175.562 5.16682 176.332 5.90139 176.777 6.82666L178.048 6.21217ZM178.401 10.1816C178.768 8.86084 178.641 7.44821 178.048 6.21217L176.777 6.82666C177.222 7.75193 177.313 8.8114 177.038 9.80024L178.401 10.1816ZM176.431 12.1805L176.925 11.679L176.431 11.1846L175.936 11.672L176.431 12.1734V12.1805Z" fill="white"/>
<path fill-rule="evenodd" clip-rule="evenodd" d="M213.426 14.9363C213.814 14.9363 214.132 14.6184 214.132 14.23C214.132 13.8415 213.814 13.5236 213.426 13.5236C213.037 13.5236 212.719 13.8415 212.719 14.23C212.719 14.6184 213.037 14.9363 213.426 14.9363ZM217.663 10.6984C218.052 10.6984 218.37 10.3805 218.37 9.99207C218.37 9.6036 218.052 9.28576 217.663 9.28576C217.275 9.28576 216.957 9.6036 216.957 9.99207C216.957 10.3805 217.275 10.6984 217.663 10.6984ZM221.901 6.46051C222.29 6.46051 222.608 6.14267 222.608 5.75419C222.608 5.36572 222.29 5.04788 221.901 5.04788C221.513 5.04788 221.195 5.36572 221.195 5.75419C221.195 6.14267 221.513 6.46051 221.901 6.46051ZM219.903 6.45344C219.867 6.45344 219.825 6.46051 219.789 6.46051H211.314V5.04788H219.789C219.832 5.04788 219.867 5.04789 219.903 5.05495C220.192 4.22856 220.976 3.63525 221.901 3.63525C223.074 3.63525 224.02 4.58171 224.02 5.75419C224.02 6.92667 223.074 7.87313 221.901 7.87313C220.976 7.87313 220.185 7.27982 219.903 6.45344ZM215.665 10.6984H211.307V9.28576H215.665C215.954 8.46644 216.738 7.87313 217.663 7.87313C218.589 7.87313 219.373 8.46644 219.662 9.28576H224.02V10.6984H219.662C219.373 11.5248 218.589 12.111 217.663 12.111C216.738 12.111 215.954 11.5248 215.665 10.6984ZM215.424 13.5236H224.02V14.9363H215.424C215.135 15.7627 214.351 16.3489 213.426 16.3489C212.253 16.3489 211.307 15.4024 211.307 14.23C211.307 13.0575 212.253 12.111 213.426 12.111C214.351 12.111 215.135 12.7043 215.424 13.5236Z" fill="white"/>
<path d="M264.324 4.39564C263.3 5.70232 262.919 6.79004 263.039 7.793C263.159 8.76065 263.738 9.48814 264.176 10.0532C264.649 10.6677 265.002 11.1409 265.108 11.7342C265.207 12.2922 265.101 13.0903 264.289 14.3405L265.475 15.1104C266.401 13.6836 266.683 12.5182 266.5 11.4941C266.33 10.5052 265.737 9.7636 265.299 9.19149C264.818 8.56994 264.508 8.13908 264.444 7.62347C264.388 7.14318 264.529 6.42981 265.44 5.26439L264.324 4.39564ZM260.086 4.39564C259.062 5.70232 258.681 6.79004 258.801 7.793C258.921 8.76065 259.5 9.48814 259.938 10.0532C260.411 10.6677 260.764 11.1409 260.87 11.7342C260.969 12.2922 260.863 13.0903 260.051 14.3405L261.237 15.1104C262.163 13.6836 262.445 12.5182 262.262 11.4941C262.092 10.5052 261.499 9.7636 261.061 9.19149C260.581 8.56994 260.27 8.13908 260.206 7.62347C260.15 7.14318 260.291 6.42981 261.202 5.26439L260.086 4.39564ZM255.848 4.39564C254.824 5.70232 254.443 6.79004 254.563 7.793C254.683 8.76065 255.262 9.48814 255.7 10.0532C256.173 10.6677 256.526 11.1409 256.632 11.7342C256.731 12.2922 256.625 13.0903 255.813 14.3405L257 15.1104C257.925 13.6836 258.207 12.5182 258.024 11.4941C257.854 10.5052 257.261 9.7636 256.823 9.19149C256.343 8.56994 256.032 8.13908 255.968 7.62347C255.912 7.14318 256.053 6.42981 256.964 5.26439L255.848 4.39564ZM264.289 14.3335L263.907 14.9268L265.094 15.6967L265.475 15.1033L264.289 14.3335ZM265.44 5.26439L265.871 4.7064L264.755 3.83765L264.324 4.39564L265.44 5.26439ZM260.051 14.3335L259.669 14.9268L260.856 15.6967L261.237 15.1033L260.051 14.3335ZM261.202 5.26439L261.633 4.7064L260.517 3.83765L260.086 4.39564L261.202 5.26439ZM255.813 14.3335L255.432 14.9268L256.618 15.6967L257 15.1033L255.813 14.3335ZM256.964 5.26439L257.395 4.7064L256.279 3.83765L255.848 4.39564L256.964 5.26439Z" fill="white"/>
<path d="M308.34 8.26867C308.34 10.6066 306.44 12.5065 304.102 12.5065V11.0939C305.663 11.0939 306.927 9.82962 306.927 8.26867H308.34ZM308.34 6.14973V8.26867H306.927V6.14973H308.34ZM300.57 5.44342H307.633V6.85604H300.57V5.44342ZM299.864 8.26867V8.25455V8.24041V8.22629V8.21217V8.19803V8.18392V8.16978V8.15566V8.14154V8.1274V8.11328V8.09916V8.08502V8.0709V8.05678V8.04264V8.02853V8.01441V8.00027V7.98615V7.97201V7.95789V7.94377V7.92963V7.91551V7.90139V7.88725V7.87314V7.85902V7.84488V7.83076V7.81662V7.8025V7.78838V7.77424V7.76012V7.74601V7.73186V7.71775V7.70363V7.68949V7.67537V7.66125V7.64711V7.63299V7.61885V7.60473V7.59062V7.57648V7.56236V7.54824V7.5341V7.51998V7.50586V7.49172V7.4776V7.46346V7.44934V7.43523V7.42109V7.40697V7.39285V7.37871V7.36459V7.35047V7.33633V7.32221V7.30809V7.29395V7.27984V7.2657V7.25158V7.23746V7.22332V7.2092V7.19508V7.18094V7.16682V7.1527V7.13856V7.12445V7.11031V7.09619V7.08207V7.06793V7.05381V7.03969V7.02555V7.01143V6.99731V6.98317V6.96906V6.95494V6.9408V6.92668V6.91254V6.89842V6.8843V6.87016V6.85604V6.84193V6.82779V6.81367V6.79955V6.78541V6.77129V6.75715V6.74303V6.72891V6.71477V6.70065V6.68654V6.6724V6.65828V6.64416V6.63002V6.6159V6.60178V6.58764V6.57352V6.55938V6.54526V6.53115V6.51701V6.50289V6.48877V6.47463V6.46051V6.44639V6.43225V6.41813V6.40399V6.38987V6.37576V6.36162V6.3475V6.33338V6.31924V6.30512V6.291V6.27686V6.26274V6.24862V6.23448V6.22037V6.20623V6.19211V6.17799V6.16385V6.14973V6.13561V6.12147V6.10735V6.09323V6.07909V6.06498V6.05084V6.03672V6.0226V6.00846V5.99434V5.98022V5.96608V5.95196C299.864 5.95196 299.864 5.95196 300.57 5.95196H301.276V5.96608V5.98022V5.99434V6.00846V6.0226V6.03672V6.05084V6.06498V6.07909V6.09323V6.10735V6.12147V6.13561V6.14973V6.16385V6.17799V6.19211V6.20623V6.22037V6.23448V6.24862V6.26274V6.27686V6.291V6.30512V6.31924V6.33338V6.3475V6.36162V6.37576V6.38987V6.40399V6.41813V6.43225V6.44639V6.46051V6.47463V6.48877V6.50289V6.51701V6.53115V6.54526V6.55938V6.57352V6.58764V6.60178V6.6159V6.63002V6.64416V6.65828V6.6724V6.68654V6.70065V6.71477V6.72891V6.74303V6.75715V6.77129V6.78541V6.79955V6.81367V6.82779V6.84193V6.85604V6.87016V6.8843V6.89842V6.91254V6.92668V6.9408V6.95494V6.96906V6.98317V6.99731V7.01143V7.02555V7.03969V7.05381V7.06793V7.08207V7.09619V7.11031V7.12445V7.13856V7.1527V7.16682V7.18094V7.19508V7.2092V7.22332V7.23746V7.25158V7.2657V7.27984V7.29395V7.30809V7.32221V7.33633V7.35047V7.36459V7.37871V7.39285V7.40697V7.42109V7.43523V7.44934V7.46346V7.4776V7.49172V7.50586V7.51998V7.5341V7.54824V7.56236V7.57648V7.59062V7.60473V7.61885V7.63299V7.64711V7.66125V7.67537V7.68949V7.70363V7.71775V7.73186V7.74601V7.76012V7.77424V7.78838V7.8025V7.81662V7.83076V7.84488V7.85902V7.87314V7.88725V7.90139V7.91551V7.92963V7.94377V7.95789V7.97201V7.98615V8.00027V8.01441V8.02853V8.04264V8.05678V8.0709V8.08502V8.09916V8.11328V8.1274V8.14154V8.15566V8.16978V8.18392V8.19803V8.21217V8.22629V8.24041V8.25455V8.26867L299.864 8.27574V8.26867ZM304.102 12.5065C301.764 12.5065 299.864 10.6066 299.864 8.26867H301.276C301.276 9.82962 302.541 11.0939 304.102 11.0939V12.5065ZM303.085 15.918C301.82 16.7585 300.542 16.7444 299.165 16.7444V15.3318C300.605 15.3318 301.446 15.3177 302.301 14.7456L303.085 15.918ZM304.808 11.8002C304.808 12.8809 304.723 13.7002 304.448 14.3712C304.151 15.0705 303.685 15.5225 303.085 15.9251L302.301 14.7526C302.76 14.4418 302.993 14.1876 303.141 13.8344C303.304 13.4389 303.395 12.8526 303.395 11.8073H304.808V11.8002ZM301.983 6.14973V3.32448H303.395V6.14973H301.983ZM304.808 6.14973V3.32448H306.221V6.14973H304.808ZM307.633 6.14973V5.44342H308.34V6.14973H307.633ZM300.57 6.14973H299.864V5.44342H300.57V6.14973ZM301.983 3.32448V2.61816H303.395V3.32448H301.983ZM304.808 3.32448V2.61816H306.221V3.32448H304.808Z" fill="white"/>
</svg>
