<svg width="664" height="34" viewBox="0 0 664 34" fill="none" xmlns="http://www.w3.org/2000/svg">
<path d="M33.1496 25.6156C33.1496 22.2856 30.4525 19.5884 27.1224 19.5884V22.602C28.7799 22.602 30.136 23.9581 30.136 25.6156H33.1496ZM27.1224 19.5884H24.1088V22.602H27.1224V19.5884ZM33.1496 30.136V25.6156H30.136V30.136H33.1496ZM3.0136 25.6156C3.0136 23.9581 4.35466 22.602 6.02721 22.602V19.5884C2.69717 19.5884 0 22.2856 0 25.6156H3.0136ZM6.02721 22.602H16.5748V19.5884H6.02721V22.602ZM3.0136 30.136V25.6156H0V30.136H3.0136ZM16.5748 3.0136C19.9048 3.0136 22.602 5.71078 22.602 9.04081H25.6156C25.6156 4.0533 21.5623 0 16.5748 0V3.0136ZM10.5476 9.04081C10.5476 5.71078 13.2448 3.0136 16.5748 3.0136V0C11.5873 0 7.53401 4.0533 7.53401 9.04081H10.5476ZM16.5748 15.068C13.2448 15.068 10.5476 12.3708 10.5476 9.04081H7.53401C7.53401 14.0283 11.5873 18.0816 16.5748 18.0816V15.068ZM22.602 9.04081C22.602 12.3708 19.9048 15.068 16.5748 15.068V18.0816C21.5623 18.0816 25.6156 14.0283 25.6156 9.04081H22.602Z" fill="white"/>
<path d="M100.334 3.0136H112.389V0H100.334V3.0136ZM97.3207 33.1496H115.402V30.136H97.3207V33.1496ZM92.8003 7.53401H119.923V4.5204H92.8003V7.53401ZM107.868 10.5476V25.6156H110.882V10.5476H107.868ZM101.841 10.5476V25.6156H104.855V10.5476H101.841ZM110.882 1.5068V6.02721H113.896V1.5068H110.882ZM101.841 6.02721V1.5068H98.8275V6.02721H101.841ZM116.909 31.7483L118.416 10.6531L115.417 10.4421L113.911 31.5373L116.909 31.7483ZM94.3222 10.6531L95.829 31.7483L98.8275 31.5373L97.3207 10.4421L94.3222 10.6531ZM112.389 1.5068H113.896V0H112.389V1.5068ZM100.334 1.5068V0H98.8275V1.5068H100.334ZM115.402 31.6428V33.1496H116.804L116.909 31.7483L115.402 31.6428ZM97.3207 31.6428L95.8139 31.7483L95.9194 33.1496H97.3207V31.6428Z" fill="white"/>
<path d="M197.098 15.3995L204.632 21.4267L202.748 23.7773L195.214 17.7501L197.098 15.3995ZM197.655 1.5068V16.5748H194.642V1.5068H197.655ZM190.242 4.36972C185.706 6.56965 182.602 11.2106 182.602 16.5748H179.589C179.589 10.0052 183.401 4.3396 188.931 1.65749L190.242 4.36972ZM209.71 16.5748C209.71 9.08601 203.637 3.0136 196.149 3.0136V0C205.295 0 212.723 7.42853 212.723 16.5748H209.71ZM196.149 30.136C203.637 30.136 209.71 24.0636 209.71 16.5748H212.723C212.723 25.7362 205.295 33.1496 196.149 33.1496V30.136ZM182.587 16.5748C182.587 24.0636 188.66 30.136 196.149 30.136V33.1496C186.987 33.1496 179.574 25.7362 179.574 16.5748H182.587ZM196.149 16.5748L195.214 17.7501L194.642 17.2981V16.5748H196.149ZM196.149 1.5068H194.642V0H196.149V1.5068Z" fill="white"/>
<path d="M296.226 24.1088H272.118V27.1224H296.226V24.1088ZM295.172 0.436962L281.61 13.9982L283.735 16.1228L297.296 2.56156L295.172 0.436962ZM294.75 1.5068L294.72 13.5612H297.733L297.763 1.52186H294.75V1.5068ZM284.172 3.0136H296.257V0H284.172V3.0136ZM272.118 3.0136H279.652V0H272.118V3.0136ZM273.624 25.6156V1.5068H270.611V25.6156H273.624ZM294.72 18.0816V25.6156H297.733V18.0816H294.72ZM296.257 1.5068H297.763V0H296.257V1.5068ZM272.118 1.5068V0H270.611V1.5068H272.118ZM272.118 25.6156H270.611V27.1224H272.118V25.6156ZM296.226 25.6156V27.1224H297.733V25.6156H296.226Z" fill="white"/>
<path d="M378.057 13.9982L387.128 15.294L387.55 12.3106L378.479 11.0147L378.057 13.9982ZM381.809 21.3363L388.394 14.8721L386.284 12.7174L379.7 19.1816L381.809 21.3363ZM384.115 30.3169L382.246 19.9802L379.278 20.5227L381.146 30.8593L384.115 30.3169ZM365.973 31.8839L374.682 26.7156L373.145 24.1239L364.436 29.2922L365.973 31.8839ZM365.581 19.9953L363.713 30.3319L366.681 30.8744L368.549 20.5377L365.581 19.9953ZM359.192 14.9023L366.033 21.3514L368.097 19.1515L361.256 12.7023L359.192 14.9023ZM369.348 11.0147L360.006 12.3106L360.413 15.294L369.74 13.9982L369.333 11.0147H369.348ZM372.557 2.81773L368.203 11.8585L370.915 13.1695L375.27 4.12864L372.557 2.81773ZM379.624 11.8585L375.27 2.81773L372.557 4.12864L376.912 13.1695L379.624 11.8585ZM387.339 13.8023L388.394 14.8721L390.579 12.7325L387.55 12.2955L387.339 13.7872V13.8023ZM380.754 20.2514L379.7 19.1816L379.127 19.7391L379.263 20.5227L380.739 20.2514H380.754ZM381.146 30.8593L381.417 32.336L384.386 31.7935L384.115 30.3169L381.146 30.8593ZM365.204 30.5881L363.728 30.3169L363.14 33.5565L365.973 31.8689L365.204 30.573V30.5881ZM367.073 20.2514L368.549 20.5227L368.7 19.724L368.097 19.1665L367.058 20.2665L367.073 20.2514ZM360.217 13.8023L360.006 12.3106L356.887 12.7476L359.177 14.9023L360.217 13.8023ZM369.559 12.5065L369.77 13.9982L370.569 13.8927L370.915 13.1695L369.559 12.5215V12.5065ZM373.914 3.46565L375.27 2.81773L373.914 0L372.557 2.81773L373.914 3.46565ZM378.268 12.5065L376.912 13.1544L377.259 13.8777L378.057 13.9982L378.268 12.5065Z" fill="white"/>
<path d="M464.427 7.53401V12.0544H467.441V7.53401H464.427ZM464.427 15.068V25.6156H467.441V15.068H464.427ZM465.934 3.0136C473.423 3.0136 479.495 9.08601 479.495 16.5748H482.509C482.509 7.42853 475.08 0 465.934 0V3.0136ZM452.372 16.5748C452.372 9.08601 458.445 3.0136 465.934 3.0136V0C456.772 0 449.359 7.42853 449.359 16.5748H452.372ZM465.934 30.136C458.445 30.136 452.372 24.0636 452.372 16.5748H449.359C449.359 25.7362 456.772 33.1496 465.934 33.1496V30.136ZM479.495 16.5748C479.495 24.0636 473.423 30.136 465.934 30.136V33.1496C475.08 33.1496 482.509 25.7362 482.509 16.5748H479.495Z" fill="white"/>
<path d="M557.419 3.0136C564.907 3.0136 570.98 9.08601 570.98 16.5748H573.993C573.993 7.42853 566.565 0 557.419 0V3.0136ZM543.857 16.5748C543.857 9.08601 549.93 3.0136 557.419 3.0136V0C548.257 0 540.844 7.42853 540.844 16.5748H543.857ZM557.419 30.136C549.93 30.136 543.857 24.0636 543.857 16.5748H540.844C540.844 25.7362 548.257 33.1496 557.419 33.1496V30.136ZM570.98 16.5748C570.98 24.0636 564.907 30.136 557.419 30.136V33.1496C566.565 33.1496 573.993 25.7362 573.993 16.5748H570.98Z" fill="white"/>
<path d="M660.907 14.8269L636.798 28.3882L638.274 31.01L662.383 17.4488L660.907 14.8269ZM636.798 3.88755L660.907 17.4488L662.383 14.8269L638.274 1.26573L636.798 3.88755ZM639.043 29.6991V2.57664H636.029V29.6991H639.043ZM661.645 16.1379L662.383 17.4488C662.85 17.1775 663.152 16.6803 663.152 16.1379C663.152 15.5954 662.85 15.0982 662.383 14.8269L661.645 16.1379ZM637.536 2.57664L638.274 1.26573L636.029 0V2.57664H637.536ZM637.536 29.6991H636.029V32.2757L638.274 31.01L637.536 29.6991Z" fill="white"/>
</svg>
