<svg width="39" height="39" viewBox="0 0 39 39" fill="none" xmlns="http://www.w3.org/2000/svg">
<mask id="path-1-inside-1_2633_31815" fill="white">
<path d="M17.6 32.0094C17.6 32.6459 17.3472 33.2563 16.8971 33.7064C16.447 34.1565 15.8366 34.4094 15.2 34.4094C14.5635 34.4094 13.9531 34.1565 13.503 33.7064C13.0529 33.2563 12.8 32.6459 12.8 32.0094L15.2 32.0094H17.6Z"/>
</mask>
<path d="M17.6 32.0094C17.6 32.6459 17.3472 33.2563 16.8971 33.7064C16.447 34.1565 15.8366 34.4094 15.2 34.4094C14.5635 34.4094 13.9531 34.1565 13.503 33.7064C13.0529 33.2563 12.8 32.6459 12.8 32.0094L15.2 32.0094H17.6Z" stroke="#23313C" stroke-width="3.2" mask="url(#path-1-inside-1_2633_31815)"/>
<mask id="path-2-inside-2_2633_31815" fill="white">
<path d="M27.2001 32.0094C27.2001 32.3245 27.1381 32.6366 27.0175 32.9278C26.8968 33.219 26.7201 33.4836 26.4972 33.7064C26.2743 33.9293 26.0098 34.1061 25.7186 34.2267C25.4274 34.3473 25.1153 34.4094 24.8001 34.4094C24.485 34.4094 24.1729 34.3473 23.8817 34.2267C23.5905 34.1061 23.326 33.9293 23.1031 33.7064C22.8802 33.4836 22.7034 33.219 22.5828 32.9278C22.4622 32.6366 22.4001 32.3245 22.4001 32.0094L24.8001 32.0094H27.2001Z"/>
</mask>
<path d="M27.2001 32.0094C27.2001 32.3245 27.1381 32.6366 27.0175 32.9278C26.8968 33.219 26.7201 33.4836 26.4972 33.7064C26.2743 33.9293 26.0098 34.1061 25.7186 34.2267C25.4274 34.3473 25.1153 34.4094 24.8001 34.4094C24.485 34.4094 24.1729 34.3473 23.8817 34.2267C23.5905 34.1061 23.326 33.9293 23.1031 33.7064C22.8802 33.4836 22.7034 33.219 22.5828 32.9278C22.4622 32.6366 22.4001 32.3245 22.4001 32.0094L24.8001 32.0094H27.2001Z" stroke="#23313C" stroke-width="3.2" mask="url(#path-2-inside-2_2633_31815)"/>
<path d="M15.2002 8.8V4H23.2002V8.8" stroke="#23313C" stroke-width="1.6"/>
<path d="M12.8 4H25.6" stroke="#23313C" stroke-width="1.6" stroke-linecap="square"/>
<path d="M28.8 8.7998V31.2002H9.59985V8.7998H28.8Z" stroke="#23313C" stroke-width="1.6"/>
<path d="M16 16L16 25.6" stroke="#23313C" stroke-width="1.6" stroke-linecap="square"/>
<path d="M22.4001 16L22.4001 25.6" stroke="#23313C" stroke-width="1.6" stroke-linecap="square"/>
</svg>
