<svg width="48" height="48" viewBox="0 0 48 48" fill="none" xmlns="http://www.w3.org/2000/svg">
<path d="M29.2588 10.5576L29.4902 10.7451L29.7861 10.7764L36.5234 11.4756L37.2236 18.2139L37.2549 18.5098L37.4424 18.7412L41.7119 24L37.4424 29.2588L37.2549 29.4902L37.2236 29.7861L36.5234 36.5234L29.7861 37.2236L29.4902 37.2549L29.2588 37.4424L24 41.7119L18.7412 37.4424L18.5098 37.2549L18.2139 37.2236L11.4756 36.5234L10.7764 29.7861L10.7451 29.4902L10.5576 29.2588L6.28711 24L10.5576 18.7412L10.7451 18.5098L10.7764 18.2139L11.4756 11.4756L18.2139 10.7764L18.5098 10.7451L18.7412 10.5576L24 6.28711L29.2588 10.5576Z" stroke="#23313C" stroke-width="2"/>
<circle cx="20" cy="20" r="2" fill="#23313C"/>
<circle cx="28" cy="28" r="2" fill="#23313C"/>
<path d="M18 30L30 18" stroke="#23313C" stroke-width="2"/>
</svg>
