<svg xmlns="http://www.w3.org/2000/svg" width="34.005" height="34.004" viewBox="0 0 34.005 34.004">
  <g id="ico_013" transform="translate(-258.998 -712.998)">
    <g id="그룹_5350" data-name="그룹 5350" transform="translate(-21.52 309.48)">
      <path id="패스_9819" data-name="패스 9819" d="M287.241,403.522H307.8a6.719,6.719,0,0,1,6.72,6.718h0V430.8a6.718,6.718,0,0,1-6.718,6.72H287.241a6.719,6.719,0,0,1-6.719-6.719h0V410.241a6.719,6.719,0,0,1,6.719-6.719Z" fill="#fff"/>
      <path id="패스_9820" data-name="패스 9820" d="M307.978,432.978h-21a2,2,0,0,1-2-2v-21a2,2,0,0,1,2-2h21a2,2,0,0,1,2,2v21A2,2,0,0,1,307.978,432.978Zm-21-24.8a1.8,1.8,0,0,0-1.8,1.8v21a1.8,1.8,0,0,0,1.8,1.8h21a1.8,1.8,0,0,0,1.8-1.8v-21a1.8,1.8,0,0,0-1.8-1.8Z" fill="#e6e6e6"/>
      <path id="패스_9821" data-name="패스 9821" d="M309.478,431.478h-24a2,2,0,0,1-2-2v-18a2,2,0,0,1,2-2h24a2,2,0,0,1,2,2v18A2,2,0,0,1,309.478,431.478Zm-24-21.8a1.8,1.8,0,0,0-1.8,1.8v18a1.8,1.8,0,0,0,1.8,1.8h24a1.8,1.8,0,0,0,1.8-1.8v-18a1.8,1.8,0,0,0-1.8-1.8Z" fill="#e6e6e6"/>
      <path id="패스_9822" data-name="패스 9822" d="M306.478,434.478h-18a2,2,0,0,1-2-2v-24a2,2,0,0,1,2-2h18a2,2,0,0,1,2,2v24A2,2,0,0,1,306.478,434.478Zm-18-27.8a1.8,1.8,0,0,0-1.8,1.8v24a1.8,1.8,0,0,0,1.8,1.8h18a1.8,1.8,0,0,0,1.8-1.8v-24a1.8,1.8,0,0,0-1.8-1.8Z" fill="#e6e6e6"/>
      <rect id="사각형_10514" data-name="사각형 10514" width="0.2" height="34" transform="translate(297.422 403.518)" fill="#e6e6e6"/>
      <rect id="사각형_10515" data-name="사각형 10515" width="0.2" height="34" transform="translate(291.377 403.518)" fill="#e6e6e6"/>
      <rect id="사각형_10516" data-name="사각형 10516" width="0.199" height="34" transform="translate(303.378 403.518)" fill="#e6e6e6"/>
      <rect id="사각형_10517" data-name="사각형 10517" width="34" height="0.2" transform="translate(280.517 420.377)" fill="#e6e6e6"/>
      <rect id="사각형_10518" data-name="사각형 10518" width="34" height="0.2" transform="translate(280.517 414.377)" fill="#e6e6e6"/>
      <rect id="사각형_10519" data-name="사각형 10519" width="34" height="0.199" transform="translate(280.517 426.378)" fill="#e6e6e6"/>
      <path id="패스_9823" data-name="패스 9823" d="M297.477,434.478a14,14,0,1,1,14-14A14.016,14.016,0,0,1,297.477,434.478Zm0-27.8a13.8,13.8,0,1,0,13.8,13.8A13.815,13.815,0,0,0,297.477,406.678Z" fill="#e6e6e6"/>
      <path id="패스_9824" data-name="패스 9824" d="M297.477,427.478a7,7,0,1,1,7-7A7.008,7.008,0,0,1,297.477,427.478Zm0-13.8a6.8,6.8,0,1,0,6.8,6.8A6.808,6.808,0,0,0,297.477,413.678Z" fill="#e6e6e6"/>
    </g>
    <g id="그룹_5361" data-name="그룹 5361" transform="translate(260 714)">
      <path id="사각형_1709" data-name="사각형 1709" d="M1,0H1A1,1,0,0,1,2,1V8A0,0,0,0,1,2,8H0A0,0,0,0,1,0,8V1A1,1,0,0,1,1,0Z" transform="translate(11 2)" fill="#cfb7a4"/>
      <path id="사각형_1710" data-name="사각형 1710" d="M1,0H1A1,1,0,0,1,2,1V8A0,0,0,0,1,2,8H0A0,0,0,0,1,0,8V1A1,1,0,0,1,1,0Z" transform="translate(19 2)" fill="#cfb7a4"/>
      <path id="패스_2121" data-name="패스 2121" d="M-149.5,46.27h-15a2.784,2.784,0,0,0-2.5,3v2.52a3.139,3.139,0,0,0,.143.936l3,9.6a2.562,2.562,0,0,0,2.341,1.947h9.034a2.562,2.562,0,0,0,2.341-1.947l3-9.6A3.14,3.14,0,0,0-147,51.79V49.27A2.785,2.785,0,0,0-149.5,46.27Z" transform="translate(173 -34.27)" fill="#3d9aab"/>
      <g id="그룹_74" data-name="그룹 74" transform="translate(-0.9 -0.723)">
        <g id="그룹_73" data-name="그룹 73" transform="translate(13.9 15.723)">
          <path id="패스_2054" data-name="패스 2054" d="M14.851,27.223l1.711-5.1-2.16-.67,4.05-5.226-1.211,4.565,2.16.67Z" transform="translate(-13.9 -15.723)" fill="#fff"/>
          <path id="패스_2055" data-name="패스 2055" d="M14.982,27.723a.6.6,0,0,1-.332-.1.771.771,0,0,1-.287-.883l1.359-4.151-1.342-.426a.7.7,0,0,1-.451-.489.8.8,0,0,1,.127-.687l3.793-5a.618.618,0,0,1,.815-.174.766.766,0,0,1,.323.849l-.952,3.667,1.387.441a.7.7,0,0,1,.451.492.791.791,0,0,1-.131.688l-4.259,5.522A.633.633,0,0,1,14.982,27.723Zm1.983-6.22a.712.712,0,0,1,.206.265.8.8,0,0,1,.032.583l-.361,1.106,1.233-1.6L17.04,21.53A.335.335,0,0,1,16.965,21.5Zm-1.244-.436,1.043.331a.476.476,0,0,1,.075.029.716.716,0,0,1-.2-.243.806.806,0,0,1-.057-.558l.277-1.066Z" transform="translate(-13.9 -15.723)" fill="#fff"/>
        </g>
      </g>
    </g>
  </g>
</svg>
