<svg xmlns="http://www.w3.org/2000/svg" xmlns:xlink="http://www.w3.org/1999/xlink" width="34.005" height="34.004" viewBox="0 0 34.005 34.004">
  <defs>
    <clipPath id="clip-path">
      <circle id="타원_571" data-name="타원 571" cx="10" cy="10" r="10" transform="translate(6 6)" fill="#3d9aab"/>
    </clipPath>
  </defs>
  <g id="ico_002" transform="translate(-259.02 -713)">
    <g id="그룹_5350" data-name="그룹 5350" transform="translate(-21.497 309.482)">
      <path id="패스_9819" data-name="패스 9819" d="M287.241,403.522H307.8a6.719,6.719,0,0,1,6.72,6.718h0V430.8a6.718,6.718,0,0,1-6.718,6.72H287.241a6.719,6.719,0,0,1-6.719-6.719h0V410.241a6.719,6.719,0,0,1,6.719-6.719Z" fill="#fff"/>
      <path id="패스_9820" data-name="패스 9820" d="M307.978,432.978h-21a2,2,0,0,1-2-2v-21a2,2,0,0,1,2-2h21a2,2,0,0,1,2,2v21A2,2,0,0,1,307.978,432.978Zm-21-24.8a1.8,1.8,0,0,0-1.8,1.8v21a1.8,1.8,0,0,0,1.8,1.8h21a1.8,1.8,0,0,0,1.8-1.8v-21a1.8,1.8,0,0,0-1.8-1.8Z" fill="#e6e6e6"/>
      <path id="패스_9821" data-name="패스 9821" d="M309.478,431.478h-24a2,2,0,0,1-2-2v-18a2,2,0,0,1,2-2h24a2,2,0,0,1,2,2v18A2,2,0,0,1,309.478,431.478Zm-24-21.8a1.8,1.8,0,0,0-1.8,1.8v18a1.8,1.8,0,0,0,1.8,1.8h24a1.8,1.8,0,0,0,1.8-1.8v-18a1.8,1.8,0,0,0-1.8-1.8Z" fill="#e6e6e6"/>
      <path id="패스_9822" data-name="패스 9822" d="M306.478,434.478h-18a2,2,0,0,1-2-2v-24a2,2,0,0,1,2-2h18a2,2,0,0,1,2,2v24A2,2,0,0,1,306.478,434.478Zm-18-27.8a1.8,1.8,0,0,0-1.8,1.8v24a1.8,1.8,0,0,0,1.8,1.8h18a1.8,1.8,0,0,0,1.8-1.8v-24a1.8,1.8,0,0,0-1.8-1.8Z" fill="#e6e6e6"/>
      <rect id="사각형_10514" data-name="사각형 10514" width="0.2" height="34" transform="translate(297.422 403.518)" fill="#e6e6e6"/>
      <rect id="사각형_10515" data-name="사각형 10515" width="0.2" height="34" transform="translate(291.377 403.518)" fill="#e6e6e6"/>
      <rect id="사각형_10516" data-name="사각형 10516" width="0.199" height="34" transform="translate(303.378 403.518)" fill="#e6e6e6"/>
      <rect id="사각형_10517" data-name="사각형 10517" width="34" height="0.2" transform="translate(280.517 420.377)" fill="#e6e6e6"/>
      <rect id="사각형_10518" data-name="사각형 10518" width="34" height="0.2" transform="translate(280.517 414.377)" fill="#e6e6e6"/>
      <rect id="사각형_10519" data-name="사각형 10519" width="34" height="0.199" transform="translate(280.517 426.378)" fill="#e6e6e6"/>
      <path id="패스_9823" data-name="패스 9823" d="M297.477,434.478a14,14,0,1,1,14-14A14.016,14.016,0,0,1,297.477,434.478Zm0-27.8a13.8,13.8,0,1,0,13.8,13.8A13.815,13.815,0,0,0,297.477,406.678Z" fill="#e6e6e6"/>
      <path id="패스_9824" data-name="패스 9824" d="M297.477,427.478a7,7,0,1,1,7-7A7.008,7.008,0,0,1,297.477,427.478Zm0-13.8a6.8,6.8,0,1,0,6.8,6.8A6.808,6.808,0,0,0,297.477,413.678Z" fill="#e6e6e6"/>
    </g>
    <g id="그룹_5350-2" data-name="그룹 5350" transform="translate(260.069 714.022)">
      <circle id="타원_334" data-name="타원 334" cx="10" cy="10" r="10" transform="translate(6 6)" fill="#3d9aab"/>
      <rect id="사각형_2401" data-name="사각형 2401" width="8" height="4" rx="2" transform="translate(12 20)" fill="#fff"/>
      <g id="마스크_그룹_18" data-name="마스크 그룹 18" clip-path="url(#clip-path)">
        <path id="사각형_2437" data-name="사각형 2437" d="M0,0H8A0,0,0,0,1,8,0V6a4,4,0,0,1-4,4H4A4,4,0,0,1,0,6V0A0,0,0,0,1,0,0Z" transform="translate(12 6)" fill="#fff"/>
      </g>
      <circle id="타원_331" data-name="타원 331" cx="2" cy="2" r="2" transform="translate(14 8)" fill="#cfb7a4"/>
      <g id="그룹_1045" data-name="그룹 1045" transform="translate(-70.543 -6.999)">
        <path id="패스_2223" data-name="패스 2223" d="M86.543,37c-7.069,0-13-5.245-13.5-11.941A1.006,1.006,0,0,1,74.012,24a1.022,1.022,0,0,1,1.112.917,11.506,11.506,0,0,0,22.839,0A1.022,1.022,0,0,1,99.075,24a1.006,1.006,0,0,1,.966,1.055C99.542,31.754,93.612,37,86.543,37Z" transform="translate(0 0)" fill="#cfb7a4"/>
      </g>
      <g id="그룹_1046" data-name="그룹 1046" transform="translate(2.5 2)">
        <path id="패스_2223-2" data-name="패스 2223" d="M86.543,24c-7.069,0-13.092,5.245-13.591,11.941a1.006,1.006,0,0,0,.966,1.055,1.022,1.022,0,0,0,1.112-.917c.423-5.663,5.534-10.1,11.513-10.1a11.261,11.261,0,0,1,11.42,10.1,1.022,1.022,0,0,0,1.112.917,1.006,1.006,0,0,0,.966-1.055C99.542,29.244,93.612,24,86.543,24Z" transform="translate(-73.043 -23.999)" fill="#cfb7a4"/>
      </g>
    </g>
  </g>
</svg>
