<svg xmlns="http://www.w3.org/2000/svg" width="34.005" height="34.004" viewBox="0 0 34.005 34.004">
  <g id="ico_014" transform="translate(-258.997 -712.997)">
    <g id="그룹_5350" data-name="그룹 5350" transform="translate(-21.52 309.48)">
      <path id="패스_9819" data-name="패스 9819" d="M287.241,403.522H307.8a6.719,6.719,0,0,1,6.72,6.718h0V430.8a6.718,6.718,0,0,1-6.718,6.72H287.241a6.719,6.719,0,0,1-6.719-6.719h0V410.241a6.719,6.719,0,0,1,6.719-6.719Z" fill="#fff"/>
      <path id="패스_9820" data-name="패스 9820" d="M307.978,432.978h-21a2,2,0,0,1-2-2v-21a2,2,0,0,1,2-2h21a2,2,0,0,1,2,2v21A2,2,0,0,1,307.978,432.978Zm-21-24.8a1.8,1.8,0,0,0-1.8,1.8v21a1.8,1.8,0,0,0,1.8,1.8h21a1.8,1.8,0,0,0,1.8-1.8v-21a1.8,1.8,0,0,0-1.8-1.8Z" fill="#e6e6e6"/>
      <path id="패스_9821" data-name="패스 9821" d="M309.478,431.478h-24a2,2,0,0,1-2-2v-18a2,2,0,0,1,2-2h24a2,2,0,0,1,2,2v18A2,2,0,0,1,309.478,431.478Zm-24-21.8a1.8,1.8,0,0,0-1.8,1.8v18a1.8,1.8,0,0,0,1.8,1.8h24a1.8,1.8,0,0,0,1.8-1.8v-18a1.8,1.8,0,0,0-1.8-1.8Z" fill="#e6e6e6"/>
      <path id="패스_9822" data-name="패스 9822" d="M306.478,434.478h-18a2,2,0,0,1-2-2v-24a2,2,0,0,1,2-2h18a2,2,0,0,1,2,2v24A2,2,0,0,1,306.478,434.478Zm-18-27.8a1.8,1.8,0,0,0-1.8,1.8v24a1.8,1.8,0,0,0,1.8,1.8h18a1.8,1.8,0,0,0,1.8-1.8v-24a1.8,1.8,0,0,0-1.8-1.8Z" fill="#e6e6e6"/>
      <rect id="사각형_10514" data-name="사각형 10514" width="0.2" height="34" transform="translate(297.422 403.518)" fill="#e6e6e6"/>
      <rect id="사각형_10515" data-name="사각형 10515" width="0.2" height="34" transform="translate(291.377 403.518)" fill="#e6e6e6"/>
      <rect id="사각형_10516" data-name="사각형 10516" width="0.199" height="34" transform="translate(303.378 403.518)" fill="#e6e6e6"/>
      <rect id="사각형_10517" data-name="사각형 10517" width="34" height="0.2" transform="translate(280.517 420.377)" fill="#e6e6e6"/>
      <rect id="사각형_10518" data-name="사각형 10518" width="34" height="0.2" transform="translate(280.517 414.377)" fill="#e6e6e6"/>
      <rect id="사각형_10519" data-name="사각형 10519" width="34" height="0.199" transform="translate(280.517 426.378)" fill="#e6e6e6"/>
      <path id="패스_9823" data-name="패스 9823" d="M297.477,434.478a14,14,0,1,1,14-14A14.016,14.016,0,0,1,297.477,434.478Zm0-27.8a13.8,13.8,0,1,0,13.8,13.8A13.815,13.815,0,0,0,297.477,406.678Z" fill="#e6e6e6"/>
      <path id="패스_9824" data-name="패스 9824" d="M297.477,427.478a7,7,0,1,1,7-7A7.008,7.008,0,0,1,297.477,427.478Zm0-13.8a6.8,6.8,0,1,0,6.8,6.8A6.808,6.808,0,0,0,297.477,413.678Z" fill="#e6e6e6"/>
    </g>
    <g id="그룹_5360" data-name="그룹 5360" transform="translate(260 714.041)">
      <g id="그룹_815" data-name="그룹 815" transform="translate(-1 -2)">
        <path id="패스_2165" data-name="패스 2165" d="M32.266,199.373V207.8a3.136,3.136,0,0,1-2.9,3.16c-3.814,0-3.862-6.32-11.1-6.32s-7.241,6.32-11.1,6.32a3.131,3.131,0,0,1-2.9-3.16v-8.426c0-3.95,3.041-7.373,6.759-7.373H25.507c3.717,0,6.759,3.423,6.759,7.373" transform="translate(-1.266 -184.041)" fill="#3d9aab"/>
        <path id="패스_2166" data-name="패스 2166" d="M6-1c3.314,0,6,2.266,6,3.828s-12,1.562-12,0S2.686-1,6-1Z" transform="translate(11 23.959)" fill="#cfb7a4"/>
      </g>
      <rect id="사각형_2233" data-name="사각형 2233" width="2" height="6" rx="1" transform="translate(8 10)" fill="#fff"/>
      <rect id="사각형_2232" data-name="사각형 2232" width="2" height="6" rx="1" transform="translate(6 14) rotate(-90)" fill="#fff"/>
      <rect id="사각형_2230" data-name="사각형 2230" width="2" height="2" rx="1" transform="translate(24 10) rotate(90)" fill="#fff"/>
      <rect id="사각형_2234" data-name="사각형 2234" width="2" height="2" rx="1" transform="translate(24 14) rotate(90)" fill="#fff"/>
      <rect id="사각형_2231" data-name="사각형 2231" width="2" height="2" rx="1" transform="translate(22 12) rotate(90)" fill="#fff"/>
      <rect id="사각형_2229" data-name="사각형 2229" width="2" height="2" rx="1" transform="translate(26 12) rotate(90)" fill="#fff"/>
    </g>
  </g>
</svg>
