<svg xmlns="http://www.w3.org/2000/svg" width="34.005" height="34.004" viewBox="0 0 34.005 34.004">
  <g id="ico_008" transform="translate(-259 -713.04)">
    <g id="그룹_5350" data-name="그룹 5350" transform="translate(-21.517 309.523)">
      <path id="패스_9819" data-name="패스 9819" d="M287.241,403.522H307.8a6.719,6.719,0,0,1,6.72,6.718h0V430.8a6.718,6.718,0,0,1-6.718,6.72H287.241a6.719,6.719,0,0,1-6.719-6.719h0V410.241a6.719,6.719,0,0,1,6.719-6.719Z" fill="#fff"/>
      <path id="패스_9820" data-name="패스 9820" d="M307.978,432.978h-21a2,2,0,0,1-2-2v-21a2,2,0,0,1,2-2h21a2,2,0,0,1,2,2v21A2,2,0,0,1,307.978,432.978Zm-21-24.8a1.8,1.8,0,0,0-1.8,1.8v21a1.8,1.8,0,0,0,1.8,1.8h21a1.8,1.8,0,0,0,1.8-1.8v-21a1.8,1.8,0,0,0-1.8-1.8Z" fill="#e6e6e6"/>
      <path id="패스_9821" data-name="패스 9821" d="M309.478,431.478h-24a2,2,0,0,1-2-2v-18a2,2,0,0,1,2-2h24a2,2,0,0,1,2,2v18A2,2,0,0,1,309.478,431.478Zm-24-21.8a1.8,1.8,0,0,0-1.8,1.8v18a1.8,1.8,0,0,0,1.8,1.8h24a1.8,1.8,0,0,0,1.8-1.8v-18a1.8,1.8,0,0,0-1.8-1.8Z" fill="#e6e6e6"/>
      <path id="패스_9822" data-name="패스 9822" d="M306.478,434.478h-18a2,2,0,0,1-2-2v-24a2,2,0,0,1,2-2h18a2,2,0,0,1,2,2v24A2,2,0,0,1,306.478,434.478Zm-18-27.8a1.8,1.8,0,0,0-1.8,1.8v24a1.8,1.8,0,0,0,1.8,1.8h18a1.8,1.8,0,0,0,1.8-1.8v-24a1.8,1.8,0,0,0-1.8-1.8Z" fill="#e6e6e6"/>
      <rect id="사각형_10514" data-name="사각형 10514" width="0.2" height="34" transform="translate(297.422 403.518)" fill="#e6e6e6"/>
      <rect id="사각형_10515" data-name="사각형 10515" width="0.2" height="34" transform="translate(291.377 403.518)" fill="#e6e6e6"/>
      <rect id="사각형_10516" data-name="사각형 10516" width="0.199" height="34" transform="translate(303.378 403.518)" fill="#e6e6e6"/>
      <rect id="사각형_10517" data-name="사각형 10517" width="34" height="0.2" transform="translate(280.517 420.377)" fill="#e6e6e6"/>
      <rect id="사각형_10518" data-name="사각형 10518" width="34" height="0.2" transform="translate(280.517 414.377)" fill="#e6e6e6"/>
      <rect id="사각형_10519" data-name="사각형 10519" width="34" height="0.199" transform="translate(280.517 426.378)" fill="#e6e6e6"/>
      <path id="패스_9823" data-name="패스 9823" d="M297.477,434.478a14,14,0,1,1,14-14A14.016,14.016,0,0,1,297.477,434.478Zm0-27.8a13.8,13.8,0,1,0,13.8,13.8A13.815,13.815,0,0,0,297.477,406.678Z" fill="#e6e6e6"/>
      <path id="패스_9824" data-name="패스 9824" d="M297.477,427.478a7,7,0,1,1,7-7A7.008,7.008,0,0,1,297.477,427.478Zm0-13.8a6.8,6.8,0,1,0,6.8,6.8A6.808,6.808,0,0,0,297.477,413.678Z" fill="#e6e6e6"/>
    </g>
    <g id="그룹_5356" data-name="그룹 5356" transform="translate(259 714)">
      <path id="빼기_16" data-name="빼기 16" d="M-914-442h-6v-21a3,3,0,0,1,3-3h10a3,3,0,0,1,3,3v21h-6v-6a1,1,0,0,0-1-1h-2a1,1,0,0,0-1,1v6Z" transform="translate(933 470)" fill="#3d9aab"/>
      <path id="사각형_2488" data-name="사각형 2488" d="M2,0H4A2,2,0,0,1,6,2V18a0,0,0,0,1,0,0H0a0,0,0,0,1,0,0V2A2,2,0,0,1,2,0Z" transform="translate(5 10)" fill="#cfb7a4"/>
      <rect id="사각형_1817" data-name="사각형 1817" width="2" height="2" transform="translate(18 8)" fill="#fff"/>
      <rect id="사각형_1823" data-name="사각형 1823" width="2" height="2" transform="translate(18 12)" fill="#fff"/>
      <rect id="사각형_2492" data-name="사각형 2492" width="2" height="2" transform="translate(18 16)" fill="#fff"/>
      <rect id="사각형_1821" data-name="사각형 1821" width="2" height="2" transform="translate(22 8)" fill="#fff"/>
      <rect id="사각형_2489" data-name="사각형 2489" width="2" height="2" transform="translate(7 18)" fill="#fff"/>
      <rect id="사각형_2491" data-name="사각형 2491" width="2" height="2" transform="translate(7 14)" fill="#fff"/>
      <rect id="사각형_1822" data-name="사각형 1822" width="2" height="2" transform="translate(22 12)" fill="#fff"/>
      <rect id="사각형_2493" data-name="사각형 2493" width="2" height="2" transform="translate(22 16)" fill="#fff"/>
      <rect id="사각형_2490" data-name="사각형 2490" width="2" height="2" transform="translate(7 22)" fill="#fff"/>
    </g>
  </g>
</svg>
