<svg xmlns="http://www.w3.org/2000/svg" width="34.005" height="34.004" viewBox="0 0 34.005 34.004">
  <g id="ico_005" transform="translate(-258.998 -713)">
    <g id="그룹_5350" data-name="그룹 5350" transform="translate(-21.52 309.482)">
      <path id="패스_9819" data-name="패스 9819" d="M287.241,403.522H307.8a6.719,6.719,0,0,1,6.72,6.718h0V430.8a6.718,6.718,0,0,1-6.718,6.72H287.241a6.719,6.719,0,0,1-6.719-6.719h0V410.241a6.719,6.719,0,0,1,6.719-6.719Z" fill="#fff"/>
      <path id="패스_9820" data-name="패스 9820" d="M307.978,432.978h-21a2,2,0,0,1-2-2v-21a2,2,0,0,1,2-2h21a2,2,0,0,1,2,2v21A2,2,0,0,1,307.978,432.978Zm-21-24.8a1.8,1.8,0,0,0-1.8,1.8v21a1.8,1.8,0,0,0,1.8,1.8h21a1.8,1.8,0,0,0,1.8-1.8v-21a1.8,1.8,0,0,0-1.8-1.8Z" fill="#e6e6e6"/>
      <path id="패스_9821" data-name="패스 9821" d="M309.478,431.478h-24a2,2,0,0,1-2-2v-18a2,2,0,0,1,2-2h24a2,2,0,0,1,2,2v18A2,2,0,0,1,309.478,431.478Zm-24-21.8a1.8,1.8,0,0,0-1.8,1.8v18a1.8,1.8,0,0,0,1.8,1.8h24a1.8,1.8,0,0,0,1.8-1.8v-18a1.8,1.8,0,0,0-1.8-1.8Z" fill="#e6e6e6"/>
      <path id="패스_9822" data-name="패스 9822" d="M306.478,434.478h-18a2,2,0,0,1-2-2v-24a2,2,0,0,1,2-2h18a2,2,0,0,1,2,2v24A2,2,0,0,1,306.478,434.478Zm-18-27.8a1.8,1.8,0,0,0-1.8,1.8v24a1.8,1.8,0,0,0,1.8,1.8h18a1.8,1.8,0,0,0,1.8-1.8v-24a1.8,1.8,0,0,0-1.8-1.8Z" fill="#e6e6e6"/>
      <rect id="사각형_10514" data-name="사각형 10514" width="0.2" height="34" transform="translate(297.422 403.518)" fill="#e6e6e6"/>
      <rect id="사각형_10515" data-name="사각형 10515" width="0.2" height="34" transform="translate(291.377 403.518)" fill="#e6e6e6"/>
      <rect id="사각형_10516" data-name="사각형 10516" width="0.199" height="34" transform="translate(303.378 403.518)" fill="#e6e6e6"/>
      <rect id="사각형_10517" data-name="사각형 10517" width="34" height="0.2" transform="translate(280.517 420.377)" fill="#e6e6e6"/>
      <rect id="사각형_10518" data-name="사각형 10518" width="34" height="0.2" transform="translate(280.517 414.377)" fill="#e6e6e6"/>
      <rect id="사각형_10519" data-name="사각형 10519" width="34" height="0.199" transform="translate(280.517 426.378)" fill="#e6e6e6"/>
      <path id="패스_9823" data-name="패스 9823" d="M297.477,434.478a14,14,0,1,1,14-14A14.016,14.016,0,0,1,297.477,434.478Zm0-27.8a13.8,13.8,0,1,0,13.8,13.8A13.815,13.815,0,0,0,297.477,406.678Z" fill="#e6e6e6"/>
      <path id="패스_9824" data-name="패스 9824" d="M297.477,427.478a7,7,0,1,1,7-7A7.008,7.008,0,0,1,297.477,427.478Zm0-13.8a6.8,6.8,0,1,0,6.8,6.8A6.808,6.808,0,0,0,297.477,413.678Z" fill="#e6e6e6"/>
    </g>
    <g id="그룹_5353" data-name="그룹 5353" transform="translate(261 714)">
      <g id="그룹_1038" data-name="그룹 1038">
        <path id="사각형_1555" data-name="사각형 1555" d="M3,0H9A0,0,0,0,1,9,0V24a0,0,0,0,1,0,0H0a0,0,0,0,1,0,0V3A3,3,0,0,1,3,0Z" transform="translate(5 2)" fill="#3d9aab"/>
        <path id="사각형_2399" data-name="사각형 2399" d="M0,0H20a0,0,0,0,1,0,0V0a2,2,0,0,1-2,2H2A2,2,0,0,1,0,0V0A0,0,0,0,1,0,0Z" transform="translate(5 28)" fill="#cfb7a4"/>
        <path id="사각형_1557" data-name="사각형 1557" d="M0,0H6A3,3,0,0,1,9,3V24a0,0,0,0,1,0,0H0a0,0,0,0,1,0,0V0A0,0,0,0,1,0,0Z" transform="translate(16 2)" fill="#3d9aab"/>
        <rect id="사각형_2401" data-name="사각형 2401" width="5" height="7" rx="1" transform="translate(7 6)" fill="#fff"/>
        <rect id="사각형_2393" data-name="사각형 2393" width="2" height="4" rx="1" transform="translate(10 15)" fill="#fff"/>
        <rect id="사각형_2403" data-name="사각형 2403" width="2" height="9" rx="1" transform="translate(18 10)" fill="#fff"/>
      </g>
    </g>
  </g>
</svg>
