<svg xmlns="http://www.w3.org/2000/svg" width="34.005" height="34.004" viewBox="0 0 34.005 34.004">
  <g id="ico_011" transform="translate(-259.04 -712.998)">
    <g id="그룹_5350" data-name="그룹 5350" transform="translate(-21.477 309.48)">
      <path id="패스_9819" data-name="패스 9819" d="M287.241,403.522H307.8a6.719,6.719,0,0,1,6.72,6.718h0V430.8a6.718,6.718,0,0,1-6.718,6.72H287.241a6.719,6.719,0,0,1-6.719-6.719h0V410.241a6.719,6.719,0,0,1,6.719-6.719Z" fill="#fff"/>
      <path id="패스_9820" data-name="패스 9820" d="M307.978,432.978h-21a2,2,0,0,1-2-2v-21a2,2,0,0,1,2-2h21a2,2,0,0,1,2,2v21A2,2,0,0,1,307.978,432.978Zm-21-24.8a1.8,1.8,0,0,0-1.8,1.8v21a1.8,1.8,0,0,0,1.8,1.8h21a1.8,1.8,0,0,0,1.8-1.8v-21a1.8,1.8,0,0,0-1.8-1.8Z" fill="#e6e6e6"/>
      <path id="패스_9821" data-name="패스 9821" d="M309.478,431.478h-24a2,2,0,0,1-2-2v-18a2,2,0,0,1,2-2h24a2,2,0,0,1,2,2v18A2,2,0,0,1,309.478,431.478Zm-24-21.8a1.8,1.8,0,0,0-1.8,1.8v18a1.8,1.8,0,0,0,1.8,1.8h24a1.8,1.8,0,0,0,1.8-1.8v-18a1.8,1.8,0,0,0-1.8-1.8Z" fill="#e6e6e6"/>
      <path id="패스_9822" data-name="패스 9822" d="M306.478,434.478h-18a2,2,0,0,1-2-2v-24a2,2,0,0,1,2-2h18a2,2,0,0,1,2,2v24A2,2,0,0,1,306.478,434.478Zm-18-27.8a1.8,1.8,0,0,0-1.8,1.8v24a1.8,1.8,0,0,0,1.8,1.8h18a1.8,1.8,0,0,0,1.8-1.8v-24a1.8,1.8,0,0,0-1.8-1.8Z" fill="#e6e6e6"/>
      <rect id="사각형_10514" data-name="사각형 10514" width="0.2" height="34" transform="translate(297.422 403.518)" fill="#e6e6e6"/>
      <rect id="사각형_10515" data-name="사각형 10515" width="0.2" height="34" transform="translate(291.377 403.518)" fill="#e6e6e6"/>
      <rect id="사각형_10516" data-name="사각형 10516" width="0.199" height="34" transform="translate(303.378 403.518)" fill="#e6e6e6"/>
      <rect id="사각형_10517" data-name="사각형 10517" width="34" height="0.2" transform="translate(280.517 420.377)" fill="#e6e6e6"/>
      <rect id="사각형_10518" data-name="사각형 10518" width="34" height="0.2" transform="translate(280.517 414.377)" fill="#e6e6e6"/>
      <rect id="사각형_10519" data-name="사각형 10519" width="34" height="0.199" transform="translate(280.517 426.378)" fill="#e6e6e6"/>
      <path id="패스_9823" data-name="패스 9823" d="M297.477,434.478a14,14,0,1,1,14-14A14.016,14.016,0,0,1,297.477,434.478Zm0-27.8a13.8,13.8,0,1,0,13.8,13.8A13.815,13.815,0,0,0,297.477,406.678Z" fill="#e6e6e6"/>
      <path id="패스_9824" data-name="패스 9824" d="M297.477,427.478a7,7,0,1,1,7-7A7.008,7.008,0,0,1,297.477,427.478Zm0-13.8a6.8,6.8,0,1,0,6.8,6.8A6.808,6.808,0,0,0,297.477,413.678Z" fill="#e6e6e6"/>
    </g>
    <g id="그룹_5359" data-name="그룹 5359" transform="translate(259 713)">
      <path id="패스_2249" data-name="패스 2249" d="M27.894,30c-.055,0-.111,0-.166-.007A21.511,21.511,0,0,1,8.006,10.284a2.122,2.122,0,0,1,.551-1.59,2.041,2.041,0,0,1,1.5-.663L14.368,8a2.07,2.07,0,0,1,2.016,1.562l.9,3.576a2.052,2.052,0,0,1-.77,2.153l-1.731,1.29a16.765,16.765,0,0,0,6.546,6.581l1.339-1.772a2.072,2.072,0,0,1,2.159-.762l3.6.894a2.06,2.06,0,0,1,1.572,2v4.412a2.023,2.023,0,0,1-.657,1.5A2.134,2.134,0,0,1,27.894,30Z" transform="translate(-4)" fill="#3d9aab"/>
      <path id="사각형_2509" data-name="사각형 2509" d="M3,0h7a3,3,0,0,1,3,3V8a3,3,0,0,1-3,3H0a0,0,0,0,1,0,0V3A3,3,0,0,1,3,0Z" transform="translate(17 4)" fill="#cfb7a4"/>
      <path id="다각형_11" data-name="다각형 11" d="M3,0,6,3H0Z" transform="translate(15 12)" fill="#cfb7a4"/>
      <rect id="사각형_1733" data-name="사각형 1733" width="2" height="2" transform="translate(28 10.5) rotate(180)" fill="#fff"/>
      <rect id="사각형_2510" data-name="사각형 2510" width="2" height="2" transform="translate(24.5 10.5) rotate(180)" fill="#fff"/>
      <path id="패스_2064" data-name="패스 2064" d="M0,0H2V2H0Z" transform="translate(21 10.5) rotate(180)" fill="#fff"/>
    </g>
  </g>
</svg>
