<svg xmlns="http://www.w3.org/2000/svg" width="34.005" height="34.004" viewBox="0 0 34.005 34.004">
  <g id="ico_009" transform="translate(-259.04 -713)">
    <g id="그룹_5350" data-name="그룹 5350" transform="translate(-21.477 309.482)">
      <path id="패스_9819" data-name="패스 9819" d="M287.241,403.522H307.8a6.719,6.719,0,0,1,6.72,6.718h0V430.8a6.718,6.718,0,0,1-6.718,6.72H287.241a6.719,6.719,0,0,1-6.719-6.719h0V410.241a6.719,6.719,0,0,1,6.719-6.719Z" fill="#fff"/>
      <path id="패스_9820" data-name="패스 9820" d="M307.978,432.978h-21a2,2,0,0,1-2-2v-21a2,2,0,0,1,2-2h21a2,2,0,0,1,2,2v21A2,2,0,0,1,307.978,432.978Zm-21-24.8a1.8,1.8,0,0,0-1.8,1.8v21a1.8,1.8,0,0,0,1.8,1.8h21a1.8,1.8,0,0,0,1.8-1.8v-21a1.8,1.8,0,0,0-1.8-1.8Z" fill="#e6e6e6"/>
      <path id="패스_9821" data-name="패스 9821" d="M309.478,431.478h-24a2,2,0,0,1-2-2v-18a2,2,0,0,1,2-2h24a2,2,0,0,1,2,2v18A2,2,0,0,1,309.478,431.478Zm-24-21.8a1.8,1.8,0,0,0-1.8,1.8v18a1.8,1.8,0,0,0,1.8,1.8h24a1.8,1.8,0,0,0,1.8-1.8v-18a1.8,1.8,0,0,0-1.8-1.8Z" fill="#e6e6e6"/>
      <path id="패스_9822" data-name="패스 9822" d="M306.478,434.478h-18a2,2,0,0,1-2-2v-24a2,2,0,0,1,2-2h18a2,2,0,0,1,2,2v24A2,2,0,0,1,306.478,434.478Zm-18-27.8a1.8,1.8,0,0,0-1.8,1.8v24a1.8,1.8,0,0,0,1.8,1.8h18a1.8,1.8,0,0,0,1.8-1.8v-24a1.8,1.8,0,0,0-1.8-1.8Z" fill="#e6e6e6"/>
      <rect id="사각형_10514" data-name="사각형 10514" width="0.2" height="34" transform="translate(297.422 403.518)" fill="#e6e6e6"/>
      <rect id="사각형_10515" data-name="사각형 10515" width="0.2" height="34" transform="translate(291.377 403.518)" fill="#e6e6e6"/>
      <rect id="사각형_10516" data-name="사각형 10516" width="0.199" height="34" transform="translate(303.378 403.518)" fill="#e6e6e6"/>
      <rect id="사각형_10517" data-name="사각형 10517" width="34" height="0.2" transform="translate(280.517 420.377)" fill="#e6e6e6"/>
      <rect id="사각형_10518" data-name="사각형 10518" width="34" height="0.2" transform="translate(280.517 414.377)" fill="#e6e6e6"/>
      <rect id="사각형_10519" data-name="사각형 10519" width="34" height="0.199" transform="translate(280.517 426.378)" fill="#e6e6e6"/>
      <path id="패스_9823" data-name="패스 9823" d="M297.477,434.478a14,14,0,1,1,14-14A14.016,14.016,0,0,1,297.477,434.478Zm0-27.8a13.8,13.8,0,1,0,13.8,13.8A13.815,13.815,0,0,0,297.477,406.678Z" fill="#e6e6e6"/>
      <path id="패스_9824" data-name="패스 9824" d="M297.477,427.478a7,7,0,1,1,7-7A7.008,7.008,0,0,1,297.477,427.478Zm0-13.8a6.8,6.8,0,1,0,6.8,6.8A6.808,6.808,0,0,0,297.477,413.678Z" fill="#e6e6e6"/>
    </g>
    <g id="그룹_5357" data-name="그룹 5357" transform="translate(260.5 713.5)">
      <path id="패스_9826" data-name="패스 9826" d="M2.884,0H22.114A2.944,2.944,0,0,1,25,3V9a2.944,2.944,0,0,1-2.884,3H2.884A2.944,2.944,0,0,1,0,9V3A2.944,2.944,0,0,1,2.884,0Z" transform="translate(3 11.499)" fill="#3d9aab"/>
      <path id="패스_9825" data-name="패스 9825" d="M2810.029,7732.56a1.164,1.164,0,0,1-.566-1.444l1.773-7.111a1.607,1.607,0,0,1,.151-.386.962.962,0,0,1,.9-.618h14.183a.963.963,0,0,1,.937.746,1.626,1.626,0,0,1,.075.229l1.78,7.137a1.161,1.161,0,0,1-.563,1.446c-.474.144-.992-.274-1.157-.932l-1.67-6.7h-13.013l-1.672,6.707a1.136,1.136,0,0,1-.966.957A.647.647,0,0,1,2810.029,7732.56Z" transform="translate(-2804.093 -7718)" fill="#3d9aab"/>
      <path id="패스_9830" data-name="패스 9830" d="M2.75,0A2.75,2.75,0,1,1,0,2.75,2.75,2.75,0,0,1,2.75,0Z" transform="translate(6 14.749)" fill="#fff"/>
      <path id="패스_9829" data-name="패스 9829" d="M2.75,0A2.75,2.75,0,1,1,0,2.75,2.75,2.75,0,0,1,2.75,0Z" transform="translate(19.5 14.749)" fill="#fff"/>
      <path id="패스_9828" data-name="패스 9828" d="M0,0H5.769A2.884,2.884,0,0,1,2.884,2.884,2.884,2.884,0,0,1,0,0Z" transform="translate(7.807 25.199)" fill="#cfb7a4"/>
      <path id="패스_9827" data-name="패스 9827" d="M0,0H5.769A2.884,2.884,0,0,1,2.884,2.884,2.884,2.884,0,0,1,0,0Z" transform="translate(17.422 25.199)" fill="#cfb7a4"/>
    </g>
  </g>
</svg>
