<svg xmlns="http://www.w3.org/2000/svg" width="1122" height="287" viewBox="0 0 1122 287">
    <g opacity="0.08">
        <path fill="none" d="M0 0H1122V287H0z"/>
        <path fill="#2bd3c6" d="M425.174 234.911c0 13.942-13.228 25.234-29.526 25.234s-29.526-11.293-29.526-25.234V96.181c0-13.942 13.228-25.234 29.526-25.234s29.526 11.293 29.526 25.234zm472.421 0c0 13.942-13.228 25.234-29.526 25.234s-29.526-11.293-29.526-25.234V96.181c0-13.942 13.228-25.234 29.526-25.234S897.6 82.24 897.6 96.181zM608.178 70.947c-16.334 0-29.574 11.293-29.574 25.234v91.7a22.1 22.1 0 0 0-2.02-5.948c-9.472-15.337-49.628-80.315-59.9-97.118-4.96-8.112-14.645-13.871-26.491-13.871-16.358 0-29.585 11.293-29.585 25.234v138.71c0 13.93 13.239 25.223 29.585 25.223l41.384.036c-3.142-4.091-13.216-16.366-26.621-25.577-31.983-21.994-14.314-54.513 15.165-47.264 28.534 7.036 29.6 56.334 29.6 72.842 12.791 0 43.959 0 58.6-.036 16.275-.035 29.444-11.328 29.444-25.223V96.181c0-13.942-13.24-25.234-29.586-25.234m183.772 0h-119.4c-12.684 0-22.971 11.955-22.971 26.713s10.275 26.713 22.971 26.713h32.007v110.54c0 13.942 12.4 25.234 27.7 25.234s27.7-11.293 27.7-25.234V124.372h31.992c12.684 0 22.971-11.967 22.971-26.724 0-14.734-10.275-26.7-22.971-26.7m298.594-68.7c-11.291-4.73-21.613-1.774-28.523 6.918-8.385 10.524-5.185 24.88 4.323 32.861 7.264 6.09 5.634 19.5-8 19.5H945.168c-13.228 0-23.952 12.558-23.952 28.037S931.94 117.6 945.168 117.6h33.365v116.058c0 14.627 12.921 26.488 28.865 26.488s28.865-11.86 28.865-26.488V117.6h23.385c38.054 0 62.348-23 62.348-57.5 0-22.255-14.551-50.753-31.451-57.848M290.156 71.006c-11.94 0-20.432 5.132-25.723 14.036-10.051 16.933-40.675 68.715-47.455 80.173a14.96 14.96 0 0 0-1.335 3.607 14.608 14.608 0 0 0-1.358-3.666c-6.708-11.317-36.341-61.312-47.159-79.487-5.882-9.874-13.984-14.722-25.983-14.722-19.605 0-27.672 13.516-29.6 25.542-11.75 73.054-18.47 134.425-43.26 134.425-14.019 0-23.2-12.333-15.271-26.772 8.1-14.781 12.106-29.208-7.76-39.164-9.366-4.706-21.849-2.164-28.865 5.014-30.471 31.171-21.5 113.8 52.876 113.8 54.069 0 78.327-30.922 89.264-109.96 5.551 12.061 16.925 43 27.991 71.186a27.5 27.5 0 0 0 25.57 17.465h20.267c0-16.709 1.039-66.61 28.735-73.717 28.629-7.355 45.778 25.566 14.728 47.832-13.015 9.318-22.794 21.734-25.841 25.885l40.179-.035c15.862 0 28.723-11.435 28.723-25.53V96.536c0-14.1-12.862-25.542-28.723-25.542" transform="translate(0.005 1.024)"/>
    </g>
</svg>
