<svg xmlns="http://www.w3.org/2000/svg" width="1920" height="363" viewBox="0 0 1920 363">
    <defs>
        <clipPath id="clip-path">
            <path id="사각형_9440" fill="none" d="M0 0H1920V363H0z" transform="translate(0 11460)"/>
        </clipPath>
        <style>
            .cls-3{fill:#2bd3c6;opacity:.1}
        </style>
    </defs>
    <g id="bg_img_003" clip-path="url(#clip-path)" transform="translate(0 -11460)">
        <path id="패스_9503" d="M72.25-136.5q31.25 0 48 14.875T137-76.75V0h-36.5v-16.75Q89.5 2 59.5 2 44 2 32.625-3.25T15.25-17.75a37.739 37.739 0 0 1-6-21q0-18.75 14.125-29.5T67-79h31q0-12.75-7.75-19.625T67-105.5a67.887 67.887 0 0 0-21.125 3.375A55.889 55.889 0 0 0 28.25-93l-14-27.25a84.472 84.472 0 0 1 26.375-12 118.15 118.15 0 0 1 31.625-4.25zm-3 112.25A33.965 33.965 0 0 0 87-28.875 25.308 25.308 0 0 0 98-42.5v-13.75H71.25q-24 0-24 15.75a14.026 14.026 0 0 0 5.875 11.875Q59-24.25 69.25-24.25zm90.5-161.25h39V0h-39zm62.75 0h39V0h-39zm158.25 68.75a43.368 43.368 0 0 1 18.875-14.75q11.875-5 27.375-5v36q-6.5-.5-8.75-.5-16.75 0-26.25 9.375T382.5-63.5V0h-39v-134.5h37.25zm57-17.75h39V0h-39zm19.5-18.75q-10.75 0-17.5-6.25A20.27 20.27 0 0 1 433-175a20.27 20.27 0 0 1 6.75-15.5q6.75-6.25 17.5-6.25t17.5 6a19.238 19.238 0 0 1 6.75 15 21.229 21.229 0 0 1-6.75 16.125q-6.75 6.375-17.5 6.375zm182 18.75v112q0 37-19.25 55t-56.25 18a140.682 140.682 0 0 1-37-4.75q-17.5-4.75-29-13.75l15.5-28q8.5 7 21.5 11.125a85.549 85.549 0 0 0 26 4.125q20.25 0 29.875-9.125T600.25-17.5v-5.75Q585-6.5 557.75-6.5a71.371 71.371 0 0 1-33.875-8.125A61.921 61.921 0 0 1 499.5-37.5q-9-14.75-9-34t9-34a61.922 61.922 0 0 1 24.375-22.875 71.371 71.371 0 0 1 33.875-8.125q29.25 0 44.5 19.25v-17.25zm-73.75 96q15.5 0 25.375-9.125T600.75-71.5q0-14.75-9.875-23.875T565.5-104.5q-15.5 0-25.5 9.125T530-71.5q0 14.75 10 23.875t25.5 9.125zm179.25-98q25 0 40.375 15T800.5-77V0h-39v-71q0-16-7-23.875t-20.25-7.875q-14.75 0-23.5 9.125T702-66.5V0h-39v-185.5h39v65a51.88 51.88 0 0 1 18.75-11.875 67.829 67.829 0 0 1 24-4.125zM910-6.5a40.088 40.088 0 0 1-14.125 6.375A71.414 71.414 0 0 1 878.25 2q-24 0-37.125-12.25T828-46.25v-55.25h-20.75v-30H828v-32.75h39v32.75h33.5v30H867v54.75q0 8.5 4.375 13.125T883.75-29a25.064 25.064 0 0 0 15.75-5zM964.75 2A130.655 130.655 0 0 1 932-2.125Q916-6.25 906.5-12.5l13-28a81.819 81.819 0 0 0 21.75 9.375 91.158 91.158 0 0 0 25 3.625Q991-27.5 991-39.75q0-5.75-6.75-8.25t-20.75-4.25A200.178 200.178 0 0 1 936.25-58a42.277 42.277 0 0 1-18.625-11.5q-7.875-8.25-7.875-23.5a36.812 36.812 0 0 1 7.375-22.625q7.375-9.875 21.5-15.375T972-136.5a130.987 130.987 0 0 1 28.375 3.125q14.125 3.125 23.375 8.625l-13 27.75A77.609 77.609 0 0 0 972-107q-12.5 0-18.75 3.5t-6.25 9q0 6.25 6.75 8.75t21.5 4.75a230.141 230.141 0 0 1 27 5.875 40.562 40.562 0 0 1 18.25 11.375q7.75 8.25 7.75 23a35.517 35.517 0 0 1-7.5 22.25q-7.5 9.75-21.875 15.125T964.75 2z" class="cls-3" transform="translate(-37 11657)"/>
        <path id="패스_9502" d="M55.25-116.75a43.368 43.368 0 0 1 18.875-14.75q11.875-5 27.375-5v36q-6.5-.5-8.75-.5Q76-101 66.5-91.625T57-63.5V0H18v-134.5h37.25zm187.5 50q0 .75-.75 10.5H140.25a31.689 31.689 0 0 0 13 19.75q10.25 7.25 25.5 7.25a51.635 51.635 0 0 0 18.625-3.125A45.112 45.112 0 0 0 212.5-42.25l20.75 22.5Q214.25 2 177.75 2 155 2 137.5-6.875a65.059 65.059 0 0 1-27-24.625Q101-47.25 101-67.25a68.732 68.732 0 0 1 9.375-35.625 65.678 65.678 0 0 1 25.75-24.75 75.6 75.6 0 0 1 36.625-8.875 75 75 0 0 1 35.75 8.5 62.041 62.041 0 0 1 25.125 24.375q9.125 15.875 9.125 36.875zM173-107q-13.25 0-22.25 7.5t-11 20.5H206q-2-12.75-11-20.375T173-107zM301.5 2a130.655 130.655 0 0 1-32.75-4.125q-16-4.125-25.5-10.375l13-28A81.819 81.819 0 0 0 278-31.125a91.158 91.158 0 0 0 25 3.625q24.75 0 24.75-12.25 0-5.75-6.75-8.25t-20.75-4.25A200.177 200.177 0 0 1 273-58a42.277 42.277 0 0 1-18.625-11.5Q246.5-77.75 246.5-93a36.812 36.812 0 0 1 7.375-22.625q7.375-9.875 21.5-15.375t33.375-5.5a130.986 130.986 0 0 1 28.375 3.125q14.125 3.125 23.375 8.625L347.5-97a77.609 77.609 0 0 0-38.75-10q-12.5 0-18.75 3.5t-6.25 9q0 6.25 6.75 8.75T312-81a230.141 230.141 0 0 1 27 5.875 40.562 40.562 0 0 1 18.25 11.375q7.75 8.25 7.75 23a35.517 35.517 0 0 1-7.5 22.25Q350-8.75 335.625-3.375T301.5 2zm206.75-68.75q0 .75-.75 10.5H405.75a31.689 31.689 0 0 0 13 19.75q10.25 7.25 25.5 7.25a51.635 51.635 0 0 0 18.625-3.125A45.112 45.112 0 0 0 478-42.25l20.75 22.5Q479.75 2 443.25 2 420.5 2 403-6.875A65.059 65.059 0 0 1 376-31.5q-9.5-15.75-9.5-35.75a68.732 68.732 0 0 1 9.375-35.625 65.678 65.678 0 0 1 25.75-24.75 75.6 75.6 0 0 1 36.625-8.875A75 75 0 0 1 474-128a62.041 62.041 0 0 1 25.125 24.375q9.125 15.875 9.125 36.875zM438.5-107q-13.25 0-22.25 7.5t-11 20.5h66.25q-2-12.75-11-20.375t-22-7.625zm120.5-9.75a43.368 43.368 0 0 1 18.875-14.75q11.875-5 27.375-5v36q-6.5-.5-8.75-.5-16.75 0-26.25 9.375t-9.5 28.125V0h-39v-134.5H559zm195.25-17.75L697.5 0h-40.25l-56.5-134.5H641L678.25-43l38.5-91.5zm131.5 67.75q0 .75-.75 10.5H783.25a31.689 31.689 0 0 0 13 19.75q10.25 7.25 25.5 7.25a51.635 51.635 0 0 0 18.625-3.125A45.112 45.112 0 0 0 855.5-42.25l20.75 22.5Q857.25 2 820.75 2 798 2 780.5-6.875a65.059 65.059 0 0 1-27-24.625Q744-47.25 744-67.25a68.732 68.732 0 0 1 9.375-35.625 65.678 65.678 0 0 1 25.75-24.75 75.6 75.6 0 0 1 36.625-8.875 75 75 0 0 1 35.75 8.5 62.041 62.041 0 0 1 25.125 24.375q9.125 15.875 9.125 36.875zM816-107q-13.25 0-22.25 7.5t-11 20.5H849q-2-12.75-11-20.375T816-107zm220.25-78.5V0H999v-15.5Q984.5 2 957 2a69.843 69.843 0 0 1-34.375-8.5A60.861 60.861 0 0 1 898.5-30.75q-8.75-15.75-8.75-36.5t8.75-36.5A60.861 60.861 0 0 1 922.625-128 69.843 69.843 0 0 1 957-136.5q25.75 0 40.25 16.25v-65.25zM963.75-30q14.75 0 24.5-10.125T998-67.25q0-17-9.75-27.125t-24.5-10.125q-15 0-24.75 10.125t-9.75 27.125q0 17 9.75 27.125T963.75-30z" class="cls-3" transform="translate(896 11821)"/>
    </g>
</svg>
