<svg xmlns="http://www.w3.org/2000/svg" width="200" height="120" viewBox="0 0 200 120">
    <defs>
        <style>
            .cls-2{fill:#5c5c5c}
        </style>
    </defs>
    <g id="logo_img_sk-broadband" transform="translate(21 35)">
        <path id="사각형_10411" fill="none" d="M0 0H200V120H0z" transform="translate(-21 -35)"/>
        <g id="그룹_5553" transform="translate(0 28.456)">
            <g id="그룹_5549">
                <g id="그룹_5548">
                    <path id="패스_11855" d="M89.763 73.873c-1.8-.846-3.284-1.526-3.284-2.9 0-1.052.843-1.819 2.51-1.819a8.78 8.78 0 0 1 1.628.166 4.743 4.743 0 0 0 .8.088c1.453 0 2.275-.867 2.819-2.513l.227-.671a15.2 15.2 0 0 0-5.707-1.137c-4.924 0-7.526 3.159-7.526 6.437a5.558 5.558 0 0 0 1.329 3.8 11.949 11.949 0 0 0 3.926 2.689c2.031 1 3.863 1.732 3.863 3.209 0 1.309-1.353 2.053-3.162 2.053a9.909 9.909 0 0 1-4.924-1.586L80.226 85.5a14.046 14.046 0 0 0 7.3 1.871c4.6 0 8.081-2.638 8.081-6.7-.002-4.036-3.229-5.534-5.844-6.798z" class="cls-2" transform="translate(-80.226 -65.083)"/>
                    <path id="패스_11856" d="M101.725 75.611l8.341-10.23h-5.943l-6.655 8.826h-.1v-8.826h-4.9v21.667h.291c2.119 0 4.639-.98 4.639-4.52v-4.972h.1l6.782 9.221h6.232z" class="cls-2" transform="translate(-74.2 -64.936)"/>
                </g>
            </g>
            <g id="그룹_5552" transform="translate(47.632 4.158)">
                <g id="그룹_5551">
                    <g id="그룹_5550">
                        <path id="패스_11857" d="M123.149 79.784c0-4.226-2.781-6.218-5.986-6.218a8.3 8.3 0 0 0-2.032.27v-3.231a2.464 2.464 0 0 0-2.511-2.735h-.47v17.2a15.88 15.88 0 0 0 4.806.742c3.91.003 6.193-2.475 6.193-6.028zm-3.2-.084c0 2.52-1.577 3.691-3.377 3.691a5.964 5.964 0 0 1-1.44-.179v-7.028A5.707 5.707 0 0 1 116.57 76c1.964 0 3.377 1.3 3.377 3.7z" class="cls-2" transform="translate(-112.149 -67.87)"/>
                    </g>
                    <path id="패스_11858" d="M126.8 71.686a5.034 5.034 0 0 0-3.195 1.68 2.073 2.073 0 0 0-2.153-1.459 3.8 3.8 0 0 0-.782.093 11.546 11.546 0 0 1 .33 2.833v8.842h2.987v-8.342a3.675 3.675 0 0 1 2.3-1.034 2.512 2.512 0 0 1 1.356.357l1.092-2.475a3.127 3.127 0 0 0-1.935-.495z" class="cls-2" transform="translate(-107.956 -65.992)"/>
                    <path id="패스_11859" d="M131.934 83.938c-3.653 0-5.853-2.413-5.853-6.121s2.171-6.131 5.853-6.131 5.859 2.438 5.859 6.131c.001 3.49-2.004 6.121-5.859 6.121zm0-2.3c1.843 0 2.887-1.574 2.887-3.823 0-2.228-1.024-3.833-2.887-3.833-1.8 0-2.883 1.559-2.883 3.833.001 2.194 1.032 3.825 2.883 3.825z" class="cls-2" transform="translate(-105.293 -65.992)"/>
                    <path id="패스_11860" d="M142.459 82.495a1.781 1.781 0 0 0 1.759 1.179 5.885 5.885 0 0 0 1.385-.192 11.409 11.409 0 0 1-.366-3.312v-4.12c0-3.053-1.965-4.363-5-4.363a8.541 8.541 0 0 0-4.59 1.367l.206.363c.254.436.482 1.079 1.231 1.079s1.383-.573 2.8-.573c1.559 0 2.316.757 2.316 1.913v.413h-.979c-4 0-6.112 1.549-6.112 4.033a3.662 3.662 0 0 0 3.987 3.659 4.338 4.338 0 0 0 3.363-1.446zm-.258-1.77a3.717 3.717 0 0 1-2.187.834A1.656 1.656 0 0 1 138.2 79.9c0-.874.843-1.632 2.46-1.632h1.54z" class="cls-2" transform="translate(-100.85 -65.992)"/>
                    <path id="패스_11861" d="M149.6 85.815a15.786 15.786 0 0 0 4.806-.743V67.87h-.468a2.465 2.465 0 0 0-2.513 2.735v3.232a8.283 8.283 0 0 0-2.031-.27c-3.205 0-5.989 1.992-5.989 6.218-.005 3.551 2.282 6.03 6.195 6.03zm.381-9.815a5.667 5.667 0 0 1 1.443.182v7.028a5.847 5.847 0 0 1-1.44.179c-1.8 0-3.375-1.17-3.375-3.69-.003-2.405 1.41-3.699 3.372-3.699z" class="cls-2" transform="translate(-96.77 -67.87)"/>
                    <path id="패스_11862" d="M184.894 85.815a15.774 15.774 0 0 0 4.806-.743V67.87h-.47a2.463 2.463 0 0 0-2.51 2.735v3.232a8.282 8.282 0 0 0-2.031-.27c-3.206 0-5.989 1.992-5.989 6.218 0 3.551 2.284 6.03 6.194 6.03zM185.28 76a5.648 5.648 0 0 1 1.44.182v7.028a5.872 5.872 0 0 1-1.44.179c-1.8 0-3.377-1.17-3.377-3.69C181.9 77.294 183.318 76 185.28 76z" class="cls-2" transform="translate(-79.399 -67.87)"/>
                    <path id="패스_11863" d="M163.875 79.784c0-4.226-2.783-6.218-5.989-6.218a8.263 8.263 0 0 0-2.029.27v-3.231a2.464 2.464 0 0 0-2.511-2.735h-.47v17.2a15.873 15.873 0 0 0 4.807.742c3.91.003 6.192-2.475 6.192-6.028zm-3.2-.084c0 2.52-1.577 3.691-3.377 3.691a5.938 5.938 0 0 1-1.44-.179v-7.029A5.736 5.736 0 0 1 157.3 76c1.957 0 3.373 1.3 3.373 3.7z" class="cls-2" transform="translate(-92.108 -67.87)"/>
                    <path id="패스_11864" d="M168.786 82.495a1.784 1.784 0 0 0 1.759 1.179 5.871 5.871 0 0 0 1.385-.192 11.466 11.466 0 0 1-.363-3.312v-4.12c0-3.053-1.968-4.363-5.006-4.363a8.535 8.535 0 0 0-4.59 1.367s.122.216.207.363c.252.436.48 1.079 1.23 1.079s1.383-.573 2.8-.573c1.561 0 2.317.757 2.317 1.913v.413h-.98c-4 0-6.109 1.549-6.109 4.033a3.66 3.66 0 0 0 3.984 3.659 4.335 4.335 0 0 0 3.366-1.446zm-.257-1.77a3.725 3.725 0 0 1-2.186.834 1.657 1.657 0 0 1-1.817-1.664c0-.874.843-1.632 2.46-1.632h1.543z" class="cls-2" transform="translate(-87.893 -65.992)"/>
                    <path id="패스_11865" d="M170.263 75.734v7.954h2.987v-8.266a3.982 3.982 0 0 1 2.4-1.164 2.293 2.293 0 0 1 2.335 2.563v6.867h2.977v-7.612a4.109 4.109 0 0 0-4.333-4.417 5.285 5.285 0 0 0-3.589 1.568 1.934 1.934 0 0 0-2-1.307 5.933 5.933 0 0 0-1.119.149 16.085 16.085 0 0 1 .342 3.665z" class="cls-2" transform="translate(-83.719 -66.005)"/>
                </g>
            </g>
        </g>
        <g id="그룹_5559" transform="translate(23.253 0)">
            <g id="그룹_5558">
                <g id="그룹_5557">
                    <g id="그룹_5556">
                        <g id="그룹_5554" transform="translate(15.924 13.312)">
                            <path id="패스_11866" d="M114.794 62.354l.924.034c.431.027.918.055 1.579.052a17.868 17.868 0 0 0 9.108-2.52 32.114 32.114 0 0 0-15.792-4.987c-.44 1.244-3.87 10.78-4.13 11.546a12.756 12.756 0 0 1 1.391 2.032 22.4 22.4 0 0 1 2.022 4.239c.855-1.435 1-3.657 1.085-6.2.083-2.116.447-4.184 3.813-4.196z" class="cls-2" transform="translate(-106.482 -54.934)"/>
                            <path id="패스_11867" d="M130.753 62.732a19.391 19.391 0 0 0-4.335-3.86l-.069.04a20.186 20.186 0 0 1-10.227 2.951c-.648 0-1.025-.022-1.358-.043l-.9-.031c-2.316.01-2.783.994-2.865 2.92l-.013.521-.027.968c-.088 2.128-.364 4.529-1.74 6.2l-.061.073a2.913 2.913 0 0 0 .166.355.539.539 0 0 0 .482.3 1.123 1.123 0 0 0 .44-.119c.407-.187 16.579-7.714 19.015-8.839.355-.172 1.025-.469 1.247-.6a.6.6 0 0 0 .334-.516.645.645 0 0 0-.089-.32z" class="cls-2" transform="translate(-105.162 -52.996)"/>
                        </g>
                        <g id="그룹_5555">
                            <path id="패스_11868" d="M106.185 49.911l-.146.027c-1.606.3-4.15 1.788-4.141 4.5a7.179 7.179 0 0 0 .915 3.08 9.517 9.517 0 0 1 1.155 4.258 5.937 5.937 0 0 1-2.656 5.048c.5-.036 1.041-.058 1.623-.058a16.356 16.356 0 0 1 2.477.148l7.744-9.5a32.2 32.2 0 0 0-6.971-7.503z" class="cls-2" transform="translate(-93.102 -44.093)"/>
                            <path id="패스_11869" d="M102.472 68.265a5.138 5.138 0 0 0 2.8-4.611A8.41 8.41 0 0 0 104.236 60a8.715 8.715 0 0 1-1.067-3.788 5.805 5.805 0 0 1 4.269-5.434c-5.238-3.623-10.138-4.769-11.045-4.766a.574.574 0 0 0-.583.63c0 .257.1.973.14 1.364.286 2.684 2.225 20.4 2.274 20.849s.248.71.64.707c.058 0 .131 0 .21-.009a5.925 5.925 0 0 0 1.5-.361 12.471 12.471 0 0 0 1.898-.927z" class="cls-2" transform="translate(-95.81 -46.012)"/>
                        </g>
                    </g>
                </g>
            </g>
        </g>
    </g>
</svg>
