<svg xmlns="http://www.w3.org/2000/svg" width="200" height="120" viewBox="0 0 200 120">
  <g id="logo_img_hana-capital" transform="translate(-380 -1516.715)">
    <rect id="사각형_10422" data-name="사각형 10422" width="200" height="120" transform="translate(380 1516.715)" fill="none"/>
    <g id="logo_img_hana-card" transform="translate(401 1558.715)">
      <g id="그룹_5635" data-name="그룹 5635" transform="translate(0 0)">
        <path id="패스_12021" data-name="패스 12021" d="M-23.195,412.906a6.411,6.411,0,0,0-.452-1.545,7.652,7.652,0,0,0-3.057-3.539,6.878,6.878,0,0,0-7.085.043,6.22,6.22,0,0,0-2.332,2.5,7.5,7.5,0,0,0-.444,1.093,7.7,7.7,0,0,0,.484,5.979,3.007,3.007,0,0,0,1.434,1.246,2.076,2.076,0,0,0,1.854-.142,1.968,1.968,0,0,0,.69-2.071,5.433,5.433,0,0,1,.066-2.892,2.247,2.247,0,0,1,.514-.823,1.866,1.866,0,0,1,.492-.336,2.061,2.061,0,0,1,1.22-.2,2.34,2.34,0,0,1,1.644,1.343,5.426,5.426,0,0,1,.448,2.14,32.324,32.324,0,0,1-1.429,9.581q-.126.475-.263.947c-.068.243-.193.552-.038.789a.612.612,0,0,0,.285.217,1.074,1.074,0,0,0,1.178-.42,17.1,17.1,0,0,0,3.9-6.82,21.9,21.9,0,0,0,.747-2.854,12.517,12.517,0,0,0,.143-4.237" transform="translate(48.625 -391.974)" fill="#5c5c5c"/>
        <path id="패스_12022" data-name="패스 12022" d="M-91.175,331.814a.812.812,0,0,0-.882-.78,4.178,4.178,0,0,0-1.317.415,53.3,53.3,0,0,1-26.243,2.479c-1.487-.215-2.993-.514-4.489-.747-.934-.147-1.86-.359-2.8-.43a3.38,3.38,0,0,0-2.454.47,2.592,2.592,0,0,0-.312,3.071,6.9,6.9,0,0,0,2.671,2.581,6.46,6.46,0,0,0,3.5,1.194q4.983-.319,9.939-.961c5.63-.732,11.532-1.421,16.822-3.6a21.188,21.188,0,0,0,4.917-2.758c.267-.2.655-.538.655-.929" transform="translate(130.03 -325.662)" fill="#5c5c5c"/>
        <path id="패스_12023" data-name="패스 12023" d="M-8.915,291.56a3.246,3.246,0,0,0,3.247,3.246,3.244,3.244,0,0,0,3.24-3.246,1.839,1.839,0,0,0-.175-.779c-.279-.588-.59-.875-.558-1.582.042-.952-1.18-.965-1.839-.965a4.774,4.774,0,0,0-2.127.424A3.284,3.284,0,0,0-8.4,289.8a3.276,3.276,0,0,0-.514,1.682v.074" transform="translate(24.115 -288.234)" fill="#5c5c5c"/>
      </g>
    </g>
    <path id="패스_12062" data-name="패스 12062" d="M5.481-17.955V-20.52h3.78v2.565H14.31v2.43H11.664a8.4,8.4,0,0,1,1.418,2.565,10.1,10.1,0,0,1,.553,3.24,11.15,11.15,0,0,1-.486,3.186,7.71,7.71,0,0,1-1.3,2.511A6.011,6.011,0,0,1,9.882-2.349a5.328,5.328,0,0,1-2.511.594,5.284,5.284,0,0,1-2.592-.58A5.93,5.93,0,0,1,2.808-4,7.836,7.836,0,0,1,1.526-6.534,10.861,10.861,0,0,1,1.08-9.72a9.632,9.632,0,0,1,.526-3.24,8.4,8.4,0,0,1,1.418-2.565H.54v-2.43Zm1.89,2.484q-1.134,0-1.9,1.58A9.362,9.362,0,0,0,4.725-9.72,8.838,8.838,0,0,0,5.454-5.7q.756,1.512,1.89,1.512t1.89-1.5A9.039,9.039,0,0,0,9.99-9.72a9.81,9.81,0,0,0-.742-4.239Q8.505-15.471,7.371-15.471Zm13.014,4.806V3.915H16.74V-20.52h3.645V-13.1H23.9v2.43Zm9.423,5.13h7.277q.553,0,1.093-.054a6.191,6.191,0,0,0,1.067-.2,5.459,5.459,0,0,0,1.12-.473V-20.52H44.01V-13.1h3.51v2.43H44.01V3.915H40.365V-3.834a7.63,7.63,0,0,1-2.174.58,19.04,19.04,0,0,1-2.335.149H27.783a2.48,2.48,0,0,1-2.012-.985,3.641,3.641,0,0,1-.8-2.363V-19.44H28.62V-6.534a.928.928,0,0,0,.3.743A1.333,1.333,0,0,0,29.808-5.535Zm23.652-5.13H48.33V-13.1h5.832q.108-.648.176-1.3a13.034,13.034,0,0,0,.067-1.35v-1H48.33v-2.43h9.855v2.727a17.623,17.623,0,0,1-.7,4.806,14.279,14.279,0,0,1-1.971,4.158A12.652,12.652,0,0,1,52.34-4.306,11.984,11.984,0,0,1,48.06-2.457V-4.914a9.3,9.3,0,0,0,3.253-2.308A11.389,11.389,0,0,0,53.46-10.665Zm10.53.135V3.915H60.48V-20.52h3.51v7.56h1.755v-7.56h3.51V3.915h-3.51V-10.53Zm7.965-6.21v-2.43H85.32v2.43H83.3v6.507a26.408,26.408,0,0,1-.135,2.781,9.709,9.709,0,0,1-.351,1.917h.756v2.43H71.82v-2.43h2.16v-11.2Zm5.67,11.2h1.539a7.358,7.358,0,0,0,.378-1.931q.108-1.228.108-2.767V-16.74H77.625Zm3.375,0h1.89q.864,0,1.633-.013a9.092,9.092,0,0,0,1.5-.149A6.926,6.926,0,0,0,87.4-6.115a5.325,5.325,0,0,0,1.35-.851V-4.59A4.928,4.928,0,0,1,86.2-3.4a17.859,17.859,0,0,1-3.254.3H81ZM91.53-20.52V3.915H87.885V-20.52ZM115.182,4.185H101.79a2.384,2.384,0,0,1-1.08-.256,2.723,2.723,0,0,1-.891-.716,3.792,3.792,0,0,1-.607-1.053A3.49,3.49,0,0,1,98.982.891v-3.24H111.24V-3.942H98.982v-2.43h15.93v4.158a2.528,2.528,0,0,1-.54,1.606,1.56,1.56,0,0,1-1.242.689h-10.5V.81a.883.883,0,0,0,.284.689,1.188,1.188,0,0,0,.824.257h11.448ZM95.85-19.98h11.475v2.43H99.5v2.025h7.56v2.43H99.5v1.161a.928.928,0,0,0,.3.743,1.333,1.333,0,0,0,.891.257h6.4q1.188,0,2.146-.081a5.431,5.431,0,0,0,2.011-.621V-20.52h3.645v4.455h3.51v2.43h-3.51V-7.7H111.24V-9.288a7.334,7.334,0,0,1-2.011.621A14.479,14.479,0,0,1,107-8.505H98.658a2.48,2.48,0,0,1-2.011-.985,3.641,3.641,0,0,1-.8-2.363Z" transform="translate(440 1589)" fill="#5c5c5c"/>
  </g>
</svg>
