<svg xmlns="http://www.w3.org/2000/svg" width="200" height="120" viewBox="0 0 200 120">
    <defs>
        <style>
            .cls-2{fill:#5c5c5c}
        </style>
    </defs>
    <g id="logo_img_sk-telink" transform="translate(40 32)">
        <path id="사각형_10410" fill="none" d="M0 0H200V120H0z" transform="translate(-40 -32)"/>
        <g id="그룹_5542" transform="translate(53.444 36.262)">
            <path id="패스_11843" d="M321.169 311.286v8.924h3.353v-9.273a4.453 4.453 0 0 1 2.692-1.306 2.573 2.573 0 0 1 2.621 2.875v7.7h3.342v-8.542a4.612 4.612 0 0 0-4.863-4.955 5.941 5.941 0 0 0-4.028 1.76 2.168 2.168 0 0 0-2.24-1.465 6.844 6.844 0 0 0-1.257.166 18.01 18.01 0 0 1 .38 4.116z" class="cls-2" transform="translate(-282.408 -300.061)"/>
            <path id="패스_11844" d="M293.886 308.263v-13.7a2.584 2.584 0 0 0-2.634-2.744h-.717v17.789a2.5 2.5 0 0 0 2.778 2.655c2.172 0 2.824-1.547 2.824-3a2.623 2.623 0 0 1-1.015.234 1.127 1.127 0 0 1-1.236-1.234z" class="cls-2" transform="translate(-265.661 -291.817)"/>
            <g id="그룹_5540" transform="translate(0 3.008)">
                <path id="패스_11845" d="M240.643 311.528v-6.514h2.8l.975-2.52h-3.776v-3.941h-.312c-1.491 0-3.038.634-3.038 3.908v.033h-2.472v2.519h2.474v7.673a2.958 2.958 0 0 0 3.108 3.3c1.474 0 3.375-.449 3.375-3.368a3.275 3.275 0 0 1-1.613.533c-1.088.002-1.521-.664-1.521-1.623z" class="cls-2" transform="translate(-234.82 -298.552)"/>
            </g>
            <g id="그룹_5541" transform="translate(32.078 0.859)">
                <path id="패스_11846" d="M310.833 295.763a2.081 2.081 0 1 1-2.08-2.024 2.053 2.053 0 0 1 2.08 2.024z" class="cls-2" transform="translate(-306.673 -293.739)"/>
                <path id="사각형_9978" d="M0 0H3.35V13.202H0z" class="cls-2" transform="translate(0.405 6.087)"/>
            </g>
            <path id="패스_11847" d="M264.385 306.83c-3.209 0-5.917 2.609-5.917 6.883 0 4.376 2.625 6.859 6.548 6.859a7.907 7.907 0 0 0 4.93-1.492s-.3-.495-.39-.633a1.664 1.664 0 0 0-1.488-.947c-1.1 0-1.245.461-2.741.461a3.379 3.379 0 0 1-3.518-3.339h8.591v-.994c0-4.1-2.358-6.798-6.015-6.798zm-2.584 5.416a2.743 2.743 0 0 1 2.533-2.9 2.715 2.715 0 0 1 2.593 2.9z" class="cls-2" transform="translate(-247.91 -300.126)"/>
            <path id="패스_11848" d="M354.907 291.814h.71a2.588 2.588 0 0 1 2.626 2.742v8.85h.057l4.2-4.642h3.942l-5.451 5.7 5.873 7.5h-3.887l-4.675-6.11h-.057v6.11h-3.337z" class="cls-2" transform="translate(-301.295 -291.814)"/>
        </g>
        <g id="그룹_5545" transform="translate(0 6.368)">
            <g id="그룹_5543" transform="translate(0 25.536)">
                <path id="패스_11849" d="M125.811 291.915c-2.023-.946-3.684-1.71-3.684-3.257 0-1.18.945-2.041 2.813-2.041a9.592 9.592 0 0 1 1.829.189 5.623 5.623 0 0 0 .9.1c1.631 0 2.552-.974 3.163-2.82l.254-.752a16.988 16.988 0 0 0-6.4-1.278c-5.528 0-8.447 3.546-8.445 7.224a6.225 6.225 0 0 0 1.491 4.259 13.39 13.39 0 0 0 4.406 3.017c2.277 1.117 4.332 1.944 4.332 3.6 0 1.469-1.517 2.305-3.548 2.305a11.1 11.1 0 0 1-5.523-1.782l-2.285 4.281a15.784 15.784 0 0 0 8.19 2.1c5.16 0 9.066-2.961 9.066-7.513-.005-4.533-3.626-6.212-6.559-7.632z" class="cls-2" transform="translate(-115.109 -282.052)"/>
                <path id="패스_11850" d="M171.409 294.652l9.361-11.474h-6.67l-7.465 9.9h-.112v-9.9h-5.5v24.307h.327c2.377 0 5.206-1.1 5.206-5.068v-5.582h.11l7.61 10.347h6.994z" class="cls-2" transform="translate(-140.528 -282.675)"/>
            </g>
            <g id="그룹_5544" transform="translate(34.9)">
                <path id="패스_11851" d="M198.935 224.854c-1.935.365-4.8 2.121-4.8 5.227.007 2.822 2.314 4.531 2.321 8.227a6.537 6.537 0 0 1-3.174 5.692c.669-.058 1.4-.1 2.21-.1a18.313 18.313 0 0 1 2.776.168l8.682-10.654a36.113 36.113 0 0 0-8.015-8.56z" class="cls-2" transform="translate(-193.282 -224.854)"/>
                <path id="패스_11852" d="M217.436 264.234c1.094-1.7 1.23-4.412 1.324-7.174.1-2.575.64-4.514 4.086-4.526.763 0 1.49.1 2.808.1a20.318 20.318 0 0 0 10.394-2.9 36.057 36.057 0 0 0-17.889-5.706c-.493 1.4-4.338 12.084-4.628 12.946a14.357 14.357 0 0 1 1.557 2.278 25.294 25.294 0 0 1 2.348 4.982z" class="cls-2" transform="translate(-204.491 -235.466)"/>
            </g>
        </g>
        <g id="그룹_5546" transform="translate(26.085 0)">
            <path id="패스_11853" d="M176.961 236.994c-.439 0-.657-.289-.717-.8s-2.227-20.365-2.55-23.371c-.046-.439-.156-1.244-.157-1.532a.643.643 0 0 1 .655-.705c1.029 0 6.635 1.31 12.584 5.481-1.714.484-4.815 2.265-4.8 5.957.012 3.267 2.351 5.065 2.363 8.344.018 5.332-6.109 6.624-7.378 6.626z" class="cls-2" transform="translate(-173.537 -210.59)"/>
            <path id="패스_11854" d="M223.4 273.672a3.837 3.837 0 0 0 .27.6.593.593 0 0 0 .534.336 1.28 1.28 0 0 0 .5-.132c.458-.211 18.585-8.651 21.319-9.911.4-.19 1.148-.526 1.4-.671a.664.664 0 0 0 .374-.577.685.685 0 0 0-.1-.356 22.207 22.207 0 0 0-5.028-4.448 22.407 22.407 0 0 1-11.372 3.287c-1.325 0-1.624-.089-2.53-.084-2.639.009-3.3 1.138-3.4 3.453-.017.437-.024 1.026-.05 1.669-.097 2.07-.341 4.924-1.917 6.834z" class="cls-2" transform="translate(-201.137 -237.118)"/>
        </g>
    </g>
</svg>
