<svg xmlns="http://www.w3.org/2000/svg" width="200" height="120" viewBox="0 0 200 120">
    <defs>
        <style>
            .cls-2{fill:#5c5c5c}
        </style>
    </defs>
    <g id="logo_img_lotte" transform="translate(25 35)">
        <path id="사각형_10415" fill="none" d="M0 0H200V120H0z" transform="translate(-25 -35)"/>
        <path id="패스_11902" d="M392.372 127.346c4.669-1.117 8.059-4.623 8.35-9.111h-7.708v-1.574H404a11.452 11.452 0 0 1-1.15 5.27h5.128v-6.08h3.146v15.1h-3.146v-7.4h-6.1a13.78 13.78 0 0 1-9 5.184zm6.673 7.5c0 .4 0 .786.8.786H411.7v1.575h-14.148c-1.584 0-1.584-1.148-1.584-1.956v-5.156h3.076z" class="cls-2" transform="translate(-283.568 -101.726)"/>
        <path id="패스_11903" d="M423.618 117.114a9.058 9.058 0 0 0 5.394 7.946l-1.049 1.239a12.617 12.617 0 0 1-5.918-4.506 12.32 12.32 0 0 1-5.939 4.506l-1.027-1.239a8.931 8.931 0 0 0 5.293-7.872v-1.075h3.246zm7.808 14.651v-2.383h-12.321v-1.6h15.421v5.513h-12.317v1.813c0 .36.146.551.555.551h12.1v1.577h-13.8a1.774 1.774 0 0 1-1.938-1.934v-3.536zm3.1-15.913v10.833H431.4v-5.464h-4.346v-1.582h4.346v-3.787z" class="cls-2" transform="translate(-284.774 -101.726)"/>
        <path id="패스_11904" d="M384.012 137.231h3.2v-21.379h-3.2zm-5.112-13.665h-4.019v1.915h4.019v4.492a6.432 6.432 0 0 1-2.528.474h-4.548a.764.764 0 0 1-.762-.776v-10.638h5.826v-1.542h-9.134v12.963a1.527 1.527 0 0 0 1.519 1.535h7.1a4.993 4.993 0 0 0 2.528-.549v5.791h3.192v-21.379H378.9z" class="cls-2" transform="translate(-282.26 -101.726)"/>
        <path id="패스_11905" d="M353.554 127.166v-2.1h7.03v-1.535h-13.247a.767.767 0 0 1-.771-.765v-1.346H360.3v-5.177h-17.033v1.536h13.725v2.1h-13.725v3.648a1.534 1.534 0 0 0 1.535 1.543h5.441v2.1h-8.764v1.53h20.891v-1.537zm.093 2.52h-3.7c-.982 4.063-5.8 6.113-7.558 6.369l.919 1.364a15.971 15.971 0 0 0 8.488-4.51 16.015 16.015 0 0 0 8.488 4.51l.927-1.364c-1.77-.256-6.587-2.306-7.563-6.369" class="cls-2" transform="translate(-280.864 -101.747)"/>
        <path id="제외_3" fill="#5c5c5c" stroke="rgba(0,0,0,0)" stroke-miterlimit="10" d="M24.934 49.857a14.409 14.409 0 0 1-10.264-4.233L4.238 35.191a14.544 14.544 0 0 1 0-20.525L14.67 4.238a14.539 14.539 0 0 1 20.521 0l10.432 10.428a14.554 14.554 0 0 1 0 20.525L35.192 45.624a14.4 14.4 0 0 1-10.258 4.233zM24.345 9.02a5.5 5.5 0 0 0-4.01 1.608c-2.2 2.186-2.611 6.014-2.566 8.84.023 1.2.352 11.846 4.731 17.47a9.742 9.742 0 0 0 2.278 2.16 6.45 6.45 0 0 0 3.651 1.176 8.378 8.378 0 0 0 1.371-.127.1.1 0 0 1 .037-.01.252.252 0 0 1 .027-.009c2.561-.586 5.354-2.952 7.474-6.321a1.35 1.35 0 0 0 .178-1.039 1.384 1.384 0 0 0-.616-.868 1.369 1.369 0 0 0-.733-.214 1.384 1.384 0 0 0-1.167.648c-1.665 2.656-3.91 4.657-5.719 5.095a5.218 5.218 0 0 1-.834.078 3.633 3.633 0 0 1-2.138-.725 6.831 6.831 0 0 1-1.622-1.54C21.555 31.213 20.6 23.4 20.536 19.424c-.055-3.233.567-5.66 1.75-6.831a2.776 2.776 0 0 1 2.07-.813h.244a2.756 2.756 0 0 1 2.065.813c1.182 1.171 1.8 3.6 1.75 6.831a24 24 0 0 1-3.25 12.376 1.411 1.411 0 0 0-.154 1.049 1.355 1.355 0 0 0 .634.847 1.324 1.324 0 0 0 .707.2 1.385 1.385 0 0 0 1.189-.67 28.559 28.559 0 0 0 3.642-13.76c.045-2.827-.364-6.657-2.566-8.84A5.5 5.5 0 0 0 24.6 9.02zm-5.66 28.149a1.544 1.544 0 0 0-1.476 1.6 1.53 1.53 0 0 0 1.536 1.476h.064a1.546 1.546 0 0 0 1.075-.5 1.539 1.539 0 0 0-1.121-2.582z" transform="translate(0 0)"/>
    </g>
</svg>
