<svg xmlns="http://www.w3.org/2000/svg" width="200" height="120" viewBox="0 0 200 120">
    <defs>
        <style>
            .cls-2,.cls-3{fill:#5c5c5c}.cls-3{mix-blend-mode:multiply;isolation:isolate}
        </style>
    </defs>
    <g id="logo_img_sk-planet" transform="translate(38 31)">
        <path id="사각형_10412" fill="none" d="M0 0H200V120H0z" transform="translate(-38 -31)"/>
        <g id="그룹_5566" transform="translate(0 0)">
            <g id="그룹_5565">
                <g id="그룹_5563" transform="translate(0 5.872)">
                    <g id="그룹_5561" transform="translate(0 23.555)">
                        <path id="패스_11870" d="M258.957 308.819c-1.866-.873-3.4-1.577-3.4-3 0-1.09.876-1.88 2.6-1.88a8.867 8.867 0 0 1 1.687.169 5.123 5.123 0 0 0 .827.091c1.5 0 2.351-.9 2.915-2.6l.236-.694a15.624 15.624 0 0 0-5.9-1.178c-5.1 0-7.789 3.269-7.787 6.66a5.757 5.757 0 0 0 1.373 3.931 12.366 12.366 0 0 0 4.062 2.783c2.1 1.031 4 1.791 4 3.317 0 1.356-1.4 2.129-3.274 2.129a10.231 10.231 0 0 1-5.1-1.646l-2.105 3.953a14.6 14.6 0 0 0 7.555 1.933c4.758-.007 8.368-2.732 8.368-6.929-.005-4.18-3.354-5.732-6.057-7.039z" class="cls-2" transform="translate(-249.086 -299.723)"/>
                        <path id="패스_11871" d="M311.117 311.585L319.746 301H313.6l-6.887 9.134h-.1V301h-5.072v22.421h.306c2.19 0 4.8-1.014 4.8-4.677V313.6h.106l7.015 9.546h6.453z" class="cls-2" transform="translate(-282.631 -300.54)"/>
                    </g>
                    <g id="그룹_5562" transform="translate(32.189)">
                        <path id="패스_11872" d="M343.6 234.379c-1.788.335-4.428 1.957-4.427 4.819.006 2.605 2.136 4.182 2.143 7.594a6.027 6.027 0 0 1-2.933 5.246c.62-.055 1.3-.089 2.039-.093a16.456 16.456 0 0 1 2.563.156l8-9.83a33.381 33.381 0 0 0-7.385-7.892z" class="cls-2" transform="translate(-338.383 -234.379)"/>
                        <path id="패스_11873" d="M365.121 274.916c1.009-1.571 1.136-4.069 1.217-6.619.1-2.373.591-4.162 3.771-4.174.707 0 1.375.1 2.591.087a18.659 18.659 0 0 0 9.585-2.675 33.3 33.3 0 0 0-16.5-5.262c-.455 1.29-4 11.147-4.267 11.942a12.82 12.82 0 0 1 1.432 2.1 22.963 22.963 0 0 1 2.171 4.601z" class="cls-2" transform="translate(-353.179 -248.381)"/>
                    </g>
                </g>
                <g id="그룹_5564" transform="translate(24.062)">
                    <path id="패스_11874" d="M318.99 242.442c-.4 0-.6-.266-.66-.731s-2.053-18.784-2.35-21.558c-.045-.407-.143-1.149-.143-1.414a.591.591 0 0 1 .6-.649c.951-.006 6.124 1.208 11.608 5.055-1.583.445-4.444 2.087-4.428 5.493.013 3.013 2.17 4.671 2.181 7.7.017 4.915-5.636 6.104-6.808 6.104z" class="cls-2" transform="translate(-315.836 -218.09)"/>
                    <path id="패스_11875" d="M372.785 286.8a3.422 3.422 0 0 0 .248.558.545.545 0 0 0 .493.309 1.137 1.137 0 0 0 .456-.12c.424-.194 17.145-7.977 19.667-9.142.36-.177 1.058-.484 1.287-.618a.625.625 0 0 0 .345-.534.641.641 0 0 0-.1-.329 20.684 20.684 0 0 0-4.637-4.1 20.639 20.639 0 0 1-10.491 3.036c-1.221 0-1.5-.081-2.333-.081-2.436.013-3.041 1.053-3.13 3.185-.017.4-.024.952-.049 1.543-.072 1.909-.3 4.538-1.756 6.293z" class="cls-2" transform="translate(-352.256 -253.094)"/>
                </g>
            </g>
        </g>
        <g id="그룹_5568" transform="translate(54.847 33.421)">
            <g id="그룹_5567">
                <path id="패스_11876" d="M574.365 330.408v-6.027h2.589l.91-2.33h-3.5v-3.644h-.289c-1.383 0-2.809.586-2.809 3.61v.034h-2.294v2.33h2.294v7.1a2.735 2.735 0 0 0 2.876 3.051c1.366 0 3.126-.414 3.126-3.119a3.039 3.039 0 0 1-1.5.5c-1.008-.003-1.403-.619-1.403-1.505z" class="cls-3" transform="translate(-508.509 -315.665)"/>
                <path id="패스_11877" d="M538.647 333a2.535 2.535 0 0 1 2.339-2.677 2.5 2.5 0 0 1 2.392 2.677zm2.385-5c-2.962 0-5.466 2.408-5.466 6.355 0 4.04 2.425 6.332 6.05 6.332a7.386 7.386 0 0 0 4.559-1.37l-.365-.587a1.532 1.532 0 0 0-1.371-.877c-1.021 0-1.155.428-2.534.428a3.122 3.122 0 0 1-3.252-3.082h7.939v-.922c0-3.782-2.181-6.276-5.559-6.276" class="cls-3" transform="translate(-487.144 -321.804)"/>
                <path id="패스_11878" d="M443.267 326v-12.66a2.387 2.387 0 0 0-2.435-2.533h-.665v16.434a2.309 2.309 0 0 0 2.568 2.453 2.466 2.466 0 0 0 2.609-2.774 2.42 2.42 0 0 1-.936.217 1.042 1.042 0 0 1-1.141-1.137z" class="cls-3" transform="translate(-426.135 -310.805)"/>
                <path id="패스_11879" d="M467.543 337.349a3.892 3.892 0 0 1-2.268.863 1.716 1.716 0 0 1-1.884-1.718c0-.908.877-1.694 2.554-1.694h1.6zm.261 1.836a1.845 1.845 0 0 0 1.823 1.217 6.018 6.018 0 0 0 1.431-.2 12.3 12.3 0 0 1-.37-3.436v-4.26c0-3.162-2.039-4.521-5.186-4.521a8.831 8.831 0 0 0-4.758 1.417l.214.377c.259.451.5 1.112 1.273 1.112s1.436-.59 2.906-.59c1.618 0 2.406.781 2.406 1.975v.435h-1.021c-4.147 0-6.331 1.6-6.331 4.174a3.8 3.8 0 0 0 4.127 3.792 4.484 4.484 0 0 0 3.485-1.5" class="cls-3" transform="translate(-438.94 -321.794)"/>
                <path id="패스_11880" d="M405.862 338.183a6.22 6.22 0 0 1-1.512-.183l.006-7.346a6.045 6.045 0 0 1 1.506-.19c1.878 0 3.525 1.22 3.525 3.858 0 2.513-1.476 3.861-3.525 3.861zm.4-10.249a16.535 16.535 0 0 0-5.027.774v17.973h.493a2.57 2.57 0 0 0 2.625-2.853v-3.378a8.77 8.77 0 0 0 2.123.281c3.351 0 6.262-2.085 6.262-6.5 0-3.71-2.388-6.3-6.475-6.3" class="cls-3" transform="translate(-401.238 -321.759)"/>
                <path id="패스_11881" d="M497.4 332.268v8.187h3.077v-8.508a4.109 4.109 0 0 1 2.474-1.2 2.358 2.358 0 0 1 2.4 2.636v7.069h3.071v-7.837a4.235 4.235 0 0 0-4.465-4.547 5.48 5.48 0 0 0-3.695 1.615 1.993 1.993 0 0 0-2.059-1.344 5.855 5.855 0 0 0-1.152.156 16.737 16.737 0 0 1 .349 3.773z" class="cls-3" transform="translate(-462.513 -321.846)"/>
            </g>
        </g>
    </g>
</svg>
