<svg xmlns="http://www.w3.org/2000/svg" width="200" height="120" viewBox="0 0 200 120">
    <defs>
        <style>
            .cls-3{fill:#5c5c5c}
        </style>
    </defs>
    <g id="logo_img_bc-card" transform="translate(30 43)">
        <path id="사각형_10423" fill="none" d="M0 0H200V120H0z" transform="translate(-30 -43)"/>
        <g id="그룹_5583" transform="translate(0 0)">
            <path id="제외_1" fill="#5c5c5c" stroke="rgba(0,0,0,0)" stroke-miterlimit="10" d="M16.828 33.659A16.828 16.828 0 0 1 4.929 4.931a16.825 16.825 0 0 1 23.8 0 16.829 16.829 0 0 1-11.9 28.727zM6.639 6.741a4.508 4.508 0 0 0-2.828 1.684l-1 1.119a8.431 8.431 0 0 0-1.529 3.6 21.091 21.091 0 0 0 .607 8.144 1.91 1.91 0 0 0 1 1.266 1.393 1.393 0 0 0 .534.1 3.183 3.183 0 0 0 1.384-.455l.156-.078.591-.269.581-.254.71-.307h.02a4.874 4.874 0 0 0 1.421-.784 4.171 4.171 0 0 0 1.306-2 6.88 6.88 0 0 0 .244-1.35 6.276 6.276 0 0 0-.072-1.807 3.594 3.594 0 0 0-1.6-2.5 2.5 2.5 0 0 0-1.305-.352 2.92 2.92 0 0 0-.431.032A5.569 5.569 0 0 0 8.13 8.781c0-.114-.006-.232-.016-.352a1.731 1.731 0 0 0-1-1.608 1.427 1.427 0 0 0-.475-.08zm11-4.6a8.873 8.873 0 0 0-1.542.134 8.241 8.241 0 0 0-5.168 3.132 7.737 7.737 0 0 0-1.384 6.009 7.5 7.5 0 0 0 3.178 5.074 8.861 8.861 0 0 0 4.991 1.425 12.224 12.224 0 0 0 2.489-.271 9.247 9.247 0 0 0 4.137-1.936 1.7 1.7 0 0 0 .575-1.317 5.281 5.281 0 0 0-.212-1.239c-.058-.22-.147-.3-.327-.3-.1 0-.211.108-.252.147l-.009.009a6.113 6.113 0 0 1-3.54 1.871 8.844 8.844 0 0 1-1.68.166h-.005a5.744 5.744 0 0 1-5.962-4.815 5.325 5.325 0 0 1 .747-4.182 5.431 5.431 0 0 1 3.748-2.183 7.026 7.026 0 0 1 1-.075A6.656 6.656 0 0 1 21 4.309a.614.614 0 0 0 .138.016.241.241 0 0 0 .2-.075.325.325 0 0 0 .031-.275c-.312-1.07-.815-1.341-1.016-1.408a8.875 8.875 0 0 0-2.715-.426zm-14.1 18.6a.183.183 0 0 1-.081-.019c-.071-.033-.1-.085-.141-.206a24.486 24.486 0 0 1-.766-8.846 1.434 1.434 0 0 1 .3-.689l.97-1.043.109-.118a2.046 2.046 0 0 1 1.155-.686.339.339 0 0 1 .14.022c.184.078.282.326.291.736.041 1.52-.809 3.073-2.6 4.747a.411.411 0 0 0-.119.317l.023.278c0 .052.008.092.008.1a.2.2 0 0 0 .114.192.228.228 0 0 0 .073.012.2.2 0 0 0 .14-.058 3.147 3.147 0 0 1 1.877-.808 1.428 1.428 0 0 1 .47.076c.6.21 1 .828 1.213 1.841a3.069 3.069 0 0 1-1.928 3.561l-.036.014-1.162.571a.161.161 0 0 1-.049.004z" transform="translate(0 0)"/>
        </g>
        <g id="그룹_5584" transform="translate(42.089 5.022)">
            <path id="패스_11913" d="M472.259 387.861v-5.381h1.752a1.7 1.7 0 0 1 1.28.49 1.734 1.734 0 0 1 .473 1.267v8.532a8.247 8.247 0 0 1-.322 2.383 5.5 5.5 0 0 1-.92 1.843 4.045 4.045 0 0 1-1.477 1.183 4.474 4.474 0 0 1-1.967.417h-5.552a2.539 2.539 0 0 1-1.881-.707 2.742 2.742 0 0 1-.713-2.023V382.48h1.786a1.688 1.688 0 0 1 1.3.49 1.768 1.768 0 0 1 .46 1.267v3.624h5.785m-1.93 8.388a1.959 1.959 0 0 0 1.4-.5 2.213 2.213 0 0 0 .532-1.667v-3.869h-5.785v5.087a.983.983 0 0 0 .224.738.751.751 0 0 0 .53.211h3.1m13.2-14.659v21.883a1.789 1.789 0 0 1-.446 1.281 1.714 1.714 0 0 1-1.31.477h-1.786V381.59z" class="cls-3" transform="translate(-462.933 -381.59)"/>
            <path id="패스_11914" d="M491.975 389.6a9.681 9.681 0 0 0 .365 2.845 7.115 7.115 0 0 0 1.088 2.147h.113a6.459 6.459 0 0 0 1.09-2.038 8.734 8.734 0 0 0 .363-2.7v-7.372h2.033a1.286 1.286 0 0 1 1.031.391 1.622 1.622 0 0 1 .335 1.087v5.64a9.37 9.37 0 0 0 .975 4.5 5.685 5.685 0 0 0 2.985 2.605l-2.007 1.646a6.516 6.516 0 0 1-1.953-1.033 8.835 8.835 0 0 1-1.673-1.671h-.11a10.119 10.119 0 0 1-.655.794 9.113 9.113 0 0 1-.682.67c-.245.214-.5.423-.782.627s-.613.426-1 .669a14.515 14.515 0 0 1-1.8-1.255 7.944 7.944 0 0 1-1.382-1.506h-.109a7 7 0 0 1-3.571 2.7l-1.978-1.646a5.723 5.723 0 0 0 2.942-2.507 8.685 8.685 0 0 0 .987-4.35v-7.372h2.036a1.28 1.28 0 0 1 1.028.391 1.606 1.606 0 0 1 .334 1.087v5.651m15.145-8.007v21.883a1.793 1.793 0 0 1-.445 1.281 1.706 1.706 0 0 1-1.308.477h-1.753V381.59z" class="cls-3" transform="translate(-461.65 -381.59)"/>
            <path id="패스_11915" d="M518.668 391.259h-8.7v-2.366h8.7v2.366m-8.446 6.723a12.743 12.743 0 0 0 2.776-1.02 13.249 13.249 0 0 0 2.648-1.726 9.025 9.025 0 0 0 2-2.34 5.483 5.483 0 0 0 .779-2.83v-2.983q0-2.259-2.118-2.258h-5.777v-2.35h6.691q4.85 0 4.849 4.325v2.7a7.682 7.682 0 0 1-.878 3.64 11.155 11.155 0 0 1-2.286 2.971 14.1 14.1 0 0 1-3.162 2.217 15.391 15.391 0 0 1-3.542 1.324l-1.982-1.671m19.312-16.392v21.883a1.777 1.777 0 0 1-.448 1.281 1.706 1.706 0 0 1-1.309.477h-1.784v-23.64h3.541m-.143 7.248h4.155v2.35h-4.155z" class="cls-3" transform="translate(-460.154 -381.59)"/>
            <path id="패스_11916" d="M556.06 400.509a1.128 1.128 0 0 1-1.141 1.229h-21.5v-2.348h22.641v1.118m-3.126-8.043v1.309a1.045 1.045 0 0 1-.294.769 1.121 1.121 0 0 1-.822.291h-12.993a2.475 2.475 0 0 1-1.85-.725 2.782 2.782 0 0 1-.71-2.036v-6.8a2.746 2.746 0 0 1 .71-2.007 2.474 2.474 0 0 1 1.85-.723h13.8v1.283a1.045 1.045 0 0 1-.307.807 1.162 1.162 0 0 1-.81.276H540.8a1.029 1.029 0 0 0-.74.28 1.1 1.1 0 0 0-.293.838v5.436a.844.844 0 0 0 .948 1z" class="cls-3" transform="translate(-458.769 -381.533)"/>
        </g>
    </g>
</svg>
