<svg xmlns="http://www.w3.org/2000/svg" width="200" height="120" viewBox="0 0 200 120">
    <defs>
        <style>
            .cls-2{fill:#5c5c5c}
        </style>
    </defs>
    <g id="logo_img_hana-card" transform="translate(34 42)">
        <path id="사각형_10421" fill="none" d="M0 0H200V120H0z" transform="translate(-34 -42)"/>
        <g id="그룹_5634" transform="translate(39.536 9.78)">
            <g id="그룹_5633" transform="translate(0 0)">
                <g id="그룹_5632">
                    <path id="패스_12017" d="M184.477 387.571v-2.553h3.755v2.553h5.019v2.414h-2.629a8.322 8.322 0 0 1 1.407 2.544 10.053 10.053 0 0 1 .552 3.22 11 11 0 0 1-.485 3.165 7.647 7.647 0 0 1-1.289 2.494 5.949 5.949 0 0 1-1.956 1.664 5.846 5.846 0 0 1-5.07.017 5.9 5.9 0 0 1-1.958-1.653 7.736 7.736 0 0 1-1.276-2.522 10.845 10.845 0 0 1-.44-3.165 9.662 9.662 0 0 1 .522-3.22 8.294 8.294 0 0 1 1.41-2.544h-2.469v-2.414zm1.879 2.464c-.753 0-1.385.524-1.888 1.57a9.3 9.3 0 0 0-.743 4.144 8.845 8.845 0 0 0 .725 4q.75 1.5 1.879 1.5c.752 0 1.375-.5 1.879-1.493a8.958 8.958 0 0 0 .749-4.006 9.741 9.741 0 0 0-.738-4.213c-.492-1.002-1.11-1.501-1.863-1.501zm12.929 4.773V409.3h-3.62v-24.282h3.62v7.376h3.487v2.414z" class="cls-2" transform="translate(-179.57 -385.018)"/>
                    <path id="패스_12018" d="M325.082 399.911h7.232c.367 0 .728-.025 1.084-.057a6.018 6.018 0 0 0 1.06-.2 5.271 5.271 0 0 0 1.116-.472v-14.164h3.616v7.376h3.49v2.414h-3.49V409.3h-3.616v-7.7a7.62 7.62 0 0 1-2.162.581 18.416 18.416 0 0 1-2.32.146h-8.02a2.452 2.452 0 0 1-2-.982 3.576 3.576 0 0 1-.79-2.345v-12.9h3.621v12.822a.919.919 0 0 0 .294.739 1.322 1.322 0 0 0 .885.25z" class="cls-2" transform="translate(-296.008 -385.018)"/>
                    <path id="패스_12019" d="M462.925 394.809h-6.332v-2.414h7.24a13.261 13.261 0 0 0 .3-1.446 10.221 10.221 0 0 0 .108-1.447v-.724h-7.646v-2.413h11.4v2.358a15.1 15.1 0 0 1-3.353 9.571 13.155 13.155 0 0 1-3.689 3.132 11.974 11.974 0 0 1-4.626 1.512v-2.418a9.712 9.712 0 0 0 3.93-2.225 12.583 12.583 0 0 0 2.668-3.486zm12.311 0V409.3h-3.624v-24.282h3.624v7.376h3.485v2.414z" class="cls-2" transform="translate(-408.58 -385.018)"/>
                    <path id="패스_12020" d="M591.586 409.855h21.726v2.41h-21.726zm2.708-17.033h16.363v2.413h-12.74v6.647a.942.942 0 0 0 .292.743 1.4 1.4 0 0 0 .916.251h11.533v2.417h-13.545a2.519 2.519 0 0 1-2.014-.978 3.6 3.6 0 0 1-.8-2.351z" class="cls-2" transform="translate(-520.505 -391.476)"/>
                </g>
            </g>
        </g>
        <g id="그룹_5635" transform="translate(0 0)">
            <path id="패스_12021" d="M-23.195 412.906a6.411 6.411 0 0 0-.452-1.545 7.652 7.652 0 0 0-3.057-3.539 6.878 6.878 0 0 0-7.085.043 6.22 6.22 0 0 0-2.332 2.5 7.5 7.5 0 0 0-.444 1.093 7.7 7.7 0 0 0 .484 5.979 3.007 3.007 0 0 0 1.434 1.246 2.076 2.076 0 0 0 1.854-.142 1.968 1.968 0 0 0 .69-2.071 5.433 5.433 0 0 1 .066-2.892 2.247 2.247 0 0 1 .514-.823 1.866 1.866 0 0 1 .492-.336 2.061 2.061 0 0 1 1.22-.2 2.34 2.34 0 0 1 1.644 1.343 5.426 5.426 0 0 1 .448 2.14 32.324 32.324 0 0 1-1.429 9.581q-.126.475-.263.947c-.068.243-.193.552-.038.789a.612.612 0 0 0 .285.217 1.074 1.074 0 0 0 1.178-.42 17.1 17.1 0 0 0 3.9-6.82 21.9 21.9 0 0 0 .747-2.854 12.517 12.517 0 0 0 .143-4.237" class="cls-2" transform="translate(48.625 -391.974)"/>
            <path id="패스_12022" d="M-91.175 331.814a.812.812 0 0 0-.882-.78 4.178 4.178 0 0 0-1.317.415 53.3 53.3 0 0 1-26.243 2.479c-1.487-.215-2.993-.514-4.489-.747-.934-.147-1.86-.359-2.8-.43a3.38 3.38 0 0 0-2.454.47 2.592 2.592 0 0 0-.312 3.071 6.9 6.9 0 0 0 2.671 2.581 6.46 6.46 0 0 0 3.5 1.194q4.983-.319 9.939-.961c5.63-.732 11.532-1.421 16.822-3.6a21.188 21.188 0 0 0 4.917-2.758c.267-.2.655-.538.655-.929" class="cls-2" transform="translate(130.03 -325.662)"/>
            <path id="패스_12023" d="M-8.915 291.56a3.246 3.246 0 0 0 3.247 3.246 3.244 3.244 0 0 0 3.24-3.246 1.839 1.839 0 0 0-.175-.779c-.279-.588-.59-.875-.558-1.582.042-.952-1.18-.965-1.839-.965a4.774 4.774 0 0 0-2.127.424A3.284 3.284 0 0 0-8.4 289.8a3.276 3.276 0 0 0-.514 1.682v.074" class="cls-2" transform="translate(24.115 -288.234)"/>
        </g>
    </g>
</svg>
