<svg xmlns="http://www.w3.org/2000/svg" width="200" height="120" viewBox="0 0 200 120">
    <defs>
        <style>
            .cls-2{fill:#5c5c5c}
        </style>
    </defs>
    <g id="logo_img_etude" transform="translate(63 27)">
        <path id="사각형_10424" fill="none" d="M0 0H200V120H0z" transform="translate(-63 -27)"/>
        <path id="패스_12035" d="M24.2 82.62v-9.09h1.944v3.592h3.417V73.53h1.962v9.09h-1.94v-4h-3.438v4zm10.11-4.536c0-2.7 1.347-4.758 4.346-4.758S43 75.388 43 78.084c0 2.678-1.347 4.731-4.339 4.731s-4.346-2.053-4.346-4.731m2.065 0c0 1.543.365 3.321 2.281 3.321s2.278-1.778 2.278-3.321c0-1.566-.365-3.328-2.278-3.328s-2.281 1.762-2.281 3.328m17.333-4.554v5.686c0 2.429-1.72 3.6-3.916 3.6s-3.9-1.17-3.9-3.6V73.53h1.939v4.934c0 1.539.073 2.941 1.966 2.941 1.908 0 1.981-1.4 1.981-2.941V73.53zm8.054 2.593a1.335 1.335 0 0 0-1.508-1.366c-.715 0-1.434.368-1.434 1.163 0 .978.881 1.1 1.655 1.287 1.368.347 3.4.743 3.4 2.569 0 2.256-1.936 3.039-3.884 3.039-2.068 0-3.534-.814-3.472-3.108H58.5a1.431 1.431 0 0 0 1.509 1.7c.778 0 1.807-.24 1.807-1.21 0-1.075-1.3-1.151-2.07-1.363-1.254-.308-2.99-.882-2.99-2.493 0-2.075 1.9-3.014 3.751-3.014 1.747 0 3.122.964 3.122 2.8zm4.8-2.593h6.053v1.511H68.5v2.125h3.868v1.51H68.5v2.43h4.256v1.514h-6.185z" class="cls-2" transform="translate(-11.402 -15.939)"/>
        <path id="패스_12036" d="M53.343 52.9l-.008 10.556c0 1.743.62 2.445 1.251 2.757v.268h-1.858a2.849 2.849 0 0 1-2.581-1.57 5.862 5.862 0 0 1-4.623 1.981 7.193 7.193 0 0 1-5.053-1.846c-1.209-1.218-1.439-3.088-1.439-4.807v-7.36c0-2.525-.715-3.153-1.207-3.484v-.252h.736c1.451.069 3.92.831 3.92 3.736v6.961c0 3.668 1.229 5.07 3.838 5.07 1.671 0 3.566-.983 3.566-3.98v-8.053c0-2.825-.679-3.233-1.219-3.484v-.252h5.892v.276c-.533.2-1.214.564-1.214 3.48m19.037 4.739a8.493 8.493 0 0 1-2.881 6.385c-1.688 1.446-3.576 2.457-7.343 2.457h-5.943v-.235c.6-.344 1.216-.927 1.216-2.773l-.01-10.676c0-2.982-.87-3.217-1.206-3.4v-.268h6.069a10.813 10.813 0 0 1 7.317 2.289 7.745 7.745 0 0 1 2.776 6.221m-3.345.343c0-7.552-5.642-7.54-8.161-7.54v14.2c1.96.152 8.161.152 8.161-6.656m-44.7-8.839a3.127 3.127 0 0 1-1.023-.207l-.219.016v2.8h.219a4.663 4.663 0 0 1 3.24-1.038l.922.008a.773.773 0 0 1 .826.82c0 2.789.008 11.714.008 11.927 0 1.873-.69 2.561-1.094 2.744v.268h5.636v-.272c-.414-.183-1.107-.871-1.107-2.744 0-.213.008-9.138.008-11.927a.775.775 0 0 1 .82-.82l.929-.008a4.715 4.715 0 0 1 3.258 1.038h.209v-2.8l-.209-.016a3.247 3.247 0 0 1-1.032.207zM22.392 63.2h-.24c-.282.56-.919 1.371-2.876 1.371H16.1a.841.841 0 0 1-.824-.831v-6.019h3.7a2.105 2.105 0 0 0 1.946-1.839h-.216s-.1.141-1.207.141H16.1a.742.742 0 0 1-.824-.819v-4.492h3.442c2.184 0 2.423.587 2.559.939h.241v-2.657h-.22s-.157.148-.758.148h-9.87v.252c.863.363 1.121 1.01 1.153 2.749v12.586a1.509 1.509 0 0 1-1.153 1.482v.268h8.72c2.361 0 2.9-2.074 3.006-3.277m62.434 0h-.234c-.286.56-.9 1.371-2.872 1.371h-3.18a.843.843 0 0 1-.827-.831v-6.021h3.7a2.1 2.1 0 0 0 1.949-1.839h-.219s-.1.141-1.206.141h-3.4a.742.742 0 0 1-.827-.819v-4.492h3.446c2.182 0 2.422.587 2.559.939h.228v-2.657h-.209s-.142.148-.751.148h-9.875v.252c.859.363 1.125 1.01 1.155 2.749v12.586a1.51 1.51 0 0 1-1.155 1.482v.268h8.718c2.356 0 2.9-2.074 3-3.277" class="cls-2" transform="translate(-10.666 -14.612)"/>
        <path id="패스_12037" d="M31.457 26.551c3.688.024 4.89 2.621 5.069 2.442.17-.152-1.846-4.959-5.9-4.8-.891.032-1.7.615-1.568 1.434.141.888.935.915 2.4.924m33 0c1.464-.009 2.256-.036 2.4-.924.129-.819-.687-1.4-1.558-1.434-4.06-.16-6.076 4.647-5.921 4.8.195.18 1.387-2.418 5.075-2.442m9.928 2.792a17.512 17.512 0 0 0-12.434 1.939 4.054 4.054 0 0 0-4.148.435c-1.863 1.582-1.711 4.131-.131 5.006a1.65 1.65 0 0 0 2.431-1.665 1.331 1.331 0 0 0-2.5-.328c-.287.519-.513.192-.462-.239a3.083 3.083 0 0 1 5.769-1.047 3.852 3.852 0 0 1-1.662 5.3c-2.646 1.454-7.682.179-9.11-4.755a13.085 13.085 0 0 0 5.765-7.382 6.478 6.478 0 0 0-1.192-6.307 4.83 4.83 0 0 0-4.889-1.3A4.417 4.417 0 0 0 49 25.12a2.512 2.512 0 0 0 2.569 1.371 2.388 2.388 0 0 0 2.336-2.4 1.56 1.56 0 0 0-1.171-1.538 1.141 1.141 0 1 0 .206 1.973 1.363 1.363 0 0 1-1.355 1.11c-1.752.132-2.557-1.606-1.708-3.6a3.394 3.394 0 0 1 4.023-1.53c1.325.4 2.983 1.666 2.71 4.8-.309 3.624-3.481 7.6-8.649 9.637-5.142-2.038-8.328-6.013-8.644-9.637-.262-3.137 1.394-4.408 2.724-4.8a3.393 3.393 0 0 1 4.025 1.538c.843 1.991.042 3.729-1.709 3.6A1.381 1.381 0 0 1 43 24.529a1.146 1.146 0 0 0 1.252.06 1.162 1.162 0 0 0 .422-1.142 1.128 1.128 0 0 0-1.448-.891 1.553 1.553 0 0 0-1.178 1.538 2.384 2.384 0 0 0 2.334 2.4 2.5 2.5 0 0 0 2.565-1.371A4.417 4.417 0 0 0 44.139 19a4.855 4.855 0 0 0-4.907 1.3 6.524 6.524 0 0 0-1.182 6.305 13.1 13.1 0 0 0 5.758 7.383c-1.432 4.934-6.471 6.21-9.113 4.755a3.852 3.852 0 0 1-1.655-5.3 3.078 3.078 0 0 1 5.76 1.047c.045.431-.172.758-.45.239a1.336 1.336 0 0 0-2.506.328 1.645 1.645 0 0 0 2.419 1.665c1.592-.875 1.743-3.424-.119-5.006a4.051 4.051 0 0 0-4.167-.431 17.5 17.5 0 0 0-12.445-1.942c-4.132 1.015-7.043 4.7-6.219 8.7a5.434 5.434 0 0 0 6.4 4.367 4.431 4.431 0 0 0 3.72-5.242c-.641-2.4-3.543-3.417-5.019-2.286a1.677 1.677 0 0 0 .553 3.069 1.453 1.453 0 0 0 1.465-2.305c-.357-.531.018-.576.441-.332 2.8 1.574 1.942 5.514-1.5 6.033a4.012 4.012 0 0 1-4.6-3.936c-.19-2.76 2.294-5.83 6.989-6.624a17.826 17.826 0 0 1 9.268 1.106 4.084 4.084 0 0 0-.791.867 5.114 5.114 0 0 0 1.339 6.817c3.26 2.629 9.926 1.234 12.356-4.42.654.323 1.332.6 2.031.867v.008h.009v-.008a21.739 21.739 0 0 0 2.037-.867c2.432 5.654 9.107 7.049 12.357 4.42A5.113 5.113 0 0 0 63.7 32.76a4.135 4.135 0 0 0-.792-.867 17.787 17.787 0 0 1 9.258-1.106c4.715.794 7.17 3.864 6.988 6.624a4 4 0 0 1-4.592 3.936c-3.441-.519-4.3-4.459-1.5-6.033.418-.244.8-.2.445.332a1.449 1.449 0 0 0 1.465 2.305 1.679 1.679 0 0 0 .559-3.069c-1.484-1.131-4.389-.116-5.017 2.286a4.413 4.413 0 0 0 3.708 5.242 5.419 5.419 0 0 0 6.4-4.367c.824-4-2.077-7.684-6.228-8.7M27.878 37.7a1.073 1.073 0 0 0 1.158 1.062c.513-.088.643-.719.49-1.8-.349-2.569 1.707-3.9 1.584-4.02-.224-.228-3.557 1.869-3.232 4.759m36.934-4.759c-.117.116 1.931 1.451 1.581 4.02-.139 1.083-.018 1.713.485 1.8a1.092 1.092 0 0 0 1.179-1.062c.309-2.89-3.02-4.987-3.244-4.759M47.975 20.25c-.587-3.677-3.153-3.729-3.153-3.729 2.906-.511 3.153-3.884 3.153-3.884s.245 3.373 3.149 3.884c0 0-2.575.052-3.149 3.729" class="cls-2" transform="translate(-10.911 -12.638)"/>
    </g>
</svg>
