<svg xmlns="http://www.w3.org/2000/svg" width="200" height="120" viewBox="0 0 200 120">
    <defs>
        <style>
            .cls-2{fill:#5c5c5c}
        </style>
    </defs>
    <g id="logo_img_kt" transform="translate(76 41)">
        <path id="사각형_10413" fill="none" d="M0 0H200V120H0z" transform="translate(-76 -41)"/>
        <path id="패스_11882" d="M208.575 572.657l-7.554-9.3L212 549.839h-6a7.35 7.35 0 0 0-6.16 2.735l-5.784 7.113v-19.548h-5.8a2.475 2.475 0 0 0-2.468 2.477v36.469h5.8a2.475 2.475 0 0 0 2.468-2.476v-9.7l4.7 5.771 4 4.922a3.724 3.724 0 0 0 2.958 1.481h8.1z" class="cls-2" transform="translate(-185.785 -540.139)"/>
        <path id="패스_11883" d="M334.509 579.085a7.206 7.206 0 0 1-7.563-7.555v-28.919a2.478 2.478 0 0 1 2.478-2.472h5.807v29.838a2.224 2.224 0 0 0 2.218 2.226h5.909v4.407a2.481 2.481 0 0 1-2.478 2.477z" class="cls-2" transform="translate(-296.83 -540.139)"/>
        <path id="패스_11885" fill="#5c5c5c" d="M252.148 602.923s9.162-11.275 10.178-12.52h-.133l-10.142 12.482z" transform="translate(-237.913 -579.68)" style="mix-blend-mode:screen;isolation:isolate" opacity="0.25"/>
        <g id="그룹_5571" transform="translate(9.063 7.543)">
            <g id="그룹_5570" transform="translate(0 1.42)">
                <path id="패스_11887" d="M260.374 583.852c-4.683 0-21.668.011-21.668.011a7.523 7.523 0 0 0-6.241 2.7l-4.194 5.17s0-.01-.007-.006a9.656 9.656 0 0 1 5.755-1.849h26.356c3.341 0 6.553-1.022 6.553-3.654a22.216 22.216 0 0 0-.3-4.079s-1.571 1.707-6.254 1.707z" class="cls-2" transform="translate(-228.264 -582.15)"/>
            </g>
            <path id="패스_11888" d="M228.558 586.432l4.848-5.973a7.045 7.045 0 0 1 6.1-2.822h21.1c4.464 0 6.02-1.586 6.035-1.6l.513-.542v5.5a2.259 2.259 0 0 1-.662 1.587c-1.018 1.116-3 1.683-5.888 1.683h-26.391a8.915 8.915 0 0 0-5.655 2.167z" class="cls-2" transform="translate(-228.495 -575.494)"/>
            <path id="패스_11889" fill="#5c5c5c" d="M267.034 602.583c-.026.529-.727 2.865-6.514 2.865h-25.985a8.517 8.517 0 0 0-6.035 2.252l-.045.052a8.939 8.939 0 0 1 6.085-2.188h25.986c6.526 0 6.514-2.972 6.514-2.972z" transform="translate(-228.41 -596.804)" style="mix-blend-mode:screen;isolation:isolate" opacity="0.7"/>
        </g>
    </g>
</svg>
