<svg xmlns="http://www.w3.org/2000/svg" width="200" height="120" viewBox="0 0 200 120">
    <defs>
        <style>
            .cls-2,.cls-3{fill:#5c5c5c}.cls-3{fill-rule:evenodd}
        </style>
    </defs>
    <g id="logo_img_daewoo" transform="translate(26 41.999)">
        <g id="그룹_5578" transform="translate(42.1 8.979)">
            <path id="사각형_10416" fill="none" d="M0 0H200V120H0z" transform="translate(-68.101 -50.979)"/>
            <g id="그룹_5573" transform="translate(26.338 0)">
                <path id="패스_11890" d="M575.857 552.834c4.912 0 9.85-2.131 9.85-6.063s-4.939-6.063-9.85-6.063-9.857 2.128-9.857 6.063 4.941 6.063 9.857 6.063zm0-9.488c3.286 0 5.609 1.651 5.609 3.425s-2.323 3.425-5.609 3.425-5.61-1.648-5.61-3.425 2.324-3.425 5.61-3.425z" class="cls-2" transform="translate(-562.932 -540.707)"/>
                <path id="패스_11891" d="M563.62 553.948h10.927v6.723h3.981v-6.723h10.864v-2.881H563.62z" class="cls-2" transform="translate(-563.62 -537.719)"/>
            </g>
            <g id="그룹_5574" transform="translate(80.642 0.836)">
                <path id="패스_11892" d="M622.962 551.926h4.011v-10.57h-4.011v3.44h-4.552v2.753h4.552z" class="cls-2" transform="translate(-602.119 -541.356)"/>
                <path id="패스_11893" d="M614.3 546.934c1.5 2.394 4.671 3.99 7.415 4.69l1.121-2.574c-4.284-1.537-5.932-3.983-6.44-7.693h-4.223c-.509 3.711-2.125 6.156-6.406 7.693l1.121 2.574c2.742-.7 5.917-2.098 7.412-4.69z" class="cls-2" transform="translate(-605.766 -541.356)"/>
                <path id="패스_11894" d="M613.338 558.287v-1.618h16.291v-6.359h-20.318v2.6h16.3v1.369h-16.299v3.98a2.61 2.61 0 0 0 2.61 2.6h17.723v-2.574z" class="cls-2" transform="translate(-604.743 -538.773)"/>
            </g>
            <g id="그룹_5576" transform="translate(53.322 0.868)">
                <g id="그룹_5575" transform="translate(4.123)">
                    <path id="패스_11895" d="M601.374 559.365h4.04v-17.984h-4.04v4.706h-4.524v3.213h4.524z" class="cls-2" transform="translate(-585.141 -541.381)"/>
                    <path id="패스_11896" d="M591.795 557.6v-5.9h-4.033v6.172a2.612 2.612 0 0 0 2.606 2.607h17.706V557.6z" class="cls-2" transform="translate(-587.762 -538.405)"/>
                </g>
                <path id="패스_11897" d="M586.439 541.712v2.9h8.554c-.647 3.658-5.883 5.944-10.432 6.666l1.238 2.545c5.374-.768 9.6-2.724 11.872-5.469a9.241 9.241 0 0 0 2.206-6.642z" class="cls-2" transform="translate(-584.562 -541.285)"/>
            </g>
            <g id="그룹_5577" transform="translate(0 0.853)">
                <path id="패스_11898" d="M543.178 555.949a2.656 2.656 0 0 0 2.661 2.6h10.081v-2.873h-8.664v-11.019h7.753V541.7h-11.831z" class="cls-2" transform="translate(-543.178 -541.273)"/>
                <path id="패스_11899" d="M554.021 563.468h3.821V551.16h2.046v12.308h3.82v-22.1h-3.82v6.611h-2.046v-6.611h-3.821z" class="cls-2" transform="translate(-540.05 -541.369)"/>
            </g>
        </g>
        <g id="그룹_5579" transform="translate(0 0)">
            <path id="패스_11900" d="M511.847 535.78a25.19 25.19 0 0 1 15.606-1.4c4.269.981 8.562 3.919 8.275 9.707a25.489 25.489 0 0 0-6.441-4.851 21.773 21.773 0 0 0-17.111-1.3c.076.059.148.117.232.176 6.288 4.4 8.3 7.952 9.62 11.617 1.363 3.794 1.237 10.507.823 14.277-4.015 3.306-10.618 3.887-9.8-2.447a26.97 26.97 0 0 1 1.354-4.779 21.429 21.429 0 0 0 1.183-7.629c-.666-8.211-5.107-8.987-5.08-11.148a2.306 2.306 0 0 1 1.344-2.221" class="cls-3" transform="translate(-510.503 -533.738)"/>
            <path id="패스_11901" d="M532.732 536.06c5.691 2.59 8.517 7.433 9.044 10.261 1.279 6.923-3.175 15.452-11.949 20.135-7.84 4.185-13.119 2.34-16.446-.157 0 0 3.694 2.287 10.181-2.3 4.239-2.993 9.822-9.377 11.691-15.32 3.034-9.638-2.521-12.619-2.521-12.619z" class="cls-3" transform="translate(-509.673 -533.068)"/>
        </g>
    </g>
</svg>
