<svg xmlns="http://www.w3.org/2000/svg" width="200" height="120" viewBox="0 0 200 120">
    <g>
        <path fill="#5c5c5c" d="M64.936 24.852c0 .2.06.311.179.311a.483.483 0 0 0 .259-.1L98.732 3.4a3.218 3.218 0 0 1 1.922-.584h7.332a1.777 1.777 0 0 1 1.88 1.88v14a3.517 3.517 0 0 1-1.88 3.573l-8.893 5.343a.593.593 0 0 1-.3.111c-.108 0-.207-.083-.207-.388V10.996c0-.178-.06-.314-.181-.314a.508.508 0 0 0-.258.1L73.763 26.618a3.206 3.206 0 0 1-1.871.576H55.724a1.776 1.776 0 0 1-1.88-1.88V5.141c0-.148-.065-.284-.179-.284a.519.519 0 0 0-.263.1l-16.084 9.66c-.161.1-.2.175-.206.253s.029.133.143.248l11.488 11.488c.153.154.258.27.258.389 0 .137-.169.2-.364.2h-10.4a2.514 2.514 0 0 1-1.881-.564l-6.966-6.965a.29.29 0 0 0-.2-.111.456.456 0 0 0-.216.075l-11.654 7a3.275 3.275 0 0 1-1.882.562H4.715a1.776 1.776 0 0 1-1.88-1.88v-13.74a3.51 3.51 0 0 1 1.88-3.565l8.947-5.375a.461.461 0 0 1 .242-.079c.136 0 .21.143.21.452v18.372c0 .193.053.284.179.284a.563.563 0 0 0 .266-.112L44.792 3.381a3.272 3.272 0 0 1 1.994-.564h16.269a1.777 1.777 0 0 1 1.88 1.88z" transform="translate(-699 -1134) translate(742.165 1178.445)"/>
        <path fill="none" d="M0 0H200V120H0z" transform="translate(-699 -1134) translate(699 1134)"/>
    </g>
</svg>
