<svg xmlns="http://www.w3.org/2000/svg" width="200" height="120" viewBox="0 0 200 120">
    <defs>
        <style>
            .cls-2{fill:#5c5c5c}
        </style>
    </defs>
    <g id="logo_img_hyundai-MOBIS" transform="translate(37 38)">
        <path id="사각형_10420" fill="none" d="M0 0H200V120H0z" transform="translate(-37 -38)"/>
        <g id="그룹_5629" transform="translate(20.339 10.023)">
            <path id="패스_12005" d="M191.9 300.345a12.8 12.8 0 0 1 22.306-8.582 14.327 14.327 0 1 0-7.5 21.231 12.818 12.818 0 0 1-14.8-12.649" class="cls-2" transform="translate(-157.615 -285.09)"/>
            <path id="패스_12006" d="M215.2 302.737a9.908 9.908 0 0 0-16.952-7.4 11.093 11.093 0 1 1 5.08 16.676 10.8 10.8 0 0 0 1.533.186 9.913 9.913 0 0 0 10.339-9.463" class="cls-2" transform="translate(-160.309 -286.502)"/>
            <path id="패스_12007" d="M147.184 312.582h6.847a2.918 2.918 0 0 1-1.712-2.62v-18.07l7.5 17.618a9.606 9.606 0 0 0 2.917 3.574l8.655-21.343v18.575a2.457 2.457 0 0 1-1.705 2.212h7.5a4.062 4.062 0 0 1-2.016-2.97v-20.584a2.087 2.087 0 0 1 1.66-1.965h-7.348a8.016 8.016 0 0 1-.517 2.425c-.546 1.533-6.395 16.443-6.395 16.443l-8.039-18.766h-7.3a2.654 2.654 0 0 1 1.769 2.668v19.681a4.539 4.539 0 0 1-1.814 3.123" class="cls-2" transform="translate(-147.184 -285.583)"/>
            <path id="패스_12008" d="M253.6 287.115h7.8a3.152 3.152 0 0 0-1.865 2.629v20.428a2.877 2.877 0 0 0 1.865 2.44h-7.8a3.96 3.96 0 0 0 1.82-2.44v-20.33a3.327 3.327 0 0 0-1.82-2.727" class="cls-2" transform="translate(-174.539 -285.611)"/>
            <path id="패스_12009" d="M281.511 291.9l-.032-4.831a27.06 27.06 0 0 0-6.092-.863s-9.183-.38-9.616 6.893c0 0-.094 4.545 5.695 6.888a43.057 43.057 0 0 1 5.787 2.917 3.544 3.544 0 0 1 1.915 3.207s.282 4.007-5.524 4c0 0-5.432-.027-8.444-3.571l1.339 5.36a26.918 26.918 0 0 0 7.272.958s9.464-.191 9.855-7.512a6.514 6.514 0 0 0-3.888-5.855s-3.49-1.653-6.94-3.449c0 0-2.453-1.32-2.453-3.684 0 0 .094-3.349 4.955-3.324 0 0 4.116-.195 6.172 2.867" class="cls-2" transform="translate(-177.52 -285.376)"/>
            <path id="패스_12010" d="M236.256 309.658l-4.816-.045v-9.636h3.637s6-.094 6 4.96c0 0 .186 4.344-4.822 4.721m-4.767-19.93a17.031 17.031 0 0 1 2.882-.1c4.435.334 4.247 3.686 4.247 3.686 0 4.155-5.005 4.012-5.005 4.012h-2.124zm7.932 8.213s3.683-1.482 3.683-5.358c0 0-.045-5.168-7.084-5.406l-10.426.049a3 3 0 0 1 1.82 2.788v20.174a2.37 2.37 0 0 1-1.82 2.389h10.384s9.564-.414 9.564-7.937c0 0 .4-5.135-6.121-6.7" class="cls-2" transform="translate(-167.34 -285.627)"/>
        </g>
        <g id="그룹_5630" transform="translate(0 -5)">
            <path id="패스_12011" d="M127.108 264.869v4.15H122.4v-4.15h-2.591v10.893h2.591v-4.379h4.709v4.379h2.591v-10.893h-2.595z" class="cls-2" transform="translate(-119.808 -264.869)"/>
            <path id="패스_12012" d="M142.986 264.869l-2.713 4.314-2.712-4.314H134.5l4.481 7.121v3.772h2.588v-3.772l4.476-7.121h-3.06z" class="cls-2" transform="translate(-123.584 -264.869)"/>
            <path id="패스_12013" d="M158.744 264.869v7.988a.535.535 0 0 1-.549.545h-4.158v-8.533h-2.594v10.893h7.666a2.063 2.063 0 0 0 2.227-2.223v-8.67h-2.591z" class="cls-2" transform="translate(-127.939 -264.869)"/>
            <path id="패스_12014" d="M175.657 264.869h-7.666v10.893h2.591v-8.534h4.159a.539.539 0 0 1 .551.544v7.99h2.589V267.1a2.069 2.069 0 0 0-2.224-2.231z" class="cls-2" transform="translate(-132.193 -264.869)"/>
            <path id="패스_12015" d="M192.2 264.869h-7.667v10.893h7.667a2.063 2.063 0 0 0 2.227-2.223V267.1a2.072 2.072 0 0 0-2.227-2.231zm-.363 2.923v5.05a.546.546 0 0 1-.554.561h-4.153v-6.174h4.141a.544.544 0 0 1 .568.563z" class="cls-2" transform="translate(-136.446 -264.869)"/>
            <path id="패스_12016" d="M203.162 264.869a2.067 2.067 0 0 0-2.224 2.231v8.662h2.585v-3.368h4.71v3.368h2.588v-10.893zm5.072 2.359v2.808h-4.71v-2.254a.555.555 0 0 1 .554-.554z" class="cls-2" transform="translate(-140.662 -264.869)"/>
            <path id="사각형_9986" d="M0 0H2.594V10.893H0z" class="cls-2" transform="translate(72.686 0)"/>
        </g>
    </g>
</svg>
