<svg xmlns="http://www.w3.org/2000/svg" width="200" height="120" viewBox="0 0 200 120">
    <defs>
        <style>
            .cls-2{fill:#5c5c5c}
        </style>
    </defs>
    <g id="logo_img_sk-telecom" transform="translate(26 32)">
        <path id="사각형_10409" fill="none" d="M0 0H200V120H0z" transform="translate(-26 -32)"/>
        <g id="그룹_5534" transform="translate(53.443 36.265)">
            <g id="그룹_5533">
                <path id="패스_11830" d="M416.131 168.61a5.853 5.853 0 0 0-4.614 2.192 4.121 4.121 0 0 0-3.832-2.192 5.908 5.908 0 0 0-4.232 1.718 2.16 2.16 0 0 0-2.27-1.476 6.922 6.922 0 0 0-1.228.165 18.847 18.847 0 0 1 .381 3.891v9.148h3.345v-9.324a4.571 4.571 0 0 1 2.826-1.327c1.536 0 2.254 1.123 2.254 2.66v7.992h3.362v-9.327a4.461 4.461 0 0 1 2.824-1.325c1.531 0 2.233 1.123 2.233 2.66v7.992h3.378v-8.514c-.001-2.988-1.702-4.933-4.427-4.933z" class="cls-2" transform="translate(-326.205 -161.912)"/>
                <path id="패스_11831" d="M354.35 179.638a4.171 4.171 0 0 1 0-8.324c1.107 0 1.573.337 2.306.337a1.66 1.66 0 0 0 1.588-1.133c.214-.417.34-.657.34-.657a8.678 8.678 0 0 0-4.741-1.257c-4.221 0-6.745 3.024-6.745 6.886a6.474 6.474 0 0 0 6.745 6.859 8.385 8.385 0 0 0 4.792-1.355l-1.162-2.292a5.853 5.853 0 0 1-3.123.936z" class="cls-2" transform="translate(-301.147 -161.909)"/>
                <path id="패스_11832" d="M285.723 168.612c-3.209 0-5.917 2.61-5.917 6.885 0 4.376 2.625 6.858 6.549 6.858a7.909 7.909 0 0 0 4.929-1.49l-.389-.633a1.662 1.662 0 0 0-1.489-.948c-1.1 0-1.245.46-2.741.46a3.377 3.377 0 0 1-3.517-3.338h8.591v-.995c.001-4.099-2.359-6.799-6.016-6.799zm-2.585 5.416a2.582 2.582 0 1 1 5.126 0z" class="cls-2" transform="translate(-269.247 -161.913)"/>
                <path id="패스_11833" d="M310.376 172.317v-13.7a2.582 2.582 0 0 0-2.633-2.743h-.717v17.787a2.5 2.5 0 0 0 2.777 2.654c2.173 0 2.825-1.547 2.825-3a2.61 2.61 0 0 1-1.017.234 1.128 1.128 0 0 1-1.235-1.232z" class="cls-2" transform="translate(-282.151 -155.874)"/>
                <path id="패스_11834" d="M265.555 174.562v-6.514h2.8l.976-2.521h-3.777v-3.939h-.312c-1.492 0-3.037.633-3.037 3.908v.031h-2.475v2.52h2.476v7.673a2.957 2.957 0 0 0 3.108 3.3c1.474 0 3.376-.449 3.376-3.368a3.287 3.287 0 0 1-1.613.531c-1.092.003-1.522-.662-1.522-1.621z" class="cls-2" transform="translate(-259.73 -158.582)"/>
            </g>
            <path id="패스_11835" d="M325.689 168.612c-3.208 0-5.917 2.61-5.917 6.885 0 4.376 2.625 6.858 6.549 6.858a7.912 7.912 0 0 0 4.929-1.49l-.389-.633a1.664 1.664 0 0 0-1.489-.948c-1.1 0-1.245.46-2.741.46a3.377 3.377 0 0 1-3.517-3.338h8.592v-.995c0-4.099-2.359-6.799-6.017-6.799zm-2.585 5.416a2.743 2.743 0 0 1 2.533-2.9 2.715 2.715 0 0 1 2.592 2.9z" class="cls-2" transform="translate(-288.194 -161.913)"/>
            <path id="패스_11836" d="M377.707 182.35c-4.1 0-6.568-2.706-6.568-6.867 0-4.142 2.436-6.879 6.568-6.879s6.573 2.736 6.573 6.879c-.001 3.917-2.248 6.867-6.573 6.867zm0-2.578c2.055 0 3.239-1.766 3.239-4.289 0-2.5-1.156-4.3-3.239-4.3-2.022 0-3.234 1.75-3.234 4.3-.001 2.46 1.154 4.289 3.234 4.289z" class="cls-2" transform="translate(-312.545 -161.909)"/>
        </g>
        <g id="그룹_5537" transform="translate(0 6.367)">
            <g id="그룹_5535" transform="translate(0 25.537)">
                <path id="패스_11837" d="M168.817 157.443c-2.023-.946-3.684-1.71-3.684-3.256 0-1.181.945-2.041 2.813-2.041a9.668 9.668 0 0 1 1.829.188 5.647 5.647 0 0 0 .9.1c1.631 0 2.551-.973 3.164-2.818l.253-.754a17.043 17.043 0 0 0-6.4-1.276c-5.528 0-8.447 3.546-8.445 7.224a6.233 6.233 0 0 0 1.49 4.26 13.4 13.4 0 0 0 4.406 3.016c2.277 1.118 4.333 1.943 4.333 3.6 0 1.469-1.518 2.306-3.548 2.306a11.094 11.094 0 0 1-5.524-1.782l-2.284 4.282a15.789 15.789 0 0 0 8.19 2.1c5.159 0 9.066-2.961 9.066-7.513-.006-4.536-3.627-6.215-6.559-7.636z" class="cls-2" transform="translate(-158.115 -147.582)"/>
                <path id="패스_11838" d="M207.474 160.009l9.359-11.475h-6.668l-7.465 9.9h-.112v-9.9h-5.5v24.308h.327c2.376 0 5.205-1.1 5.205-5.069v-5.581h.111l7.609 10.347h6.994z" class="cls-2" transform="translate(-176.593 -148.033)"/>
            </g>
            <g id="그룹_5536" transform="translate(34.9)">
                <path id="패스_11839" d="M230.124 99.026c-1.935.366-4.8 2.122-4.8 5.228.007 2.821 2.314 4.53 2.321 8.226a6.539 6.539 0 0 1-3.178 5.691c.67-.059 1.4-.1 2.21-.1a18.615 18.615 0 0 1 2.777.167l8.681-10.653a36.119 36.119 0 0 0-8.011-8.559z" class="cls-2" transform="translate(-224.472 -99.026)"/>
                <path id="패스_11840" d="M245.565 135.51c1.095-1.7 1.231-4.412 1.324-7.174.1-2.575.64-4.514 4.086-4.526.763 0 1.49.1 2.807.1a20.32 20.32 0 0 0 10.395-2.9 36.047 36.047 0 0 0-17.889-5.7c-.494 1.394-4.339 12.083-4.629 12.946a14.219 14.219 0 0 1 1.558 2.278 25.243 25.243 0 0 1 2.348 4.976z" class="cls-2" transform="translate(-232.62 -106.742)"/>
            </g>
        </g>
        <g id="그룹_5538" transform="translate(26.084 0)">
            <path id="패스_11841" d="M211.134 113.324c-.439 0-.657-.289-.717-.8s-2.227-20.365-2.55-23.372c-.047-.439-.156-1.245-.157-1.532a.644.644 0 0 1 .656-.706c1.029 0 6.635 1.309 12.584 5.479-1.714.483-4.815 2.267-4.8 5.958.011 3.267 2.351 5.065 2.363 8.343.018 5.338-6.113 6.628-7.379 6.63z" class="cls-2" transform="translate(-207.71 -86.92)"/>
            <path id="패스_11842" d="M250.033 142.757a3.821 3.821 0 0 0 .27.6.594.594 0 0 0 .534.337 1.3 1.3 0 0 0 .5-.133c.459-.21 18.586-8.65 21.32-9.911.4-.19 1.148-.526 1.4-.671a.664.664 0 0 0 .374-.577.7.7 0 0 0-.105-.356 22.223 22.223 0 0 0-5.028-4.448 22.4 22.4 0 0 1-11.371 3.286c-1.325 0-1.625-.088-2.53-.084-2.64.009-3.3 1.139-3.4 3.453-.016.437-.024 1.026-.049 1.671-.09 2.07-.335 4.923-1.915 6.833z" class="cls-2" transform="translate(-227.774 -106.204)"/>
        </g>
    </g>
</svg>
