<svg xmlns="http://www.w3.org/2000/svg" width="200" height="120" viewBox="0 0 200 120">
    <defs>
        <style>
            .cls-2{fill:#5c5c5c}
        </style>
    </defs>
    <g id="logo_img_genesis" transform="translate(29 40)">
        <path id="사각형_10425" fill="none" d="M0 0H200V120H0z" transform="translate(-29 -40)"/>
        <path id="패스_12025" d="M221.791 201.175a4.853 4.853 0 0 1 4.917-5.017 4.682 4.682 0 0 1 4.215 2.338l-.982.725a3.564 3.564 0 0 0-3.233-1.822 3.523 3.523 0 0 0-3.563 3.775 3.58 3.58 0 0 0 3.675 3.775 4.176 4.176 0 0 0 2.95-1.123v-1.911h-1.938v-1.182h3.249v3.662a6.015 6.015 0 0 1-4.275 1.795 4.9 4.9 0 0 1-5.016-5.015" class="cls-2" transform="translate(-180.429 -156.728)"/>
        <path id="패스_12026" d="M237.064 196.377h5.058v1.167h-3.747v3.049h3.462v1.168h-3.462v3.139h3.747v1.168h-5.058z" class="cls-2" transform="translate(-183.621 -156.773)"/>
        <path id="패스_12027" d="M248.388 199.168v6.9h-1.312v-9.691h.328l6.641 6.9v-6.9h1.309v9.858h-.327z" class="cls-2" transform="translate(-185.713 -156.773)"/>
        <path id="패스_12028" d="M261.718 196.377h5.058v1.167h-3.746v3.049h3.461v1.168h-3.461v3.139h3.746v1.168h-5.058z" class="cls-2" transform="translate(-188.774 -156.773)"/>
        <g id="그룹_5637" transform="translate(80.039 39.433)">
            <path id="패스_12029" d="M270.687 203.711l1.024-.6a2.587 2.587 0 0 0 2.5 1.838 1.692 1.692 0 0 0 1.922-1.652c0-.785-.469-1.3-1.595-1.6l-.984-.257a2.7 2.7 0 0 1-2.322-2.549 2.772 2.772 0 0 1 3.049-2.735 3.279 3.279 0 0 1 3.063 1.866l-.984.655a2.34 2.34 0 0 0-2.094-1.282c-1.025 0-1.682.584-1.682 1.425 0 .669.471 1.14 1.27 1.354l.955.257c1.667.441 2.677 1.323 2.677 2.82a3.018 3.018 0 0 1-3.291 2.935 3.592 3.592 0 0 1-3.5-2.479" class="cls-2" transform="translate(-270.687 -196.161)"/>
        </g>
        <path id="사각형_9987" d="M0 0H1.31V9.687H0z" class="cls-2" transform="translate(89.417 39.604)"/>
        <g id="그룹_5638" transform="translate(0 0)">
            <path id="패스_12030" d="M287.17 203.711l1.025-.6a2.585 2.585 0 0 0 2.492 1.838 1.694 1.694 0 0 0 1.925-1.652c0-.785-.471-1.3-1.6-1.6l-.982-.257a2.7 2.7 0 0 1-2.322-2.549 2.771 2.771 0 0 1 3.049-2.735 3.277 3.277 0 0 1 3.062 1.866l-.981.655a2.348 2.348 0 0 0-2.1-1.282c-1.026 0-1.682.584-1.682 1.425 0 .669.471 1.14 1.269 1.354l.955.257c1.666.441 2.679 1.323 2.679 2.82a3.019 3.019 0 0 1-3.291 2.935 3.593 3.593 0 0 1-3.5-2.479" class="cls-2" transform="translate(-194.093 -156.728)"/>
            <path id="패스_12031" d="M219.382 160.05c-2.438-1.387-13.456-2.084-21.7-2.942-9.966-1.037-22.707-2.152-22.707-2.152 4.446 4.292 6.807 5.463 11.287 6.489 3.961.907 16.276 1.517 26.646 1.955 2.734.115 2.988 1.61 2.988 1.61l-20.289-.43a107.842 107.842 0 0 0 13.771 3.651c2.992.531 8.893.294 11.214.154a2.894 2.894 0 0 1 3 1.505l-6.58.479s2.414.753 6.7 1.837c3.291.832 7.6 1.511 7.6 1.511-6.538-5.038-8.213-11.551-11.931-13.668" class="cls-2" transform="translate(-170.644 -148.116)"/>
            <path id="패스_12032" d="M255.143 155.091a28.428 28.428 0 0 1-5.171 10.722 34.5 34.5 0 0 1-9.859 7.979 34.522 34.522 0 0 1-9.859-7.979 28.453 28.453 0 0 1-5.171-10.722 2.355 2.355 0 0 1 1.5-2.437c2.221-1.246 11.207-3.963 13.528-3.968s11.309 2.723 13.529 3.968a2.353 2.353 0 0 1 1.5 2.437m2.456-4.443c-2.529 0-12.806-4.333-17.486-4.339s-14.956 4.339-17.485 4.339c-6.3 0-53.128-2.245-53.128-2.245 1.459 2.132 2.372 2.405 3.642 2.756 2.337.643 31.757 2.935 39.4 3.818 6.6.762 8.234 1.52 10.015 4.01 2.253 3.149 4.749 11.1 17.556 17.211 12.808-6.106 15.3-14.062 17.557-17.211 1.782-2.49 3.413-3.249 10.016-4.01 7.643-.883 37.063-3.175 39.4-3.818 1.269-.35 2.183-.624 3.642-2.756 0 0-46.833 2.245-53.128 2.245" class="cls-2" transform="translate(-169.5 -146.309)"/>
            <path id="패스_12033" d="M283.277 160.05c2.437-1.387 13.455-2.084 21.7-2.942 9.966-1.037 22.706-2.152 22.706-2.152-4.445 4.292-6.807 5.463-11.286 6.489-3.962.907-16.276 1.517-26.645 1.955-2.736.115-2.99 1.61-2.99 1.61l20.29-.43a107.842 107.842 0 0 1-13.773 3.651c-2.991.531-8.893.294-11.214.154a2.893 2.893 0 0 0-3 1.505l6.58.479s-2.416.753-6.7 1.837c-3.291.832-7.6 1.511-7.6 1.511 6.537-5.038 8.212-11.551 11.931-13.668" class="cls-2" transform="translate(-190.786 -148.116)"/>
            <path id="패스_12034" d="M246.116 159.878l.364.151a.208.208 0 0 1 .148.224v.831a1.226 1.226 0 0 1-.6.143 1.313 1.313 0 0 1-1.228-1.427c0-.858.468-1.483 1.274-1.483a1.743 1.743 0 0 1 1.1.419l.165-.607a3.254 3.254 0 0 0-1.283-.3 1.892 1.892 0 0 0-2.117 1.985 1.842 1.842 0 0 0 1.986 1.921 2.524 2.524 0 0 0 1.458-.376v-1.69H246.2zm8.226.572l-2-2.528h-.79l-.095.222.165.081a.227.227 0 0 1 .148.241v3.181h.589v-2.413l1.917 2.413h.659v-3.725h-.591zm4.2-2.056l-.13-.472h-2.652l-.088.222.166.081a.232.232 0 0 1 .138.25v3.172h2.568v-.483H256.8v-1.214h1.508v-.465H256.8v-1.091zm3.879-.25l.165.081a.233.233 0 0 1 .146.25v3.172h.823v-3.725h-1.039zm-1.539 1.332c-.46-.242-.944-.376-.944-.795 0-.206.2-.375.589-.375a2.847 2.847 0 0 1 1.11.285l.1-.554a3.561 3.561 0 0 0-1.153-.2c-.962 0-1.462.429-1.462 1.019 0 .572.388.884.959 1.153.5.233.924.384.924.751 0 .277-.217.456-.641.456a3.031 3.031 0 0 1-1.154-.287l-.061.645a6.153 6.153 0 0 0 1.241.152c.771 0 1.465-.376 1.465-1.055 0-.652-.489-.938-.975-1.2m-9.993-1.082l-.13-.472h-2.654l-.088.222.166.081a.23.23 0 0 1 .138.25v3.172h2.568v-.483h-1.743v-1.209h1.51v-.465h-1.51v-1.091zm15.34 1.082c-.46-.242-.945-.376-.945-.795 0-.206.2-.375.59-.375a2.862 2.862 0 0 1 1.11.285l.1-.554a3.573 3.573 0 0 0-1.152-.2c-.964 0-1.493.429-1.493 1.019 0 .572.416.884.988 1.153.5.233.924.384.924.751 0 .277-.218.456-.641.456a3.019 3.019 0 0 1-1.154-.287l-.06.645a6.126 6.126 0 0 0 1.24.152c.771 0 1.465-.376 1.465-1.055 0-.652-.488-.938-.974-1.2" class="cls-2" transform="translate(-185.058 -148.715)"/>
        </g>
    </g>
</svg>
