<svg xmlns="http://www.w3.org/2000/svg" width="200" height="120" viewBox="0 0 200 120">
    <defs>
        <style>
            .cls-3{fill:#5c5c5c}
        </style>
    </defs>
    <g id="logo_img_SNUH" transform="translate(42 35)">
        <path id="사각형_10414" fill="none" d="M0 0H200V120H0z" transform="translate(-42 -35)"/>
        <g id="그룹_5642" transform="translate(98.063 0)">
            <path id="제외_4" fill="#5c5c5c" stroke="rgba(0,0,0,0)" stroke-miterlimit="10" d="M8.829 24.646v-.006C.425 21.787 0 14.726 0 13.339V0h17.656v13.339c0 1.387-.425 8.448-8.827 11.3zm-1.58-11.768L2.591 17.55l2.03 2.028 2.639-2.667 2.62 2.62h3.46v-7.583h2.276V9.18H13.34v-.813h2.276v-2.55h-2.353V2.57h-7.3v2.51h4.453v10.94l-3.167-3.142z" transform="translate(0 0)"/>
        </g>
        <g id="그룹_5644" transform="translate(1.195 4.692)">
            <path id="패스_12041" d="M61.865 10.252h-5.371v16.161c0 4.146-.7 6.249-4.539 6.249-3.7 0-4.426-2.291-4.426-6.249V10.252h-5.561v16.427c0 4.654 1.209 8.961 9.987 8.961 8.879 0 10.1-4.307 10.1-8.961V10.252z" class="cls-3" transform="translate(5.654 -9.858)"/>
            <path id="패스_12042" d="M68.456 35.248h5.562v-25h-5.562V20.6h-9.083V10.252h-5.564v25h5.564v-11.2h9.083z" class="cls-3" transform="translate(17.712 -9.859)"/>
            <path id="패스_12043" d="M45.413 10.252V27.03c-.688-1.179-9.744-16.778-9.744-16.778h-5.96v25h5.177V17.58c.686 1.187 10.259 17.672 10.259 17.672h5.445v-25h-5.177z" class="cls-3" transform="translate(-6.83 -9.858)"/>
            <g id="그룹_5643">
                <path id="패스_12044" d="M30 20.2c-3.191-1.387-5.948-2.585-5.948-4.612 0-1.409 1.554-2.374 3.863-2.357a25.018 25.018 0 0 1 8.461 1.782l.313.129v-4.328l-.1-.018a53.53 53.53 0 0 0-7.886-.739c-6.467 0-10.33 2.444-10.33 6.535 0 4.321 4.3 6.283 8.094 8.017 3.141 1.433 6.1 2.783 6.1 5.232 0 2.632-4.012 2.739-4.471 2.739a19.758 19.758 0 0 1-8.919-2.531l-.325-.168v4.81l.379.089a36.032 36.032 0 0 0 7.952 1.06c7.526 0 11.5-2.6 11.5-7.5 0-4.365-4.611-6.369-8.683-8.14z" class="cls-3" transform="translate(-18.373 -10.057)"/>
            </g>
        </g>
        <g id="그룹_5649" transform="translate(0 35.867)">
            <g id="그룹_5647">
                <g id="그룹_5645" transform="translate(68.248 0.834)">
                    <path id="패스_12045" d="M60.462 25.916v1.75H58.73V26.39h-2.19v1.825h-2.755V26.39H51.6v5.785a.627.627 0 0 0 .642.612h6.493v-1.448h1.732v2.127h2.194v-7.55h-2.199zm-3.922 5.456h-2.755v-1.75h2.755zm3.922-1.439H58.73v-.86h1.732z" class="cls-3" transform="translate(-51.595 -25.916)"/>
                    <path id="패스_12046" d="M56.869 29.66a3.494 3.494 0 0 0-3.647 3.306 3.666 3.666 0 0 0 7.3 0 3.5 3.5 0 0 0-3.653-3.306zm0 5.151a1.864 1.864 0 1 1 1.594-1.845 1.74 1.74 0 0 1-1.596 1.845z" class="cls-3" transform="translate(-49.938 -22.103)"/>
                </g>
                <g id="그룹_5646">
                    <path id="패스_12047" d="M23.9 25.914v4.255h-2.118v1.413H23.9v8.378h2.2V25.914z" class="cls-3" transform="translate(-13.707 -25.084)"/>
                    <path id="패스_12048" d="M46.878 29.545h-2.127v-3.631h-2.194v7.871h2.194v-2.827h2.127z" class="cls-3" transform="translate(7.449 -25.084)"/>
                    <path id="패스_12049" d="M53.108 34.05h2.2v-7.744H45.58v1.411h7.528z" class="cls-3" transform="translate(10.528 -24.685)"/>
                    <path id="패스_12050" d="M53.213 28.832h-2.2v5h-.83v-5h-2.2v5h-3.374v1.413H57.7v-1.412h-4.487z" class="cls-3" transform="translate(9.539 -22.113)"/>
                    <path id="패스_12051" d="M39.428 30.291V31.7h6.315v3.8h2.194v-5.209z" class="cls-3" transform="translate(4.263 -20.627)"/>
                    <path id="패스_12052" d="M45.847 30.771a3.03 3.03 0 0 0-.708-1.934h1.615v-1.408h-3.329v-1.766h-2.2v1.766H37.9v1.409h1.544a3.032 3.032 0 0 0-.71 1.934 3.57 3.57 0 0 0 7.111 0zm-5.026 0a1.719 1.719 0 0 1 1.471-1.885 1.716 1.716 0 0 1 1.467 1.885 1.716 1.716 0 0 1-1.467 1.885 1.719 1.719 0 0 1-1.47-1.885z" class="cls-3" transform="translate(2.71 -25.34)"/>
                    <path id="패스_12053" d="M23.991 29.893a11 11 0 0 1-.307-2.495v-1.217h-2.333V27.4a11 11 0 0 1-.307 2.495 9.388 9.388 0 0 1-3.187 4.6l-.077.063 1.08.981.059-.04a12.014 12.014 0 0 0 3.6-3.815 12.022 12.022 0 0 0 3.6 3.815l.059.04 1.078-.981-.075-.063a9.4 9.4 0 0 1-3.19-4.602z" class="cls-3" transform="translate(-17.781 -24.813)"/>
                    <path id="패스_12054" d="M40.582 25.914v4.255h-.666v-4.255h-2.2v6.5a10.173 10.173 0 0 1-3.71.656h-.22V27.8h2.872v-1.412H31.59v7.476a.628.628 0 0 0 .646.61h1.786a10.537 10.537 0 0 0 3.7-.636v6.12h2.2v-8.377h.666v8.379h2.194V25.914z" class="cls-3" transform="translate(-3.719 -25.084)"/>
                    <path id="패스_12055" d="M24.523 28.961v1.415h5.518v.89h-3.73v1.415h7.222v.674h-7.222v2.888a.63.63 0 0 0 .64.614h9.016v-1.411h-7.23v-.678h7.23v-3.5h-3.728v-.89h5.516v-1.417z" class="cls-3" transform="translate(-10.915 -21.982)"/>
                    <path id="패스_12056" d="M29.936 32.151c2.333 0 4.228-1.5 4.228-3.328s-1.9-3.32-4.228-3.32-4.23 1.492-4.23 3.32 1.894 3.328 4.23 3.328zm0-5.284a1.965 1.965 0 1 1-1.836 1.958 1.9 1.9 0 0 1 1.836-1.958z" class="cls-3" transform="translate(-9.711 -25.503)"/>
                </g>
            </g>
            <g id="그룹_5648" transform="translate(81.04 0.341)">
                <path id="패스_12057" d="M67.623 25.916V32.3h-9.69v1.413h2.906v1.334h2.2v-1.33h4.586v.573h-2.059v1.41h2.057v1.306h2.2v-11.09z" class="cls-3" transform="translate(-57.933 -25.424)"/>
                <path id="패스_12058" d="M61.572 30.755h-2.2v3.677a.633.633 0 0 0 .646.61h8.336v-1.417h-6.782z" class="cls-3" transform="translate(-56.468 -20.496)"/>
                <path id="패스_12059" d="M62 32.278a3.489 3.489 0 0 0 3.645-3.3 3.659 3.659 0 0 0-7.284 0 3.487 3.487 0 0 0 3.639 3.3zm0-5.189a1.735 1.735 0 0 1 1.52 1.887 1.555 1.555 0 1 1-3.038 0 1.737 1.737 0 0 1 1.523-1.887z" class="cls-3" transform="translate(-57.496 -25.672)"/>
            </g>
        </g>
    </g>
</svg>
