<svg xmlns="http://www.w3.org/2000/svg" width="60" height="20" viewBox="0 0 60 20">
    <defs>
        <style>
            .cls-1{fill:#202020}
        </style>
    </defs>
    <g id="그룹_1" data-name="그룹 1" transform="translate(-54.598 -341.773)">
        <path id="패스_1" d="M68.167 344.555l-1.152-2.194-.015-.029a1 1 0 0 0-.864-.559H63.77a.989.989 0 0 0-.822.482l-.073.14-8.142 15.487-.016.029a1.2 1.2 0 0 0 0 1.045l.016.03 1.151 2.188.022.043a1 1 0 0 0 .859.547h2.362a1 1 0 0 0 .874-.577l8.164-15.533.013-.023a1.208 1.208 0 0 0 0-1.047z" class="cls-1" data-name="패스 1"/>
        <path id="패스_2" d="M84.2 344.56l-1.152-2.193-.016-.029a1 1 0 0 0-.864-.56H79.8a.992.992 0 0 0-.822.482l-.073.141-8.142 15.487-.016.029a1.2 1.2 0 0 0 0 1.045l.016.029 1.151 2.189.022.045a1 1 0 0 0 .859.547h2.362a1 1 0 0 0 .874-.577l8.169-15.537.013-.023a1.211 1.211 0 0 0 0-1.048z" class="cls-1" data-name="패스 2" transform="translate(7.113 .002)"/>
        <path id="패스_3" d="M73.616 347.6a1 1 0 0 0 .119-.476 1.015 1.015 0 0 0-.119-.479l-.013-.021-1.155-2-.014-.025a1.01 1.01 0 0 0-.864-.51H69.2a1.014 1.014 0 0 0-.822.438l-.075.131-2.882 4.991-.02.034a1.011 1.011 0 0 0 0 .95l.013.022 1.152 2 .02.033a1.009 1.009 0 0 0 .861.5h2.364a1.01 1.01 0 0 0 .873-.527l2.909-5.04z" class="cls-1" data-name="패스 3" transform="translate(4.586 1.315)"/>
        <path id="패스_4" d="M88.3 348.931l-1.15-1.994-.018-.029a1.009 1.009 0 0 0-.871-.507H83.91a1.008 1.008 0 0 0-.83.441l-.073.127-2.875 4.979-.032.052a1.017 1.017 0 0 0-.117.471 1 1 0 0 0 .118.472l.024.042 1.142 1.978.031.054a1.008 1.008 0 0 0 .852.488h2.363a1.012 1.012 0 0 0 .874-.526l2.9-5.02.028-.047a1.008 1.008 0 0 0 0-.947z" class="cls-1" data-name="패스 4" transform="translate(10.89 2.631)"/>
        <path id="패스_5" d="M100.25 344.582l-.014-.027-1.154-2.194-.014-.029a1 1 0 0 0-.867-.559h-2.36a.989.989 0 0 0-.825.481l-.075.143-8.134 15.472-.024.046a1.2 1.2 0 0 0 0 1.042l.014.026 1.152 2.191.021.04a1 1 0 0 0 .86.55h2.37a1 1 0 0 0 .874-.577l8.161-15.523.018-.036a1.208 1.208 0 0 0 0-1.044z" class="cls-1" data-name="패스 5" transform="translate(14.229)"/>
    </g>
</svg>