<svg xmlns="http://www.w3.org/2000/svg" width="20" height="20" viewBox="0 0 20 20">
  <g id="ic_day_cloudy" transform="translate(-497 -118)">
    <rect id="사각형_7163" data-name="사각형 7163" width="20" height="20" transform="translate(497 118)" fill="none"/>
    <path id="패스_32666" data-name="패스 32666" d="M320.193,451.05h-3.174l-.082-.4a4.5,4.5,0,0,0-7.879-1.966l-.534.645-.315-.775a3.954,3.954,0,0,1-.294-1.5,4.021,4.021,0,0,1,3.975-4,5,5,0,0,1,9.522,1.22,3.5,3.5,0,0,1-1.219,6.78Zm-2.373-1h2.373a2.5,2.5,0,0,0,.871-4.843l-.546-.2-.093-.58a4,4,0,0,0-7.619-.979l-.259.6h-.653a3.016,3.016,0,0,0-2.979,3,2.894,2.894,0,0,0,.019.335,5.526,5.526,0,0,1,2.5-1.228,5.5,5.5,0,0,1,6.39,3.892Z" transform="translate(193.307 -321.051)" fill="#fff"/>
    <path id="패스_32668" data-name="패스 32668" d="M308.193,457.05h8.667a3,3,0,0,0,.139-6,4.5,4.5,0,0,0-8.717-1h-.089a3.5,3.5,0,0,0,0,7m0,1a4.5,4.5,0,0,1-.586-8.962,5.5,5.5,0,0,1,10.246,1.085,4,4,0,0,1-.993,7.876h-8.667Z" transform="translate(193.307 -321.051)" fill="#fff"/>
  </g>
</svg>
