<svg xmlns="http://www.w3.org/2000/svg" width="20" height="20" viewBox="0 0 20 20">
  <g id="ic_day_cloud" transform="translate(-303.98 -439.051)">
    <rect id="사각형_35688" data-name="사각형 35688" width="20" height="20" transform="translate(303.98 439.051)" fill="none"/>
    <path id="패스_32660" data-name="패스 32660" d="M309.465,458.05h0a4.5,4.5,0,0,1-.911-8.907,3.5,3.5,0,0,1-.758-1.33,3.5,3.5,0,0,1,4.985-4.124,3.522,3.522,0,0,1,1.409,1.374c.141-.011.284-.017.425-.017a5.51,5.51,0,0,1,5.484,5.161,4,4,0,0,1-1.125,7.839h-.015Zm.024-8h-.024a3.5,3.5,0,0,0,0,7l9.5,0h.011a3,3,0,0,0,.547-5.95l-.41-.075V450.6a4.52,4.52,0,0,0-4.495-4.558,4.446,4.446,0,0,0-.642.047l-.381.057-.153-.354a2.5,2.5,0,0,0-4.5-.182,2.5,2.5,0,0,0,1.04,3.378l.345.184-.177.815-.462.064C309.613,450.05,309.55,450.05,309.489,450.05Z" fill="#fff"/>
    <path id="패스_32661" data-name="패스 32661" d="M311.1,442.249a.5.5,0,0,1-.5-.5v-1.2a.5.5,0,1,1,1,0v1.2A.5.5,0,0,1,311.1,442.249Z" fill="#fff"/>
    <path id="패스_32662" data-name="패스 32662" d="M306.1,447.248h-1.2a.5.5,0,0,1,0-1h1.2a.5.5,0,0,1,0,1Z" fill="#fff"/>
    <path id="패스_32663" data-name="패스 32663" d="M307.569,443.714a.5.5,0,0,1-.353-.147l-.848-.848a.5.5,0,0,1,.707-.707l.848.848a.5.5,0,0,1-.354.854Z" fill="#fff"/>
    <path id="패스_32664" data-name="패스 32664" d="M314.64,443.714a.5.5,0,0,1-.354-.854l.849-.848a.5.5,0,0,1,.707.707l-.849.848A.5.5,0,0,1,314.64,443.714Z" fill="#fff"/>
    <path id="패스_32665" data-name="패스 32665" d="M318.981,458.05h-9.522a4.5,4.5,0,0,1-.144-9,5.5,5.5,0,0,1,10.782,1.156,4,4,0,0,1-1.116,7.842Zm-9.483-8h-.039a3.5,3.5,0,0,0,0,7h9.5a3.057,3.057,0,0,0,2.969-2.463,3,3,0,0,0-2.414-3.488l-.411-.076v-.417a4.5,4.5,0,0,0-8.91-.949l-.09.441-.448-.042A1.433,1.433,0,0,0,309.5,450.05Z" fill="#fff"/>
  </g>
</svg>
