<svg xmlns="http://www.w3.org/2000/svg" width="20" height="20" viewBox="0 0 20 20">
  <g id="ic_day_sunny" transform="translate(-410 -120)">
    <rect id="사각형_35687" data-name="사각형 35687" width="20" height="20" transform="translate(410 120)" fill="none"/>
    <path id="패스_32645" data-name="패스 32645" d="M297.5,426.5a6,6,0,1,1,6-6A6.006,6.006,0,0,1,297.5,426.5Zm0-11a5,5,0,1,0,5,5A5.006,5.006,0,0,0,297.5,415.5Z" transform="translate(122.5 -290.5)" fill="#fff"/>
    <path id="패스_32646" data-name="패스 32646" d="M297.5,430.5a.5.5,0,0,1-.5-.5v-1.5a.5.5,0,0,1,1,0V430A.5.5,0,0,1,297.5,430.5Z" transform="translate(122.5 -290.5)" fill="#fff"/>
    <path id="패스_32647" data-name="패스 32647" d="M297.5,413a.5.5,0,0,1-.5-.5V411a.5.5,0,0,1,1,0v1.5A.5.5,0,0,1,297.5,413Z" transform="translate(122.5 -290.5)" fill="#fff"/>
    <path id="패스_32648" data-name="패스 32648" d="M289.5,421H288a.5.5,0,0,1,0-1h1.5a.5.5,0,0,1,0,1Z" transform="translate(122.5 -290.5)" fill="#fff"/>
    <path id="패스_32649" data-name="패스 32649" d="M307,421h-1.5a.5.5,0,0,1,0-1H307a.5.5,0,0,1,0,1Z" transform="translate(122.5 -290.5)" fill="#fff"/>
    <path id="패스_32650" data-name="패스 32650" d="M291.844,415.344a.5.5,0,0,1-.353-.146l-1.061-1.061a.5.5,0,0,1,.707-.707l1.061,1.061a.5.5,0,0,1-.354.853Z" transform="translate(122.5 -290.5)" fill="#fff"/>
    <path id="패스_32651" data-name="패스 32651" d="M304.217,427.717a.5.5,0,0,1-.354-.147l-1.06-1.06a.5.5,0,0,1,.707-.707l1.06,1.06a.5.5,0,0,1-.353.854Z" transform="translate(122.5 -290.5)" fill="#fff"/>
    <path id="패스_32652" data-name="패스 32652" d="M303.156,415.344a.5.5,0,0,1-.353-.853l1.06-1.061a.5.5,0,0,1,.707.707l-1.06,1.061A.5.5,0,0,1,303.156,415.344Z" transform="translate(122.5 -290.5)" fill="#fff"/>
    <path id="패스_32653" data-name="패스 32653" d="M290.783,427.717a.5.5,0,0,1-.353-.854l1.06-1.06a.5.5,0,0,1,.707.707l-1.06,1.06A.5.5,0,0,1,290.783,427.717Z" transform="translate(122.5 -290.5)" fill="#fff"/>
  </g>
</svg>
