<svg xmlns="http://www.w3.org/2000/svg" width="20" height="20.001" viewBox="0 0 20 20.001">
  <g id="ic_night_sleet" transform="translate(-359 -244)">
    <rect id="사각형_7200" data-name="사각형 7200" width="20" height="20" transform="translate(359 244)" fill="none"/>
    <path id="패스_32685" data-name="패스 32685" d="M319.559,451.752c-.05,0-.1,0-.15,0l-8.483,0a3.5,3.5,0,0,1-3.5-3.473,4.627,4.627,0,0,1-3.493-3.827l-.1-.7.7.143a3.4,3.4,0,0,0,.659.068,3.451,3.451,0,0,0,3.377-4.108l-.135-.691.7.1a4.582,4.582,0,0,1,3.425,2.4,5,5,0,0,1,7.482,2.119,4,4,0,0,1-.473,7.976Zm-14.481-6.8a3.626,3.626,0,0,0,2.938,2.417l.49.066-.061.491a2.853,2.853,0,0,0-.019.321,2.5,2.5,0,0,0,2.5,2.5l8.5,0a3,3,0,1,0,.233-6l-.34-.013-.113-.321a4,4,0,0,0-6.511-1.591l-.56.528-.253-.727a3.586,3.586,0,0,0-2.258-2.232c0,.037,0,.073,0,.11a4.459,4.459,0,0,1-4.442,4.449Z" transform="translate(55.306 -194.943)" fill="#0e0f0f"/>
    <path id="패스_32686" data-name="패스 32686" d="M319.483,451.746h-8.551a3.5,3.5,0,0,1-.406-6.976,5,5,0,0,1,9.511-.986,4,4,0,0,1-.554,7.962Zm-8.524-6a2.5,2.5,0,1,0-.027,5h8.551a3,3,0,0,0,.17-5.995l-.334-.019-.109-.315a4,4,0,0,0-7.754.883l-.049.446Z" transform="translate(55.306 -194.943)" fill="#0e0f0f"/>
    <path id="패스_32687" data-name="패스 32687" d="M311.184,458.944a.5.5,0,0,1-.433-.75l3-5.2a.5.5,0,1,1,.865.5l-3,5.2A.5.5,0,0,1,311.184,458.944Z" transform="translate(55.306 -194.943)" fill="#0e0f0f"/>
    <path id="패스_32688" data-name="패스 32688" d="M309.934,455.913a.5.5,0,0,1-.433-.75l1.25-2.165a.5.5,0,1,1,.865.5l-1.25,2.165A.5.5,0,0,1,309.934,455.913Z" transform="translate(55.306 -194.943)" fill="#0e0f0f"/>
    <circle id="타원_3333" data-name="타원 3333" cx="0.75" cy="0.75" r="0.75" transform="translate(371.739 257.805)" fill="#0e0f0f"/>
    <circle id="타원_3334" data-name="타원 3334" cx="0.75" cy="0.75" r="0.75" transform="translate(374.739 257.805)" fill="#0e0f0f"/>
    <circle id="타원_3335" data-name="타원 3335" cx="0.75" cy="0.75" r="0.75" transform="translate(370.239 260.805)" fill="#0e0f0f"/>
    <circle id="타원_3336" data-name="타원 3336" cx="0.75" cy="0.75" r="0.75" transform="translate(373.239 260.805)" fill="#0e0f0f"/>
  </g>
</svg>
