<svg xmlns="http://www.w3.org/2000/svg" width="20" height="20" viewBox="0 0 20 20">
  <g id="ic_night_lightning" transform="translate(-440 -180)">
    <rect id="사각형_35689" data-name="사각형 35689" width="20" height="20" transform="translate(440 180)" fill="none"/>
    <path id="패스_32694" data-name="패스 32694" d="M313.2,454.563l2.2-3.513h-1.2v-2.514l-2.2,3.513h1.2v2.514m-1,3.487v-5h-2l5-8v5h2Z" transform="translate(136.307 -259.049)" fill="#070203"/>
    <path id="패스_32695" data-name="패스 32695" d="M312.193,458.052v-5h-3a4.5,4.5,0,0,1-.146-9,5.5,5.5,0,0,1,10.782,1.159,4,4,0,0,1-1.125,7.839h-3.39Zm-2.973-13a3.5,3.5,0,1,0-.027,7h4v2.51l1.567-2.51H318.7a3,3,0,0,0,.547-5.95l-.409-.076v-.416a4.5,4.5,0,0,0-8.91-.953l-.087.43-.439-.03C309.342,445.05,309.279,445.05,309.22,445.05Z" transform="translate(136.307 -259.049)" fill="#070203"/>
  </g>
</svg>
