<svg xmlns="http://www.w3.org/2000/svg" width="20" height="20" viewBox="0 0 20 20">
  <g id="ic_night_cloud" transform="translate(-441 -120)">
    <rect id="사각형_7182" data-name="사각형 7182" width="20" height="20" transform="translate(441 120)" fill="none"/>
    <path id="패스_32656" data-name="패스 32656" d="M309.214,457.58a4.5,4.5,0,0,1-2.19-8.429,4.642,4.642,0,0,1-2.274-3.339l-.1-.708.7.147a3.149,3.149,0,0,0,.654.067,3.457,3.457,0,0,0,3.443-3.449,3.167,3.167,0,0,0-.062-.658l-.141-.694.7.1a4.625,4.625,0,0,1,3.915,3.986,5.507,5.507,0,0,1,5.9,4.4,5.4,5.4,0,0,1,.1.736,4,4,0,0,1,2.8,4.566,4.036,4.036,0,0,1-3.946,3.272l-9.494,0ZM305.9,446.317a3.64,3.64,0,0,0,2.623,2.358l-.01.977a3.511,3.511,0,0,0-2.794,3.429,3.5,3.5,0,0,0,3.5,3.5h0l9.5,0h.011a3,3,0,0,0,.546-5.95l-.409-.075v-.416a4.629,4.629,0,0,0-.086-.937,4.5,4.5,0,0,0-5.283-3.534l-.6.119v-.609a3.625,3.625,0,0,0-2.451-3.414c0,.037,0,.075,0,.113A4.458,4.458,0,0,1,306,446.318Z" transform="translate(137.308 -319.051)" fill="#111"/>
    <path id="패스_32657" data-name="패스 32657" d="M318.738,457.582h-9.522a4.5,4.5,0,0,1-.144-9,5.5,5.5,0,0,1,10.782,1.156,4,4,0,0,1-1.116,7.842Zm-9.483-8h-.039a3.5,3.5,0,1,0,0,7h9.524a3,3,0,0,0,.534-5.951l-.41-.075v-.417a4.5,4.5,0,0,0-8.91-.95l-.09.441-.448-.042A1.432,1.432,0,0,0,309.255,449.582Z" transform="translate(137.308 -319.051)" fill="#111"/>
  </g>
</svg>
