<svg width="40" height="40" viewBox="0 0 40 40" fill="none" xmlns="http://www.w3.org/2000/svg">
<path d="M19.4268 5.13281C19.7742 4.90181 20.2268 4.9017 20.5742 5.13281L34.6709 14.5107C34.9595 14.7027 35.1328 15.0264 35.1328 15.373V34.4639C35.1328 35.0358 34.6695 35.4998 34.0977 35.5H5.90332C5.33131 35.5 4.86719 35.0359 4.86719 34.4639V15.373C4.86719 15.0265 5.04057 14.7028 5.3291 14.5107L19.4268 5.13281Z" stroke="#838383" stroke-width="2.5"/>
<path d="M20.0144 12.6526C21.2019 13.999 22.7176 14.7505 24.075 15.1282C25.4976 15.524 26.9344 15.56 27.8152 15.2991L27.8162 15.3C27.8752 15.2842 27.9165 15.2856 27.9382 15.2893C27.9581 15.2927 27.9662 15.2986 27.9695 15.301L27.9841 15.3118L27.9939 15.3186V21.9348C27.9939 25.1642 26.1745 27.2952 24.1599 28.6907C23.1528 29.3883 22.1253 29.8781 21.323 30.1995C20.9236 30.3594 20.5846 30.4762 20.3386 30.554C20.216 30.5927 20.117 30.6218 20.0457 30.6418C20.0398 30.6435 20.0336 30.6442 20.0281 30.6458C19.697 30.549 17.8375 29.9941 15.9851 28.7346C13.9183 27.3293 12.0349 25.1793 12.0349 21.9348V15.3186L12.0447 15.3118L12.0593 15.301C12.0745 15.2897 12.0934 15.2813 12.113 15.2776C12.132 15.274 12.1478 15.2751 12.1599 15.2786V15.2776C13.0418 15.5434 14.4965 15.5203 15.946 15.1223C17.308 14.7483 18.8257 13.9997 20.0144 12.6526Z" stroke="#838383" stroke-width="2.5"/>
<path d="M16.7134 22.5347L19.5976 24.9959L23.6355 19.4582" stroke="#838383" stroke-width="2.5" stroke-linecap="round" stroke-linejoin="round"/>
</svg>
