<svg width="40" height="40" viewBox="0 0 40 40" fill="none" xmlns="http://www.w3.org/2000/svg">
<rect x="4.53564" y="6.76471" width="30.9286" height="15.3286" rx="1.32143" stroke="#838383" stroke-width="2.5" stroke-linecap="round"/>
<path d="M10.3171 15.6805H29.6882C30.418 15.6805 31.0104 16.2721 31.0105 17.0018V22.0946H8.99585V17.0018C8.99593 16.2721 9.58745 15.6806 10.3171 15.6805Z" stroke="#838383" stroke-width="2.5" stroke-linecap="round"/>
<rect x="12.2063" y="9.97235" width="15.6" height="2.22857" rx="1.11429" fill="#838383"/>
<path d="M9.97402 27.7986C9.97402 30.8756 7.4796 33.37 4.40259 33.37" stroke="#838383" stroke-width="2.5" stroke-linecap="round"/>
<path d="M30.0326 27.7986C30.0326 30.8756 32.527 33.37 35.604 33.37" stroke="#838383" stroke-width="2.5" stroke-linecap="round"/>
<path d="M17.7733 27.7982C17.7733 30.8752 15.2789 33.3696 12.2019 33.3696" stroke="#838383" stroke-width="2.5" stroke-linecap="round"/>
<path d="M22.2247 27.7987C22.2247 30.8757 24.7191 33.3701 27.7961 33.3701" stroke="#838383" stroke-width="2.5" stroke-linecap="round"/>
</svg>
