<svg width="40" height="40" viewBox="0 0 40 40" fill="none" xmlns="http://www.w3.org/2000/svg">
<rect x="3.54834" y="16.1613" width="32.9032" height="17.5484" rx="4" stroke="#838383" stroke-width="2.5" stroke-linecap="round"/>
<path d="M12.6838 11.7742L13.8471 10.072C14.4604 9.17464 14.0578 7.90516 12.9955 7.38707C11.9333 6.86899 11.5307 5.59951 12.1439 4.70215L13.3073 2.99998" stroke="#838383" stroke-width="2.5" stroke-linecap="round"/>
<path d="M19.5134 11.7742L20.6767 10.072C21.29 9.17464 20.8874 7.90516 19.8251 7.38707C18.7629 6.86899 18.3603 5.59951 18.9735 4.70215L20.1368 2.99998" stroke="#838383" stroke-width="2.5" stroke-linecap="round"/>
<path d="M26.3433 11.7742L27.5066 10.072C28.1198 9.17464 27.7172 7.90516 26.655 7.38707C25.5927 6.86899 25.1901 5.59951 25.8034 4.70215L26.9667 2.99998" stroke="#838383" stroke-width="2.5" stroke-linecap="round"/>
<path d="M9.03223 33.7097L9.03223 37" stroke="#838383" stroke-width="2.5" stroke-linecap="round"/>
<path d="M30.9678 33.7097L30.9678 37" stroke="#838383" stroke-width="2.5" stroke-linecap="round"/>
<path d="M9.03223 18.3548V18.7419C9.03223 20.9511 10.8231 22.7419 13.0322 22.7419H26.9677C29.1768 22.7419 30.9677 20.9511 30.9677 18.7419V18.3548" stroke="#838383" stroke-width="2.5" stroke-linecap="round"/>
<path d="M11.2258 28.2258H28.7742" stroke="#838383" stroke-width="2.5" stroke-linecap="round"/>
</svg>
