<svg width="40" height="40" viewBox="0 0 40 40" fill="none" xmlns="http://www.w3.org/2000/svg">
<path d="M26 2.25C28.6234 2.25 30.75 4.37665 30.75 7V20.999C30.75 21.3921 30.9347 21.7629 31.249 21.999C33.3771 23.5975 34.75 26.1381 34.75 29C34.75 33.8325 30.8325 37.75 26 37.75C21.1675 37.75 17.25 33.8325 17.25 29C17.25 26.1381 18.6229 23.5975 20.751 21.999C21.0653 21.7629 21.25 21.3921 21.25 20.999V7C21.25 4.37665 23.3766 2.25 26 2.25Z" stroke="#838383" stroke-width="2.5" stroke-linejoin="round"/>
<rect x="20.625" y="13.625" width="9.07466" height="1.25" stroke="#838383" stroke-width="1.25"/>
<circle cx="26" cy="29" r="2.5" fill="#838383"/>
<rect x="4" y="5" width="10" height="2.5" rx="1.25" fill="#838383"/>
<rect x="4" y="11" width="7" height="2.5" rx="1.25" fill="#838383"/>
<rect x="4" y="17" width="10" height="2.5" rx="1.25" fill="#838383"/>
</svg>
