<svg width="40" height="40" viewBox="0 0 40 40" fill="none" xmlns="http://www.w3.org/2000/svg">
<rect x="7.25" y="5.25" width="25.5" height="29.5" rx="2.17857" stroke="#838383" stroke-width="2.5"/>
<path d="M36 35H4" stroke="#838383" stroke-width="3" stroke-linecap="round"/>
<path d="M20.7539 11.7176C20.8567 10.8609 19.7175 10.4708 19.2736 11.2107L14.727 18.7884C14.407 19.3216 14.7911 20 15.413 20H18.8583C19.3379 20 19.7097 20.4191 19.6526 20.8953L19.2461 24.2824C19.1433 25.1391 20.2825 25.5292 20.7264 24.7893L25.273 17.2116C25.593 16.6784 25.2089 16 24.587 16L21.1417 16C20.6621 16 20.2903 15.5809 20.3474 15.1047L20.7539 11.7176Z" fill="#838383"/>
<path d="M8 30L32 30" stroke="#838383" stroke-width="3" stroke-linecap="round"/>
</svg>
