<svg width="40" height="40" viewBox="0 0 40 40" fill="none" xmlns="http://www.w3.org/2000/svg">
<path d="M19.1089 5.38239C19.6486 5.02272 20.3514 5.02268 20.8911 5.38239L34.7485 14.6207C35.1956 14.9187 35.4643 15.4203 35.4644 15.9576V33.857C35.4644 34.7446 34.7445 35.4644 33.8569 35.4644H6.14307C5.25546 35.4644 4.53564 34.7446 4.53564 33.857V15.9576C4.53567 15.4203 4.80438 14.9187 5.25146 14.6207L19.1089 5.38239Z" stroke="#838383" stroke-width="2.5"/>
<path d="M20.0012 19.0716L20.0012 13.5001" stroke="#838383" stroke-width="2.5" stroke-linecap="round"/>
<path d="M24.3846 16.3625C25.5886 17.2923 26.4677 18.5714 26.8985 20.0204C27.3292 21.4693 27.29 23.0152 26.7862 24.4409C26.2825 25.8667 25.3396 27.1006 24.0899 27.9695C22.8402 28.8384 21.3466 29.2986 19.8188 29.2854C18.2909 29.2723 16.8056 28.7864 15.5715 27.8961C14.3374 27.0057 13.4164 25.7557 12.9379 24.3215C12.4594 22.8872 12.4475 21.3409 12.9037 19.8996C13.36 18.4584 14.2616 17.1946 15.4818 16.2857" stroke="#838383" stroke-width="2.5" stroke-linecap="round"/>
</svg>
