<svg width="40" height="40" viewBox="0 0 40 40" fill="none" xmlns="http://www.w3.org/2000/svg">
<path d="M29.3564 24.4115L28.4393 23.5621L29.3564 24.4115ZM31.5 15.75C31.5 18.7669 30.34 21.51 28.4393 23.5621L30.2735 25.2609C32.5853 22.7648 34 19.4212 34 15.75H31.5ZM20 4.25C26.3513 4.25 31.5 9.39873 31.5 15.75H34C34 8.01801 27.732 1.75 20 1.75V4.25ZM8.5 15.75C8.5 9.39873 13.6487 4.25 20 4.25V1.75C12.268 1.75 6 8.01801 6 15.75H8.5ZM11.5607 23.5621C9.66004 21.51 8.5 18.7669 8.5 15.75H6C6 19.4212 7.41474 22.7648 9.7265 25.2609L11.5607 23.5621ZM20 35.75C17.1695 35.75 14.875 33.4555 14.875 30.625H12.375C12.375 34.8362 15.7888 38.25 20 38.25V35.75ZM25.125 30.625C25.125 33.4555 22.8305 35.75 20 35.75V38.25C24.2112 38.25 27.625 34.8362 27.625 30.625H25.125ZM9.7265 25.2609C11.2735 26.9312 12.375 28.7362 12.375 30.625H14.875C14.875 27.7722 13.2356 25.3706 11.5607 23.5621L9.7265 25.2609ZM28.4393 23.5621C26.7644 25.3706 25.125 27.7722 25.125 30.625H27.625C27.625 28.7362 28.7265 26.9312 30.2735 25.2609L28.4393 23.5621Z" fill="#838383"/>
<path d="M14.6875 30.625H25.3125" stroke="#838383" stroke-width="2.5" stroke-linecap="round"/>
<path d="M16.8125 18.9375V21.0625C16.8125 22.8229 18.2396 24.25 20 24.25M23.1875 18.9375V21.0625C23.1875 22.8229 21.7604 24.25 20 24.25M20 29.5625V24.25" stroke="#838383" stroke-width="2.5" stroke-linecap="round"/>
</svg>
