<svg width="40" height="40" viewBox="0 0 40 40" fill="none" xmlns="http://www.w3.org/2000/svg">
<path d="M25.8344 31.7202C25.8344 34.1859 23.3358 36.1848 20.2536 36.1848C17.1714 36.1848 14.6729 34.1859 14.6729 31.7202" stroke="#838383" stroke-width="2.5" stroke-linecap="round" stroke-linejoin="round"/>
<path d="M20.2539 9.53021C22.6456 9.53037 24.584 11.4696 24.584 13.8613V17.0751H15.9229V13.8613C15.9229 11.4695 17.8621 9.53021 20.2539 9.53021Z" stroke="#838383" stroke-width="2.5"/>
<rect x="19.1406" y="3.81525" width="2.2323" height="6.69691" rx="1.11615" fill="#838383"/>
<path d="M23.1328 17.07C23.919 17.07 24.6918 17.2759 25.374 17.6667L34.7617 23.0427C35.6823 23.5699 36.25 24.5502 36.25 25.611C36.2499 27.2452 34.9252 28.5699 33.291 28.57H6.70898C5.07484 28.5699 3.75013 27.2452 3.75 25.611C3.75 24.5502 4.31772 23.5699 5.23828 23.0427L14.626 17.6667C15.3082 17.2759 16.081 17.07 16.8672 17.07H23.1328Z" stroke="#838383" stroke-width="2.5" stroke-linejoin="round"/>
</svg>
