<svg width="40" height="40" viewBox="0 0 40 40" fill="none" xmlns="http://www.w3.org/2000/svg">
<path d="M8.19336 32.584L8.19336 34.9445" stroke="#838383" stroke-width="2.5" stroke-linecap="round"/>
<path d="M31.7988 32.584L31.7988 34.9445" stroke="#838383" stroke-width="2.5" stroke-linecap="round"/>
<mask id="path-3-inside-1_14_3470" fill="white">
<path d="M1.11108 22.8859C1.11108 20.2677 3.23359 18.1452 5.85182 18.1452H34.1392C36.7574 18.1452 38.8799 20.2677 38.8799 22.8859V32.0675C38.8799 32.7221 38.3493 33.2527 37.6948 33.2527H2.29627C1.64171 33.2527 1.11108 32.7221 1.11108 32.0675V22.8859Z"/>
</mask>
<path d="M1.11108 22.8859C1.11108 20.2677 3.23359 18.1452 5.85182 18.1452H34.1392C36.7574 18.1452 38.8799 20.2677 38.8799 22.8859V32.0675C38.8799 32.7221 38.3493 33.2527 37.6948 33.2527H2.29627C1.64171 33.2527 1.11108 32.7221 1.11108 32.0675V22.8859Z" stroke="#838383" stroke-width="5" mask="url(#path-3-inside-1_14_3470)"/>
<path d="M10.7402 6.80556H29.251C32.4879 6.80565 35.1123 9.42994 35.1123 12.6669V19.413H4.87891V12.6669C4.87891 9.42988 7.50323 6.80556 10.7402 6.80556Z" stroke="#838383" stroke-width="2.5"/>
<path d="M22.292 11.8413H29.0293C30.3026 11.8413 31.335 12.8737 31.335 14.147V19.4126H19.9863V14.147C19.9863 12.8736 21.0187 11.8413 22.292 11.8413Z" stroke="#838383" stroke-width="2.5"/>
<path d="M10.9617 11.8414H17.699C18.9723 11.8414 20.0046 12.8737 20.0046 14.1471V19.4127H8.65601V14.1471C8.65601 12.8737 9.68835 11.8414 10.9617 11.8414Z" stroke="#838383" stroke-width="2.5"/>
<rect x="13.7004" y="25.6989" width="20.1434" height="2.51792" rx="1.25896" fill="#838383"/>
<rect x="6.14746" y="25.6992" width="5.03585" height="2.51792" rx="1.25896" fill="#838383"/>
</svg>
