<svg width="40" height="40" viewBox="0 0 40 40" fill="none" xmlns="http://www.w3.org/2000/svg">
<rect x="4.25" y="5.25" width="31.5" height="29.5" rx="1.60714" stroke="#838383" stroke-width="2.5"/>
<path d="M27.3874 14.7996L24.7949 12.2071C24.1649 11.5771 24.6111 10.5 25.502 10.5H30.6869C31.5778 10.5 32.024 11.5771 31.394 12.2071L28.8016 14.7996C28.4111 15.1901 27.7779 15.1901 27.3874 14.7996Z" fill="#838383"/>
<path d="M12.6126 10.2929L15.2051 12.8854C15.8351 13.5153 15.3889 14.5925 14.498 14.5925L9.31306 14.5925C8.42215 14.5925 7.97599 13.5153 8.60595 12.8854L11.1984 10.2929C11.5889 9.90237 12.2221 9.90237 12.6126 10.2929Z" fill="#838383"/>
<path d="M20 5.88232L20 34.1176" stroke="#838383" stroke-width="2.5" stroke-linecap="round"/>
</svg>
