<svg width="40" height="40" viewBox="0 0 40 40" fill="none" xmlns="http://www.w3.org/2000/svg">
<path d="M4 15.9885L6.85949 28.8562C7.26619 30.6864 8.88945 31.9885 10.7642 31.9885H29.2358C31.1106 31.9885 32.7338 30.6864 33.1405 28.8562L36 15.9885" stroke="#838383" stroke-width="2.5" stroke-linecap="round"/>
<path d="M6 21.9885L34 21.9885" stroke="#838383" stroke-width="2.5" stroke-linecap="round"/>
<path d="M11.8982 15.954L13.2179 14.0229C13.9137 13.0049 13.4569 11.5647 12.2518 10.977C11.0468 10.3892 10.59 8.94907 11.2857 7.93105L12.6054 6" stroke="#838383" stroke-width="2.5" stroke-linecap="round"/>
<path d="M19.6462 15.954L20.966 14.0229C21.6617 13.0049 21.2049 11.5647 19.9999 10.977C18.7948 10.3892 18.338 8.94907 19.0338 7.93105L20.3535 6" stroke="#838383" stroke-width="2.5" stroke-linecap="round"/>
<path d="M27.3945 15.954L28.7143 14.0229C29.41 13.0049 28.9532 11.5647 27.7481 10.977C26.5431 10.3892 26.0863 8.94907 26.782 7.93105L28.1018 6" stroke="#838383" stroke-width="2.5" stroke-linecap="round"/>
<path fill-rule="evenodd" clip-rule="evenodd" d="M10 31.9885C10.8284 31.9885 11.5 32.6601 11.5 33.4885L11.5 34.4885C11.5 35.3169 10.8284 35.9885 10 35.9885C9.17157 35.9885 8.5 35.3169 8.5 34.4885L8.5 33.4885C8.5 32.6601 9.17157 31.9885 10 31.9885Z" fill="#838383"/>
<path fill-rule="evenodd" clip-rule="evenodd" d="M30 31.9885C30.8284 31.9885 31.5 32.6601 31.5 33.4885L31.5 34.4885C31.5 35.3169 30.8284 35.9885 30 35.9885C29.1716 35.9885 28.5 35.3169 28.5 34.4885L28.5 33.4885C28.5 32.6601 29.1716 31.9885 30 31.9885Z" fill="#838383"/>
</svg>
