<svg width="40" height="40" viewBox="0 0 40 40" fill="none" xmlns="http://www.w3.org/2000/svg">
<path d="M8.8214 8.07363L7.72591 7.47163L8.8214 8.07363ZM37.1623 19.5003L36.0668 20.1023L37.1623 19.5003ZM30.8832 8.07363L29.7877 8.67562L30.8832 8.07363ZM2.54227 19.5003L1.44678 18.8983V18.8983L2.54227 19.5003ZM0.797852 21.4266V26H3.29785V21.4266H0.797852ZM7.72591 7.47163L1.44678 18.8983L3.63777 20.1023L9.9169 8.67562L7.72591 7.47163ZM18.8633 4.75H12.327V7.25H18.8633V4.75ZM18.8633 7.25H20.8413V4.75H18.8633V7.25ZM20.8413 7.25H27.3776V4.75H20.8413V7.25ZM29.7877 8.67562L36.0668 20.1023L38.2578 18.8983L31.9787 7.47163L29.7877 8.67562ZM36.4067 21.4266V26H38.9067V21.4266H36.4067ZM33.6567 28.75H20.8413V31.25H33.6567V28.75ZM20.8413 28.75H18.8633V31.25H20.8413V28.75ZM6.04785 31.25H18.8633V28.75H6.04785V31.25ZM36.4067 26C36.4067 27.5188 35.1755 28.75 33.6567 28.75V31.25C36.5562 31.25 38.9067 28.8995 38.9067 26H36.4067ZM9.9169 8.67562C10.4001 7.79636 11.3237 7.25 12.327 7.25V4.75C10.4117 4.75 8.64832 5.79305 7.72591 7.47163L9.9169 8.67562ZM36.0668 20.1023C36.2898 20.5081 36.4067 20.9636 36.4067 21.4266H38.9067C38.9067 20.5427 38.6835 19.673 38.2578 18.8983L36.0668 20.1023ZM0.797852 26C0.797852 28.8995 3.14836 31.25 6.04785 31.25V28.75C4.52907 28.75 3.29785 27.5188 3.29785 26H0.797852ZM27.3776 7.25C28.3809 7.25 29.3045 7.79636 29.7877 8.67562L31.9787 7.47163C31.0563 5.79305 29.2929 4.75 27.3776 4.75V7.25ZM3.29785 21.4266C3.29785 20.9636 3.41477 20.5081 3.63777 20.1023L1.44678 18.8983C1.02106 19.673 0.797852 20.5427 0.797852 21.4266H3.29785Z" fill="#838383"/>
<path d="M10.1021 30L13.206 25.6697C13.9572 24.6216 15.1676 24 16.4571 24H24.1756C25.4651 24 26.6754 24.6216 27.4267 25.6697L30.5306 30" stroke="#838383" stroke-width="2.5" stroke-linecap="round" stroke-linejoin="round"/>
<path d="M6 30V32C6 33.1046 6.89543 34 8 34C9.10457 34 10 33.1046 10 32V30" stroke="#838383" stroke-width="2.5" stroke-linecap="round" stroke-linejoin="round"/>
<path d="M30 30V32C30 33.1046 30.8954 34 32 34C33.1046 34 34 33.1046 34 32V30" stroke="#838383" stroke-width="2.5" stroke-linecap="round" stroke-linejoin="round"/>
<path d="M2 13H2.34265C2.97565 13 3.57129 13.2997 3.94858 13.8079L4.2337 14.1921C4.61098 14.7003 5.20662 15 5.83962 15H33.7438C34.2594 15 34.755 14.8009 35.1273 14.4443L36.055 13.5557C36.4273 13.1991 36.9229 13 37.4384 13H38" stroke="#838383" stroke-width="2.5" stroke-linecap="round" stroke-linejoin="round"/>
<path d="M3 22H9" stroke="#838383" stroke-width="2.5" stroke-linecap="round" stroke-linejoin="round"/>
<path d="M30.5 22H36.5" stroke="#838383" stroke-width="2.5" stroke-linecap="round" stroke-linejoin="round"/>
</svg>
