<svg width="40" height="40" viewBox="0 0 40 40" fill="none" xmlns="http://www.w3.org/2000/svg">
<path d="M31 4.75C32.7949 4.75 34.25 6.20508 34.25 8V32C34.25 33.7949 32.7949 35.25 31 35.25H9C7.20507 35.25 5.75 33.7949 5.75 32V8C5.75 6.20507 7.20508 4.75 9 4.75H31Z" stroke="#838383" stroke-width="2.5" stroke-linejoin="round"/>
<path d="M19.9333 11.25C22.0044 11.25 23.6833 12.9289 23.6833 15C23.6833 17.0711 22.0044 18.75 19.9333 18.75C17.8623 18.75 16.1833 17.0711 16.1833 15C16.1833 12.9289 17.8623 11.25 19.9333 11.25Z" stroke="#838383" stroke-width="2.5"/>
<path d="M28 28C28 22.9505 24.4183 20 20 20C15.5817 20 12 22.9505 12 28" stroke="#838383" stroke-width="2.5" stroke-linecap="round"/>
<path d="M7 28H33" stroke="#838383" stroke-width="2.5" stroke-linecap="round"/>
</svg>
