<svg width="40" height="40" viewBox="0 0 40 40" fill="none" xmlns="http://www.w3.org/2000/svg">
<path d="M10 15.2875C10 14.684 10.2725 14.1127 10.7416 13.733L20.7416 5.63775C22.0492 4.57919 24 5.50984 24 7.19224V32.8078C24 34.4902 22.0492 35.4208 20.7416 34.3623L10.7416 26.267C10.2725 25.8873 10 25.316 10 24.7125V15.2875Z" stroke="#838383" stroke-width="2.5" stroke-linecap="round"/>
<path d="M4 15.625C4 14.5204 4.89543 13.625 6 13.625H10V26.375H6C4.89543 26.375 4 25.4796 4 24.375V15.625Z" stroke="#838383" stroke-width="2.5" stroke-linecap="round"/>
<path d="M34 12C36.443 14.0176 38 17.0698 38 20.4857C38 23.9015 36.443 26.9538 34 28.9714" stroke="#838383" stroke-width="2.5" stroke-linecap="round"/>
<path d="M30 26.143C31.2508 24.5973 32 22.629 32 20.4857C32 18.3424 31.2508 16.3741 30 14.8283" stroke="#838383" stroke-width="2.5" stroke-linecap="round"/>
</svg>
